  0
SECTION
  2
HEADER
  9
$ACADVER
  1
AC1009
  9
$FILLMODE
 70
0
  9
$EXTMIN
 10
-8.9220
 20
-5.5650
 30
0.0000
  9
$EXTMAX
 10
91.4850
 20
44.9220
 30
0.0000
  0
ENDSEC
  0
SECTION
  2
TABLES
  0
TABLE
  2
LTYPE
 70
1
  0
LTYPE
  2
CONTINUOUS
 70
64
  3
Solid line
 72
65
 73
0
 40
0
  0
ENDTAB
  0
TABLE
  2
LAYER
 70
255
  0
LAYER
  2
19
 70
64
 62
53
  6
CONTINUOUS
  0
LAYER
  2
20
 70
64
 62
7
  6
CONTINUOUS
  0
LAYER
  2
21
 70
64
 62
253
  6
CONTINUOUS
  0
LAYER
  2
22
 70
64
 62
253
  6
CONTINUOUS
  0
LAYER
  2
23
 70
64
 62
7
  6
CONTINUOUS
  0
LAYER
  2
24
 70
64
 62
7
  6
CONTINUOUS
  0
LAYER
  2
45
 70
64
 62
253
  6
CONTINUOUS
  0
LAYER
  2
51
 70
64
 62
253
  6
CONTINUOUS
  0
ENDTAB
  0
ENDSEC
  0
SECTION
  2
BLOCKS
  0
BLOCK
  8
0
  2
RECT
 70
64
 10
0.0000
 20
0.0000
 30
0.0000
  3
RECT
  0
SOLID
  8
0
 10
-0.5000
 20
-0.5000
 30
0.0000
 11
0.5000
 21
-0.5000
 31
0.0000
 12
-0.5000
 22
0.5000
 32
0.0000
 13
0.5000
 23
0.5000
 33
0.0000
  0
ENDBLK
  8
0
  0
BLOCK
  8
0
  2
PIE
 70
64
 10
0.0000
 20
0.0000
 30
0.0000
  3
PIE
  0
CIRCLE
  8
0
 10
0.0000
 20
0.0000
 30
0.0000
 40
0.5000
  0
ENDBLK
  8
0
  0
BLOCK
  8
0
  2
OCTAGONP
 70
64
 10
0.0000
 20
0.0000
 30
0.0000
  3
OCTAGONP
  0
POLYLINE
  8
0
 66
1
 10
0.0000
 20
0.0000
 30
0.0000
 40
0.0000
 41
0.0000
 70
1
  0
VERTEX
  8
0
 10
-0.5000
 20
-0.2071
 30
0.0000
  0
VERTEX
  8
0
 10
-0.5000
 20
0.2071
 30
0.0000
  0
VERTEX
  8
0
 10
-0.2071
 20
0.5000
 30
0.0000
  0
VERTEX
  8
0
 10
0.2071
 20
0.5000
 30
0.0000
  0
VERTEX
  8
0
 10
0.5000
 20
0.2071
 30
0.0000
  0
VERTEX
  8
0
 10
0.5000
 20
-0.2071
 30
0.0000
  0
VERTEX
  8
0
 10
0.2071
 20
-0.5000
 30
0.0000
  0
VERTEX
  8
0
 10
-0.2071
 20
-0.5000
 30
0.0000
  0
SEQEND
  8
0
  0
ENDBLK
  8
0
  0
BLOCK
  8
0
  2
SQUAREP
 70
64
 10
0.0000
 20
0.0000
 30
0.0000
  3
SQUAREP
  0
SOLID
  8
0
 10
-0.5000
 20
-0.5000
 30
0.0000
 11
0.5000
 21
-0.5000
 31
0.0000
 12
-0.5000
 22
0.5000
 32
0.0000
 13
0.5000
 23
0.5000
 33
0.0000
  0
ENDBLK
  8
0
  0
BLOCK
  8
0
  2
ROUNDP
 70
64
 10
0.0000
 20
0.0000
 30
0.0000
  3
ROUNDP
  0
CIRCLE
  8
0
 10
0.0000
 20
0.0000
 30
0.0000
 40
0.5000
  0
ENDBLK
  8
0
  0
BLOCK
  8
0
  2
ANNULUSP
 70
64
 10
0.0000
 20
0.0000
 30
0.0000
  3
ANNULUSP
  0
CIRCLE
  8
0
 10
0.0000
 20
0.0000
 30
0.0000
 40
0.5000
  0
ENDBLK
  8
0
  0
BLOCK
  8
0
  2
THERMALP
 70
64
 10
0.0000
 20
0.0000
 30
0.0000
  3
THERMALP
  0
LINE
  8
0
 10
-0.2379
 20
0.4500
 30
0.0000
 11
0.2379
 21
0.4500
 31
0.0000
  0
LINE
  8
0
 10
0.4500
 20
0.2379
 30
0.0000
 11
0.4500
 21
-0.2379
 31
0.0000
  0
LINE
  8
0
 10
0.2379
 20
-0.4500
 30
0.0000
 11
-0.2379
 21
-0.4500
 31
0.0000
  0
LINE
  8
0
 10
-0.4500
 20
-0.2379
 30
0.0000
 11
-0.4500
 21
0.2379
 31
0.0000
  0
ENDBLK
  8
0
  0
BLOCK
  8
0
  2
OCTAGONV
 70
64
 10
0.0000
 20
0.0000
 30
0.0000
  3
OCTAGONV
  0
POLYLINE
  8
0
 66
1
 10
0.0000
 20
0.0000
 30
0.0000
 40
0.0000
 41
0.0000
 70
1
  0
VERTEX
  8
0
 10
-0.5000
 20
-0.2071
 30
0.0000
  0
VERTEX
  8
0
 10
-0.5000
 20
0.2071
 30
0.0000
  0
VERTEX
  8
0
 10
-0.2071
 20
0.5000
 30
0.0000
  0
VERTEX
  8
0
 10
0.2071
 20
0.5000
 30
0.0000
  0
VERTEX
  8
0
 10
0.5000
 20
0.2071
 30
0.0000
  0
VERTEX
  8
0
 10
0.5000
 20
-0.2071
 30
0.0000
  0
VERTEX
  8
0
 10
0.2071
 20
-0.5000
 30
0.0000
  0
VERTEX
  8
0
 10
-0.2071
 20
-0.5000
 30
0.0000
  0
SEQEND
  8
0
  0
ENDBLK
  8
0
  0
BLOCK
  8
0
  2
SQUAREV
 70
64
 10
0.0000
 20
0.0000
 30
0.0000
  3
SQUAREV
  0
SOLID
  8
0
 10
-0.5000
 20
-0.5000
 30
0.0000
 11
0.5000
 21
-0.5000
 31
0.0000
 12
-0.5000
 22
0.5000
 32
0.0000
 13
0.5000
 23
0.5000
 33
0.0000
  0
ENDBLK
  8
0
  0
BLOCK
  8
0
  2
ROUNDV
 70
64
 10
0.0000
 20
0.0000
 30
0.0000
  3
ROUNDV
  0
CIRCLE
  8
0
 10
0.0000
 20
0.0000
 30
0.0000
 40
0.5000
  0
ENDBLK
  8
0
  0
BLOCK
  8
0
  2
ANNULUSV
 70
64
 10
0.0000
 20
0.0000
 30
0.0000
  3
ANNULUSV
  0
CIRCLE
  8
0
 10
0.0000
 20
0.0000
 30
0.0000
 40
0.5000
  0
ENDBLK
  8
0
  0
BLOCK
  8
0
  2
THERMALV
 70
64
 10
0.0000
 20
0.0000
 30
0.0000
  3
THERMALV
  0
LINE
  8
0
 10
-0.2379
 20
0.4500
 30
0.0000
 11
0.2379
 21
0.4500
 31
0.0000
  0
LINE
  8
0
 10
0.4500
 20
0.2379
 30
0.0000
 11
0.4500
 21
-0.2379
 31
0.0000
  0
LINE
  8
0
 10
0.2379
 20
-0.4500
 30
0.0000
 11
-0.2379
 21
-0.4500
 31
0.0000
  0
LINE
  8
0
 10
-0.4500
 20
-0.2379
 30
0.0000
 11
-0.4500
 21
0.2379
 31
0.0000
  0
ENDBLK
  8
0
  0
ENDSEC
  0
SECTION
  2
ENTITIES
  0
LINE
  8
20
 10
0.0000
 20
37.0000
 30
0.0000
 11
0.0000
 21
6.0000
 31
0.0000
  0
ARC
  8
20
 10
6.0000
 20
6.0000
 30
0.0000
 40
6.0000
 50
180.0000
 51
270.0000
  0
LINE
  8
20
 10
6.0000
 20
0.0000
 30
0.0000
 11
77.0000
 21
0.0000
 31
0.0000
  0
ARC
  8
20
 10
77.0000
 20
6.0000
 30
0.0000
 40
6.0000
 50
270.0000
 51
0.0000
  0
LINE
  8
20
 10
83.0000
 20
6.0000
 30
0.0000
 11
83.0000
 21
37.0000
 31
0.0000
  0
ARC
  8
20
 10
77.0000
 20
37.0000
 30
0.0000
 40
6.0000
 50
0.0000
 51
90.0000
  0
LINE
  8
20
 10
77.0000
 20
43.0000
 30
0.0000
 11
6.0000
 21
43.0000
 31
0.0000
  0
ARC
  8
20
 10
6.0000
 20
37.0000
 30
0.0000
 40
6.0000
 50
90.0000
 51
180.0000
  0
POINT
  8
23
 10
14.0000
 20
34.0000
 30
0.0000
  0
LINE
  8
21
 10
13.3650
 20
35.2700
 30
0.0000
 11
14.6350
 21
35.2700
 31
0.0000
  0
LINE
  8
21
 10
14.6350
 20
35.2700
 30
0.0000
 11
15.2700
 21
34.6350
 31
0.0000
  0
LINE
  8
21
 10
15.2700
 20
33.3650
 30
0.0000
 11
14.6350
 21
32.7300
 31
0.0000
  0
LINE
  8
21
 10
15.2700
 20
34.6350
 30
0.0000
 11
15.9050
 21
35.2700
 31
0.0000
  0
LINE
  8
21
 10
15.9050
 20
35.2700
 30
0.0000
 11
17.1750
 21
35.2700
 31
0.0000
  0
LINE
  8
21
 10
17.1750
 20
35.2700
 30
0.0000
 11
17.8100
 21
34.6350
 31
0.0000
  0
LINE
  8
21
 10
17.8100
 20
33.3650
 30
0.0000
 11
17.1750
 21
32.7300
 31
0.0000
  0
LINE
  8
21
 10
17.1750
 20
32.7300
 30
0.0000
 11
15.9050
 21
32.7300
 31
0.0000
  0
LINE
  8
21
 10
15.9050
 20
32.7300
 30
0.0000
 11
15.2700
 21
33.3650
 31
0.0000
  0
LINE
  8
21
 10
12.7300
 20
34.6350
 30
0.0000
 11
12.7300
 21
33.3650
 31
0.0000
  0
LINE
  8
21
 10
13.3650
 20
35.2700
 30
0.0000
 11
12.7300
 21
34.6350
 31
0.0000
  0
LINE
  8
21
 10
12.7300
 20
33.3650
 30
0.0000
 11
13.3650
 21
32.7300
 31
0.0000
  0
LINE
  8
21
 10
14.6350
 20
32.7300
 30
0.0000
 11
13.3650
 21
32.7300
 31
0.0000
  0
LINE
  8
21
 10
17.8100
 20
34.6350
 30
0.0000
 11
17.8100
 21
33.3650
 31
0.0000
  0
LINE
  8
21
 10
14.0000
 20
34.0000
 30
0.0000
 11
14.0000
 21
41.6200
 31
0.0000
  0
LINE
  8
21
 10
16.5400
 20
34.0000
 30
0.0000
 11
16.5400
 21
41.6200
 31
0.0000
  0
INSERT
  8
51
  2
RECT
 10
16.5400
 20
34.0000
 30
0.0000
 41
0.5080
 42
0.5080
 43
1.0000
 50
0.0000
  0
INSERT
  8
51
  2
RECT
 10
14.0000
 20
34.0000
 30
0.0000
 41
0.5080
 42
0.5080
 43
1.0000
 50
0.0000
  0
POINT
  8
23
 10
33.0000
 20
34.0000
 30
0.0000
  0
LINE
  8
21
 10
32.3650
 20
35.2700
 30
0.0000
 11
33.6350
 21
35.2700
 31
0.0000
  0
LINE
  8
21
 10
33.6350
 20
35.2700
 30
0.0000
 11
34.2700
 21
34.6350
 31
0.0000
  0
LINE
  8
21
 10
34.2700
 20
33.3650
 30
0.0000
 11
33.6350
 21
32.7300
 31
0.0000
  0
LINE
  8
21
 10
34.2700
 20
34.6350
 30
0.0000
 11
34.9050
 21
35.2700
 31
0.0000
  0
LINE
  8
21
 10
34.9050
 20
35.2700
 30
0.0000
 11
36.1750
 21
35.2700
 31
0.0000
  0
LINE
  8
21
 10
36.1750
 20
35.2700
 30
0.0000
 11
36.8100
 21
34.6350
 31
0.0000
  0
LINE
  8
21
 10
36.8100
 20
33.3650
 30
0.0000
 11
36.1750
 21
32.7300
 31
0.0000
  0
LINE
  8
21
 10
36.1750
 20
32.7300
 30
0.0000
 11
34.9050
 21
32.7300
 31
0.0000
  0
LINE
  8
21
 10
34.9050
 20
32.7300
 30
0.0000
 11
34.2700
 21
33.3650
 31
0.0000
  0
LINE
  8
21
 10
31.7300
 20
34.6350
 30
0.0000
 11
31.7300
 21
33.3650
 31
0.0000
  0
LINE
  8
21
 10
32.3650
 20
35.2700
 30
0.0000
 11
31.7300
 21
34.6350
 31
0.0000
  0
LINE
  8
21
 10
31.7300
 20
33.3650
 30
0.0000
 11
32.3650
 21
32.7300
 31
0.0000
  0
LINE
  8
21
 10
33.6350
 20
32.7300
 30
0.0000
 11
32.3650
 21
32.7300
 31
0.0000
  0
LINE
  8
21
 10
36.8100
 20
34.6350
 30
0.0000
 11
36.8100
 21
33.3650
 31
0.0000
  0
LINE
  8
21
 10
33.0000
 20
34.0000
 30
0.0000
 11
33.0000
 21
41.6200
 31
0.0000
  0
LINE
  8
21
 10
35.5400
 20
34.0000
 30
0.0000
 11
35.5400
 21
41.6200
 31
0.0000
  0
INSERT
  8
51
  2
RECT
 10
35.5400
 20
34.0000
 30
0.0000
 41
0.5080
 42
0.5080
 43
1.0000
 50
0.0000
  0
INSERT
  8
51
  2
RECT
 10
33.0000
 20
34.0000
 30
0.0000
 41
0.5080
 42
0.5080
 43
1.0000
 50
0.0000
  0
POINT
  8
23
 10
52.0000
 20
34.0000
 30
0.0000
  0
LINE
  8
21
 10
51.3650
 20
35.2700
 30
0.0000
 11
52.6350
 21
35.2700
 31
0.0000
  0
LINE
  8
21
 10
52.6350
 20
35.2700
 30
0.0000
 11
53.2700
 21
34.6350
 31
0.0000
  0
LINE
  8
21
 10
53.2700
 20
33.3650
 30
0.0000
 11
52.6350
 21
32.7300
 31
0.0000
  0
LINE
  8
21
 10
53.2700
 20
34.6350
 30
0.0000
 11
53.9050
 21
35.2700
 31
0.0000
  0
LINE
  8
21
 10
53.9050
 20
35.2700
 30
0.0000
 11
55.1750
 21
35.2700
 31
0.0000
  0
LINE
  8
21
 10
55.1750
 20
35.2700
 30
0.0000
 11
55.8100
 21
34.6350
 31
0.0000
  0
LINE
  8
21
 10
55.8100
 20
33.3650
 30
0.0000
 11
55.1750
 21
32.7300
 31
0.0000
  0
LINE
  8
21
 10
55.1750
 20
32.7300
 30
0.0000
 11
53.9050
 21
32.7300
 31
0.0000
  0
LINE
  8
21
 10
53.9050
 20
32.7300
 30
0.0000
 11
53.2700
 21
33.3650
 31
0.0000
  0
LINE
  8
21
 10
50.7300
 20
34.6350
 30
0.0000
 11
50.7300
 21
33.3650
 31
0.0000
  0
LINE
  8
21
 10
51.3650
 20
35.2700
 30
0.0000
 11
50.7300
 21
34.6350
 31
0.0000
  0
LINE
  8
21
 10
50.7300
 20
33.3650
 30
0.0000
 11
51.3650
 21
32.7300
 31
0.0000
  0
LINE
  8
21
 10
52.6350
 20
32.7300
 30
0.0000
 11
51.3650
 21
32.7300
 31
0.0000
  0
LINE
  8
21
 10
55.8100
 20
34.6350
 30
0.0000
 11
55.8100
 21
33.3650
 31
0.0000
  0
LINE
  8
21
 10
52.0000
 20
34.0000
 30
0.0000
 11
52.0000
 21
41.6200
 31
0.0000
  0
LINE
  8
21
 10
54.5400
 20
34.0000
 30
0.0000
 11
54.5400
 21
41.6200
 31
0.0000
  0
INSERT
  8
51
  2
RECT
 10
54.5400
 20
34.0000
 30
0.0000
 41
0.5080
 42
0.5080
 43
1.0000
 50
0.0000
  0
INSERT
  8
51
  2
RECT
 10
52.0000
 20
34.0000
 30
0.0000
 41
0.5080
 42
0.5080
 43
1.0000
 50
0.0000
  0
POINT
  8
23
 10
71.0000
 20
34.0000
 30
0.0000
  0
LINE
  8
21
 10
70.3650
 20
35.2700
 30
0.0000
 11
71.6350
 21
35.2700
 31
0.0000
  0
LINE
  8
21
 10
71.6350
 20
35.2700
 30
0.0000
 11
72.2700
 21
34.6350
 31
0.0000
  0
LINE
  8
21
 10
72.2700
 20
33.3650
 30
0.0000
 11
71.6350
 21
32.7300
 31
0.0000
  0
LINE
  8
21
 10
72.2700
 20
34.6350
 30
0.0000
 11
72.9050
 21
35.2700
 31
0.0000
  0
LINE
  8
21
 10
72.9050
 20
35.2700
 30
0.0000
 11
74.1750
 21
35.2700
 31
0.0000
  0
LINE
  8
21
 10
74.1750
 20
35.2700
 30
0.0000
 11
74.8100
 21
34.6350
 31
0.0000
  0
LINE
  8
21
 10
74.8100
 20
33.3650
 30
0.0000
 11
74.1750
 21
32.7300
 31
0.0000
  0
LINE
  8
21
 10
74.1750
 20
32.7300
 30
0.0000
 11
72.9050
 21
32.7300
 31
0.0000
  0
LINE
  8
21
 10
72.9050
 20
32.7300
 30
0.0000
 11
72.2700
 21
33.3650
 31
0.0000
  0
LINE
  8
21
 10
69.7300
 20
34.6350
 30
0.0000
 11
69.7300
 21
33.3650
 31
0.0000
  0
LINE
  8
21
 10
70.3650
 20
35.2700
 30
0.0000
 11
69.7300
 21
34.6350
 31
0.0000
  0
LINE
  8
21
 10
69.7300
 20
33.3650
 30
0.0000
 11
70.3650
 21
32.7300
 31
0.0000
  0
LINE
  8
21
 10
71.6350
 20
32.7300
 30
0.0000
 11
70.3650
 21
32.7300
 31
0.0000
  0
LINE
  8
21
 10
74.8100
 20
34.6350
 30
0.0000
 11
74.8100
 21
33.3650
 31
0.0000
  0
LINE
  8
21
 10
71.0000
 20
34.0000
 30
0.0000
 11
71.0000
 21
41.6200
 31
0.0000
  0
LINE
  8
21
 10
73.5400
 20
34.0000
 30
0.0000
 11
73.5400
 21
41.6200
 31
0.0000
  0
INSERT
  8
51
  2
RECT
 10
73.5400
 20
34.0000
 30
0.0000
 41
0.5080
 42
0.5080
 43
1.0000
 50
0.0000
  0
INSERT
  8
51
  2
RECT
 10
71.0000
 20
34.0000
 30
0.0000
 41
0.5080
 42
0.5080
 43
1.0000
 50
0.0000
  0
POINT
  8
23
 10
2.0000
 20
17.0000
 30
0.0000
  0
LINE
  8
21
 10
1.3650
 20
18.2700
 30
0.0000
 11
2.6350
 21
18.2700
 31
0.0000
  0
LINE
  8
21
 10
2.6350
 20
18.2700
 30
0.0000
 11
3.2700
 21
17.6350
 31
0.0000
  0
LINE
  8
21
 10
3.2700
 20
16.3650
 30
0.0000
 11
2.6350
 21
15.7300
 31
0.0000
  0
LINE
  8
21
 10
3.2700
 20
17.6350
 30
0.0000
 11
3.9050
 21
18.2700
 31
0.0000
  0
LINE
  8
21
 10
3.9050
 20
18.2700
 30
0.0000
 11
5.1750
 21
18.2700
 31
0.0000
  0
LINE
  8
21
 10
5.1750
 20
18.2700
 30
0.0000
 11
5.8100
 21
17.6350
 31
0.0000
  0
LINE
  8
21
 10
5.8100
 20
16.3650
 30
0.0000
 11
5.1750
 21
15.7300
 31
0.0000
  0
LINE
  8
21
 10
5.1750
 20
15.7300
 30
0.0000
 11
3.9050
 21
15.7300
 31
0.0000
  0
LINE
  8
21
 10
3.9050
 20
15.7300
 30
0.0000
 11
3.2700
 21
16.3650
 31
0.0000
  0
LINE
  8
21
 10
0.7300
 20
17.6350
 30
0.0000
 11
0.7300
 21
16.3650
 31
0.0000
  0
LINE
  8
21
 10
1.3650
 20
18.2700
 30
0.0000
 11
0.7300
 21
17.6350
 31
0.0000
  0
LINE
  8
21
 10
0.7300
 20
16.3650
 30
0.0000
 11
1.3650
 21
15.7300
 31
0.0000
  0
LINE
  8
21
 10
2.6350
 20
15.7300
 30
0.0000
 11
1.3650
 21
15.7300
 31
0.0000
  0
LINE
  8
21
 10
5.8100
 20
17.6350
 30
0.0000
 11
5.8100
 21
16.3650
 31
0.0000
  0
LINE
  8
21
 10
2.0000
 20
17.0000
 30
0.0000
 11
2.0000
 21
24.6200
 31
0.0000
  0
LINE
  8
21
 10
4.5400
 20
17.0000
 30
0.0000
 11
4.5400
 21
24.6200
 31
0.0000
  0
INSERT
  8
51
  2
RECT
 10
4.5400
 20
17.0000
 30
0.0000
 41
0.5080
 42
0.5080
 43
1.0000
 50
0.0000
  0
INSERT
  8
51
  2
RECT
 10
2.0000
 20
17.0000
 30
0.0000
 41
0.5080
 42
0.5080
 43
1.0000
 50
0.0000
  0
POINT
  8
23
 10
15.0000
 20
19.0000
 30
0.0000
  0
LINE
  8
21
 10
6.3640
 20
5.0300
 30
0.0000
 11
6.3640
 21
32.9700
 31
0.0000
  0
LINE
  8
21
 10
23.6360
 20
32.9700
 30
0.0000
 11
23.6360
 21
5.0300
 31
0.0000
  0
LINE
  8
21
 10
6.3640
 20
5.0300
 30
0.0000
 11
10.9360
 21
5.0300
 31
0.0000
  0
LINE
  8
21
 10
23.6360
 20
5.0300
 30
0.0000
 11
19.0640
 21
5.0300
 31
0.0000
  0
LINE
  8
21
 10
10.9360
 20
4.3950
 30
0.0000
 11
10.9360
 21
5.0300
 31
0.0000
  0
LINE
  8
21
 10
19.0640
 20
4.3950
 30
0.0000
 11
19.0640
 21
5.0300
 31
0.0000
  0
LINE
  8
21
 10
19.0640
 20
5.0300
 30
0.0000
 11
19.0640
 21
10.8720
 31
0.0000
  0
LINE
  8
21
 10
10.9360
 20
4.3950
 30
0.0000
 11
19.0640
 21
4.3950
 31
0.0000
  0
LINE
  8
21
 10
10.9360
 20
10.8720
 30
0.0000
 11
19.0640
 21
10.8720
 31
0.0000
  0
LINE
  8
21
 10
6.3640
 20
32.9700
 30
0.0000
 11
8.6500
 21
32.9700
 31
0.0000
  0
LINE
  8
21
 10
8.6500
 20
32.9700
 30
0.0000
 11
8.6500
 21
31.7000
 31
0.0000
  0
LINE
  8
21
 10
8.6500
 20
31.7000
 30
0.0000
 11
21.3500
 21
31.7000
 31
0.0000
  0
LINE
  8
21
 10
21.3500
 20
31.7000
 30
0.0000
 11
21.3500
 21
32.9700
 31
0.0000
  0
LINE
  8
21
 10
21.3500
 20
32.9700
 30
0.0000
 11
23.6360
 21
32.9700
 31
0.0000
  0
LINE
  8
21
 10
10.9360
 20
5.0300
 30
0.0000
 11
10.9360
 21
10.8720
 31
0.0000
  0
LINE
  8
21
 10
8.5992
 20
9.5258
 30
0.0000
 11
8.5992
 21
9.9156
 31
0.0000
  0
LINE
  8
21
 10
8.5992
 20
9.7207
 30
0.0000
 11
7.4298
 21
9.7207
 31
0.0000
  0
LINE
  8
21
 10
7.4298
 20
9.5258
 30
0.0000
 11
7.4298
 21
9.9156
 31
0.0000
  0
LINE
  8
21
 10
8.5992
 20
10.3054
 30
0.0000
 11
7.4298
 21
10.3054
 31
0.0000
  0
LINE
  8
21
 10
7.4298
 20
10.3054
 30
0.0000
 11
8.5992
 21
11.0850
 31
0.0000
  0
LINE
  8
21
 10
8.5992
 20
11.0850
 30
0.0000
 11
7.4298
 21
11.0850
 31
0.0000
  0
LINE
  8
21
 10
8.0145
 20
11.4748
 30
0.0000
 11
8.0145
 21
12.2544
 31
0.0000
  0
LINE
  8
21
 10
7.6247
 20
11.8646
 30
0.0000
 11
8.4043
 21
11.8646
 31
0.0000
  0
LINE
  8
21
 10
22.5692
 20
9.5258
 30
0.0000
 11
22.5692
 21
9.9156
 31
0.0000
  0
LINE
  8
21
 10
22.5692
 20
9.7207
 30
0.0000
 11
21.3998
 21
9.7207
 31
0.0000
  0
LINE
  8
21
 10
21.3998
 20
9.5258
 30
0.0000
 11
21.3998
 21
9.9156
 31
0.0000
  0
LINE
  8
21
 10
22.5692
 20
10.3054
 30
0.0000
 11
21.3998
 21
10.3054
 31
0.0000
  0
LINE
  8
21
 10
21.3998
 20
10.3054
 30
0.0000
 11
22.5692
 21
11.0850
 31
0.0000
  0
LINE
  8
21
 10
22.5692
 20
11.0850
 30
0.0000
 11
21.3998
 21
11.0850
 31
0.0000
  0
LINE
  8
21
 10
21.9845
 20
11.4748
 30
0.0000
 11
21.9845
 21
12.2544
 31
0.0000
  0
LINE
  8
21
 10
11.7742
 20
24.9670
 30
0.0000
 11
10.6048
 21
24.9670
 31
0.0000
  0
LINE
  8
21
 10
10.6048
 20
24.9670
 30
0.0000
 11
10.6048
 21
25.5517
 31
0.0000
  0
LINE
  8
21
 10
10.6048
 20
25.5517
 30
0.0000
 11
10.7997
 21
25.7466
 31
0.0000
  0
LINE
  8
21
 10
10.7997
 20
25.7466
 30
0.0000
 11
10.9946
 21
25.7466
 31
0.0000
  0
LINE
  8
21
 10
10.9946
 20
25.7466
 30
0.0000
 11
11.1895
 21
25.5517
 31
0.0000
  0
LINE
  8
21
 10
11.1895
 20
25.5517
 30
0.0000
 11
11.3844
 21
25.7466
 31
0.0000
  0
LINE
  8
21
 10
11.3844
 20
25.7466
 30
0.0000
 11
11.5793
 21
25.7466
 31
0.0000
  0
LINE
  8
21
 10
11.5793
 20
25.7466
 30
0.0000
 11
11.7742
 21
25.5517
 31
0.0000
  0
LINE
  8
21
 10
11.7742
 20
25.5517
 30
0.0000
 11
11.7742
 21
24.9670
 31
0.0000
  0
LINE
  8
21
 10
11.1895
 20
24.9670
 30
0.0000
 11
11.1895
 21
25.5517
 31
0.0000
  0
LINE
  8
21
 10
11.1895
 20
26.1364
 30
0.0000
 11
11.1895
 21
26.9160
 31
0.0000
  0
LINE
  8
21
 10
10.7997
 20
26.5262
 30
0.0000
 11
11.5793
 21
26.5262
 31
0.0000
  0
LINE
  8
21
 10
19.3942
 20
24.9670
 30
0.0000
 11
18.2248
 21
24.9670
 31
0.0000
  0
LINE
  8
21
 10
18.2248
 20
24.9670
 30
0.0000
 11
18.2248
 21
25.5517
 31
0.0000
  0
LINE
  8
21
 10
18.2248
 20
25.5517
 30
0.0000
 11
18.4197
 21
25.7466
 31
0.0000
  0
LINE
  8
21
 10
18.4197
 20
25.7466
 30
0.0000
 11
18.6146
 21
25.7466
 31
0.0000
  0
LINE
  8
21
 10
18.6146
 20
25.7466
 30
0.0000
 11
18.8095
 21
25.5517
 31
0.0000
  0
LINE
  8
21
 10
18.8095
 20
25.5517
 30
0.0000
 11
19.0044
 21
25.7466
 31
0.0000
  0
LINE
  8
21
 10
19.0044
 20
25.7466
 30
0.0000
 11
19.1993
 21
25.7466
 31
0.0000
  0
LINE
  8
21
 10
19.1993
 20
25.7466
 30
0.0000
 11
19.3942
 21
25.5517
 31
0.0000
  0
LINE
  8
21
 10
19.3942
 20
25.5517
 30
0.0000
 11
19.3942
 21
24.9670
 31
0.0000
  0
LINE
  8
21
 10
18.8095
 20
24.9670
 30
0.0000
 11
18.8095
 21
25.5517
 31
0.0000
  0
LINE
  8
21
 10
18.8095
 20
26.1364
 30
0.0000
 11
18.8095
 21
26.9160
 31
0.0000
  0
LINE
  8
21
 10
14.1858
 20
5.1905
 30
0.0000
 11
15.5416
 21
5.1905
 31
0.0000
  0
LINE
  8
21
 10
15.5416
 20
5.1905
 30
0.0000
 11
15.8128
 21
5.4616
 31
0.0000
  0
LINE
  8
21
 10
15.8128
 20
5.4616
 30
0.0000
 11
15.8128
 21
6.0040
 31
0.0000
  0
LINE
  8
21
 10
15.8128
 20
6.0040
 30
0.0000
 11
15.5416
 21
6.2751
 31
0.0000
  0
LINE
  8
21
 10
15.5416
 20
6.2751
 30
0.0000
 11
14.1858
 21
6.2751
 31
0.0000
  0
LINE
  8
21
 10
14.4570
 20
7.9123
 30
0.0000
 11
14.1858
 21
7.6411
 31
0.0000
  0
LINE
  8
21
 10
14.1858
 20
7.6411
 30
0.0000
 11
14.1858
 21
7.0988
 31
0.0000
  0
LINE
  8
21
 10
14.1858
 20
7.0988
 30
0.0000
 11
14.4570
 21
6.8276
 31
0.0000
  0
LINE
  8
21
 10
14.4570
 20
6.8276
 30
0.0000
 11
14.7281
 21
6.8276
 31
0.0000
  0
LINE
  8
21
 10
14.7281
 20
6.8276
 30
0.0000
 11
14.9993
 21
7.0988
 31
0.0000
  0
LINE
  8
21
 10
14.9993
 20
7.0988
 30
0.0000
 11
14.9993
 21
7.6411
 31
0.0000
  0
LINE
  8
21
 10
14.9993
 20
7.6411
 30
0.0000
 11
15.2705
 21
7.9123
 31
0.0000
  0
LINE
  8
21
 10
15.2705
 20
7.9123
 30
0.0000
 11
15.5416
 21
7.9123
 31
0.0000
  0
LINE
  8
21
 10
15.5416
 20
7.9123
 30
0.0000
 11
15.8128
 21
7.6411
 31
0.0000
  0
LINE
  8
21
 10
15.8128
 20
7.6411
 30
0.0000
 11
15.8128
 21
7.0988
 31
0.0000
  0
LINE
  8
21
 10
15.8128
 20
7.0988
 30
0.0000
 11
15.5416
 21
6.8276
 31
0.0000
  0
LINE
  8
21
 10
15.8128
 20
8.4648
 30
0.0000
 11
14.1858
 21
8.4648
 31
0.0000
  0
LINE
  8
21
 10
14.1858
 20
8.4648
 30
0.0000
 11
14.1858
 21
9.2783
 31
0.0000
  0
LINE
  8
21
 10
14.1858
 20
9.2783
 30
0.0000
 11
14.4570
 21
9.5494
 31
0.0000
  0
LINE
  8
21
 10
14.4570
 20
9.5494
 30
0.0000
 11
14.7281
 21
9.5494
 31
0.0000
  0
LINE
  8
21
 10
14.7281
 20
9.5494
 30
0.0000
 11
14.9993
 21
9.2783
 31
0.0000
  0
LINE
  8
21
 10
14.9993
 20
9.2783
 30
0.0000
 11
15.2705
 21
9.5494
 31
0.0000
  0
LINE
  8
21
 10
15.2705
 20
9.5494
 30
0.0000
 11
15.5416
 21
9.5494
 31
0.0000
  0
LINE
  8
21
 10
15.5416
 20
9.5494
 30
0.0000
 11
15.8128
 21
9.2783
 31
0.0000
  0
LINE
  8
21
 10
15.8128
 20
9.2783
 30
0.0000
 11
15.8128
 21
8.4648
 31
0.0000
  0
LINE
  8
21
 10
14.9993
 20
8.4648
 30
0.0000
 11
14.9993
 21
9.2783
 31
0.0000
  0
LINE
  8
21
 10
7.4298
 20
23.2129
 30
0.0000
 11
7.4298
 21
22.8231
 31
0.0000
  0
LINE
  8
21
 10
7.4298
 20
22.8231
 30
0.0000
 11
7.6247
 21
22.6282
 31
0.0000
  0
LINE
  8
21
 10
7.6247
 20
22.6282
 30
0.0000
 11
8.4043
 21
22.6282
 31
0.0000
  0
LINE
  8
21
 10
8.4043
 20
22.6282
 30
0.0000
 11
8.5992
 21
22.8231
 31
0.0000
  0
LINE
  8
21
 10
8.5992
 20
22.8231
 30
0.0000
 11
8.5992
 21
23.2129
 31
0.0000
  0
LINE
  8
21
 10
8.5992
 20
23.2129
 30
0.0000
 11
8.4043
 21
23.4078
 31
0.0000
  0
LINE
  8
21
 10
8.4043
 20
23.4078
 30
0.0000
 11
7.6247
 21
23.4078
 31
0.0000
  0
LINE
  8
21
 10
7.6247
 20
23.4078
 30
0.0000
 11
7.4298
 21
23.2129
 31
0.0000
  0
LINE
  8
21
 10
7.4298
 20
23.7976
 30
0.0000
 11
8.4043
 21
23.7976
 31
0.0000
  0
LINE
  8
21
 10
8.4043
 20
23.7976
 30
0.0000
 11
8.5992
 21
23.9925
 31
0.0000
  0
LINE
  8
21
 10
8.5992
 20
23.9925
 30
0.0000
 11
8.5992
 21
24.3823
 31
0.0000
  0
LINE
  8
21
 10
8.5992
 20
24.3823
 30
0.0000
 11
8.4043
 21
24.5772
 31
0.0000
  0
LINE
  8
21
 10
8.4043
 20
24.5772
 30
0.0000
 11
7.4298
 21
24.5772
 31
0.0000
  0
LINE
  8
21
 10
8.5992
 20
25.3568
 30
0.0000
 11
7.4298
 21
25.3568
 31
0.0000
  0
LINE
  8
21
 10
7.4298
 20
24.9670
 30
0.0000
 11
7.4298
 21
25.7466
 31
0.0000
  0
LINE
  8
21
 10
8.0145
 20
26.1364
 30
0.0000
 11
8.0145
 21
26.9160
 31
0.0000
  0
LINE
  8
21
 10
7.6247
 20
26.5262
 30
0.0000
 11
8.4043
 21
26.5262
 31
0.0000
  0
LINE
  8
21
 10
21.3998
 20
23.2129
 30
0.0000
 11
21.3998
 21
22.8231
 31
0.0000
  0
LINE
  8
21
 10
21.3998
 20
22.8231
 30
0.0000
 11
21.5947
 21
22.6282
 31
0.0000
  0
LINE
  8
21
 10
21.5947
 20
22.6282
 30
0.0000
 11
22.3743
 21
22.6282
 31
0.0000
  0
LINE
  8
21
 10
22.3743
 20
22.6282
 30
0.0000
 11
22.5692
 21
22.8231
 31
0.0000
  0
LINE
  8
21
 10
22.5692
 20
22.8231
 30
0.0000
 11
22.5692
 21
23.2129
 31
0.0000
  0
LINE
  8
21
 10
22.5692
 20
23.2129
 30
0.0000
 11
22.3743
 21
23.4078
 31
0.0000
  0
LINE
  8
21
 10
22.3743
 20
23.4078
 30
0.0000
 11
21.5947
 21
23.4078
 31
0.0000
  0
LINE
  8
21
 10
21.5947
 20
23.4078
 30
0.0000
 11
21.3998
 21
23.2129
 31
0.0000
  0
LINE
  8
21
 10
21.3998
 20
23.7976
 30
0.0000
 11
22.3743
 21
23.7976
 31
0.0000
  0
LINE
  8
21
 10
22.3743
 20
23.7976
 30
0.0000
 11
22.5692
 21
23.9925
 31
0.0000
  0
LINE
  8
21
 10
22.5692
 20
23.9925
 30
0.0000
 11
22.5692
 21
24.3823
 31
0.0000
  0
LINE
  8
21
 10
22.5692
 20
24.3823
 30
0.0000
 11
22.3743
 21
24.5772
 31
0.0000
  0
LINE
  8
21
 10
22.3743
 20
24.5772
 30
0.0000
 11
21.3998
 21
24.5772
 31
0.0000
  0
LINE
  8
21
 10
22.5692
 20
25.3568
 30
0.0000
 11
21.3998
 21
25.3568
 31
0.0000
  0
LINE
  8
21
 10
21.3998
 20
24.9670
 30
0.0000
 11
21.3998
 21
25.7466
 31
0.0000
  0
LINE
  8
21
 10
21.9845
 20
26.1364
 30
0.0000
 11
21.9845
 21
26.9160
 31
0.0000
  0
POINT
  8
23
 10
34.0000
 20
19.0000
 30
0.0000
  0
LINE
  8
21
 10
25.3640
 20
5.0300
 30
0.0000
 11
25.3640
 21
32.9700
 31
0.0000
  0
LINE
  8
21
 10
42.6360
 20
32.9700
 30
0.0000
 11
42.6360
 21
5.0300
 31
0.0000
  0
LINE
  8
21
 10
25.3640
 20
5.0300
 30
0.0000
 11
29.9360
 21
5.0300
 31
0.0000
  0
LINE
  8
21
 10
42.6360
 20
5.0300
 30
0.0000
 11
38.0640
 21
5.0300
 31
0.0000
  0
LINE
  8
21
 10
29.9360
 20
4.3950
 30
0.0000
 11
29.9360
 21
5.0300
 31
0.0000
  0
LINE
  8
21
 10
38.0640
 20
4.3950
 30
0.0000
 11
38.0640
 21
5.0300
 31
0.0000
  0
LINE
  8
21
 10
38.0640
 20
5.0300
 30
0.0000
 11
38.0640
 21
10.8720
 31
0.0000
  0
LINE
  8
21
 10
29.9360
 20
4.3950
 30
0.0000
 11
38.0640
 21
4.3950
 31
0.0000
  0
LINE
  8
21
 10
29.9360
 20
10.8720
 30
0.0000
 11
38.0640
 21
10.8720
 31
0.0000
  0
LINE
  8
21
 10
25.3640
 20
32.9700
 30
0.0000
 11
27.6500
 21
32.9700
 31
0.0000
  0
LINE
  8
21
 10
27.6500
 20
32.9700
 30
0.0000
 11
27.6500
 21
31.7000
 31
0.0000
  0
LINE
  8
21
 10
27.6500
 20
31.7000
 30
0.0000
 11
40.3500
 21
31.7000
 31
0.0000
  0
LINE
  8
21
 10
40.3500
 20
31.7000
 30
0.0000
 11
40.3500
 21
32.9700
 31
0.0000
  0
LINE
  8
21
 10
40.3500
 20
32.9700
 30
0.0000
 11
42.6360
 21
32.9700
 31
0.0000
  0
LINE
  8
21
 10
29.9360
 20
5.0300
 30
0.0000
 11
29.9360
 21
10.8720
 31
0.0000
  0
LINE
  8
21
 10
27.5992
 20
9.5258
 30
0.0000
 11
27.5992
 21
9.9156
 31
0.0000
  0
LINE
  8
21
 10
27.5992
 20
9.7207
 30
0.0000
 11
26.4298
 21
9.7207
 31
0.0000
  0
LINE
  8
21
 10
26.4298
 20
9.5258
 30
0.0000
 11
26.4298
 21
9.9156
 31
0.0000
  0
LINE
  8
21
 10
27.5992
 20
10.3054
 30
0.0000
 11
26.4298
 21
10.3054
 31
0.0000
  0
LINE
  8
21
 10
26.4298
 20
10.3054
 30
0.0000
 11
27.5992
 21
11.0850
 31
0.0000
  0
LINE
  8
21
 10
27.5992
 20
11.0850
 30
0.0000
 11
26.4298
 21
11.0850
 31
0.0000
  0
LINE
  8
21
 10
27.0145
 20
11.4748
 30
0.0000
 11
27.0145
 21
12.2544
 31
0.0000
  0
LINE
  8
21
 10
26.6247
 20
11.8646
 30
0.0000
 11
27.4043
 21
11.8646
 31
0.0000
  0
LINE
  8
21
 10
41.5692
 20
9.5258
 30
0.0000
 11
41.5692
 21
9.9156
 31
0.0000
  0
LINE
  8
21
 10
41.5692
 20
9.7207
 30
0.0000
 11
40.3998
 21
9.7207
 31
0.0000
  0
LINE
  8
21
 10
40.3998
 20
9.5258
 30
0.0000
 11
40.3998
 21
9.9156
 31
0.0000
  0
LINE
  8
21
 10
41.5692
 20
10.3054
 30
0.0000
 11
40.3998
 21
10.3054
 31
0.0000
  0
LINE
  8
21
 10
40.3998
 20
10.3054
 30
0.0000
 11
41.5692
 21
11.0850
 31
0.0000
  0
LINE
  8
21
 10
41.5692
 20
11.0850
 30
0.0000
 11
40.3998
 21
11.0850
 31
0.0000
  0
LINE
  8
21
 10
40.9845
 20
11.4748
 30
0.0000
 11
40.9845
 21
12.2544
 31
0.0000
  0
LINE
  8
21
 10
30.7742
 20
24.9670
 30
0.0000
 11
29.6048
 21
24.9670
 31
0.0000
  0
LINE
  8
21
 10
29.6048
 20
24.9670
 30
0.0000
 11
29.6048
 21
25.5517
 31
0.0000
  0
LINE
  8
21
 10
29.6048
 20
25.5517
 30
0.0000
 11
29.7997
 21
25.7466
 31
0.0000
  0
LINE
  8
21
 10
29.7997
 20
25.7466
 30
0.0000
 11
29.9946
 21
25.7466
 31
0.0000
  0
LINE
  8
21
 10
29.9946
 20
25.7466
 30
0.0000
 11
30.1895
 21
25.5517
 31
0.0000
  0
LINE
  8
21
 10
30.1895
 20
25.5517
 30
0.0000
 11
30.3844
 21
25.7466
 31
0.0000
  0
LINE
  8
21
 10
30.3844
 20
25.7466
 30
0.0000
 11
30.5793
 21
25.7466
 31
0.0000
  0
LINE
  8
21
 10
30.5793
 20
25.7466
 30
0.0000
 11
30.7742
 21
25.5517
 31
0.0000
  0
LINE
  8
21
 10
30.7742
 20
25.5517
 30
0.0000
 11
30.7742
 21
24.9670
 31
0.0000
  0
LINE
  8
21
 10
30.1895
 20
24.9670
 30
0.0000
 11
30.1895
 21
25.5517
 31
0.0000
  0
LINE
  8
21
 10
30.1895
 20
26.1364
 30
0.0000
 11
30.1895
 21
26.9160
 31
0.0000
  0
LINE
  8
21
 10
29.7997
 20
26.5262
 30
0.0000
 11
30.5793
 21
26.5262
 31
0.0000
  0
LINE
  8
21
 10
38.3942
 20
24.9670
 30
0.0000
 11
37.2248
 21
24.9670
 31
0.0000
  0
LINE
  8
21
 10
37.2248
 20
24.9670
 30
0.0000
 11
37.2248
 21
25.5517
 31
0.0000
  0
LINE
  8
21
 10
37.2248
 20
25.5517
 30
0.0000
 11
37.4197
 21
25.7466
 31
0.0000
  0
LINE
  8
21
 10
37.4197
 20
25.7466
 30
0.0000
 11
37.6146
 21
25.7466
 31
0.0000
  0
LINE
  8
21
 10
37.6146
 20
25.7466
 30
0.0000
 11
37.8095
 21
25.5517
 31
0.0000
  0
LINE
  8
21
 10
37.8095
 20
25.5517
 30
0.0000
 11
38.0044
 21
25.7466
 31
0.0000
  0
LINE
  8
21
 10
38.0044
 20
25.7466
 30
0.0000
 11
38.1993
 21
25.7466
 31
0.0000
  0
LINE
  8
21
 10
38.1993
 20
25.7466
 30
0.0000
 11
38.3942
 21
25.5517
 31
0.0000
  0
LINE
  8
21
 10
38.3942
 20
25.5517
 30
0.0000
 11
38.3942
 21
24.9670
 31
0.0000
  0
LINE
  8
21
 10
37.8095
 20
24.9670
 30
0.0000
 11
37.8095
 21
25.5517
 31
0.0000
  0
LINE
  8
21
 10
37.8095
 20
26.1364
 30
0.0000
 11
37.8095
 21
26.9160
 31
0.0000
  0
LINE
  8
21
 10
33.1858
 20
5.1905
 30
0.0000
 11
34.5416
 21
5.1905
 31
0.0000
  0
LINE
  8
21
 10
34.5416
 20
5.1905
 30
0.0000
 11
34.8128
 21
5.4616
 31
0.0000
  0
LINE
  8
21
 10
34.8128
 20
5.4616
 30
0.0000
 11
34.8128
 21
6.0040
 31
0.0000
  0
LINE
  8
21
 10
34.8128
 20
6.0040
 30
0.0000
 11
34.5416
 21
6.2751
 31
0.0000
  0
LINE
  8
21
 10
34.5416
 20
6.2751
 30
0.0000
 11
33.1858
 21
6.2751
 31
0.0000
  0
LINE
  8
21
 10
33.4570
 20
7.9123
 30
0.0000
 11
33.1858
 21
7.6411
 31
0.0000
  0
LINE
  8
21
 10
33.1858
 20
7.6411
 30
0.0000
 11
33.1858
 21
7.0988
 31
0.0000
  0
LINE
  8
21
 10
33.1858
 20
7.0988
 30
0.0000
 11
33.4570
 21
6.8276
 31
0.0000
  0
LINE
  8
21
 10
33.4570
 20
6.8276
 30
0.0000
 11
33.7281
 21
6.8276
 31
0.0000
  0
LINE
  8
21
 10
33.7281
 20
6.8276
 30
0.0000
 11
33.9993
 21
7.0988
 31
0.0000
  0
LINE
  8
21
 10
33.9993
 20
7.0988
 30
0.0000
 11
33.9993
 21
7.6411
 31
0.0000
  0
LINE
  8
21
 10
33.9993
 20
7.6411
 30
0.0000
 11
34.2705
 21
7.9123
 31
0.0000
  0
LINE
  8
21
 10
34.2705
 20
7.9123
 30
0.0000
 11
34.5416
 21
7.9123
 31
0.0000
  0
LINE
  8
21
 10
34.5416
 20
7.9123
 30
0.0000
 11
34.8128
 21
7.6411
 31
0.0000
  0
LINE
  8
21
 10
34.8128
 20
7.6411
 30
0.0000
 11
34.8128
 21
7.0988
 31
0.0000
  0
LINE
  8
21
 10
34.8128
 20
7.0988
 30
0.0000
 11
34.5416
 21
6.8276
 31
0.0000
  0
LINE
  8
21
 10
34.8128
 20
8.4648
 30
0.0000
 11
33.1858
 21
8.4648
 31
0.0000
  0
LINE
  8
21
 10
33.1858
 20
8.4648
 30
0.0000
 11
33.1858
 21
9.2783
 31
0.0000
  0
LINE
  8
21
 10
33.1858
 20
9.2783
 30
0.0000
 11
33.4570
 21
9.5494
 31
0.0000
  0
LINE
  8
21
 10
33.4570
 20
9.5494
 30
0.0000
 11
33.7281
 21
9.5494
 31
0.0000
  0
LINE
  8
21
 10
33.7281
 20
9.5494
 30
0.0000
 11
33.9993
 21
9.2783
 31
0.0000
  0
LINE
  8
21
 10
33.9993
 20
9.2783
 30
0.0000
 11
34.2705
 21
9.5494
 31
0.0000
  0
LINE
  8
21
 10
34.2705
 20
9.5494
 30
0.0000
 11
34.5416
 21
9.5494
 31
0.0000
  0
LINE
  8
21
 10
34.5416
 20
9.5494
 30
0.0000
 11
34.8128
 21
9.2783
 31
0.0000
  0
LINE
  8
21
 10
34.8128
 20
9.2783
 30
0.0000
 11
34.8128
 21
8.4648
 31
0.0000
  0
LINE
  8
21
 10
33.9993
 20
8.4648
 30
0.0000
 11
33.9993
 21
9.2783
 31
0.0000
  0
LINE
  8
21
 10
26.4298
 20
23.2129
 30
0.0000
 11
26.4298
 21
22.8231
 31
0.0000
  0
LINE
  8
21
 10
26.4298
 20
22.8231
 30
0.0000
 11
26.6247
 21
22.6282
 31
0.0000
  0
LINE
  8
21
 10
26.6247
 20
22.6282
 30
0.0000
 11
27.4043
 21
22.6282
 31
0.0000
  0
LINE
  8
21
 10
27.4043
 20
22.6282
 30
0.0000
 11
27.5992
 21
22.8231
 31
0.0000
  0
LINE
  8
21
 10
27.5992
 20
22.8231
 30
0.0000
 11
27.5992
 21
23.2129
 31
0.0000
  0
LINE
  8
21
 10
27.5992
 20
23.2129
 30
0.0000
 11
27.4043
 21
23.4078
 31
0.0000
  0
LINE
  8
21
 10
27.4043
 20
23.4078
 30
0.0000
 11
26.6247
 21
23.4078
 31
0.0000
  0
LINE
  8
21
 10
26.6247
 20
23.4078
 30
0.0000
 11
26.4298
 21
23.2129
 31
0.0000
  0
LINE
  8
21
 10
26.4298
 20
23.7976
 30
0.0000
 11
27.4043
 21
23.7976
 31
0.0000
  0
LINE
  8
21
 10
27.4043
 20
23.7976
 30
0.0000
 11
27.5992
 21
23.9925
 31
0.0000
  0
LINE
  8
21
 10
27.5992
 20
23.9925
 30
0.0000
 11
27.5992
 21
24.3823
 31
0.0000
  0
LINE
  8
21
 10
27.5992
 20
24.3823
 30
0.0000
 11
27.4043
 21
24.5772
 31
0.0000
  0
LINE
  8
21
 10
27.4043
 20
24.5772
 30
0.0000
 11
26.4298
 21
24.5772
 31
0.0000
  0
LINE
  8
21
 10
27.5992
 20
25.3568
 30
0.0000
 11
26.4298
 21
25.3568
 31
0.0000
  0
LINE
  8
21
 10
26.4298
 20
24.9670
 30
0.0000
 11
26.4298
 21
25.7466
 31
0.0000
  0
LINE
  8
21
 10
27.0145
 20
26.1364
 30
0.0000
 11
27.0145
 21
26.9160
 31
0.0000
  0
LINE
  8
21
 10
26.6247
 20
26.5262
 30
0.0000
 11
27.4043
 21
26.5262
 31
0.0000
  0
LINE
  8
21
 10
40.3998
 20
23.2129
 30
0.0000
 11
40.3998
 21
22.8231
 31
0.0000
  0
LINE
  8
21
 10
40.3998
 20
22.8231
 30
0.0000
 11
40.5947
 21
22.6282
 31
0.0000
  0
LINE
  8
21
 10
40.5947
 20
22.6282
 30
0.0000
 11
41.3743
 21
22.6282
 31
0.0000
  0
LINE
  8
21
 10
41.3743
 20
22.6282
 30
0.0000
 11
41.5692
 21
22.8231
 31
0.0000
  0
LINE
  8
21
 10
41.5692
 20
22.8231
 30
0.0000
 11
41.5692
 21
23.2129
 31
0.0000
  0
LINE
  8
21
 10
41.5692
 20
23.2129
 30
0.0000
 11
41.3743
 21
23.4078
 31
0.0000
  0
LINE
  8
21
 10
41.3743
 20
23.4078
 30
0.0000
 11
40.5947
 21
23.4078
 31
0.0000
  0
LINE
  8
21
 10
40.5947
 20
23.4078
 30
0.0000
 11
40.3998
 21
23.2129
 31
0.0000
  0
LINE
  8
21
 10
40.3998
 20
23.7976
 30
0.0000
 11
41.3743
 21
23.7976
 31
0.0000
  0
LINE
  8
21
 10
41.3743
 20
23.7976
 30
0.0000
 11
41.5692
 21
23.9925
 31
0.0000
  0
LINE
  8
21
 10
41.5692
 20
23.9925
 30
0.0000
 11
41.5692
 21
24.3823
 31
0.0000
  0
LINE
  8
21
 10
41.5692
 20
24.3823
 30
0.0000
 11
41.3743
 21
24.5772
 31
0.0000
  0
LINE
  8
21
 10
41.3743
 20
24.5772
 30
0.0000
 11
40.3998
 21
24.5772
 31
0.0000
  0
LINE
  8
21
 10
41.5692
 20
25.3568
 30
0.0000
 11
40.3998
 21
25.3568
 31
0.0000
  0
LINE
  8
21
 10
40.3998
 20
24.9670
 30
0.0000
 11
40.3998
 21
25.7466
 31
0.0000
  0
LINE
  8
21
 10
40.9845
 20
26.1364
 30
0.0000
 11
40.9845
 21
26.9160
 31
0.0000
  0
POINT
  8
23
 10
53.0000
 20
19.0000
 30
0.0000
  0
LINE
  8
21
 10
44.3640
 20
5.0300
 30
0.0000
 11
44.3640
 21
32.9700
 31
0.0000
  0
LINE
  8
21
 10
61.6360
 20
32.9700
 30
0.0000
 11
61.6360
 21
5.0300
 31
0.0000
  0
LINE
  8
21
 10
44.3640
 20
5.0300
 30
0.0000
 11
48.9360
 21
5.0300
 31
0.0000
  0
LINE
  8
21
 10
61.6360
 20
5.0300
 30
0.0000
 11
57.0640
 21
5.0300
 31
0.0000
  0
LINE
  8
21
 10
48.9360
 20
4.3950
 30
0.0000
 11
48.9360
 21
5.0300
 31
0.0000
  0
LINE
  8
21
 10
57.0640
 20
4.3950
 30
0.0000
 11
57.0640
 21
5.0300
 31
0.0000
  0
LINE
  8
21
 10
57.0640
 20
5.0300
 30
0.0000
 11
57.0640
 21
10.8720
 31
0.0000
  0
LINE
  8
21
 10
48.9360
 20
4.3950
 30
0.0000
 11
57.0640
 21
4.3950
 31
0.0000
  0
LINE
  8
21
 10
48.9360
 20
10.8720
 30
0.0000
 11
57.0640
 21
10.8720
 31
0.0000
  0
LINE
  8
21
 10
44.3640
 20
32.9700
 30
0.0000
 11
46.6500
 21
32.9700
 31
0.0000
  0
LINE
  8
21
 10
46.6500
 20
32.9700
 30
0.0000
 11
46.6500
 21
31.7000
 31
0.0000
  0
LINE
  8
21
 10
46.6500
 20
31.7000
 30
0.0000
 11
59.3500
 21
31.7000
 31
0.0000
  0
LINE
  8
21
 10
59.3500
 20
31.7000
 30
0.0000
 11
59.3500
 21
32.9700
 31
0.0000
  0
LINE
  8
21
 10
59.3500
 20
32.9700
 30
0.0000
 11
61.6360
 21
32.9700
 31
0.0000
  0
LINE
  8
21
 10
48.9360
 20
5.0300
 30
0.0000
 11
48.9360
 21
10.8720
 31
0.0000
  0
LINE
  8
21
 10
46.5992
 20
9.5258
 30
0.0000
 11
46.5992
 21
9.9156
 31
0.0000
  0
LINE
  8
21
 10
46.5992
 20
9.7207
 30
0.0000
 11
45.4298
 21
9.7207
 31
0.0000
  0
LINE
  8
21
 10
45.4298
 20
9.5258
 30
0.0000
 11
45.4298
 21
9.9156
 31
0.0000
  0
LINE
  8
21
 10
46.5992
 20
10.3054
 30
0.0000
 11
45.4298
 21
10.3054
 31
0.0000
  0
LINE
  8
21
 10
45.4298
 20
10.3054
 30
0.0000
 11
46.5992
 21
11.0850
 31
0.0000
  0
LINE
  8
21
 10
46.5992
 20
11.0850
 30
0.0000
 11
45.4298
 21
11.0850
 31
0.0000
  0
LINE
  8
21
 10
46.0145
 20
11.4748
 30
0.0000
 11
46.0145
 21
12.2544
 31
0.0000
  0
LINE
  8
21
 10
45.6247
 20
11.8646
 30
0.0000
 11
46.4043
 21
11.8646
 31
0.0000
  0
LINE
  8
21
 10
60.5692
 20
9.5258
 30
0.0000
 11
60.5692
 21
9.9156
 31
0.0000
  0
LINE
  8
21
 10
60.5692
 20
9.7207
 30
0.0000
 11
59.3998
 21
9.7207
 31
0.0000
  0
LINE
  8
21
 10
59.3998
 20
9.5258
 30
0.0000
 11
59.3998
 21
9.9156
 31
0.0000
  0
LINE
  8
21
 10
60.5692
 20
10.3054
 30
0.0000
 11
59.3998
 21
10.3054
 31
0.0000
  0
LINE
  8
21
 10
59.3998
 20
10.3054
 30
0.0000
 11
60.5692
 21
11.0850
 31
0.0000
  0
LINE
  8
21
 10
60.5692
 20
11.0850
 30
0.0000
 11
59.3998
 21
11.0850
 31
0.0000
  0
LINE
  8
21
 10
59.9845
 20
11.4748
 30
0.0000
 11
59.9845
 21
12.2544
 31
0.0000
  0
LINE
  8
21
 10
49.7742
 20
24.9670
 30
0.0000
 11
48.6048
 21
24.9670
 31
0.0000
  0
LINE
  8
21
 10
48.6048
 20
24.9670
 30
0.0000
 11
48.6048
 21
25.5517
 31
0.0000
  0
LINE
  8
21
 10
48.6048
 20
25.5517
 30
0.0000
 11
48.7997
 21
25.7466
 31
0.0000
  0
LINE
  8
21
 10
48.7997
 20
25.7466
 30
0.0000
 11
48.9946
 21
25.7466
 31
0.0000
  0
LINE
  8
21
 10
48.9946
 20
25.7466
 30
0.0000
 11
49.1895
 21
25.5517
 31
0.0000
  0
LINE
  8
21
 10
49.1895
 20
25.5517
 30
0.0000
 11
49.3844
 21
25.7466
 31
0.0000
  0
LINE
  8
21
 10
49.3844
 20
25.7466
 30
0.0000
 11
49.5793
 21
25.7466
 31
0.0000
  0
LINE
  8
21
 10
49.5793
 20
25.7466
 30
0.0000
 11
49.7742
 21
25.5517
 31
0.0000
  0
LINE
  8
21
 10
49.7742
 20
25.5517
 30
0.0000
 11
49.7742
 21
24.9670
 31
0.0000
  0
LINE
  8
21
 10
49.1895
 20
24.9670
 30
0.0000
 11
49.1895
 21
25.5517
 31
0.0000
  0
LINE
  8
21
 10
49.1895
 20
26.1364
 30
0.0000
 11
49.1895
 21
26.9160
 31
0.0000
  0
LINE
  8
21
 10
48.7997
 20
26.5262
 30
0.0000
 11
49.5793
 21
26.5262
 31
0.0000
  0
LINE
  8
21
 10
57.3942
 20
24.9670
 30
0.0000
 11
56.2248
 21
24.9670
 31
0.0000
  0
LINE
  8
21
 10
56.2248
 20
24.9670
 30
0.0000
 11
56.2248
 21
25.5517
 31
0.0000
  0
LINE
  8
21
 10
56.2248
 20
25.5517
 30
0.0000
 11
56.4197
 21
25.7466
 31
0.0000
  0
LINE
  8
21
 10
56.4197
 20
25.7466
 30
0.0000
 11
56.6146
 21
25.7466
 31
0.0000
  0
LINE
  8
21
 10
56.6146
 20
25.7466
 30
0.0000
 11
56.8095
 21
25.5517
 31
0.0000
  0
LINE
  8
21
 10
56.8095
 20
25.5517
 30
0.0000
 11
57.0044
 21
25.7466
 31
0.0000
  0
LINE
  8
21
 10
57.0044
 20
25.7466
 30
0.0000
 11
57.1993
 21
25.7466
 31
0.0000
  0
LINE
  8
21
 10
57.1993
 20
25.7466
 30
0.0000
 11
57.3942
 21
25.5517
 31
0.0000
  0
LINE
  8
21
 10
57.3942
 20
25.5517
 30
0.0000
 11
57.3942
 21
24.9670
 31
0.0000
  0
LINE
  8
21
 10
56.8095
 20
24.9670
 30
0.0000
 11
56.8095
 21
25.5517
 31
0.0000
  0
LINE
  8
21
 10
56.8095
 20
26.1364
 30
0.0000
 11
56.8095
 21
26.9160
 31
0.0000
  0
LINE
  8
21
 10
52.1858
 20
5.1905
 30
0.0000
 11
53.5416
 21
5.1905
 31
0.0000
  0
LINE
  8
21
 10
53.5416
 20
5.1905
 30
0.0000
 11
53.8128
 21
5.4616
 31
0.0000
  0
LINE
  8
21
 10
53.8128
 20
5.4616
 30
0.0000
 11
53.8128
 21
6.0040
 31
0.0000
  0
LINE
  8
21
 10
53.8128
 20
6.0040
 30
0.0000
 11
53.5416
 21
6.2751
 31
0.0000
  0
LINE
  8
21
 10
53.5416
 20
6.2751
 30
0.0000
 11
52.1858
 21
6.2751
 31
0.0000
  0
LINE
  8
21
 10
52.4570
 20
7.9123
 30
0.0000
 11
52.1858
 21
7.6411
 31
0.0000
  0
LINE
  8
21
 10
52.1858
 20
7.6411
 30
0.0000
 11
52.1858
 21
7.0988
 31
0.0000
  0
LINE
  8
21
 10
52.1858
 20
7.0988
 30
0.0000
 11
52.4570
 21
6.8276
 31
0.0000
  0
LINE
  8
21
 10
52.4570
 20
6.8276
 30
0.0000
 11
52.7281
 21
6.8276
 31
0.0000
  0
LINE
  8
21
 10
52.7281
 20
6.8276
 30
0.0000
 11
52.9993
 21
7.0988
 31
0.0000
  0
LINE
  8
21
 10
52.9993
 20
7.0988
 30
0.0000
 11
52.9993
 21
7.6411
 31
0.0000
  0
LINE
  8
21
 10
52.9993
 20
7.6411
 30
0.0000
 11
53.2705
 21
7.9123
 31
0.0000
  0
LINE
  8
21
 10
53.2705
 20
7.9123
 30
0.0000
 11
53.5416
 21
7.9123
 31
0.0000
  0
LINE
  8
21
 10
53.5416
 20
7.9123
 30
0.0000
 11
53.8128
 21
7.6411
 31
0.0000
  0
LINE
  8
21
 10
53.8128
 20
7.6411
 30
0.0000
 11
53.8128
 21
7.0988
 31
0.0000
  0
LINE
  8
21
 10
53.8128
 20
7.0988
 30
0.0000
 11
53.5416
 21
6.8276
 31
0.0000
  0
LINE
  8
21
 10
53.8128
 20
8.4648
 30
0.0000
 11
52.1858
 21
8.4648
 31
0.0000
  0
LINE
  8
21
 10
52.1858
 20
8.4648
 30
0.0000
 11
52.1858
 21
9.2783
 31
0.0000
  0
LINE
  8
21
 10
52.1858
 20
9.2783
 30
0.0000
 11
52.4570
 21
9.5494
 31
0.0000
  0
LINE
  8
21
 10
52.4570
 20
9.5494
 30
0.0000
 11
52.7281
 21
9.5494
 31
0.0000
  0
LINE
  8
21
 10
52.7281
 20
9.5494
 30
0.0000
 11
52.9993
 21
9.2783
 31
0.0000
  0
LINE
  8
21
 10
52.9993
 20
9.2783
 30
0.0000
 11
53.2705
 21
9.5494
 31
0.0000
  0
LINE
  8
21
 10
53.2705
 20
9.5494
 30
0.0000
 11
53.5416
 21
9.5494
 31
0.0000
  0
LINE
  8
21
 10
53.5416
 20
9.5494
 30
0.0000
 11
53.8128
 21
9.2783
 31
0.0000
  0
LINE
  8
21
 10
53.8128
 20
9.2783
 30
0.0000
 11
53.8128
 21
8.4648
 31
0.0000
  0
LINE
  8
21
 10
52.9993
 20
8.4648
 30
0.0000
 11
52.9993
 21
9.2783
 31
0.0000
  0
LINE
  8
21
 10
45.4298
 20
23.2129
 30
0.0000
 11
45.4298
 21
22.8231
 31
0.0000
  0
LINE
  8
21
 10
45.4298
 20
22.8231
 30
0.0000
 11
45.6247
 21
22.6282
 31
0.0000
  0
LINE
  8
21
 10
45.6247
 20
22.6282
 30
0.0000
 11
46.4043
 21
22.6282
 31
0.0000
  0
LINE
  8
21
 10
46.4043
 20
22.6282
 30
0.0000
 11
46.5992
 21
22.8231
 31
0.0000
  0
LINE
  8
21
 10
46.5992
 20
22.8231
 30
0.0000
 11
46.5992
 21
23.2129
 31
0.0000
  0
LINE
  8
21
 10
46.5992
 20
23.2129
 30
0.0000
 11
46.4043
 21
23.4078
 31
0.0000
  0
LINE
  8
21
 10
46.4043
 20
23.4078
 30
0.0000
 11
45.6247
 21
23.4078
 31
0.0000
  0
LINE
  8
21
 10
45.6247
 20
23.4078
 30
0.0000
 11
45.4298
 21
23.2129
 31
0.0000
  0
LINE
  8
21
 10
45.4298
 20
23.7976
 30
0.0000
 11
46.4043
 21
23.7976
 31
0.0000
  0
LINE
  8
21
 10
46.4043
 20
23.7976
 30
0.0000
 11
46.5992
 21
23.9925
 31
0.0000
  0
LINE
  8
21
 10
46.5992
 20
23.9925
 30
0.0000
 11
46.5992
 21
24.3823
 31
0.0000
  0
LINE
  8
21
 10
46.5992
 20
24.3823
 30
0.0000
 11
46.4043
 21
24.5772
 31
0.0000
  0
LINE
  8
21
 10
46.4043
 20
24.5772
 30
0.0000
 11
45.4298
 21
24.5772
 31
0.0000
  0
LINE
  8
21
 10
46.5992
 20
25.3568
 30
0.0000
 11
45.4298
 21
25.3568
 31
0.0000
  0
LINE
  8
21
 10
45.4298
 20
24.9670
 30
0.0000
 11
45.4298
 21
25.7466
 31
0.0000
  0
LINE
  8
21
 10
46.0145
 20
26.1364
 30
0.0000
 11
46.0145
 21
26.9160
 31
0.0000
  0
LINE
  8
21
 10
45.6247
 20
26.5262
 30
0.0000
 11
46.4043
 21
26.5262
 31
0.0000
  0
LINE
  8
21
 10
59.3998
 20
23.2129
 30
0.0000
 11
59.3998
 21
22.8231
 31
0.0000
  0
LINE
  8
21
 10
59.3998
 20
22.8231
 30
0.0000
 11
59.5947
 21
22.6282
 31
0.0000
  0
LINE
  8
21
 10
59.5947
 20
22.6282
 30
0.0000
 11
60.3743
 21
22.6282
 31
0.0000
  0
LINE
  8
21
 10
60.3743
 20
22.6282
 30
0.0000
 11
60.5692
 21
22.8231
 31
0.0000
  0
LINE
  8
21
 10
60.5692
 20
22.8231
 30
0.0000
 11
60.5692
 21
23.2129
 31
0.0000
  0
LINE
  8
21
 10
60.5692
 20
23.2129
 30
0.0000
 11
60.3743
 21
23.4078
 31
0.0000
  0
LINE
  8
21
 10
60.3743
 20
23.4078
 30
0.0000
 11
59.5947
 21
23.4078
 31
0.0000
  0
LINE
  8
21
 10
59.5947
 20
23.4078
 30
0.0000
 11
59.3998
 21
23.2129
 31
0.0000
  0
LINE
  8
21
 10
59.3998
 20
23.7976
 30
0.0000
 11
60.3743
 21
23.7976
 31
0.0000
  0
LINE
  8
21
 10
60.3743
 20
23.7976
 30
0.0000
 11
60.5692
 21
23.9925
 31
0.0000
  0
LINE
  8
21
 10
60.5692
 20
23.9925
 30
0.0000
 11
60.5692
 21
24.3823
 31
0.0000
  0
LINE
  8
21
 10
60.5692
 20
24.3823
 30
0.0000
 11
60.3743
 21
24.5772
 31
0.0000
  0
LINE
  8
21
 10
60.3743
 20
24.5772
 30
0.0000
 11
59.3998
 21
24.5772
 31
0.0000
  0
LINE
  8
21
 10
60.5692
 20
25.3568
 30
0.0000
 11
59.3998
 21
25.3568
 31
0.0000
  0
LINE
  8
21
 10
59.3998
 20
24.9670
 30
0.0000
 11
59.3998
 21
25.7466
 31
0.0000
  0
LINE
  8
21
 10
59.9845
 20
26.1364
 30
0.0000
 11
59.9845
 21
26.9160
 31
0.0000
  0
POINT
  8
23
 10
72.0000
 20
19.0000
 30
0.0000
  0
LINE
  8
21
 10
63.3640
 20
5.0300
 30
0.0000
 11
63.3640
 21
32.9700
 31
0.0000
  0
LINE
  8
21
 10
80.6360
 20
32.9700
 30
0.0000
 11
80.6360
 21
5.0300
 31
0.0000
  0
LINE
  8
21
 10
63.3640
 20
5.0300
 30
0.0000
 11
67.9360
 21
5.0300
 31
0.0000
  0
LINE
  8
21
 10
80.6360
 20
5.0300
 30
0.0000
 11
76.0640
 21
5.0300
 31
0.0000
  0
LINE
  8
21
 10
67.9360
 20
4.3950
 30
0.0000
 11
67.9360
 21
5.0300
 31
0.0000
  0
LINE
  8
21
 10
76.0640
 20
4.3950
 30
0.0000
 11
76.0640
 21
5.0300
 31
0.0000
  0
LINE
  8
21
 10
76.0640
 20
5.0300
 30
0.0000
 11
76.0640
 21
10.8720
 31
0.0000
  0
LINE
  8
21
 10
67.9360
 20
4.3950
 30
0.0000
 11
76.0640
 21
4.3950
 31
0.0000
  0
LINE
  8
21
 10
67.9360
 20
10.8720
 30
0.0000
 11
76.0640
 21
10.8720
 31
0.0000
  0
LINE
  8
21
 10
63.3640
 20
32.9700
 30
0.0000
 11
65.6500
 21
32.9700
 31
0.0000
  0
LINE
  8
21
 10
65.6500
 20
32.9700
 30
0.0000
 11
65.6500
 21
31.7000
 31
0.0000
  0
LINE
  8
21
 10
65.6500
 20
31.7000
 30
0.0000
 11
78.3500
 21
31.7000
 31
0.0000
  0
LINE
  8
21
 10
78.3500
 20
31.7000
 30
0.0000
 11
78.3500
 21
32.9700
 31
0.0000
  0
LINE
  8
21
 10
78.3500
 20
32.9700
 30
0.0000
 11
80.6360
 21
32.9700
 31
0.0000
  0
LINE
  8
21
 10
67.9360
 20
5.0300
 30
0.0000
 11
67.9360
 21
10.8720
 31
0.0000
  0
LINE
  8
21
 10
65.5992
 20
9.5258
 30
0.0000
 11
65.5992
 21
9.9156
 31
0.0000
  0
LINE
  8
21
 10
65.5992
 20
9.7207
 30
0.0000
 11
64.4298
 21
9.7207
 31
0.0000
  0
LINE
  8
21
 10
64.4298
 20
9.5258
 30
0.0000
 11
64.4298
 21
9.9156
 31
0.0000
  0
LINE
  8
21
 10
65.5992
 20
10.3054
 30
0.0000
 11
64.4298
 21
10.3054
 31
0.0000
  0
LINE
  8
21
 10
64.4298
 20
10.3054
 30
0.0000
 11
65.5992
 21
11.0850
 31
0.0000
  0
LINE
  8
21
 10
65.5992
 20
11.0850
 30
0.0000
 11
64.4298
 21
11.0850
 31
0.0000
  0
LINE
  8
21
 10
65.0145
 20
11.4748
 30
0.0000
 11
65.0145
 21
12.2544
 31
0.0000
  0
LINE
  8
21
 10
64.6247
 20
11.8646
 30
0.0000
 11
65.4043
 21
11.8646
 31
0.0000
  0
LINE
  8
21
 10
79.5692
 20
9.5258
 30
0.0000
 11
79.5692
 21
9.9156
 31
0.0000
  0
LINE
  8
21
 10
79.5692
 20
9.7207
 30
0.0000
 11
78.3998
 21
9.7207
 31
0.0000
  0
LINE
  8
21
 10
78.3998
 20
9.5258
 30
0.0000
 11
78.3998
 21
9.9156
 31
0.0000
  0
LINE
  8
21
 10
79.5692
 20
10.3054
 30
0.0000
 11
78.3998
 21
10.3054
 31
0.0000
  0
LINE
  8
21
 10
78.3998
 20
10.3054
 30
0.0000
 11
79.5692
 21
11.0850
 31
0.0000
  0
LINE
  8
21
 10
79.5692
 20
11.0850
 30
0.0000
 11
78.3998
 21
11.0850
 31
0.0000
  0
LINE
  8
21
 10
78.9845
 20
11.4748
 30
0.0000
 11
78.9845
 21
12.2544
 31
0.0000
  0
LINE
  8
21
 10
68.7742
 20
24.9670
 30
0.0000
 11
67.6048
 21
24.9670
 31
0.0000
  0
LINE
  8
21
 10
67.6048
 20
24.9670
 30
0.0000
 11
67.6048
 21
25.5517
 31
0.0000
  0
LINE
  8
21
 10
67.6048
 20
25.5517
 30
0.0000
 11
67.7997
 21
25.7466
 31
0.0000
  0
LINE
  8
21
 10
67.7997
 20
25.7466
 30
0.0000
 11
67.9946
 21
25.7466
 31
0.0000
  0
LINE
  8
21
 10
67.9946
 20
25.7466
 30
0.0000
 11
68.1895
 21
25.5517
 31
0.0000
  0
LINE
  8
21
 10
68.1895
 20
25.5517
 30
0.0000
 11
68.3844
 21
25.7466
 31
0.0000
  0
LINE
  8
21
 10
68.3844
 20
25.7466
 30
0.0000
 11
68.5793
 21
25.7466
 31
0.0000
  0
LINE
  8
21
 10
68.5793
 20
25.7466
 30
0.0000
 11
68.7742
 21
25.5517
 31
0.0000
  0
LINE
  8
21
 10
68.7742
 20
25.5517
 30
0.0000
 11
68.7742
 21
24.9670
 31
0.0000
  0
LINE
  8
21
 10
68.1895
 20
24.9670
 30
0.0000
 11
68.1895
 21
25.5517
 31
0.0000
  0
LINE
  8
21
 10
68.1895
 20
26.1364
 30
0.0000
 11
68.1895
 21
26.9160
 31
0.0000
  0
LINE
  8
21
 10
67.7997
 20
26.5262
 30
0.0000
 11
68.5793
 21
26.5262
 31
0.0000
  0
LINE
  8
21
 10
76.3942
 20
24.9670
 30
0.0000
 11
75.2248
 21
24.9670
 31
0.0000
  0
LINE
  8
21
 10
75.2248
 20
24.9670
 30
0.0000
 11
75.2248
 21
25.5517
 31
0.0000
  0
LINE
  8
21
 10
75.2248
 20
25.5517
 30
0.0000
 11
75.4197
 21
25.7466
 31
0.0000
  0
LINE
  8
21
 10
75.4197
 20
25.7466
 30
0.0000
 11
75.6146
 21
25.7466
 31
0.0000
  0
LINE
  8
21
 10
75.6146
 20
25.7466
 30
0.0000
 11
75.8095
 21
25.5517
 31
0.0000
  0
LINE
  8
21
 10
75.8095
 20
25.5517
 30
0.0000
 11
76.0044
 21
25.7466
 31
0.0000
  0
LINE
  8
21
 10
76.0044
 20
25.7466
 30
0.0000
 11
76.1993
 21
25.7466
 31
0.0000
  0
LINE
  8
21
 10
76.1993
 20
25.7466
 30
0.0000
 11
76.3942
 21
25.5517
 31
0.0000
  0
LINE
  8
21
 10
76.3942
 20
25.5517
 30
0.0000
 11
76.3942
 21
24.9670
 31
0.0000
  0
LINE
  8
21
 10
75.8095
 20
24.9670
 30
0.0000
 11
75.8095
 21
25.5517
 31
0.0000
  0
LINE
  8
21
 10
75.8095
 20
26.1364
 30
0.0000
 11
75.8095
 21
26.9160
 31
0.0000
  0
LINE
  8
21
 10
71.1858
 20
5.1905
 30
0.0000
 11
72.5416
 21
5.1905
 31
0.0000
  0
LINE
  8
21
 10
72.5416
 20
5.1905
 30
0.0000
 11
72.8128
 21
5.4616
 31
0.0000
  0
LINE
  8
21
 10
72.8128
 20
5.4616
 30
0.0000
 11
72.8128
 21
6.0040
 31
0.0000
  0
LINE
  8
21
 10
72.8128
 20
6.0040
 30
0.0000
 11
72.5416
 21
6.2751
 31
0.0000
  0
LINE
  8
21
 10
72.5416
 20
6.2751
 30
0.0000
 11
71.1858
 21
6.2751
 31
0.0000
  0
LINE
  8
21
 10
71.4570
 20
7.9123
 30
0.0000
 11
71.1858
 21
7.6411
 31
0.0000
  0
LINE
  8
21
 10
71.1858
 20
7.6411
 30
0.0000
 11
71.1858
 21
7.0988
 31
0.0000
  0
LINE
  8
21
 10
71.1858
 20
7.0988
 30
0.0000
 11
71.4570
 21
6.8276
 31
0.0000
  0
LINE
  8
21
 10
71.4570
 20
6.8276
 30
0.0000
 11
71.7281
 21
6.8276
 31
0.0000
  0
LINE
  8
21
 10
71.7281
 20
6.8276
 30
0.0000
 11
71.9993
 21
7.0988
 31
0.0000
  0
LINE
  8
21
 10
71.9993
 20
7.0988
 30
0.0000
 11
71.9993
 21
7.6411
 31
0.0000
  0
LINE
  8
21
 10
71.9993
 20
7.6411
 30
0.0000
 11
72.2705
 21
7.9123
 31
0.0000
  0
LINE
  8
21
 10
72.2705
 20
7.9123
 30
0.0000
 11
72.5416
 21
7.9123
 31
0.0000
  0
LINE
  8
21
 10
72.5416
 20
7.9123
 30
0.0000
 11
72.8128
 21
7.6411
 31
0.0000
  0
LINE
  8
21
 10
72.8128
 20
7.6411
 30
0.0000
 11
72.8128
 21
7.0988
 31
0.0000
  0
LINE
  8
21
 10
72.8128
 20
7.0988
 30
0.0000
 11
72.5416
 21
6.8276
 31
0.0000
  0
LINE
  8
21
 10
72.8128
 20
8.4648
 30
0.0000
 11
71.1858
 21
8.4648
 31
0.0000
  0
LINE
  8
21
 10
71.1858
 20
8.4648
 30
0.0000
 11
71.1858
 21
9.2783
 31
0.0000
  0
LINE
  8
21
 10
71.1858
 20
9.2783
 30
0.0000
 11
71.4570
 21
9.5494
 31
0.0000
  0
LINE
  8
21
 10
71.4570
 20
9.5494
 30
0.0000
 11
71.7281
 21
9.5494
 31
0.0000
  0
LINE
  8
21
 10
71.7281
 20
9.5494
 30
0.0000
 11
71.9993
 21
9.2783
 31
0.0000
  0
LINE
  8
21
 10
71.9993
 20
9.2783
 30
0.0000
 11
72.2705
 21
9.5494
 31
0.0000
  0
LINE
  8
21
 10
72.2705
 20
9.5494
 30
0.0000
 11
72.5416
 21
9.5494
 31
0.0000
  0
LINE
  8
21
 10
72.5416
 20
9.5494
 30
0.0000
 11
72.8128
 21
9.2783
 31
0.0000
  0
LINE
  8
21
 10
72.8128
 20
9.2783
 30
0.0000
 11
72.8128
 21
8.4648
 31
0.0000
  0
LINE
  8
21
 10
71.9993
 20
8.4648
 30
0.0000
 11
71.9993
 21
9.2783
 31
0.0000
  0
LINE
  8
21
 10
64.4298
 20
23.2129
 30
0.0000
 11
64.4298
 21
22.8231
 31
0.0000
  0
LINE
  8
21
 10
64.4298
 20
22.8231
 30
0.0000
 11
64.6247
 21
22.6282
 31
0.0000
  0
LINE
  8
21
 10
64.6247
 20
22.6282
 30
0.0000
 11
65.4043
 21
22.6282
 31
0.0000
  0
LINE
  8
21
 10
65.4043
 20
22.6282
 30
0.0000
 11
65.5992
 21
22.8231
 31
0.0000
  0
LINE
  8
21
 10
65.5992
 20
22.8231
 30
0.0000
 11
65.5992
 21
23.2129
 31
0.0000
  0
LINE
  8
21
 10
65.5992
 20
23.2129
 30
0.0000
 11
65.4043
 21
23.4078
 31
0.0000
  0
LINE
  8
21
 10
65.4043
 20
23.4078
 30
0.0000
 11
64.6247
 21
23.4078
 31
0.0000
  0
LINE
  8
21
 10
64.6247
 20
23.4078
 30
0.0000
 11
64.4298
 21
23.2129
 31
0.0000
  0
LINE
  8
21
 10
64.4298
 20
23.7976
 30
0.0000
 11
65.4043
 21
23.7976
 31
0.0000
  0
LINE
  8
21
 10
65.4043
 20
23.7976
 30
0.0000
 11
65.5992
 21
23.9925
 31
0.0000
  0
LINE
  8
21
 10
65.5992
 20
23.9925
 30
0.0000
 11
65.5992
 21
24.3823
 31
0.0000
  0
LINE
  8
21
 10
65.5992
 20
24.3823
 30
0.0000
 11
65.4043
 21
24.5772
 31
0.0000
  0
LINE
  8
21
 10
65.4043
 20
24.5772
 30
0.0000
 11
64.4298
 21
24.5772
 31
0.0000
  0
LINE
  8
21
 10
65.5992
 20
25.3568
 30
0.0000
 11
64.4298
 21
25.3568
 31
0.0000
  0
LINE
  8
21
 10
64.4298
 20
24.9670
 30
0.0000
 11
64.4298
 21
25.7466
 31
0.0000
  0
LINE
  8
21
 10
65.0145
 20
26.1364
 30
0.0000
 11
65.0145
 21
26.9160
 31
0.0000
  0
LINE
  8
21
 10
64.6247
 20
26.5262
 30
0.0000
 11
65.4043
 21
26.5262
 31
0.0000
  0
LINE
  8
21
 10
78.3998
 20
23.2129
 30
0.0000
 11
78.3998
 21
22.8231
 31
0.0000
  0
LINE
  8
21
 10
78.3998
 20
22.8231
 30
0.0000
 11
78.5947
 21
22.6282
 31
0.0000
  0
LINE
  8
21
 10
78.5947
 20
22.6282
 30
0.0000
 11
79.3743
 21
22.6282
 31
0.0000
  0
LINE
  8
21
 10
79.3743
 20
22.6282
 30
0.0000
 11
79.5692
 21
22.8231
 31
0.0000
  0
LINE
  8
21
 10
79.5692
 20
22.8231
 30
0.0000
 11
79.5692
 21
23.2129
 31
0.0000
  0
LINE
  8
21
 10
79.5692
 20
23.2129
 30
0.0000
 11
79.3743
 21
23.4078
 31
0.0000
  0
LINE
  8
21
 10
79.3743
 20
23.4078
 30
0.0000
 11
78.5947
 21
23.4078
 31
0.0000
  0
LINE
  8
21
 10
78.5947
 20
23.4078
 30
0.0000
 11
78.3998
 21
23.2129
 31
0.0000
  0
LINE
  8
21
 10
78.3998
 20
23.7976
 30
0.0000
 11
79.3743
 21
23.7976
 31
0.0000
  0
LINE
  8
21
 10
79.3743
 20
23.7976
 30
0.0000
 11
79.5692
 21
23.9925
 31
0.0000
  0
LINE
  8
21
 10
79.5692
 20
23.9925
 30
0.0000
 11
79.5692
 21
24.3823
 31
0.0000
  0
LINE
  8
21
 10
79.5692
 20
24.3823
 30
0.0000
 11
79.3743
 21
24.5772
 31
0.0000
  0
LINE
  8
21
 10
79.3743
 20
24.5772
 30
0.0000
 11
78.3998
 21
24.5772
 31
0.0000
  0
LINE
  8
21
 10
79.5692
 20
25.3568
 30
0.0000
 11
78.3998
 21
25.3568
 31
0.0000
  0
LINE
  8
21
 10
78.3998
 20
24.9670
 30
0.0000
 11
78.3998
 21
25.7466
 31
0.0000
  0
LINE
  8
21
 10
78.9845
 20
26.1364
 30
0.0000
 11
78.9845
 21
26.9160
 31
0.0000
  0
ENDSEC
  0
EOF
