  0
SECTION
  2
HEADER
  9
$ACADVER
  1
AC1009
  9
$FILLMODE
 70
1
  9
$EXTMIN
 10
-8.9220
 20
-5.5650
 30
0.0000
  9
$EXTMAX
 10
91.4850
 20
44.9220
 30
0.0000
  0
ENDSEC
  0
SECTION
  2
TABLES
  0
TABLE
  2
LTYPE
 70
1
  0
LTYPE
  2
CONTINUOUS
 70
64
  3
Solid line
 72
65
 73
0
 40
0
  0
ENDTAB
  0
TABLE
  2
LAYER
 70
255
  0
LAYER
  2
46
 70
64
 62
140
  6
CONTINUOUS
  0
ENDTAB
  0
ENDSEC
  0
SECTION
  2
BLOCKS
  0
BLOCK
  8
0
  2
RECT
 70
64
 10
0.0000
 20
0.0000
 30
0.0000
  3
RECT
  0
SOLID
  8
0
 10
-0.5000
 20
-0.5000
 30
0.0000
 11
0.5000
 21
-0.5000
 31
0.0000
 12
-0.5000
 22
0.5000
 32
0.0000
 13
0.5000
 23
0.5000
 33
0.0000
  0
ENDBLK
  8
0
  0
BLOCK
  8
0
  2
PIE
 70
64
 10
0.0000
 20
0.0000
 30
0.0000
  3
PIE
  0
POLYLINE
  8
0
 66
1
 10
0.0000
 20
0.0000
 30
0.0000
 40
0.5000
 41
0.5000
 70
0
  0
VERTEX
  8
0
 10
0.0000
 20
-0.2500
 30
0.0000
 42
1.0000
  0
VERTEX
  8
0
 10
0.0000
 20
0.2500
 30
0.0000
 42
1.0000
  0
VERTEX
  8
0
 10
0.0000
 20
-0.2500
 30
0.0000
  0
SEQEND
  8
0
  0
ENDBLK
  8
0
  0
BLOCK
  8
0
  2
OCTAGONP
 70
64
 10
0.0000
 20
0.0000
 30
0.0000
  3
OCTAGONP
  0
POLYLINE
  8
0
 66
1
 10
0.0000
 20
0.0000
 30
0.0000
 40
0.5000
 41
0.5000
 70
0
  0
VERTEX
  8
0
 10
-0.2500
 20
-0.1036
 30
0.0000
  0
VERTEX
  8
0
 10
-0.2500
 20
0.1036
 30
0.0000
  0
VERTEX
  8
0
 10
-0.1036
 20
0.2500
 30
0.0000
  0
VERTEX
  8
0
 10
0.1036
 20
0.2500
 30
0.0000
  0
VERTEX
  8
0
 10
0.2500
 20
0.1036
 30
0.0000
  0
VERTEX
  8
0
 10
0.2500
 20
-0.1036
 30
0.0000
  0
VERTEX
  8
0
 10
0.1036
 20
-0.2500
 30
0.0000
  0
VERTEX
  8
0
 10
-0.1036
 20
-0.2500
 30
0.0000
  0
VERTEX
  8
0
 10
-0.2500
 20
-0.1036
 30
0.0000
  0
VERTEX
  8
0
 10
-0.2500
 20
0.1036
 30
0.0000
  0
SEQEND
  8
0
  0
ENDBLK
  8
0
  0
BLOCK
  8
0
  2
SQUAREP
 70
64
 10
0.0000
 20
0.0000
 30
0.0000
  3
SQUAREP
  0
SOLID
  8
0
 10
-0.5000
 20
-0.5000
 30
0.0000
 11
0.5000
 21
-0.5000
 31
0.0000
 12
-0.5000
 22
0.5000
 32
0.0000
 13
0.5000
 23
0.5000
 33
0.0000
  0
ENDBLK
  8
0
  0
BLOCK
  8
0
  2
ROUNDP
 70
64
 10
0.0000
 20
0.0000
 30
0.0000
  3
ROUNDP
  0
POLYLINE
  8
0
 66
1
 10
0.0000
 20
0.0000
 30
0.0000
 40
0.5000
 41
0.5000
 70
0
  0
VERTEX
  8
0
 10
0.0000
 20
-0.2500
 30
0.0000
 42
1.0000
  0
VERTEX
  8
0
 10
0.0000
 20
0.2500
 30
0.0000
 42
1.0000
  0
VERTEX
  8
0
 10
0.0000
 20
-0.2500
 30
0.0000
  0
SEQEND
  8
0
  0
ENDBLK
  8
0
  0
BLOCK
  8
0
  2
ANNULUSP
 70
64
 10
0.0000
 20
0.0000
 30
0.0000
  3
ANNULUSP
  0
POLYLINE
  8
0
 66
1
 10
0.0000
 20
0.0000
 30
0.0000
 40
0.5000
 41
0.5000
 70
0
  0
VERTEX
  8
0
 10
0.0000
 20
-0.2500
 30
0.0000
 42
1.0000
  0
VERTEX
  8
0
 10
0.0000
 20
0.2500
 30
0.0000
 42
1.0000
  0
VERTEX
  8
0
 10
0.0000
 20
-0.2500
 30
0.0000
  0
SEQEND
  8
0
  0
ENDBLK
  8
0
  0
BLOCK
  8
0
  2
THERMALP
 70
64
 10
0.0000
 20
0.0000
 30
0.0000
  3
THERMALP
  0
POLYLINE
  8
0
 66
1
 10
0.0000
 20
0.0000
 30
0.0000
 40
0.1000
 41
0.1000
 70
0
  0
VERTEX
  8
0
 10
-0.2379
 20
0.4500
 30
0.0000
  0
VERTEX
  8
0
 10
0.2379
 20
0.4500
 30
0.0000
  0
SEQEND
  8
0
  0
POLYLINE
  8
0
 66
1
 10
0.0000
 20
0.0000
 30
0.0000
 40
0.0500
 41
0.0500
 70
0
  0
VERTEX
  8
0
 10
0.2379
 20
0.4250
 30
0.0000
 42
1.0000
  0
VERTEX
  8
0
 10
0.2379
 20
0.4750
 30
0.0000
  0
SEQEND
  8
0
  0
POLYLINE
  8
0
 66
1
 10
0.0000
 20
0.0000
 30
0.0000
 40
0.0500
 41
0.0500
 70
0
  0
VERTEX
  8
0
 10
-0.2379
 20
0.4750
 30
0.0000
 42
1.0000
  0
VERTEX
  8
0
 10
-0.2379
 20
0.4250
 30
0.0000
  0
SEQEND
  8
0
  0
POLYLINE
  8
0
 66
1
 10
0.0000
 20
0.0000
 30
0.0000
 40
0.1000
 41
0.1000
 70
0
  0
VERTEX
  8
0
 10
0.4500
 20
0.2379
 30
0.0000
  0
VERTEX
  8
0
 10
0.4500
 20
-0.2379
 30
0.0000
  0
SEQEND
  8
0
  0
POLYLINE
  8
0
 66
1
 10
0.0000
 20
0.0000
 30
0.0000
 40
0.0500
 41
0.0500
 70
0
  0
VERTEX
  8
0
 10
0.4250
 20
-0.2379
 30
0.0000
 42
1.0000
  0
VERTEX
  8
0
 10
0.4750
 20
-0.2379
 30
0.0000
  0
SEQEND
  8
0
  0
POLYLINE
  8
0
 66
1
 10
0.0000
 20
0.0000
 30
0.0000
 40
0.0500
 41
0.0500
 70
0
  0
VERTEX
  8
0
 10
0.4750
 20
0.2379
 30
0.0000
 42
1.0000
  0
VERTEX
  8
0
 10
0.4250
 20
0.2379
 30
0.0000
  0
SEQEND
  8
0
  0
POLYLINE
  8
0
 66
1
 10
0.0000
 20
0.0000
 30
0.0000
 40
0.1000
 41
0.1000
 70
0
  0
VERTEX
  8
0
 10
0.2379
 20
-0.4500
 30
0.0000
  0
VERTEX
  8
0
 10
-0.2379
 20
-0.4500
 30
0.0000
  0
SEQEND
  8
0
  0
POLYLINE
  8
0
 66
1
 10
0.0000
 20
0.0000
 30
0.0000
 40
0.0500
 41
0.0500
 70
0
  0
VERTEX
  8
0
 10
-0.2379
 20
-0.4250
 30
0.0000
 42
1.0000
  0
VERTEX
  8
0
 10
-0.2379
 20
-0.4750
 30
0.0000
  0
SEQEND
  8
0
  0
POLYLINE
  8
0
 66
1
 10
0.0000
 20
0.0000
 30
0.0000
 40
0.0500
 41
0.0500
 70
0
  0
VERTEX
  8
0
 10
0.2379
 20
-0.4750
 30
0.0000
 42
1.0000
  0
VERTEX
  8
0
 10
0.2379
 20
-0.4250
 30
0.0000
  0
SEQEND
  8
0
  0
POLYLINE
  8
0
 66
1
 10
0.0000
 20
0.0000
 30
0.0000
 40
0.1000
 41
0.1000
 70
0
  0
VERTEX
  8
0
 10
-0.4500
 20
-0.2379
 30
0.0000
  0
VERTEX
  8
0
 10
-0.4500
 20
0.2379
 30
0.0000
  0
SEQEND
  8
0
  0
POLYLINE
  8
0
 66
1
 10
0.0000
 20
0.0000
 30
0.0000
 40
0.0500
 41
0.0500
 70
0
  0
VERTEX
  8
0
 10
-0.4250
 20
0.2379
 30
0.0000
 42
1.0000
  0
VERTEX
  8
0
 10
-0.4750
 20
0.2379
 30
0.0000
  0
SEQEND
  8
0
  0
POLYLINE
  8
0
 66
1
 10
0.0000
 20
0.0000
 30
0.0000
 40
0.0500
 41
0.0500
 70
0
  0
VERTEX
  8
0
 10
-0.4750
 20
-0.2379
 30
0.0000
 42
1.0000
  0
VERTEX
  8
0
 10
-0.4250
 20
-0.2379
 30
0.0000
  0
SEQEND
  8
0
  0
ENDBLK
  8
0
  0
BLOCK
  8
0
  2
OCTAGONV
 70
64
 10
0.0000
 20
0.0000
 30
0.0000
  3
OCTAGONV
  0
POLYLINE
  8
0
 66
1
 10
0.0000
 20
0.0000
 30
0.0000
 40
0.5000
 41
0.5000
 70
0
  0
VERTEX
  8
0
 10
-0.2500
 20
-0.1036
 30
0.0000
  0
VERTEX
  8
0
 10
-0.2500
 20
0.1036
 30
0.0000
  0
VERTEX
  8
0
 10
-0.1036
 20
0.2500
 30
0.0000
  0
VERTEX
  8
0
 10
0.1036
 20
0.2500
 30
0.0000
  0
VERTEX
  8
0
 10
0.2500
 20
0.1036
 30
0.0000
  0
VERTEX
  8
0
 10
0.2500
 20
-0.1036
 30
0.0000
  0
VERTEX
  8
0
 10
0.1036
 20
-0.2500
 30
0.0000
  0
VERTEX
  8
0
 10
-0.1036
 20
-0.2500
 30
0.0000
  0
VERTEX
  8
0
 10
-0.2500
 20
-0.1036
 30
0.0000
  0
VERTEX
  8
0
 10
-0.2500
 20
0.1036
 30
0.0000
  0
SEQEND
  8
0
  0
ENDBLK
  8
0
  0
BLOCK
  8
0
  2
SQUAREV
 70
64
 10
0.0000
 20
0.0000
 30
0.0000
  3
SQUAREV
  0
SOLID
  8
0
 10
-0.5000
 20
-0.5000
 30
0.0000
 11
0.5000
 21
-0.5000
 31
0.0000
 12
-0.5000
 22
0.5000
 32
0.0000
 13
0.5000
 23
0.5000
 33
0.0000
  0
ENDBLK
  8
0
  0
BLOCK
  8
0
  2
ROUNDV
 70
64
 10
0.0000
 20
0.0000
 30
0.0000
  3
ROUNDV
  0
POLYLINE
  8
0
 66
1
 10
0.0000
 20
0.0000
 30
0.0000
 40
0.5000
 41
0.5000
 70
0
  0
VERTEX
  8
0
 10
0.0000
 20
-0.2500
 30
0.0000
 42
1.0000
  0
VERTEX
  8
0
 10
0.0000
 20
0.2500
 30
0.0000
 42
1.0000
  0
VERTEX
  8
0
 10
0.0000
 20
-0.2500
 30
0.0000
  0
SEQEND
  8
0
  0
ENDBLK
  8
0
  0
BLOCK
  8
0
  2
ANNULUSV
 70
64
 10
0.0000
 20
0.0000
 30
0.0000
  3
ANNULUSV
  0
POLYLINE
  8
0
 66
1
 10
0.0000
 20
0.0000
 30
0.0000
 40
0.5000
 41
0.5000
 70
0
  0
VERTEX
  8
0
 10
0.0000
 20
-0.2500
 30
0.0000
 42
1.0000
  0
VERTEX
  8
0
 10
0.0000
 20
0.2500
 30
0.0000
 42
1.0000
  0
VERTEX
  8
0
 10
0.0000
 20
-0.2500
 30
0.0000
  0
SEQEND
  8
0
  0
ENDBLK
  8
0
  0
BLOCK
  8
0
  2
THERMALV
 70
64
 10
0.0000
 20
0.0000
 30
0.0000
  3
THERMALV
  0
POLYLINE
  8
0
 66
1
 10
0.0000
 20
0.0000
 30
0.0000
 40
0.1000
 41
0.1000
 70
0
  0
VERTEX
  8
0
 10
-0.2379
 20
0.4500
 30
0.0000
  0
VERTEX
  8
0
 10
0.2379
 20
0.4500
 30
0.0000
  0
SEQEND
  8
0
  0
POLYLINE
  8
0
 66
1
 10
0.0000
 20
0.0000
 30
0.0000
 40
0.0500
 41
0.0500
 70
0
  0
VERTEX
  8
0
 10
0.2379
 20
0.4250
 30
0.0000
 42
1.0000
  0
VERTEX
  8
0
 10
0.2379
 20
0.4750
 30
0.0000
  0
SEQEND
  8
0
  0
POLYLINE
  8
0
 66
1
 10
0.0000
 20
0.0000
 30
0.0000
 40
0.0500
 41
0.0500
 70
0
  0
VERTEX
  8
0
 10
-0.2379
 20
0.4750
 30
0.0000
 42
1.0000
  0
VERTEX
  8
0
 10
-0.2379
 20
0.4250
 30
0.0000
  0
SEQEND
  8
0
  0
POLYLINE
  8
0
 66
1
 10
0.0000
 20
0.0000
 30
0.0000
 40
0.1000
 41
0.1000
 70
0
  0
VERTEX
  8
0
 10
0.4500
 20
0.2379
 30
0.0000
  0
VERTEX
  8
0
 10
0.4500
 20
-0.2379
 30
0.0000
  0
SEQEND
  8
0
  0
POLYLINE
  8
0
 66
1
 10
0.0000
 20
0.0000
 30
0.0000
 40
0.0500
 41
0.0500
 70
0
  0
VERTEX
  8
0
 10
0.4250
 20
-0.2379
 30
0.0000
 42
1.0000
  0
VERTEX
  8
0
 10
0.4750
 20
-0.2379
 30
0.0000
  0
SEQEND
  8
0
  0
POLYLINE
  8
0
 66
1
 10
0.0000
 20
0.0000
 30
0.0000
 40
0.0500
 41
0.0500
 70
0
  0
VERTEX
  8
0
 10
0.4750
 20
0.2379
 30
0.0000
 42
1.0000
  0
VERTEX
  8
0
 10
0.4250
 20
0.2379
 30
0.0000
  0
SEQEND
  8
0
  0
POLYLINE
  8
0
 66
1
 10
0.0000
 20
0.0000
 30
0.0000
 40
0.1000
 41
0.1000
 70
0
  0
VERTEX
  8
0
 10
0.2379
 20
-0.4500
 30
0.0000
  0
VERTEX
  8
0
 10
-0.2379
 20
-0.4500
 30
0.0000
  0
SEQEND
  8
0
  0
POLYLINE
  8
0
 66
1
 10
0.0000
 20
0.0000
 30
0.0000
 40
0.0500
 41
0.0500
 70
0
  0
VERTEX
  8
0
 10
-0.2379
 20
-0.4250
 30
0.0000
 42
1.0000
  0
VERTEX
  8
0
 10
-0.2379
 20
-0.4750
 30
0.0000
  0
SEQEND
  8
0
  0
POLYLINE
  8
0
 66
1
 10
0.0000
 20
0.0000
 30
0.0000
 40
0.0500
 41
0.0500
 70
0
  0
VERTEX
  8
0
 10
0.2379
 20
-0.4750
 30
0.0000
 42
1.0000
  0
VERTEX
  8
0
 10
0.2379
 20
-0.4250
 30
0.0000
  0
SEQEND
  8
0
  0
POLYLINE
  8
0
 66
1
 10
0.0000
 20
0.0000
 30
0.0000
 40
0.1000
 41
0.1000
 70
0
  0
VERTEX
  8
0
 10
-0.4500
 20
-0.2379
 30
0.0000
  0
VERTEX
  8
0
 10
-0.4500
 20
0.2379
 30
0.0000
  0
SEQEND
  8
0
  0
POLYLINE
  8
0
 66
1
 10
0.0000
 20
0.0000
 30
0.0000
 40
0.0500
 41
0.0500
 70
0
  0
VERTEX
  8
0
 10
-0.4250
 20
0.2379
 30
0.0000
 42
1.0000
  0
VERTEX
  8
0
 10
-0.4750
 20
0.2379
 30
0.0000
  0
SEQEND
  8
0
  0
POLYLINE
  8
0
 66
1
 10
0.0000
 20
0.0000
 30
0.0000
 40
0.0500
 41
0.0500
 70
0
  0
VERTEX
  8
0
 10
-0.4750
 20
-0.2379
 30
0.0000
 42
1.0000
  0
VERTEX
  8
0
 10
-0.4250
 20
-0.2379
 30
0.0000
  0
SEQEND
  8
0
  0
ENDBLK
  8
0
  0
ENDSEC
  0
SECTION
  2
ENTITIES
  0
POLYLINE
  8
46
 66
1
 10
0.0000
 20
0.0000
 30
0.0000
 40
0.5080
 41
0.5080
 70
0
  0
VERTEX
  8
46
 10
10.2540
 20
35.5011
 30
0.0000
  0
VERTEX
  8
46
 10
11.9168
 20
35.5011
 30
0.0000
  0
SEQEND
  8
0
  0
POLYLINE
  8
46
 66
1
 10
0.0000
 20
0.0000
 30
0.0000
 40
0.2540
 41
0.2540
 70
0
  0
VERTEX
  8
46
 10
11.9168
 20
35.3741
 30
0.0000
 42
1.0000
  0
VERTEX
  8
46
 10
11.9168
 20
35.6281
 30
0.0000
  0
SEQEND
  8
0
  0
POLYLINE
  8
46
 66
1
 10
0.0000
 20
0.0000
 30
0.0000
 40
0.2540
 41
0.2540
 70
0
  0
VERTEX
  8
46
 10
10.2540
 20
35.6281
 30
0.0000
 42
1.0000
  0
VERTEX
  8
46
 10
10.2540
 20
35.3741
 30
0.0000
  0
SEQEND
  8
0
  0
POLYLINE
  8
46
 66
1
 10
0.0000
 20
0.0000
 30
0.0000
 40
0.5080
 41
0.5080
 70
0
  0
VERTEX
  8
46
 10
11.0854
 20
36.3324
 30
0.0000
  0
VERTEX
  8
46
 10
11.0854
 20
34.6697
 30
0.0000
  0
SEQEND
  8
0
  0
POLYLINE
  8
46
 66
1
 10
0.0000
 20
0.0000
 30
0.0000
 40
0.2540
 41
0.2540
 70
0
  0
VERTEX
  8
46
 10
10.9584
 20
34.6697
 30
0.0000
 42
1.0000
  0
VERTEX
  8
46
 10
11.2124
 20
34.6697
 30
0.0000
  0
SEQEND
  8
0
  0
POLYLINE
  8
46
 66
1
 10
0.0000
 20
0.0000
 30
0.0000
 40
0.2540
 41
0.2540
 70
0
  0
VERTEX
  8
46
 10
11.2124
 20
36.3324
 30
0.0000
 42
1.0000
  0
VERTEX
  8
46
 10
10.9584
 20
36.3324
 30
0.0000
  0
SEQEND
  8
0
  0
POLYLINE
  8
46
 66
1
 10
0.0000
 20
0.0000
 30
0.0000
 40
0.5080
 41
0.5080
 70
0
  0
VERTEX
  8
46
 10
29.2540
 20
35.5011
 30
0.0000
  0
VERTEX
  8
46
 10
30.9168
 20
35.5011
 30
0.0000
  0
SEQEND
  8
0
  0
POLYLINE
  8
46
 66
1
 10
0.0000
 20
0.0000
 30
0.0000
 40
0.2540
 41
0.2540
 70
0
  0
VERTEX
  8
46
 10
30.9168
 20
35.3741
 30
0.0000
 42
1.0000
  0
VERTEX
  8
46
 10
30.9168
 20
35.6281
 30
0.0000
  0
SEQEND
  8
0
  0
POLYLINE
  8
46
 66
1
 10
0.0000
 20
0.0000
 30
0.0000
 40
0.2540
 41
0.2540
 70
0
  0
VERTEX
  8
46
 10
29.2540
 20
35.6281
 30
0.0000
 42
1.0000
  0
VERTEX
  8
46
 10
29.2540
 20
35.3741
 30
0.0000
  0
SEQEND
  8
0
  0
POLYLINE
  8
46
 66
1
 10
0.0000
 20
0.0000
 30
0.0000
 40
0.5080
 41
0.5080
 70
0
  0
VERTEX
  8
46
 10
30.0854
 20
36.3324
 30
0.0000
  0
VERTEX
  8
46
 10
30.0854
 20
34.6697
 30
0.0000
  0
SEQEND
  8
0
  0
POLYLINE
  8
46
 66
1
 10
0.0000
 20
0.0000
 30
0.0000
 40
0.2540
 41
0.2540
 70
0
  0
VERTEX
  8
46
 10
29.9584
 20
34.6697
 30
0.0000
 42
1.0000
  0
VERTEX
  8
46
 10
30.2124
 20
34.6697
 30
0.0000
  0
SEQEND
  8
0
  0
POLYLINE
  8
46
 66
1
 10
0.0000
 20
0.0000
 30
0.0000
 40
0.2540
 41
0.2540
 70
0
  0
VERTEX
  8
46
 10
30.2124
 20
36.3324
 30
0.0000
 42
1.0000
  0
VERTEX
  8
46
 10
29.9584
 20
36.3324
 30
0.0000
  0
SEQEND
  8
0
  0
POLYLINE
  8
46
 66
1
 10
0.0000
 20
0.0000
 30
0.0000
 40
0.5080
 41
0.5080
 70
0
  0
VERTEX
  8
46
 10
48.2540
 20
35.5011
 30
0.0000
  0
VERTEX
  8
46
 10
49.9168
 20
35.5011
 30
0.0000
  0
SEQEND
  8
0
  0
POLYLINE
  8
46
 66
1
 10
0.0000
 20
0.0000
 30
0.0000
 40
0.2540
 41
0.2540
 70
0
  0
VERTEX
  8
46
 10
49.9168
 20
35.3741
 30
0.0000
 42
1.0000
  0
VERTEX
  8
46
 10
49.9168
 20
35.6281
 30
0.0000
  0
SEQEND
  8
0
  0
POLYLINE
  8
46
 66
1
 10
0.0000
 20
0.0000
 30
0.0000
 40
0.2540
 41
0.2540
 70
0
  0
VERTEX
  8
46
 10
48.2540
 20
35.6281
 30
0.0000
 42
1.0000
  0
VERTEX
  8
46
 10
48.2540
 20
35.3741
 30
0.0000
  0
SEQEND
  8
0
  0
POLYLINE
  8
46
 66
1
 10
0.0000
 20
0.0000
 30
0.0000
 40
0.5080
 41
0.5080
 70
0
  0
VERTEX
  8
46
 10
49.0854
 20
36.3324
 30
0.0000
  0
VERTEX
  8
46
 10
49.0854
 20
34.6697
 30
0.0000
  0
SEQEND
  8
0
  0
POLYLINE
  8
46
 66
1
 10
0.0000
 20
0.0000
 30
0.0000
 40
0.2540
 41
0.2540
 70
0
  0
VERTEX
  8
46
 10
48.9584
 20
34.6697
 30
0.0000
 42
1.0000
  0
VERTEX
  8
46
 10
49.2124
 20
34.6697
 30
0.0000
  0
SEQEND
  8
0
  0
POLYLINE
  8
46
 66
1
 10
0.0000
 20
0.0000
 30
0.0000
 40
0.2540
 41
0.2540
 70
0
  0
VERTEX
  8
46
 10
49.2124
 20
36.3324
 30
0.0000
 42
1.0000
  0
VERTEX
  8
46
 10
48.9584
 20
36.3324
 30
0.0000
  0
SEQEND
  8
0
  0
POLYLINE
  8
46
 66
1
 10
0.0000
 20
0.0000
 30
0.0000
 40
0.5080
 41
0.5080
 70
0
  0
VERTEX
  8
46
 10
67.2540
 20
35.5011
 30
0.0000
  0
VERTEX
  8
46
 10
68.9168
 20
35.5011
 30
0.0000
  0
SEQEND
  8
0
  0
POLYLINE
  8
46
 66
1
 10
0.0000
 20
0.0000
 30
0.0000
 40
0.2540
 41
0.2540
 70
0
  0
VERTEX
  8
46
 10
68.9168
 20
35.3741
 30
0.0000
 42
1.0000
  0
VERTEX
  8
46
 10
68.9168
 20
35.6281
 30
0.0000
  0
SEQEND
  8
0
  0
POLYLINE
  8
46
 66
1
 10
0.0000
 20
0.0000
 30
0.0000
 40
0.2540
 41
0.2540
 70
0
  0
VERTEX
  8
46
 10
67.2540
 20
35.6281
 30
0.0000
 42
1.0000
  0
VERTEX
  8
46
 10
67.2540
 20
35.3741
 30
0.0000
  0
SEQEND
  8
0
  0
POLYLINE
  8
46
 66
1
 10
0.0000
 20
0.0000
 30
0.0000
 40
0.5080
 41
0.5080
 70
0
  0
VERTEX
  8
46
 10
68.0854
 20
36.3324
 30
0.0000
  0
VERTEX
  8
46
 10
68.0854
 20
34.6697
 30
0.0000
  0
SEQEND
  8
0
  0
POLYLINE
  8
46
 66
1
 10
0.0000
 20
0.0000
 30
0.0000
 40
0.2540
 41
0.2540
 70
0
  0
VERTEX
  8
46
 10
67.9584
 20
34.6697
 30
0.0000
 42
1.0000
  0
VERTEX
  8
46
 10
68.2124
 20
34.6697
 30
0.0000
  0
SEQEND
  8
0
  0
POLYLINE
  8
46
 66
1
 10
0.0000
 20
0.0000
 30
0.0000
 40
0.2540
 41
0.2540
 70
0
  0
VERTEX
  8
46
 10
68.2124
 20
36.3324
 30
0.0000
 42
1.0000
  0
VERTEX
  8
46
 10
67.9584
 20
36.3324
 30
0.0000
  0
SEQEND
  8
0
  0
POLYLINE
  8
46
 66
1
 10
0.0000
 20
0.0000
 30
0.0000
 40
0.5080
 41
0.5080
 70
0
  0
VERTEX
  8
46
 10
1.2540
 20
14.5011
 30
0.0000
  0
VERTEX
  8
46
 10
2.9168
 20
14.5011
 30
0.0000
  0
SEQEND
  8
0
  0
POLYLINE
  8
46
 66
1
 10
0.0000
 20
0.0000
 30
0.0000
 40
0.2540
 41
0.2540
 70
0
  0
VERTEX
  8
46
 10
2.9168
 20
14.3741
 30
0.0000
 42
1.0000
  0
VERTEX
  8
46
 10
2.9168
 20
14.6281
 30
0.0000
  0
SEQEND
  8
0
  0
POLYLINE
  8
46
 66
1
 10
0.0000
 20
0.0000
 30
0.0000
 40
0.2540
 41
0.2540
 70
0
  0
VERTEX
  8
46
 10
1.2540
 20
14.6281
 30
0.0000
 42
1.0000
  0
VERTEX
  8
46
 10
1.2540
 20
14.3741
 30
0.0000
  0
SEQEND
  8
0
  0
POLYLINE
  8
46
 66
1
 10
0.0000
 20
0.0000
 30
0.0000
 40
0.5080
 41
0.5080
 70
0
  0
VERTEX
  8
46
 10
2.0854
 20
15.3324
 30
0.0000
  0
VERTEX
  8
46
 10
2.0854
 20
13.6697
 30
0.0000
  0
SEQEND
  8
0
  0
POLYLINE
  8
46
 66
1
 10
0.0000
 20
0.0000
 30
0.0000
 40
0.2540
 41
0.2540
 70
0
  0
VERTEX
  8
46
 10
1.9584
 20
13.6697
 30
0.0000
 42
1.0000
  0
VERTEX
  8
46
 10
2.2124
 20
13.6697
 30
0.0000
  0
SEQEND
  8
0
  0
POLYLINE
  8
46
 66
1
 10
0.0000
 20
0.0000
 30
0.0000
 40
0.2540
 41
0.2540
 70
0
  0
VERTEX
  8
46
 10
2.2124
 20
15.3324
 30
0.0000
 42
1.0000
  0
VERTEX
  8
46
 10
1.9584
 20
15.3324
 30
0.0000
  0
SEQEND
  8
0
  0
POLYLINE
  8
46
 66
1
 10
0.0000
 20
0.0000
 30
0.0000
 40
0.5080
 41
0.5080
 70
0
  0
VERTEX
  8
46
 10
3.8040
 20
14.5011
 30
0.0000
  0
VERTEX
  8
46
 10
5.4668
 20
14.5011
 30
0.0000
  0
SEQEND
  8
0
  0
POLYLINE
  8
46
 66
1
 10
0.0000
 20
0.0000
 30
0.0000
 40
0.2540
 41
0.2540
 70
0
  0
VERTEX
  8
46
 10
5.4668
 20
14.3741
 30
0.0000
 42
1.0000
  0
VERTEX
  8
46
 10
5.4668
 20
14.6281
 30
0.0000
  0
SEQEND
  8
0
  0
POLYLINE
  8
46
 66
1
 10
0.0000
 20
0.0000
 30
0.0000
 40
0.2540
 41
0.2540
 70
0
  0
VERTEX
  8
46
 10
3.8040
 20
14.6281
 30
0.0000
 42
1.0000
  0
VERTEX
  8
46
 10
3.8040
 20
14.3741
 30
0.0000
  0
SEQEND
  8
0
  0
POLYLINE
  8
46
 66
1
 10
0.0000
 20
0.0000
 30
0.0000
 40
0.5080
 41
0.5080
 70
0
  0
VERTEX
  8
46
 10
18.7540
 20
35.5011
 30
0.0000
  0
VERTEX
  8
46
 10
20.4168
 20
35.5011
 30
0.0000
  0
SEQEND
  8
0
  0
POLYLINE
  8
46
 66
1
 10
0.0000
 20
0.0000
 30
0.0000
 40
0.2540
 41
0.2540
 70
0
  0
VERTEX
  8
46
 10
20.4168
 20
35.3741
 30
0.0000
 42
1.0000
  0
VERTEX
  8
46
 10
20.4168
 20
35.6281
 30
0.0000
  0
SEQEND
  8
0
  0
POLYLINE
  8
46
 66
1
 10
0.0000
 20
0.0000
 30
0.0000
 40
0.2540
 41
0.2540
 70
0
  0
VERTEX
  8
46
 10
18.7540
 20
35.6281
 30
0.0000
 42
1.0000
  0
VERTEX
  8
46
 10
18.7540
 20
35.3741
 30
0.0000
  0
SEQEND
  8
0
  0
POLYLINE
  8
46
 66
1
 10
0.0000
 20
0.0000
 30
0.0000
 40
0.5080
 41
0.5080
 70
0
  0
VERTEX
  8
46
 10
37.7540
 20
35.5011
 30
0.0000
  0
VERTEX
  8
46
 10
39.4168
 20
35.5011
 30
0.0000
  0
SEQEND
  8
0
  0
POLYLINE
  8
46
 66
1
 10
0.0000
 20
0.0000
 30
0.0000
 40
0.2540
 41
0.2540
 70
0
  0
VERTEX
  8
46
 10
39.4168
 20
35.3741
 30
0.0000
 42
1.0000
  0
VERTEX
  8
46
 10
39.4168
 20
35.6281
 30
0.0000
  0
SEQEND
  8
0
  0
POLYLINE
  8
46
 66
1
 10
0.0000
 20
0.0000
 30
0.0000
 40
0.2540
 41
0.2540
 70
0
  0
VERTEX
  8
46
 10
37.7540
 20
35.6281
 30
0.0000
 42
1.0000
  0
VERTEX
  8
46
 10
37.7540
 20
35.3741
 30
0.0000
  0
SEQEND
  8
0
  0
POLYLINE
  8
46
 66
1
 10
0.0000
 20
0.0000
 30
0.0000
 40
0.5080
 41
0.5080
 70
0
  0
VERTEX
  8
46
 10
56.7540
 20
35.5011
 30
0.0000
  0
VERTEX
  8
46
 10
58.4168
 20
35.5011
 30
0.0000
  0
SEQEND
  8
0
  0
POLYLINE
  8
46
 66
1
 10
0.0000
 20
0.0000
 30
0.0000
 40
0.2540
 41
0.2540
 70
0
  0
VERTEX
  8
46
 10
58.4168
 20
35.3741
 30
0.0000
 42
1.0000
  0
VERTEX
  8
46
 10
58.4168
 20
35.6281
 30
0.0000
  0
SEQEND
  8
0
  0
POLYLINE
  8
46
 66
1
 10
0.0000
 20
0.0000
 30
0.0000
 40
0.2540
 41
0.2540
 70
0
  0
VERTEX
  8
46
 10
56.7540
 20
35.6281
 30
0.0000
 42
1.0000
  0
VERTEX
  8
46
 10
56.7540
 20
35.3741
 30
0.0000
  0
SEQEND
  8
0
  0
POLYLINE
  8
46
 66
1
 10
0.0000
 20
0.0000
 30
0.0000
 40
0.5080
 41
0.5080
 70
0
  0
VERTEX
  8
46
 10
75.7540
 20
35.5011
 30
0.0000
  0
VERTEX
  8
46
 10
77.4168
 20
35.5011
 30
0.0000
  0
SEQEND
  8
0
  0
POLYLINE
  8
46
 66
1
 10
0.0000
 20
0.0000
 30
0.0000
 40
0.2540
 41
0.2540
 70
0
  0
VERTEX
  8
46
 10
77.4168
 20
35.3741
 30
0.0000
 42
1.0000
  0
VERTEX
  8
46
 10
77.4168
 20
35.6281
 30
0.0000
  0
SEQEND
  8
0
  0
POLYLINE
  8
46
 66
1
 10
0.0000
 20
0.0000
 30
0.0000
 40
0.2540
 41
0.2540
 70
0
  0
VERTEX
  8
46
 10
75.7540
 20
35.6281
 30
0.0000
 42
1.0000
  0
VERTEX
  8
46
 10
75.7540
 20
35.3741
 30
0.0000
  0
SEQEND
  8
0
  0
POLYLINE
  8
46
 66
1
 10
0.0000
 20
0.0000
 30
0.0000
 40
0.5080
 41
0.5080
 70
0
  0
VERTEX
  8
46
 10
1.7519
 20
28.4168
 30
0.0000
  0
VERTEX
  8
46
 10
1.7519
 20
26.7540
 30
0.0000
  0
SEQEND
  8
0
  0
POLYLINE
  8
46
 66
1
 10
0.0000
 20
0.0000
 30
0.0000
 40
0.2540
 41
0.2540
 70
0
  0
VERTEX
  8
46
 10
1.6249
 20
26.7540
 30
0.0000
 42
1.0000
  0
VERTEX
  8
46
 10
1.8789
 20
26.7540
 30
0.0000
  0
SEQEND
  8
0
  0
POLYLINE
  8
46
 66
1
 10
0.0000
 20
0.0000
 30
0.0000
 40
0.2540
 41
0.2540
 70
0
  0
VERTEX
  8
46
 10
1.8789
 20
28.4168
 30
0.0000
 42
1.0000
  0
VERTEX
  8
46
 10
1.6249
 20
28.4168
 30
0.0000
  0
SEQEND
  8
0
  0
POLYLINE
  8
46
 66
1
 10
0.0000
 20
0.0000
 30
0.0000
 40
0.5080
 41
0.5080
 70
0
  0
VERTEX
  8
46
 10
1.7519
 20
26.7540
 30
0.0000
  0
VERTEX
  8
46
 10
2.9989
 20
26.7540
 30
0.0000
  0
SEQEND
  8
0
  0
POLYLINE
  8
46
 66
1
 10
0.0000
 20
0.0000
 30
0.0000
 40
0.2540
 41
0.2540
 70
0
  0
VERTEX
  8
46
 10
2.9989
 20
26.6270
 30
0.0000
 42
1.0000
  0
VERTEX
  8
46
 10
2.9989
 20
26.8810
 30
0.0000
  0
SEQEND
  8
0
  0
POLYLINE
  8
46
 66
1
 10
0.0000
 20
0.0000
 30
0.0000
 40
0.2540
 41
0.2540
 70
0
  0
VERTEX
  8
46
 10
1.7519
 20
26.8810
 30
0.0000
 42
1.0000
  0
VERTEX
  8
46
 10
1.7519
 20
26.6270
 30
0.0000
  0
SEQEND
  8
0
  0
POLYLINE
  8
46
 66
1
 10
0.0000
 20
0.0000
 30
0.0000
 40
0.5080
 41
0.5080
 70
0
  0
VERTEX
  8
46
 10
2.9989
 20
26.7540
 30
0.0000
  0
VERTEX
  8
46
 10
2.5832
 20
27.5854
 30
0.0000
  0
SEQEND
  8
0
  0
POLYLINE
  8
46
 66
1
 10
0.0000
 20
0.0000
 30
0.0000
 40
0.2540
 41
0.2540
 70
0
  0
VERTEX
  8
46
 10
2.6968
 20
27.6422
 30
0.0000
 42
1.0000
  0
VERTEX
  8
46
 10
2.4697
 20
27.5286
 30
0.0000
  0
SEQEND
  8
0
  0
POLYLINE
  8
46
 66
1
 10
0.0000
 20
0.0000
 30
0.0000
 40
0.2540
 41
0.2540
 70
0
  0
VERTEX
  8
46
 10
2.8853
 20
26.6972
 30
0.0000
 42
1.0000
  0
VERTEX
  8
46
 10
3.1125
 20
26.8108
 30
0.0000
  0
SEQEND
  8
0
  0
POLYLINE
  8
46
 66
1
 10
0.0000
 20
0.0000
 30
0.0000
 40
0.5080
 41
0.5080
 70
0
  0
VERTEX
  8
46
 10
2.5832
 20
27.5854
 30
0.0000
  0
VERTEX
  8
46
 10
2.5832
 20
28.0011
 30
0.0000
  0
SEQEND
  8
0
  0
POLYLINE
  8
46
 66
1
 10
0.0000
 20
0.0000
 30
0.0000
 40
0.2540
 41
0.2540
 70
0
  0
VERTEX
  8
46
 10
2.7102
 20
28.0011
 30
0.0000
 42
1.0000
  0
VERTEX
  8
46
 10
2.4562
 20
28.0011
 30
0.0000
  0
SEQEND
  8
0
  0
POLYLINE
  8
46
 66
1
 10
0.0000
 20
0.0000
 30
0.0000
 40
0.2540
 41
0.2540
 70
0
  0
VERTEX
  8
46
 10
2.4562
 20
27.5854
 30
0.0000
 42
1.0000
  0
VERTEX
  8
46
 10
2.7102
 20
27.5854
 30
0.0000
  0
SEQEND
  8
0
  0
POLYLINE
  8
46
 66
1
 10
0.0000
 20
0.0000
 30
0.0000
 40
0.5080
 41
0.5080
 70
0
  0
VERTEX
  8
46
 10
2.5832
 20
28.0011
 30
0.0000
  0
VERTEX
  8
46
 10
2.9989
 20
28.4168
 30
0.0000
  0
SEQEND
  8
0
  0
POLYLINE
  8
46
 66
1
 10
0.0000
 20
0.0000
 30
0.0000
 40
0.2540
 41
0.2540
 70
0
  0
VERTEX
  8
46
 10
3.0887
 20
28.3270
 30
0.0000
 42
1.0000
  0
VERTEX
  8
46
 10
2.9091
 20
28.5066
 30
0.0000
  0
SEQEND
  8
0
  0
POLYLINE
  8
46
 66
1
 10
0.0000
 20
0.0000
 30
0.0000
 40
0.2540
 41
0.2540
 70
0
  0
VERTEX
  8
46
 10
2.4934
 20
28.0909
 30
0.0000
 42
1.0000
  0
VERTEX
  8
46
 10
2.6730
 20
27.9113
 30
0.0000
  0
SEQEND
  8
0
  0
POLYLINE
  8
46
 66
1
 10
0.0000
 20
0.0000
 30
0.0000
 40
0.5080
 41
0.5080
 70
0
  0
VERTEX
  8
46
 10
2.9989
 20
28.4168
 30
0.0000
  0
VERTEX
  8
46
 10
3.8303
 20
28.4168
 30
0.0000
  0
SEQEND
  8
0
  0
POLYLINE
  8
46
 66
1
 10
0.0000
 20
0.0000
 30
0.0000
 40
0.2540
 41
0.2540
 70
0
  0
VERTEX
  8
46
 10
3.8303
 20
28.2898
 30
0.0000
 42
1.0000
  0
VERTEX
  8
46
 10
3.8303
 20
28.5438
 30
0.0000
  0
SEQEND
  8
0
  0
POLYLINE
  8
46
 66
1
 10
0.0000
 20
0.0000
 30
0.0000
 40
0.2540
 41
0.2540
 70
0
  0
VERTEX
  8
46
 10
2.9989
 20
28.5438
 30
0.0000
 42
1.0000
  0
VERTEX
  8
46
 10
2.9989
 20
28.2898
 30
0.0000
  0
SEQEND
  8
0
  0
POLYLINE
  8
46
 66
1
 10
0.0000
 20
0.0000
 30
0.0000
 40
0.5080
 41
0.5080
 70
0
  0
VERTEX
  8
46
 10
3.8303
 20
28.4168
 30
0.0000
  0
VERTEX
  8
46
 10
4.2460
 20
28.0011
 30
0.0000
  0
SEQEND
  8
0
  0
POLYLINE
  8
46
 66
1
 10
0.0000
 20
0.0000
 30
0.0000
 40
0.2540
 41
0.2540
 70
0
  0
VERTEX
  8
46
 10
4.1562
 20
27.9113
 30
0.0000
 42
1.0000
  0
VERTEX
  8
46
 10
4.3358
 20
28.0909
 30
0.0000
  0
SEQEND
  8
0
  0
POLYLINE
  8
46
 66
1
 10
0.0000
 20
0.0000
 30
0.0000
 40
0.2540
 41
0.2540
 70
0
  0
VERTEX
  8
46
 10
3.9201
 20
28.5066
 30
0.0000
 42
1.0000
  0
VERTEX
  8
46
 10
3.7405
 20
28.3270
 30
0.0000
  0
SEQEND
  8
0
  0
POLYLINE
  8
46
 66
1
 10
0.0000
 20
0.0000
 30
0.0000
 40
0.5080
 41
0.5080
 70
0
  0
VERTEX
  8
46
 10
4.2460
 20
28.0011
 30
0.0000
  0
VERTEX
  8
46
 10
4.2460
 20
27.1697
 30
0.0000
  0
SEQEND
  8
0
  0
POLYLINE
  8
46
 66
1
 10
0.0000
 20
0.0000
 30
0.0000
 40
0.2540
 41
0.2540
 70
0
  0
VERTEX
  8
46
 10
4.1190
 20
27.1697
 30
0.0000
 42
1.0000
  0
VERTEX
  8
46
 10
4.3730
 20
27.1697
 30
0.0000
  0
SEQEND
  8
0
  0
POLYLINE
  8
46
 66
1
 10
0.0000
 20
0.0000
 30
0.0000
 40
0.2540
 41
0.2540
 70
0
  0
VERTEX
  8
46
 10
4.3730
 20
28.0011
 30
0.0000
 42
1.0000
  0
VERTEX
  8
46
 10
4.1190
 20
28.0011
 30
0.0000
  0
SEQEND
  8
0
  0
POLYLINE
  8
46
 66
1
 10
0.0000
 20
0.0000
 30
0.0000
 40
0.5080
 41
0.5080
 70
0
  0
VERTEX
  8
46
 10
4.2460
 20
27.1697
 30
0.0000
  0
VERTEX
  8
46
 10
3.8303
 20
26.7540
 30
0.0000
  0
SEQEND
  8
0
  0
POLYLINE
  8
46
 66
1
 10
0.0000
 20
0.0000
 30
0.0000
 40
0.2540
 41
0.2540
 70
0
  0
VERTEX
  8
46
 10
3.7405
 20
26.8438
 30
0.0000
 42
1.0000
  0
VERTEX
  8
46
 10
3.9201
 20
26.6642
 30
0.0000
  0
SEQEND
  8
0
  0
POLYLINE
  8
46
 66
1
 10
0.0000
 20
0.0000
 30
0.0000
 40
0.2540
 41
0.2540
 70
0
  0
VERTEX
  8
46
 10
4.3358
 20
27.0799
 30
0.0000
 42
1.0000
  0
VERTEX
  8
46
 10
4.1562
 20
27.2595
 30
0.0000
  0
SEQEND
  8
0
  0
POLYLINE
  8
46
 66
1
 10
0.0000
 20
0.0000
 30
0.0000
 40
0.5080
 41
0.5080
 70
0
  0
VERTEX
  8
46
 10
1.7519
 20
29.5164
 30
0.0000
  0
VERTEX
  8
46
 10
3.4146
 20
29.5164
 30
0.0000
  0
SEQEND
  8
0
  0
POLYLINE
  8
46
 66
1
 10
0.0000
 20
0.0000
 30
0.0000
 40
0.2540
 41
0.2540
 70
0
  0
VERTEX
  8
46
 10
3.4146
 20
29.3894
 30
0.0000
 42
1.0000
  0
VERTEX
  8
46
 10
3.4146
 20
29.6434
 30
0.0000
  0
SEQEND
  8
0
  0
POLYLINE
  8
46
 66
1
 10
0.0000
 20
0.0000
 30
0.0000
 40
0.2540
 41
0.2540
 70
0
  0
VERTEX
  8
46
 10
1.7519
 20
29.6434
 30
0.0000
 42
1.0000
  0
VERTEX
  8
46
 10
1.7519
 20
29.3894
 30
0.0000
  0
SEQEND
  8
0
  0
POLYLINE
  8
46
 66
1
 10
0.0000
 20
0.0000
 30
0.0000
 40
0.5080
 41
0.5080
 70
0
  0
VERTEX
  8
46
 10
3.4146
 20
29.5164
 30
0.0000
  0
VERTEX
  8
46
 10
4.2460
 20
30.3477
 30
0.0000
  0
SEQEND
  8
0
  0
POLYLINE
  8
46
 66
1
 10
0.0000
 20
0.0000
 30
0.0000
 40
0.2540
 41
0.2540
 70
0
  0
VERTEX
  8
46
 10
4.3358
 20
30.2579
 30
0.0000
 42
1.0000
  0
VERTEX
  8
46
 10
4.1562
 20
30.4375
 30
0.0000
  0
SEQEND
  8
0
  0
POLYLINE
  8
46
 66
1
 10
0.0000
 20
0.0000
 30
0.0000
 40
0.2540
 41
0.2540
 70
0
  0
VERTEX
  8
46
 10
3.3248
 20
29.6062
 30
0.0000
 42
1.0000
  0
VERTEX
  8
46
 10
3.5044
 20
29.4266
 30
0.0000
  0
SEQEND
  8
0
  0
POLYLINE
  8
46
 66
1
 10
0.0000
 20
0.0000
 30
0.0000
 40
0.5080
 41
0.5080
 70
0
  0
VERTEX
  8
46
 10
4.2460
 20
30.3477
 30
0.0000
  0
VERTEX
  8
46
 10
3.4146
 20
31.1791
 30
0.0000
  0
SEQEND
  8
0
  0
POLYLINE
  8
46
 66
1
 10
0.0000
 20
0.0000
 30
0.0000
 40
0.2540
 41
0.2540
 70
0
  0
VERTEX
  8
46
 10
3.5044
 20
31.2689
 30
0.0000
 42
1.0000
  0
VERTEX
  8
46
 10
3.3248
 20
31.0893
 30
0.0000
  0
SEQEND
  8
0
  0
POLYLINE
  8
46
 66
1
 10
0.0000
 20
0.0000
 30
0.0000
 40
0.2540
 41
0.2540
 70
0
  0
VERTEX
  8
46
 10
4.1562
 20
30.2579
 30
0.0000
 42
1.0000
  0
VERTEX
  8
46
 10
4.3358
 20
30.4375
 30
0.0000
  0
SEQEND
  8
0
  0
POLYLINE
  8
46
 66
1
 10
0.0000
 20
0.0000
 30
0.0000
 40
0.5080
 41
0.5080
 70
0
  0
VERTEX
  8
46
 10
3.4146
 20
31.1791
 30
0.0000
  0
VERTEX
  8
46
 10
1.7519
 20
31.1791
 30
0.0000
  0
SEQEND
  8
0
  0
POLYLINE
  8
46
 66
1
 10
0.0000
 20
0.0000
 30
0.0000
 40
0.2540
 41
0.2540
 70
0
  0
VERTEX
  8
46
 10
1.7519
 20
31.3061
 30
0.0000
 42
1.0000
  0
VERTEX
  8
46
 10
1.7519
 20
31.0521
 30
0.0000
  0
SEQEND
  8
0
  0
POLYLINE
  8
46
 66
1
 10
0.0000
 20
0.0000
 30
0.0000
 40
0.2540
 41
0.2540
 70
0
  0
VERTEX
  8
46
 10
3.4146
 20
31.0521
 30
0.0000
 42
1.0000
  0
VERTEX
  8
46
 10
3.4146
 20
31.3061
 30
0.0000
  0
SEQEND
  8
0
  0
POLYLINE
  8
46
 66
1
 10
0.0000
 20
0.0000
 30
0.0000
 40
0.5080
 41
0.5080
 70
0
  0
VERTEX
  8
46
 10
2.5832
 20
35.0411
 30
0.0000
  0
VERTEX
  8
46
 10
2.5832
 20
35.4568
 30
0.0000
  0
SEQEND
  8
0
  0
POLYLINE
  8
46
 66
1
 10
0.0000
 20
0.0000
 30
0.0000
 40
0.2540
 41
0.2540
 70
0
  0
VERTEX
  8
46
 10
2.7102
 20
35.4568
 30
0.0000
 42
1.0000
  0
VERTEX
  8
46
 10
2.4562
 20
35.4568
 30
0.0000
  0
SEQEND
  8
0
  0
POLYLINE
  8
46
 66
1
 10
0.0000
 20
0.0000
 30
0.0000
 40
0.2540
 41
0.2540
 70
0
  0
VERTEX
  8
46
 10
2.4562
 20
35.0411
 30
0.0000
 42
1.0000
  0
VERTEX
  8
46
 10
2.7102
 20
35.0411
 30
0.0000
  0
SEQEND
  8
0
  0
POLYLINE
  8
46
 66
1
 10
0.0000
 20
0.0000
 30
0.0000
 40
0.5080
 41
0.5080
 70
0
  0
VERTEX
  8
46
 10
2.5832
 20
35.4568
 30
0.0000
  0
VERTEX
  8
46
 10
4.2460
 20
35.4568
 30
0.0000
  0
SEQEND
  8
0
  0
POLYLINE
  8
46
 66
1
 10
0.0000
 20
0.0000
 30
0.0000
 40
0.2540
 41
0.2540
 70
0
  0
VERTEX
  8
46
 10
4.2460
 20
35.3298
 30
0.0000
 42
1.0000
  0
VERTEX
  8
46
 10
4.2460
 20
35.5838
 30
0.0000
  0
SEQEND
  8
0
  0
POLYLINE
  8
46
 66
1
 10
0.0000
 20
0.0000
 30
0.0000
 40
0.2540
 41
0.2540
 70
0
  0
VERTEX
  8
46
 10
2.5832
 20
35.5838
 30
0.0000
 42
1.0000
  0
VERTEX
  8
46
 10
2.5832
 20
35.3298
 30
0.0000
  0
SEQEND
  8
0
  0
POLYLINE
  8
46
 66
1
 10
0.0000
 20
0.0000
 30
0.0000
 40
0.5080
 41
0.5080
 70
0
  0
VERTEX
  8
46
 10
4.2460
 20
35.0411
 30
0.0000
  0
VERTEX
  8
46
 10
4.2460
 20
35.8725
 30
0.0000
  0
SEQEND
  8
0
  0
POLYLINE
  8
46
 66
1
 10
0.0000
 20
0.0000
 30
0.0000
 40
0.2540
 41
0.2540
 70
0
  0
VERTEX
  8
46
 10
4.3730
 20
35.8725
 30
0.0000
 42
1.0000
  0
VERTEX
  8
46
 10
4.1190
 20
35.8725
 30
0.0000
  0
SEQEND
  8
0
  0
POLYLINE
  8
46
 66
1
 10
0.0000
 20
0.0000
 30
0.0000
 40
0.2540
 41
0.2540
 70
0
  0
VERTEX
  8
46
 10
4.1190
 20
35.0411
 30
0.0000
 42
1.0000
  0
VERTEX
  8
46
 10
4.3730
 20
35.0411
 30
0.0000
  0
SEQEND
  8
0
  0
POLYLINE
  8
46
 66
1
 10
0.0000
 20
0.0000
 30
0.0000
 40
0.5080
 41
0.5080
 70
0
  0
VERTEX
  8
46
 10
1.3362
 20
35.4568
 30
0.0000
  0
VERTEX
  8
46
 10
1.7519
 20
35.4568
 30
0.0000
  0
SEQEND
  8
0
  0
POLYLINE
  8
46
 66
1
 10
0.0000
 20
0.0000
 30
0.0000
 40
0.2540
 41
0.2540
 70
0
  0
VERTEX
  8
46
 10
1.7519
 20
35.3298
 30
0.0000
 42
1.0000
  0
VERTEX
  8
46
 10
1.7519
 20
35.5838
 30
0.0000
  0
SEQEND
  8
0
  0
POLYLINE
  8
46
 66
1
 10
0.0000
 20
0.0000
 30
0.0000
 40
0.2540
 41
0.2540
 70
0
  0
VERTEX
  8
46
 10
1.3362
 20
35.5838
 30
0.0000
 42
1.0000
  0
VERTEX
  8
46
 10
1.3362
 20
35.3298
 30
0.0000
  0
SEQEND
  8
0
  0
POLYLINE
  8
46
 66
1
 10
0.0000
 20
0.0000
 30
0.0000
 40
0.5080
 41
0.5080
 70
0
  0
VERTEX
  8
46
 10
4.2460
 20
36.8827
 30
0.0000
  0
VERTEX
  8
46
 10
2.5832
 20
36.8827
 30
0.0000
  0
SEQEND
  8
0
  0
POLYLINE
  8
46
 66
1
 10
0.0000
 20
0.0000
 30
0.0000
 40
0.2540
 41
0.2540
 70
0
  0
VERTEX
  8
46
 10
2.5832
 20
37.0097
 30
0.0000
 42
1.0000
  0
VERTEX
  8
46
 10
2.5832
 20
36.7557
 30
0.0000
  0
SEQEND
  8
0
  0
POLYLINE
  8
46
 66
1
 10
0.0000
 20
0.0000
 30
0.0000
 40
0.2540
 41
0.2540
 70
0
  0
VERTEX
  8
46
 10
4.2460
 20
36.7557
 30
0.0000
 42
1.0000
  0
VERTEX
  8
46
 10
4.2460
 20
37.0097
 30
0.0000
  0
SEQEND
  8
0
  0
POLYLINE
  8
46
 66
1
 10
0.0000
 20
0.0000
 30
0.0000
 40
0.5080
 41
0.5080
 70
0
  0
VERTEX
  8
46
 10
2.5832
 20
36.8827
 30
0.0000
  0
VERTEX
  8
46
 10
2.5832
 20
38.1297
 30
0.0000
  0
SEQEND
  8
0
  0
POLYLINE
  8
46
 66
1
 10
0.0000
 20
0.0000
 30
0.0000
 40
0.2540
 41
0.2540
 70
0
  0
VERTEX
  8
46
 10
2.7102
 20
38.1297
 30
0.0000
 42
1.0000
  0
VERTEX
  8
46
 10
2.4562
 20
38.1297
 30
0.0000
  0
SEQEND
  8
0
  0
POLYLINE
  8
46
 66
1
 10
0.0000
 20
0.0000
 30
0.0000
 40
0.2540
 41
0.2540
 70
0
  0
VERTEX
  8
46
 10
2.4562
 20
36.8827
 30
0.0000
 42
1.0000
  0
VERTEX
  8
46
 10
2.7102
 20
36.8827
 30
0.0000
  0
SEQEND
  8
0
  0
POLYLINE
  8
46
 66
1
 10
0.0000
 20
0.0000
 30
0.0000
 40
0.5080
 41
0.5080
 70
0
  0
VERTEX
  8
46
 10
2.5832
 20
38.1297
 30
0.0000
  0
VERTEX
  8
46
 10
2.9989
 20
38.5454
 30
0.0000
  0
SEQEND
  8
0
  0
POLYLINE
  8
46
 66
1
 10
0.0000
 20
0.0000
 30
0.0000
 40
0.2540
 41
0.2540
 70
0
  0
VERTEX
  8
46
 10
3.0887
 20
38.4556
 30
0.0000
 42
1.0000
  0
VERTEX
  8
46
 10
2.9091
 20
38.6352
 30
0.0000
  0
SEQEND
  8
0
  0
POLYLINE
  8
46
 66
1
 10
0.0000
 20
0.0000
 30
0.0000
 40
0.2540
 41
0.2540
 70
0
  0
VERTEX
  8
46
 10
2.4934
 20
38.2195
 30
0.0000
 42
1.0000
  0
VERTEX
  8
46
 10
2.6730
 20
38.0399
 30
0.0000
  0
SEQEND
  8
0
  0
POLYLINE
  8
46
 66
1
 10
0.0000
 20
0.0000
 30
0.0000
 40
0.5080
 41
0.5080
 70
0
  0
VERTEX
  8
46
 10
2.9989
 20
38.5454
 30
0.0000
  0
VERTEX
  8
46
 10
4.2460
 20
38.5454
 30
0.0000
  0
SEQEND
  8
0
  0
POLYLINE
  8
46
 66
1
 10
0.0000
 20
0.0000
 30
0.0000
 40
0.2540
 41
0.2540
 70
0
  0
VERTEX
  8
46
 10
4.2460
 20
38.4184
 30
0.0000
 42
1.0000
  0
VERTEX
  8
46
 10
4.2460
 20
38.6724
 30
0.0000
  0
SEQEND
  8
0
  0
POLYLINE
  8
46
 66
1
 10
0.0000
 20
0.0000
 30
0.0000
 40
0.2540
 41
0.2540
 70
0
  0
VERTEX
  8
46
 10
2.9989
 20
38.6724
 30
0.0000
 42
1.0000
  0
VERTEX
  8
46
 10
2.9989
 20
38.4184
 30
0.0000
  0
SEQEND
  8
0
  0
POLYLINE
  8
46
 66
1
 10
0.0000
 20
0.0000
 30
0.0000
 40
0.3302
 41
0.3302
 70
0
  0
VERTEX
  8
46
 10
13.3263
 20
1.6651
 30
0.0000
  0
VERTEX
  8
46
 10
13.3263
 20
3.3363
 30
0.0000
  0
SEQEND
  8
0
  0
POLYLINE
  8
46
 66
1
 10
0.0000
 20
0.0000
 30
0.0000
 40
0.1651
 41
0.1651
 70
0
  0
VERTEX
  8
46
 10
13.4089
 20
3.3363
 30
0.0000
 42
1.0000
  0
VERTEX
  8
46
 10
13.2438
 20
3.3363
 30
0.0000
  0
SEQEND
  8
0
  0
POLYLINE
  8
46
 66
1
 10
0.0000
 20
0.0000
 30
0.0000
 40
0.1651
 41
0.1651
 70
0
  0
VERTEX
  8
46
 10
13.2438
 20
1.6651
 30
0.0000
 42
1.0000
  0
VERTEX
  8
46
 10
13.4089
 20
1.6651
 30
0.0000
  0
SEQEND
  8
0
  0
POLYLINE
  8
46
 66
1
 10
0.0000
 20
0.0000
 30
0.0000
 40
0.3302
 41
0.3302
 70
0
  0
VERTEX
  8
46
 10
13.3263
 20
3.3363
 30
0.0000
  0
VERTEX
  8
46
 10
14.1619
 20
3.3363
 30
0.0000
  0
SEQEND
  8
0
  0
POLYLINE
  8
46
 66
1
 10
0.0000
 20
0.0000
 30
0.0000
 40
0.1651
 41
0.1651
 70
0
  0
VERTEX
  8
46
 10
14.1619
 20
3.2538
 30
0.0000
 42
1.0000
  0
VERTEX
  8
46
 10
14.1619
 20
3.4189
 30
0.0000
  0
SEQEND
  8
0
  0
POLYLINE
  8
46
 66
1
 10
0.0000
 20
0.0000
 30
0.0000
 40
0.1651
 41
0.1651
 70
0
  0
VERTEX
  8
46
 10
13.3263
 20
3.4189
 30
0.0000
 42
1.0000
  0
VERTEX
  8
46
 10
13.3263
 20
3.2538
 30
0.0000
  0
SEQEND
  8
0
  0
POLYLINE
  8
46
 66
1
 10
0.0000
 20
0.0000
 30
0.0000
 40
0.3302
 41
0.3302
 70
0
  0
VERTEX
  8
46
 10
14.1619
 20
3.3363
 30
0.0000
  0
VERTEX
  8
46
 10
14.4405
 20
3.0578
 30
0.0000
  0
SEQEND
  8
0
  0
POLYLINE
  8
46
 66
1
 10
0.0000
 20
0.0000
 30
0.0000
 40
0.1651
 41
0.1651
 70
0
  0
VERTEX
  8
46
 10
14.3821
 20
2.9994
 30
0.0000
 42
1.0000
  0
VERTEX
  8
46
 10
14.4988
 20
3.1162
 30
0.0000
  0
SEQEND
  8
0
  0
POLYLINE
  8
46
 66
1
 10
0.0000
 20
0.0000
 30
0.0000
 40
0.1651
 41
0.1651
 70
0
  0
VERTEX
  8
46
 10
14.2203
 20
3.3947
 30
0.0000
 42
1.0000
  0
VERTEX
  8
46
 10
14.1035
 20
3.2780
 30
0.0000
  0
SEQEND
  8
0
  0
POLYLINE
  8
46
 66
1
 10
0.0000
 20
0.0000
 30
0.0000
 40
0.3302
 41
0.3302
 70
0
  0
VERTEX
  8
46
 10
14.4405
 20
3.0578
 30
0.0000
  0
VERTEX
  8
46
 10
14.4405
 20
2.7793
 30
0.0000
  0
SEQEND
  8
0
  0
POLYLINE
  8
46
 66
1
 10
0.0000
 20
0.0000
 30
0.0000
 40
0.1651
 41
0.1651
 70
0
  0
VERTEX
  8
46
 10
14.3579
 20
2.7793
 30
0.0000
 42
1.0000
  0
VERTEX
  8
46
 10
14.5230
 20
2.7793
 30
0.0000
  0
SEQEND
  8
0
  0
POLYLINE
  8
46
 66
1
 10
0.0000
 20
0.0000
 30
0.0000
 40
0.1651
 41
0.1651
 70
0
  0
VERTEX
  8
46
 10
14.5230
 20
3.0578
 30
0.0000
 42
1.0000
  0
VERTEX
  8
46
 10
14.3579
 20
3.0578
 30
0.0000
  0
SEQEND
  8
0
  0
POLYLINE
  8
46
 66
1
 10
0.0000
 20
0.0000
 30
0.0000
 40
0.3302
 41
0.3302
 70
0
  0
VERTEX
  8
46
 10
14.4405
 20
2.7793
 30
0.0000
  0
VERTEX
  8
46
 10
14.1619
 20
2.5007
 30
0.0000
  0
SEQEND
  8
0
  0
POLYLINE
  8
46
 66
1
 10
0.0000
 20
0.0000
 30
0.0000
 40
0.1651
 41
0.1651
 70
0
  0
VERTEX
  8
46
 10
14.1035
 20
2.5591
 30
0.0000
 42
1.0000
  0
VERTEX
  8
46
 10
14.2203
 20
2.4423
 30
0.0000
  0
SEQEND
  8
0
  0
POLYLINE
  8
46
 66
1
 10
0.0000
 20
0.0000
 30
0.0000
 40
0.1651
 41
0.1651
 70
0
  0
VERTEX
  8
46
 10
14.4988
 20
2.7209
 30
0.0000
 42
1.0000
  0
VERTEX
  8
46
 10
14.3821
 20
2.8376
 30
0.0000
  0
SEQEND
  8
0
  0
POLYLINE
  8
46
 66
1
 10
0.0000
 20
0.0000
 30
0.0000
 40
0.3302
 41
0.3302
 70
0
  0
VERTEX
  8
46
 10
14.1619
 20
2.5007
 30
0.0000
  0
VERTEX
  8
46
 10
14.4405
 20
2.2222
 30
0.0000
  0
SEQEND
  8
0
  0
POLYLINE
  8
46
 66
1
 10
0.0000
 20
0.0000
 30
0.0000
 40
0.1651
 41
0.1651
 70
0
  0
VERTEX
  8
46
 10
14.3821
 20
2.1638
 30
0.0000
 42
1.0000
  0
VERTEX
  8
46
 10
14.4988
 20
2.2805
 30
0.0000
  0
SEQEND
  8
0
  0
POLYLINE
  8
46
 66
1
 10
0.0000
 20
0.0000
 30
0.0000
 40
0.1651
 41
0.1651
 70
0
  0
VERTEX
  8
46
 10
14.2203
 20
2.5591
 30
0.0000
 42
1.0000
  0
VERTEX
  8
46
 10
14.1035
 20
2.4423
 30
0.0000
  0
SEQEND
  8
0
  0
POLYLINE
  8
46
 66
1
 10
0.0000
 20
0.0000
 30
0.0000
 40
0.3302
 41
0.3302
 70
0
  0
VERTEX
  8
46
 10
14.4405
 20
2.2222
 30
0.0000
  0
VERTEX
  8
46
 10
14.4405
 20
1.9436
 30
0.0000
  0
SEQEND
  8
0
  0
POLYLINE
  8
46
 66
1
 10
0.0000
 20
0.0000
 30
0.0000
 40
0.1651
 41
0.1651
 70
0
  0
VERTEX
  8
46
 10
14.3579
 20
1.9436
 30
0.0000
 42
1.0000
  0
VERTEX
  8
46
 10
14.5230
 20
1.9436
 30
0.0000
  0
SEQEND
  8
0
  0
POLYLINE
  8
46
 66
1
 10
0.0000
 20
0.0000
 30
0.0000
 40
0.1651
 41
0.1651
 70
0
  0
VERTEX
  8
46
 10
14.5230
 20
2.2222
 30
0.0000
 42
1.0000
  0
VERTEX
  8
46
 10
14.3579
 20
2.2222
 30
0.0000
  0
SEQEND
  8
0
  0
POLYLINE
  8
46
 66
1
 10
0.0000
 20
0.0000
 30
0.0000
 40
0.3302
 41
0.3302
 70
0
  0
VERTEX
  8
46
 10
14.4405
 20
1.9436
 30
0.0000
  0
VERTEX
  8
46
 10
14.1619
 20
1.6651
 30
0.0000
  0
SEQEND
  8
0
  0
POLYLINE
  8
46
 66
1
 10
0.0000
 20
0.0000
 30
0.0000
 40
0.1651
 41
0.1651
 70
0
  0
VERTEX
  8
46
 10
14.1035
 20
1.7235
 30
0.0000
 42
1.0000
  0
VERTEX
  8
46
 10
14.2203
 20
1.6067
 30
0.0000
  0
SEQEND
  8
0
  0
POLYLINE
  8
46
 66
1
 10
0.0000
 20
0.0000
 30
0.0000
 40
0.1651
 41
0.1651
 70
0
  0
VERTEX
  8
46
 10
14.4988
 20
1.8853
 30
0.0000
 42
1.0000
  0
VERTEX
  8
46
 10
14.3821
 20
2.0020
 30
0.0000
  0
SEQEND
  8
0
  0
POLYLINE
  8
46
 66
1
 10
0.0000
 20
0.0000
 30
0.0000
 40
0.3302
 41
0.3302
 70
0
  0
VERTEX
  8
46
 10
14.1619
 20
1.6651
 30
0.0000
  0
VERTEX
  8
46
 10
13.3263
 20
1.6651
 30
0.0000
  0
SEQEND
  8
0
  0
POLYLINE
  8
46
 66
1
 10
0.0000
 20
0.0000
 30
0.0000
 40
0.1651
 41
0.1651
 70
0
  0
VERTEX
  8
46
 10
13.3263
 20
1.7476
 30
0.0000
 42
1.0000
  0
VERTEX
  8
46
 10
13.3263
 20
1.5826
 30
0.0000
  0
SEQEND
  8
0
  0
POLYLINE
  8
46
 66
1
 10
0.0000
 20
0.0000
 30
0.0000
 40
0.1651
 41
0.1651
 70
0
  0
VERTEX
  8
46
 10
14.1619
 20
1.5826
 30
0.0000
 42
1.0000
  0
VERTEX
  8
46
 10
14.1619
 20
1.7476
 30
0.0000
  0
SEQEND
  8
0
  0
POLYLINE
  8
46
 66
1
 10
0.0000
 20
0.0000
 30
0.0000
 40
0.3302
 41
0.3302
 70
0
  0
VERTEX
  8
46
 10
13.3263
 20
2.5007
 30
0.0000
  0
VERTEX
  8
46
 10
14.1619
 20
2.5007
 30
0.0000
  0
SEQEND
  8
0
  0
POLYLINE
  8
46
 66
1
 10
0.0000
 20
0.0000
 30
0.0000
 40
0.1651
 41
0.1651
 70
0
  0
VERTEX
  8
46
 10
14.1619
 20
2.4182
 30
0.0000
 42
1.0000
  0
VERTEX
  8
46
 10
14.1619
 20
2.5833
 30
0.0000
  0
SEQEND
  8
0
  0
POLYLINE
  8
46
 66
1
 10
0.0000
 20
0.0000
 30
0.0000
 40
0.1651
 41
0.1651
 70
0
  0
VERTEX
  8
46
 10
13.3263
 20
2.5833
 30
0.0000
 42
1.0000
  0
VERTEX
  8
46
 10
13.3263
 20
2.4182
 30
0.0000
  0
SEQEND
  8
0
  0
POLYLINE
  8
46
 66
1
 10
0.0000
 20
0.0000
 30
0.0000
 40
0.3302
 41
0.3302
 70
0
  0
VERTEX
  8
46
 10
15.4464
 20
2.7793
 30
0.0000
  0
VERTEX
  8
46
 10
16.0035
 20
2.7793
 30
0.0000
  0
SEQEND
  8
0
  0
POLYLINE
  8
46
 66
1
 10
0.0000
 20
0.0000
 30
0.0000
 40
0.1651
 41
0.1651
 70
0
  0
VERTEX
  8
46
 10
16.0035
 20
2.6967
 30
0.0000
 42
1.0000
  0
VERTEX
  8
46
 10
16.0035
 20
2.8618
 30
0.0000
  0
SEQEND
  8
0
  0
POLYLINE
  8
46
 66
1
 10
0.0000
 20
0.0000
 30
0.0000
 40
0.1651
 41
0.1651
 70
0
  0
VERTEX
  8
46
 10
15.4464
 20
2.8618
 30
0.0000
 42
1.0000
  0
VERTEX
  8
46
 10
15.4464
 20
2.6967
 30
0.0000
  0
SEQEND
  8
0
  0
POLYLINE
  8
46
 66
1
 10
0.0000
 20
0.0000
 30
0.0000
 40
0.3302
 41
0.3302
 70
0
  0
VERTEX
  8
46
 10
16.0035
 20
2.7793
 30
0.0000
  0
VERTEX
  8
46
 10
16.2820
 20
2.5007
 30
0.0000
  0
SEQEND
  8
0
  0
POLYLINE
  8
46
 66
1
 10
0.0000
 20
0.0000
 30
0.0000
 40
0.1651
 41
0.1651
 70
0
  0
VERTEX
  8
46
 10
16.2237
 20
2.4423
 30
0.0000
 42
1.0000
  0
VERTEX
  8
46
 10
16.3404
 20
2.5591
 30
0.0000
  0
SEQEND
  8
0
  0
POLYLINE
  8
46
 66
1
 10
0.0000
 20
0.0000
 30
0.0000
 40
0.1651
 41
0.1651
 70
0
  0
VERTEX
  8
46
 10
16.0619
 20
2.8376
 30
0.0000
 42
1.0000
  0
VERTEX
  8
46
 10
15.9451
 20
2.7209
 30
0.0000
  0
SEQEND
  8
0
  0
POLYLINE
  8
46
 66
1
 10
0.0000
 20
0.0000
 30
0.0000
 40
0.3302
 41
0.3302
 70
0
  0
VERTEX
  8
46
 10
16.2820
 20
2.5007
 30
0.0000
  0
VERTEX
  8
46
 10
16.2820
 20
1.6651
 30
0.0000
  0
SEQEND
  8
0
  0
POLYLINE
  8
46
 66
1
 10
0.0000
 20
0.0000
 30
0.0000
 40
0.1651
 41
0.1651
 70
0
  0
VERTEX
  8
46
 10
16.1995
 20
1.6651
 30
0.0000
 42
1.0000
  0
VERTEX
  8
46
 10
16.3646
 20
1.6651
 30
0.0000
  0
SEQEND
  8
0
  0
POLYLINE
  8
46
 66
1
 10
0.0000
 20
0.0000
 30
0.0000
 40
0.1651
 41
0.1651
 70
0
  0
VERTEX
  8
46
 10
16.3646
 20
2.5007
 30
0.0000
 42
1.0000
  0
VERTEX
  8
46
 10
16.1995
 20
2.5007
 30
0.0000
  0
SEQEND
  8
0
  0
POLYLINE
  8
46
 66
1
 10
0.0000
 20
0.0000
 30
0.0000
 40
0.3302
 41
0.3302
 70
0
  0
VERTEX
  8
46
 10
16.2820
 20
1.6651
 30
0.0000
  0
VERTEX
  8
46
 10
15.4464
 20
1.6651
 30
0.0000
  0
SEQEND
  8
0
  0
POLYLINE
  8
46
 66
1
 10
0.0000
 20
0.0000
 30
0.0000
 40
0.1651
 41
0.1651
 70
0
  0
VERTEX
  8
46
 10
15.4464
 20
1.7476
 30
0.0000
 42
1.0000
  0
VERTEX
  8
46
 10
15.4464
 20
1.5826
 30
0.0000
  0
SEQEND
  8
0
  0
POLYLINE
  8
46
 66
1
 10
0.0000
 20
0.0000
 30
0.0000
 40
0.1651
 41
0.1651
 70
0
  0
VERTEX
  8
46
 10
16.2820
 20
1.5826
 30
0.0000
 42
1.0000
  0
VERTEX
  8
46
 10
16.2820
 20
1.7476
 30
0.0000
  0
SEQEND
  8
0
  0
POLYLINE
  8
46
 66
1
 10
0.0000
 20
0.0000
 30
0.0000
 40
0.3302
 41
0.3302
 70
0
  0
VERTEX
  8
46
 10
15.4464
 20
1.6651
 30
0.0000
  0
VERTEX
  8
46
 10
15.1679
 20
1.9436
 30
0.0000
  0
SEQEND
  8
0
  0
POLYLINE
  8
46
 66
1
 10
0.0000
 20
0.0000
 30
0.0000
 40
0.1651
 41
0.1651
 70
0
  0
VERTEX
  8
46
 10
15.2262
 20
2.0020
 30
0.0000
 42
1.0000
  0
VERTEX
  8
46
 10
15.1095
 20
1.8853
 30
0.0000
  0
SEQEND
  8
0
  0
POLYLINE
  8
46
 66
1
 10
0.0000
 20
0.0000
 30
0.0000
 40
0.1651
 41
0.1651
 70
0
  0
VERTEX
  8
46
 10
15.3880
 20
1.6067
 30
0.0000
 42
1.0000
  0
VERTEX
  8
46
 10
15.5048
 20
1.7235
 30
0.0000
  0
SEQEND
  8
0
  0
POLYLINE
  8
46
 66
1
 10
0.0000
 20
0.0000
 30
0.0000
 40
0.3302
 41
0.3302
 70
0
  0
VERTEX
  8
46
 10
15.1679
 20
1.9436
 30
0.0000
  0
VERTEX
  8
46
 10
15.4464
 20
2.2222
 30
0.0000
  0
SEQEND
  8
0
  0
POLYLINE
  8
46
 66
1
 10
0.0000
 20
0.0000
 30
0.0000
 40
0.1651
 41
0.1651
 70
0
  0
VERTEX
  8
46
 10
15.5048
 20
2.1638
 30
0.0000
 42
1.0000
  0
VERTEX
  8
46
 10
15.3880
 20
2.2805
 30
0.0000
  0
SEQEND
  8
0
  0
POLYLINE
  8
46
 66
1
 10
0.0000
 20
0.0000
 30
0.0000
 40
0.1651
 41
0.1651
 70
0
  0
VERTEX
  8
46
 10
15.1095
 20
2.0020
 30
0.0000
 42
1.0000
  0
VERTEX
  8
46
 10
15.2262
 20
1.8853
 30
0.0000
  0
SEQEND
  8
0
  0
POLYLINE
  8
46
 66
1
 10
0.0000
 20
0.0000
 30
0.0000
 40
0.3302
 41
0.3302
 70
0
  0
VERTEX
  8
46
 10
15.4464
 20
2.2222
 30
0.0000
  0
VERTEX
  8
46
 10
16.2820
 20
2.2222
 30
0.0000
  0
SEQEND
  8
0
  0
POLYLINE
  8
46
 66
1
 10
0.0000
 20
0.0000
 30
0.0000
 40
0.1651
 41
0.1651
 70
0
  0
VERTEX
  8
46
 10
16.2820
 20
2.1396
 30
0.0000
 42
1.0000
  0
VERTEX
  8
46
 10
16.2820
 20
2.3047
 30
0.0000
  0
SEQEND
  8
0
  0
POLYLINE
  8
46
 66
1
 10
0.0000
 20
0.0000
 30
0.0000
 40
0.1651
 41
0.1651
 70
0
  0
VERTEX
  8
46
 10
15.4464
 20
2.3047
 30
0.0000
 42
1.0000
  0
VERTEX
  8
46
 10
15.4464
 20
2.1396
 30
0.0000
  0
SEQEND
  8
0
  0
POLYLINE
  8
46
 66
1
 10
0.0000
 20
0.0000
 30
0.0000
 40
0.3302
 41
0.3302
 70
0
  0
VERTEX
  8
46
 10
17.2880
 20
3.0578
 30
0.0000
  0
VERTEX
  8
46
 10
17.2880
 20
1.9436
 30
0.0000
  0
SEQEND
  8
0
  0
POLYLINE
  8
46
 66
1
 10
0.0000
 20
0.0000
 30
0.0000
 40
0.1651
 41
0.1651
 70
0
  0
VERTEX
  8
46
 10
17.2054
 20
1.9436
 30
0.0000
 42
1.0000
  0
VERTEX
  8
46
 10
17.3705
 20
1.9436
 30
0.0000
  0
SEQEND
  8
0
  0
POLYLINE
  8
46
 66
1
 10
0.0000
 20
0.0000
 30
0.0000
 40
0.1651
 41
0.1651
 70
0
  0
VERTEX
  8
46
 10
17.3705
 20
3.0578
 30
0.0000
 42
1.0000
  0
VERTEX
  8
46
 10
17.2054
 20
3.0578
 30
0.0000
  0
SEQEND
  8
0
  0
POLYLINE
  8
46
 66
1
 10
0.0000
 20
0.0000
 30
0.0000
 40
0.3302
 41
0.3302
 70
0
  0
VERTEX
  8
46
 10
17.2880
 20
1.9436
 30
0.0000
  0
VERTEX
  8
46
 10
17.5665
 20
1.6651
 30
0.0000
  0
SEQEND
  8
0
  0
POLYLINE
  8
46
 66
1
 10
0.0000
 20
0.0000
 30
0.0000
 40
0.1651
 41
0.1651
 70
0
  0
VERTEX
  8
46
 10
17.5082
 20
1.6067
 30
0.0000
 42
1.0000
  0
VERTEX
  8
46
 10
17.6249
 20
1.7235
 30
0.0000
  0
SEQEND
  8
0
  0
POLYLINE
  8
46
 66
1
 10
0.0000
 20
0.0000
 30
0.0000
 40
0.1651
 41
0.1651
 70
0
  0
VERTEX
  8
46
 10
17.3464
 20
2.0020
 30
0.0000
 42
1.0000
  0
VERTEX
  8
46
 10
17.2296
 20
1.8853
 30
0.0000
  0
SEQEND
  8
0
  0
POLYLINE
  8
46
 66
1
 10
0.0000
 20
0.0000
 30
0.0000
 40
0.3302
 41
0.3302
 70
0
  0
VERTEX
  8
46
 10
17.0095
 20
2.7793
 30
0.0000
  0
VERTEX
  8
46
 10
17.5665
 20
2.7793
 30
0.0000
  0
SEQEND
  8
0
  0
POLYLINE
  8
46
 66
1
 10
0.0000
 20
0.0000
 30
0.0000
 40
0.1651
 41
0.1651
 70
0
  0
VERTEX
  8
46
 10
17.5665
 20
2.6967
 30
0.0000
 42
1.0000
  0
VERTEX
  8
46
 10
17.5665
 20
2.8618
 30
0.0000
  0
SEQEND
  8
0
  0
POLYLINE
  8
46
 66
1
 10
0.0000
 20
0.0000
 30
0.0000
 40
0.1651
 41
0.1651
 70
0
  0
VERTEX
  8
46
 10
17.0095
 20
2.8618
 30
0.0000
 42
1.0000
  0
VERTEX
  8
46
 10
17.0095
 20
2.6967
 30
0.0000
  0
SEQEND
  8
0
  0
POLYLINE
  8
46
 66
1
 10
0.0000
 20
0.0000
 30
0.0000
 40
0.3302
 41
0.3302
 70
0
  0
VERTEX
  8
46
 10
18.5157
 20
3.0578
 30
0.0000
  0
VERTEX
  8
46
 10
18.5157
 20
1.9436
 30
0.0000
  0
SEQEND
  8
0
  0
POLYLINE
  8
46
 66
1
 10
0.0000
 20
0.0000
 30
0.0000
 40
0.1651
 41
0.1651
 70
0
  0
VERTEX
  8
46
 10
18.4332
 20
1.9436
 30
0.0000
 42
1.0000
  0
VERTEX
  8
46
 10
18.5983
 20
1.9436
 30
0.0000
  0
SEQEND
  8
0
  0
POLYLINE
  8
46
 66
1
 10
0.0000
 20
0.0000
 30
0.0000
 40
0.1651
 41
0.1651
 70
0
  0
VERTEX
  8
46
 10
18.5983
 20
3.0578
 30
0.0000
 42
1.0000
  0
VERTEX
  8
46
 10
18.4332
 20
3.0578
 30
0.0000
  0
SEQEND
  8
0
  0
POLYLINE
  8
46
 66
1
 10
0.0000
 20
0.0000
 30
0.0000
 40
0.3302
 41
0.3302
 70
0
  0
VERTEX
  8
46
 10
18.5157
 20
1.9436
 30
0.0000
  0
VERTEX
  8
46
 10
18.7942
 20
1.6651
 30
0.0000
  0
SEQEND
  8
0
  0
POLYLINE
  8
46
 66
1
 10
0.0000
 20
0.0000
 30
0.0000
 40
0.1651
 41
0.1651
 70
0
  0
VERTEX
  8
46
 10
18.7359
 20
1.6067
 30
0.0000
 42
1.0000
  0
VERTEX
  8
46
 10
18.8526
 20
1.7235
 30
0.0000
  0
SEQEND
  8
0
  0
POLYLINE
  8
46
 66
1
 10
0.0000
 20
0.0000
 30
0.0000
 40
0.1651
 41
0.1651
 70
0
  0
VERTEX
  8
46
 10
18.5741
 20
2.0020
 30
0.0000
 42
1.0000
  0
VERTEX
  8
46
 10
18.4573
 20
1.8853
 30
0.0000
  0
SEQEND
  8
0
  0
POLYLINE
  8
46
 66
1
 10
0.0000
 20
0.0000
 30
0.0000
 40
0.3302
 41
0.3302
 70
0
  0
VERTEX
  8
46
 10
18.2372
 20
2.7793
 30
0.0000
  0
VERTEX
  8
46
 10
18.7942
 20
2.7793
 30
0.0000
  0
SEQEND
  8
0
  0
POLYLINE
  8
46
 66
1
 10
0.0000
 20
0.0000
 30
0.0000
 40
0.1651
 41
0.1651
 70
0
  0
VERTEX
  8
46
 10
18.7942
 20
2.6967
 30
0.0000
 42
1.0000
  0
VERTEX
  8
46
 10
18.7942
 20
2.8618
 30
0.0000
  0
SEQEND
  8
0
  0
POLYLINE
  8
46
 66
1
 10
0.0000
 20
0.0000
 30
0.0000
 40
0.1651
 41
0.1651
 70
0
  0
VERTEX
  8
46
 10
18.2372
 20
2.8618
 30
0.0000
 42
1.0000
  0
VERTEX
  8
46
 10
18.2372
 20
2.6967
 30
0.0000
  0
SEQEND
  8
0
  0
POLYLINE
  8
46
 66
1
 10
0.0000
 20
0.0000
 30
0.0000
 40
0.3302
 41
0.3302
 70
0
  0
VERTEX
  8
46
 10
20.3005
 20
1.6651
 30
0.0000
  0
VERTEX
  8
46
 10
19.7434
 20
1.6651
 30
0.0000
  0
SEQEND
  8
0
  0
POLYLINE
  8
46
 66
1
 10
0.0000
 20
0.0000
 30
0.0000
 40
0.1651
 41
0.1651
 70
0
  0
VERTEX
  8
46
 10
19.7434
 20
1.7476
 30
0.0000
 42
1.0000
  0
VERTEX
  8
46
 10
19.7434
 20
1.5826
 30
0.0000
  0
SEQEND
  8
0
  0
POLYLINE
  8
46
 66
1
 10
0.0000
 20
0.0000
 30
0.0000
 40
0.1651
 41
0.1651
 70
0
  0
VERTEX
  8
46
 10
20.3005
 20
1.5826
 30
0.0000
 42
1.0000
  0
VERTEX
  8
46
 10
20.3005
 20
1.7476
 30
0.0000
  0
SEQEND
  8
0
  0
POLYLINE
  8
46
 66
1
 10
0.0000
 20
0.0000
 30
0.0000
 40
0.3302
 41
0.3302
 70
0
  0
VERTEX
  8
46
 10
19.7434
 20
1.6651
 30
0.0000
  0
VERTEX
  8
46
 10
19.4649
 20
1.9436
 30
0.0000
  0
SEQEND
  8
0
  0
POLYLINE
  8
46
 66
1
 10
0.0000
 20
0.0000
 30
0.0000
 40
0.1651
 41
0.1651
 70
0
  0
VERTEX
  8
46
 10
19.5233
 20
2.0020
 30
0.0000
 42
1.0000
  0
VERTEX
  8
46
 10
19.4065
 20
1.8853
 30
0.0000
  0
SEQEND
  8
0
  0
POLYLINE
  8
46
 66
1
 10
0.0000
 20
0.0000
 30
0.0000
 40
0.1651
 41
0.1651
 70
0
  0
VERTEX
  8
46
 10
19.6850
 20
1.6067
 30
0.0000
 42
1.0000
  0
VERTEX
  8
46
 10
19.8018
 20
1.7235
 30
0.0000
  0
SEQEND
  8
0
  0
POLYLINE
  8
46
 66
1
 10
0.0000
 20
0.0000
 30
0.0000
 40
0.3302
 41
0.3302
 70
0
  0
VERTEX
  8
46
 10
19.4649
 20
1.9436
 30
0.0000
  0
VERTEX
  8
46
 10
19.4649
 20
2.5007
 30
0.0000
  0
SEQEND
  8
0
  0
POLYLINE
  8
46
 66
1
 10
0.0000
 20
0.0000
 30
0.0000
 40
0.1651
 41
0.1651
 70
0
  0
VERTEX
  8
46
 10
19.5474
 20
2.5007
 30
0.0000
 42
1.0000
  0
VERTEX
  8
46
 10
19.3823
 20
2.5007
 30
0.0000
  0
SEQEND
  8
0
  0
POLYLINE
  8
46
 66
1
 10
0.0000
 20
0.0000
 30
0.0000
 40
0.1651
 41
0.1651
 70
0
  0
VERTEX
  8
46
 10
19.3823
 20
1.9436
 30
0.0000
 42
1.0000
  0
VERTEX
  8
46
 10
19.5474
 20
1.9436
 30
0.0000
  0
SEQEND
  8
0
  0
POLYLINE
  8
46
 66
1
 10
0.0000
 20
0.0000
 30
0.0000
 40
0.3302
 41
0.3302
 70
0
  0
VERTEX
  8
46
 10
19.4649
 20
2.5007
 30
0.0000
  0
VERTEX
  8
46
 10
19.7434
 20
2.7793
 30
0.0000
  0
SEQEND
  8
0
  0
POLYLINE
  8
46
 66
1
 10
0.0000
 20
0.0000
 30
0.0000
 40
0.1651
 41
0.1651
 70
0
  0
VERTEX
  8
46
 10
19.8018
 20
2.7209
 30
0.0000
 42
1.0000
  0
VERTEX
  8
46
 10
19.6850
 20
2.8376
 30
0.0000
  0
SEQEND
  8
0
  0
POLYLINE
  8
46
 66
1
 10
0.0000
 20
0.0000
 30
0.0000
 40
0.1651
 41
0.1651
 70
0
  0
VERTEX
  8
46
 10
19.4065
 20
2.5591
 30
0.0000
 42
1.0000
  0
VERTEX
  8
46
 10
19.5233
 20
2.4423
 30
0.0000
  0
SEQEND
  8
0
  0
POLYLINE
  8
46
 66
1
 10
0.0000
 20
0.0000
 30
0.0000
 40
0.3302
 41
0.3302
 70
0
  0
VERTEX
  8
46
 10
19.7434
 20
2.7793
 30
0.0000
  0
VERTEX
  8
46
 10
20.3005
 20
2.7793
 30
0.0000
  0
SEQEND
  8
0
  0
POLYLINE
  8
46
 66
1
 10
0.0000
 20
0.0000
 30
0.0000
 40
0.1651
 41
0.1651
 70
0
  0
VERTEX
  8
46
 10
20.3005
 20
2.6967
 30
0.0000
 42
1.0000
  0
VERTEX
  8
46
 10
20.3005
 20
2.8618
 30
0.0000
  0
SEQEND
  8
0
  0
POLYLINE
  8
46
 66
1
 10
0.0000
 20
0.0000
 30
0.0000
 40
0.1651
 41
0.1651
 70
0
  0
VERTEX
  8
46
 10
19.7434
 20
2.8618
 30
0.0000
 42
1.0000
  0
VERTEX
  8
46
 10
19.7434
 20
2.6967
 30
0.0000
  0
SEQEND
  8
0
  0
POLYLINE
  8
46
 66
1
 10
0.0000
 20
0.0000
 30
0.0000
 40
0.3302
 41
0.3302
 70
0
  0
VERTEX
  8
46
 10
20.3005
 20
2.7793
 30
0.0000
  0
VERTEX
  8
46
 10
20.5790
 20
2.5007
 30
0.0000
  0
SEQEND
  8
0
  0
POLYLINE
  8
46
 66
1
 10
0.0000
 20
0.0000
 30
0.0000
 40
0.1651
 41
0.1651
 70
0
  0
VERTEX
  8
46
 10
20.5207
 20
2.4423
 30
0.0000
 42
1.0000
  0
VERTEX
  8
46
 10
20.6374
 20
2.5591
 30
0.0000
  0
SEQEND
  8
0
  0
POLYLINE
  8
46
 66
1
 10
0.0000
 20
0.0000
 30
0.0000
 40
0.1651
 41
0.1651
 70
0
  0
VERTEX
  8
46
 10
20.3589
 20
2.8376
 30
0.0000
 42
1.0000
  0
VERTEX
  8
46
 10
20.2421
 20
2.7209
 30
0.0000
  0
SEQEND
  8
0
  0
POLYLINE
  8
46
 66
1
 10
0.0000
 20
0.0000
 30
0.0000
 40
0.3302
 41
0.3302
 70
0
  0
VERTEX
  8
46
 10
20.5790
 20
2.5007
 30
0.0000
  0
VERTEX
  8
46
 10
20.5790
 20
2.2222
 30
0.0000
  0
SEQEND
  8
0
  0
POLYLINE
  8
46
 66
1
 10
0.0000
 20
0.0000
 30
0.0000
 40
0.1651
 41
0.1651
 70
0
  0
VERTEX
  8
46
 10
20.4965
 20
2.2222
 30
0.0000
 42
1.0000
  0
VERTEX
  8
46
 10
20.6616
 20
2.2222
 30
0.0000
  0
SEQEND
  8
0
  0
POLYLINE
  8
46
 66
1
 10
0.0000
 20
0.0000
 30
0.0000
 40
0.1651
 41
0.1651
 70
0
  0
VERTEX
  8
46
 10
20.6616
 20
2.5007
 30
0.0000
 42
1.0000
  0
VERTEX
  8
46
 10
20.4965
 20
2.5007
 30
0.0000
  0
SEQEND
  8
0
  0
POLYLINE
  8
46
 66
1
 10
0.0000
 20
0.0000
 30
0.0000
 40
0.3302
 41
0.3302
 70
0
  0
VERTEX
  8
46
 10
20.5790
 20
2.2222
 30
0.0000
  0
VERTEX
  8
46
 10
19.4649
 20
2.2222
 30
0.0000
  0
SEQEND
  8
0
  0
POLYLINE
  8
46
 66
1
 10
0.0000
 20
0.0000
 30
0.0000
 40
0.1651
 41
0.1651
 70
0
  0
VERTEX
  8
46
 10
19.4649
 20
2.3047
 30
0.0000
 42
1.0000
  0
VERTEX
  8
46
 10
19.4649
 20
2.1396
 30
0.0000
  0
SEQEND
  8
0
  0
POLYLINE
  8
46
 66
1
 10
0.0000
 20
0.0000
 30
0.0000
 40
0.1651
 41
0.1651
 70
0
  0
VERTEX
  8
46
 10
20.5790
 20
2.1396
 30
0.0000
 42
1.0000
  0
VERTEX
  8
46
 10
20.5790
 20
2.3047
 30
0.0000
  0
SEQEND
  8
0
  0
POLYLINE
  8
46
 66
1
 10
0.0000
 20
0.0000
 30
0.0000
 40
0.3302
 41
0.3302
 70
0
  0
VERTEX
  8
46
 10
21.3065
 20
1.6651
 30
0.0000
  0
VERTEX
  8
46
 10
21.3065
 20
2.7793
 30
0.0000
  0
SEQEND
  8
0
  0
POLYLINE
  8
46
 66
1
 10
0.0000
 20
0.0000
 30
0.0000
 40
0.1651
 41
0.1651
 70
0
  0
VERTEX
  8
46
 10
21.3890
 20
2.7793
 30
0.0000
 42
1.0000
  0
VERTEX
  8
46
 10
21.2239
 20
2.7793
 30
0.0000
  0
SEQEND
  8
0
  0
POLYLINE
  8
46
 66
1
 10
0.0000
 20
0.0000
 30
0.0000
 40
0.1651
 41
0.1651
 70
0
  0
VERTEX
  8
46
 10
21.2239
 20
1.6651
 30
0.0000
 42
1.0000
  0
VERTEX
  8
46
 10
21.3890
 20
1.6651
 30
0.0000
  0
SEQEND
  8
0
  0
POLYLINE
  8
46
 66
1
 10
0.0000
 20
0.0000
 30
0.0000
 40
0.3302
 41
0.3302
 70
0
  0
VERTEX
  8
46
 10
21.3065
 20
2.2222
 30
0.0000
  0
VERTEX
  8
46
 10
21.8635
 20
2.7793
 30
0.0000
  0
SEQEND
  8
0
  0
POLYLINE
  8
46
 66
1
 10
0.0000
 20
0.0000
 30
0.0000
 40
0.1651
 41
0.1651
 70
0
  0
VERTEX
  8
46
 10
21.9219
 20
2.7209
 30
0.0000
 42
1.0000
  0
VERTEX
  8
46
 10
21.8052
 20
2.8376
 30
0.0000
  0
SEQEND
  8
0
  0
POLYLINE
  8
46
 66
1
 10
0.0000
 20
0.0000
 30
0.0000
 40
0.1651
 41
0.1651
 70
0
  0
VERTEX
  8
46
 10
21.2481
 20
2.2805
 30
0.0000
 42
1.0000
  0
VERTEX
  8
46
 10
21.3648
 20
2.1638
 30
0.0000
  0
SEQEND
  8
0
  0
POLYLINE
  8
46
 66
1
 10
0.0000
 20
0.0000
 30
0.0000
 40
0.3302
 41
0.3302
 70
0
  0
VERTEX
  8
46
 10
21.8635
 20
2.7793
 30
0.0000
  0
VERTEX
  8
46
 10
22.1421
 20
2.7793
 30
0.0000
  0
SEQEND
  8
0
  0
POLYLINE
  8
46
 66
1
 10
0.0000
 20
0.0000
 30
0.0000
 40
0.1651
 41
0.1651
 70
0
  0
VERTEX
  8
46
 10
22.1421
 20
2.6967
 30
0.0000
 42
1.0000
  0
VERTEX
  8
46
 10
22.1421
 20
2.8618
 30
0.0000
  0
SEQEND
  8
0
  0
POLYLINE
  8
46
 66
1
 10
0.0000
 20
0.0000
 30
0.0000
 40
0.1651
 41
0.1651
 70
0
  0
VERTEX
  8
46
 10
21.8635
 20
2.8618
 30
0.0000
 42
1.0000
  0
VERTEX
  8
46
 10
21.8635
 20
2.6967
 30
0.0000
  0
SEQEND
  8
0
  0
POLYLINE
  8
46
 66
1
 10
0.0000
 20
0.0000
 30
0.0000
 40
0.3302
 41
0.3302
 70
0
  0
VERTEX
  8
46
 10
22.8411
 20
2.7793
 30
0.0000
  0
VERTEX
  8
46
 10
22.8411
 20
1.9436
 30
0.0000
  0
SEQEND
  8
0
  0
POLYLINE
  8
46
 66
1
 10
0.0000
 20
0.0000
 30
0.0000
 40
0.1651
 41
0.1651
 70
0
  0
VERTEX
  8
46
 10
22.7585
 20
1.9436
 30
0.0000
 42
1.0000
  0
VERTEX
  8
46
 10
22.9236
 20
1.9436
 30
0.0000
  0
SEQEND
  8
0
  0
POLYLINE
  8
46
 66
1
 10
0.0000
 20
0.0000
 30
0.0000
 40
0.1651
 41
0.1651
 70
0
  0
VERTEX
  8
46
 10
22.9236
 20
2.7793
 30
0.0000
 42
1.0000
  0
VERTEX
  8
46
 10
22.7585
 20
2.7793
 30
0.0000
  0
SEQEND
  8
0
  0
POLYLINE
  8
46
 66
1
 10
0.0000
 20
0.0000
 30
0.0000
 40
0.3302
 41
0.3302
 70
0
  0
VERTEX
  8
46
 10
22.8411
 20
1.9436
 30
0.0000
  0
VERTEX
  8
46
 10
23.1196
 20
1.6651
 30
0.0000
  0
SEQEND
  8
0
  0
POLYLINE
  8
46
 66
1
 10
0.0000
 20
0.0000
 30
0.0000
 40
0.1651
 41
0.1651
 70
0
  0
VERTEX
  8
46
 10
23.0613
 20
1.6067
 30
0.0000
 42
1.0000
  0
VERTEX
  8
46
 10
23.1780
 20
1.7235
 30
0.0000
  0
SEQEND
  8
0
  0
POLYLINE
  8
46
 66
1
 10
0.0000
 20
0.0000
 30
0.0000
 40
0.1651
 41
0.1651
 70
0
  0
VERTEX
  8
46
 10
22.8995
 20
2.0020
 30
0.0000
 42
1.0000
  0
VERTEX
  8
46
 10
22.7827
 20
1.8853
 30
0.0000
  0
SEQEND
  8
0
  0
POLYLINE
  8
46
 66
1
 10
0.0000
 20
0.0000
 30
0.0000
 40
0.3302
 41
0.3302
 70
0
  0
VERTEX
  8
46
 10
23.1196
 20
1.6651
 30
0.0000
  0
VERTEX
  8
46
 10
23.9552
 20
1.6651
 30
0.0000
  0
SEQEND
  8
0
  0
POLYLINE
  8
46
 66
1
 10
0.0000
 20
0.0000
 30
0.0000
 40
0.1651
 41
0.1651
 70
0
  0
VERTEX
  8
46
 10
23.9552
 20
1.5826
 30
0.0000
 42
1.0000
  0
VERTEX
  8
46
 10
23.9552
 20
1.7476
 30
0.0000
  0
SEQEND
  8
0
  0
POLYLINE
  8
46
 66
1
 10
0.0000
 20
0.0000
 30
0.0000
 40
0.1651
 41
0.1651
 70
0
  0
VERTEX
  8
46
 10
23.1196
 20
1.7476
 30
0.0000
 42
1.0000
  0
VERTEX
  8
46
 10
23.1196
 20
1.5826
 30
0.0000
  0
SEQEND
  8
0
  0
POLYLINE
  8
46
 66
1
 10
0.0000
 20
0.0000
 30
0.0000
 40
0.3302
 41
0.3302
 70
0
  0
VERTEX
  8
46
 10
23.9552
 20
2.7793
 30
0.0000
  0
VERTEX
  8
46
 10
23.9552
 20
1.3866
 30
0.0000
  0
SEQEND
  8
0
  0
POLYLINE
  8
46
 66
1
 10
0.0000
 20
0.0000
 30
0.0000
 40
0.1651
 41
0.1651
 70
0
  0
VERTEX
  8
46
 10
23.8727
 20
1.3866
 30
0.0000
 42
1.0000
  0
VERTEX
  8
46
 10
24.0378
 20
1.3866
 30
0.0000
  0
SEQEND
  8
0
  0
POLYLINE
  8
46
 66
1
 10
0.0000
 20
0.0000
 30
0.0000
 40
0.1651
 41
0.1651
 70
0
  0
VERTEX
  8
46
 10
24.0378
 20
2.7793
 30
0.0000
 42
1.0000
  0
VERTEX
  8
46
 10
23.8727
 20
2.7793
 30
0.0000
  0
SEQEND
  8
0
  0
POLYLINE
  8
46
 66
1
 10
0.0000
 20
0.0000
 30
0.0000
 40
0.3302
 41
0.3302
 70
0
  0
VERTEX
  8
46
 10
23.9552
 20
1.3866
 30
0.0000
  0
VERTEX
  8
46
 10
23.6767
 20
1.1080
 30
0.0000
  0
SEQEND
  8
0
  0
POLYLINE
  8
46
 66
1
 10
0.0000
 20
0.0000
 30
0.0000
 40
0.1651
 41
0.1651
 70
0
  0
VERTEX
  8
46
 10
23.6183
 20
1.1664
 30
0.0000
 42
1.0000
  0
VERTEX
  8
46
 10
23.7351
 20
1.0497
 30
0.0000
  0
SEQEND
  8
0
  0
POLYLINE
  8
46
 66
1
 10
0.0000
 20
0.0000
 30
0.0000
 40
0.1651
 41
0.1651
 70
0
  0
VERTEX
  8
46
 10
24.0136
 20
1.3282
 30
0.0000
 42
1.0000
  0
VERTEX
  8
46
 10
23.8969
 20
1.4449
 30
0.0000
  0
SEQEND
  8
0
  0
POLYLINE
  8
46
 66
1
 10
0.0000
 20
0.0000
 30
0.0000
 40
0.3302
 41
0.3302
 70
0
  0
VERTEX
  8
46
 10
23.6767
 20
1.1080
 30
0.0000
  0
VERTEX
  8
46
 10
23.3982
 20
1.1080
 30
0.0000
  0
SEQEND
  8
0
  0
POLYLINE
  8
46
 66
1
 10
0.0000
 20
0.0000
 30
0.0000
 40
0.1651
 41
0.1651
 70
0
  0
VERTEX
  8
46
 10
23.3982
 20
1.1906
 30
0.0000
 42
1.0000
  0
VERTEX
  8
46
 10
23.3982
 20
1.0255
 30
0.0000
  0
SEQEND
  8
0
  0
POLYLINE
  8
46
 66
1
 10
0.0000
 20
0.0000
 30
0.0000
 40
0.1651
 41
0.1651
 70
0
  0
VERTEX
  8
46
 10
23.6767
 20
1.0255
 30
0.0000
 42
1.0000
  0
VERTEX
  8
46
 10
23.6767
 20
1.1906
 30
0.0000
  0
SEQEND
  8
0
  0
POLYLINE
  8
46
 66
1
 10
0.0000
 20
0.0000
 30
0.0000
 40
0.3302
 41
0.3302
 70
0
  0
VERTEX
  8
46
 10
27.6384
 20
3.0578
 30
0.0000
  0
VERTEX
  8
46
 10
27.3599
 20
3.3363
 30
0.0000
  0
SEQEND
  8
0
  0
POLYLINE
  8
46
 66
1
 10
0.0000
 20
0.0000
 30
0.0000
 40
0.1651
 41
0.1651
 70
0
  0
VERTEX
  8
46
 10
27.4182
 20
3.3947
 30
0.0000
 42
1.0000
  0
VERTEX
  8
46
 10
27.3015
 20
3.2780
 30
0.0000
  0
SEQEND
  8
0
  0
POLYLINE
  8
46
 66
1
 10
0.0000
 20
0.0000
 30
0.0000
 40
0.1651
 41
0.1651
 70
0
  0
VERTEX
  8
46
 10
27.5800
 20
2.9994
 30
0.0000
 42
1.0000
  0
VERTEX
  8
46
 10
27.6968
 20
3.1162
 30
0.0000
  0
SEQEND
  8
0
  0
POLYLINE
  8
46
 66
1
 10
0.0000
 20
0.0000
 30
0.0000
 40
0.3302
 41
0.3302
 70
0
  0
VERTEX
  8
46
 10
27.3599
 20
3.3363
 30
0.0000
  0
VERTEX
  8
46
 10
26.8028
 20
3.3363
 30
0.0000
  0
SEQEND
  8
0
  0
POLYLINE
  8
46
 66
1
 10
0.0000
 20
0.0000
 30
0.0000
 40
0.1651
 41
0.1651
 70
0
  0
VERTEX
  8
46
 10
26.8028
 20
3.4189
 30
0.0000
 42
1.0000
  0
VERTEX
  8
46
 10
26.8028
 20
3.2538
 30
0.0000
  0
SEQEND
  8
0
  0
POLYLINE
  8
46
 66
1
 10
0.0000
 20
0.0000
 30
0.0000
 40
0.1651
 41
0.1651
 70
0
  0
VERTEX
  8
46
 10
27.3599
 20
3.2538
 30
0.0000
 42
1.0000
  0
VERTEX
  8
46
 10
27.3599
 20
3.4189
 30
0.0000
  0
SEQEND
  8
0
  0
POLYLINE
  8
46
 66
1
 10
0.0000
 20
0.0000
 30
0.0000
 40
0.3302
 41
0.3302
 70
0
  0
VERTEX
  8
46
 10
26.8028
 20
3.3363
 30
0.0000
  0
VERTEX
  8
46
 10
26.5242
 20
3.0578
 30
0.0000
  0
SEQEND
  8
0
  0
POLYLINE
  8
46
 66
1
 10
0.0000
 20
0.0000
 30
0.0000
 40
0.1651
 41
0.1651
 70
0
  0
VERTEX
  8
46
 10
26.4659
 20
3.1162
 30
0.0000
 42
1.0000
  0
VERTEX
  8
46
 10
26.5826
 20
2.9994
 30
0.0000
  0
SEQEND
  8
0
  0
POLYLINE
  8
46
 66
1
 10
0.0000
 20
0.0000
 30
0.0000
 40
0.1651
 41
0.1651
 70
0
  0
VERTEX
  8
46
 10
26.8612
 20
3.2780
 30
0.0000
 42
1.0000
  0
VERTEX
  8
46
 10
26.7444
 20
3.3947
 30
0.0000
  0
SEQEND
  8
0
  0
POLYLINE
  8
46
 66
1
 10
0.0000
 20
0.0000
 30
0.0000
 40
0.3302
 41
0.3302
 70
0
  0
VERTEX
  8
46
 10
26.5242
 20
3.0578
 30
0.0000
  0
VERTEX
  8
46
 10
26.5242
 20
1.9436
 30
0.0000
  0
SEQEND
  8
0
  0
POLYLINE
  8
46
 66
1
 10
0.0000
 20
0.0000
 30
0.0000
 40
0.1651
 41
0.1651
 70
0
  0
VERTEX
  8
46
 10
26.4417
 20
1.9436
 30
0.0000
 42
1.0000
  0
VERTEX
  8
46
 10
26.6068
 20
1.9436
 30
0.0000
  0
SEQEND
  8
0
  0
POLYLINE
  8
46
 66
1
 10
0.0000
 20
0.0000
 30
0.0000
 40
0.1651
 41
0.1651
 70
0
  0
VERTEX
  8
46
 10
26.6068
 20
3.0578
 30
0.0000
 42
1.0000
  0
VERTEX
  8
46
 10
26.4417
 20
3.0578
 30
0.0000
  0
SEQEND
  8
0
  0
POLYLINE
  8
46
 66
1
 10
0.0000
 20
0.0000
 30
0.0000
 40
0.3302
 41
0.3302
 70
0
  0
VERTEX
  8
46
 10
26.5242
 20
1.9436
 30
0.0000
  0
VERTEX
  8
46
 10
26.8028
 20
1.6651
 30
0.0000
  0
SEQEND
  8
0
  0
POLYLINE
  8
46
 66
1
 10
0.0000
 20
0.0000
 30
0.0000
 40
0.1651
 41
0.1651
 70
0
  0
VERTEX
  8
46
 10
26.7444
 20
1.6067
 30
0.0000
 42
1.0000
  0
VERTEX
  8
46
 10
26.8611
 20
1.7235
 30
0.0000
  0
SEQEND
  8
0
  0
POLYLINE
  8
46
 66
1
 10
0.0000
 20
0.0000
 30
0.0000
 40
0.1651
 41
0.1651
 70
0
  0
VERTEX
  8
46
 10
26.5826
 20
2.0020
 30
0.0000
 42
1.0000
  0
VERTEX
  8
46
 10
26.4659
 20
1.8853
 30
0.0000
  0
SEQEND
  8
0
  0
POLYLINE
  8
46
 66
1
 10
0.0000
 20
0.0000
 30
0.0000
 40
0.3302
 41
0.3302
 70
0
  0
VERTEX
  8
46
 10
26.8028
 20
1.6651
 30
0.0000
  0
VERTEX
  8
46
 10
27.3599
 20
1.6651
 30
0.0000
  0
SEQEND
  8
0
  0
POLYLINE
  8
46
 66
1
 10
0.0000
 20
0.0000
 30
0.0000
 40
0.1651
 41
0.1651
 70
0
  0
VERTEX
  8
46
 10
27.3599
 20
1.5826
 30
0.0000
 42
1.0000
  0
VERTEX
  8
46
 10
27.3599
 20
1.7476
 30
0.0000
  0
SEQEND
  8
0
  0
POLYLINE
  8
46
 66
1
 10
0.0000
 20
0.0000
 30
0.0000
 40
0.1651
 41
0.1651
 70
0
  0
VERTEX
  8
46
 10
26.8028
 20
1.7476
 30
0.0000
 42
1.0000
  0
VERTEX
  8
46
 10
26.8028
 20
1.5826
 30
0.0000
  0
SEQEND
  8
0
  0
POLYLINE
  8
46
 66
1
 10
0.0000
 20
0.0000
 30
0.0000
 40
0.3302
 41
0.3302
 70
0
  0
VERTEX
  8
46
 10
27.3599
 20
1.6651
 30
0.0000
  0
VERTEX
  8
46
 10
27.6384
 20
1.9436
 30
0.0000
  0
SEQEND
  8
0
  0
POLYLINE
  8
46
 66
1
 10
0.0000
 20
0.0000
 30
0.0000
 40
0.1651
 41
0.1651
 70
0
  0
VERTEX
  8
46
 10
27.6968
 20
1.8853
 30
0.0000
 42
1.0000
  0
VERTEX
  8
46
 10
27.5800
 20
2.0020
 30
0.0000
  0
SEQEND
  8
0
  0
POLYLINE
  8
46
 66
1
 10
0.0000
 20
0.0000
 30
0.0000
 40
0.1651
 41
0.1651
 70
0
  0
VERTEX
  8
46
 10
27.3015
 20
1.7235
 30
0.0000
 42
1.0000
  0
VERTEX
  8
46
 10
27.4182
 20
1.6067
 30
0.0000
  0
SEQEND
  8
0
  0
POLYLINE
  8
46
 66
1
 10
0.0000
 20
0.0000
 30
0.0000
 40
0.3302
 41
0.3302
 70
0
  0
VERTEX
  8
46
 10
28.3658
 20
3.3363
 30
0.0000
  0
VERTEX
  8
46
 10
28.3658
 20
1.6651
 30
0.0000
  0
SEQEND
  8
0
  0
POLYLINE
  8
46
 66
1
 10
0.0000
 20
0.0000
 30
0.0000
 40
0.1651
 41
0.1651
 70
0
  0
VERTEX
  8
46
 10
28.2833
 20
1.6651
 30
0.0000
 42
1.0000
  0
VERTEX
  8
46
 10
28.4484
 20
1.6651
 30
0.0000
  0
SEQEND
  8
0
  0
POLYLINE
  8
46
 66
1
 10
0.0000
 20
0.0000
 30
0.0000
 40
0.1651
 41
0.1651
 70
0
  0
VERTEX
  8
46
 10
28.4484
 20
3.3363
 30
0.0000
 42
1.0000
  0
VERTEX
  8
46
 10
28.2833
 20
3.3363
 30
0.0000
  0
SEQEND
  8
0
  0
POLYLINE
  8
46
 66
1
 10
0.0000
 20
0.0000
 30
0.0000
 40
0.3302
 41
0.3302
 70
0
  0
VERTEX
  8
46
 10
28.3658
 20
2.5007
 30
0.0000
  0
VERTEX
  8
46
 10
28.6444
 20
2.7793
 30
0.0000
  0
SEQEND
  8
0
  0
POLYLINE
  8
46
 66
1
 10
0.0000
 20
0.0000
 30
0.0000
 40
0.1651
 41
0.1651
 70
0
  0
VERTEX
  8
46
 10
28.7027
 20
2.7209
 30
0.0000
 42
1.0000
  0
VERTEX
  8
46
 10
28.5860
 20
2.8376
 30
0.0000
  0
SEQEND
  8
0
  0
POLYLINE
  8
46
 66
1
 10
0.0000
 20
0.0000
 30
0.0000
 40
0.1651
 41
0.1651
 70
0
  0
VERTEX
  8
46
 10
28.3074
 20
2.5591
 30
0.0000
 42
1.0000
  0
VERTEX
  8
46
 10
28.4242
 20
2.4423
 30
0.0000
  0
SEQEND
  8
0
  0
POLYLINE
  8
46
 66
1
 10
0.0000
 20
0.0000
 30
0.0000
 40
0.3302
 41
0.3302
 70
0
  0
VERTEX
  8
46
 10
28.6444
 20
2.7793
 30
0.0000
  0
VERTEX
  8
46
 10
29.2014
 20
2.7793
 30
0.0000
  0
SEQEND
  8
0
  0
POLYLINE
  8
46
 66
1
 10
0.0000
 20
0.0000
 30
0.0000
 40
0.1651
 41
0.1651
 70
0
  0
VERTEX
  8
46
 10
29.2014
 20
2.6967
 30
0.0000
 42
1.0000
  0
VERTEX
  8
46
 10
29.2014
 20
2.8618
 30
0.0000
  0
SEQEND
  8
0
  0
POLYLINE
  8
46
 66
1
 10
0.0000
 20
0.0000
 30
0.0000
 40
0.1651
 41
0.1651
 70
0
  0
VERTEX
  8
46
 10
28.6444
 20
2.8618
 30
0.0000
 42
1.0000
  0
VERTEX
  8
46
 10
28.6444
 20
2.6967
 30
0.0000
  0
SEQEND
  8
0
  0
POLYLINE
  8
46
 66
1
 10
0.0000
 20
0.0000
 30
0.0000
 40
0.3302
 41
0.3302
 70
0
  0
VERTEX
  8
46
 10
29.2014
 20
2.7793
 30
0.0000
  0
VERTEX
  8
46
 10
29.4800
 20
2.5007
 30
0.0000
  0
SEQEND
  8
0
  0
POLYLINE
  8
46
 66
1
 10
0.0000
 20
0.0000
 30
0.0000
 40
0.1651
 41
0.1651
 70
0
  0
VERTEX
  8
46
 10
29.4216
 20
2.4423
 30
0.0000
 42
1.0000
  0
VERTEX
  8
46
 10
29.5383
 20
2.5591
 30
0.0000
  0
SEQEND
  8
0
  0
POLYLINE
  8
46
 66
1
 10
0.0000
 20
0.0000
 30
0.0000
 40
0.1651
 41
0.1651
 70
0
  0
VERTEX
  8
46
 10
29.2598
 20
2.8376
 30
0.0000
 42
1.0000
  0
VERTEX
  8
46
 10
29.1431
 20
2.7209
 30
0.0000
  0
SEQEND
  8
0
  0
POLYLINE
  8
46
 66
1
 10
0.0000
 20
0.0000
 30
0.0000
 40
0.3302
 41
0.3302
 70
0
  0
VERTEX
  8
46
 10
29.4800
 20
2.5007
 30
0.0000
  0
VERTEX
  8
46
 10
29.4800
 20
1.6651
 30
0.0000
  0
SEQEND
  8
0
  0
POLYLINE
  8
46
 66
1
 10
0.0000
 20
0.0000
 30
0.0000
 40
0.1651
 41
0.1651
 70
0
  0
VERTEX
  8
46
 10
29.3974
 20
1.6651
 30
0.0000
 42
1.0000
  0
VERTEX
  8
46
 10
29.5625
 20
1.6651
 30
0.0000
  0
SEQEND
  8
0
  0
POLYLINE
  8
46
 66
1
 10
0.0000
 20
0.0000
 30
0.0000
 40
0.1651
 41
0.1651
 70
0
  0
VERTEX
  8
46
 10
29.5625
 20
2.5007
 30
0.0000
 42
1.0000
  0
VERTEX
  8
46
 10
29.3974
 20
2.5007
 30
0.0000
  0
SEQEND
  8
0
  0
POLYLINE
  8
46
 66
1
 10
0.0000
 20
0.0000
 30
0.0000
 40
0.3302
 41
0.3302
 70
0
  0
VERTEX
  8
46
 10
30.4859
 20
2.7793
 30
0.0000
  0
VERTEX
  8
46
 10
31.0430
 20
2.7793
 30
0.0000
  0
SEQEND
  8
0
  0
POLYLINE
  8
46
 66
1
 10
0.0000
 20
0.0000
 30
0.0000
 40
0.1651
 41
0.1651
 70
0
  0
VERTEX
  8
46
 10
31.0430
 20
2.6967
 30
0.0000
 42
1.0000
  0
VERTEX
  8
46
 10
31.0430
 20
2.8618
 30
0.0000
  0
SEQEND
  8
0
  0
POLYLINE
  8
46
 66
1
 10
0.0000
 20
0.0000
 30
0.0000
 40
0.1651
 41
0.1651
 70
0
  0
VERTEX
  8
46
 10
30.4859
 20
2.8618
 30
0.0000
 42
1.0000
  0
VERTEX
  8
46
 10
30.4859
 20
2.6967
 30
0.0000
  0
SEQEND
  8
0
  0
POLYLINE
  8
46
 66
1
 10
0.0000
 20
0.0000
 30
0.0000
 40
0.3302
 41
0.3302
 70
0
  0
VERTEX
  8
46
 10
31.0430
 20
2.7793
 30
0.0000
  0
VERTEX
  8
46
 10
31.3215
 20
2.5007
 30
0.0000
  0
SEQEND
  8
0
  0
POLYLINE
  8
46
 66
1
 10
0.0000
 20
0.0000
 30
0.0000
 40
0.1651
 41
0.1651
 70
0
  0
VERTEX
  8
46
 10
31.2632
 20
2.4423
 30
0.0000
 42
1.0000
  0
VERTEX
  8
46
 10
31.3799
 20
2.5591
 30
0.0000
  0
SEQEND
  8
0
  0
POLYLINE
  8
46
 66
1
 10
0.0000
 20
0.0000
 30
0.0000
 40
0.1651
 41
0.1651
 70
0
  0
VERTEX
  8
46
 10
31.1014
 20
2.8376
 30
0.0000
 42
1.0000
  0
VERTEX
  8
46
 10
30.9846
 20
2.7209
 30
0.0000
  0
SEQEND
  8
0
  0
POLYLINE
  8
46
 66
1
 10
0.0000
 20
0.0000
 30
0.0000
 40
0.3302
 41
0.3302
 70
0
  0
VERTEX
  8
46
 10
31.3215
 20
2.5007
 30
0.0000
  0
VERTEX
  8
46
 10
31.3215
 20
1.6651
 30
0.0000
  0
SEQEND
  8
0
  0
POLYLINE
  8
46
 66
1
 10
0.0000
 20
0.0000
 30
0.0000
 40
0.1651
 41
0.1651
 70
0
  0
VERTEX
  8
46
 10
31.2390
 20
1.6651
 30
0.0000
 42
1.0000
  0
VERTEX
  8
46
 10
31.4041
 20
1.6651
 30
0.0000
  0
SEQEND
  8
0
  0
POLYLINE
  8
46
 66
1
 10
0.0000
 20
0.0000
 30
0.0000
 40
0.1651
 41
0.1651
 70
0
  0
VERTEX
  8
46
 10
31.4041
 20
2.5007
 30
0.0000
 42
1.0000
  0
VERTEX
  8
46
 10
31.2390
 20
2.5007
 30
0.0000
  0
SEQEND
  8
0
  0
POLYLINE
  8
46
 66
1
 10
0.0000
 20
0.0000
 30
0.0000
 40
0.3302
 41
0.3302
 70
0
  0
VERTEX
  8
46
 10
31.3215
 20
1.6651
 30
0.0000
  0
VERTEX
  8
46
 10
30.4859
 20
1.6651
 30
0.0000
  0
SEQEND
  8
0
  0
POLYLINE
  8
46
 66
1
 10
0.0000
 20
0.0000
 30
0.0000
 40
0.1651
 41
0.1651
 70
0
  0
VERTEX
  8
46
 10
30.4859
 20
1.7476
 30
0.0000
 42
1.0000
  0
VERTEX
  8
46
 10
30.4859
 20
1.5826
 30
0.0000
  0
SEQEND
  8
0
  0
POLYLINE
  8
46
 66
1
 10
0.0000
 20
0.0000
 30
0.0000
 40
0.1651
 41
0.1651
 70
0
  0
VERTEX
  8
46
 10
31.3215
 20
1.5826
 30
0.0000
 42
1.0000
  0
VERTEX
  8
46
 10
31.3215
 20
1.7476
 30
0.0000
  0
SEQEND
  8
0
  0
POLYLINE
  8
46
 66
1
 10
0.0000
 20
0.0000
 30
0.0000
 40
0.3302
 41
0.3302
 70
0
  0
VERTEX
  8
46
 10
30.4859
 20
1.6651
 30
0.0000
  0
VERTEX
  8
46
 10
30.2074
 20
1.9436
 30
0.0000
  0
SEQEND
  8
0
  0
POLYLINE
  8
46
 66
1
 10
0.0000
 20
0.0000
 30
0.0000
 40
0.1651
 41
0.1651
 70
0
  0
VERTEX
  8
46
 10
30.2658
 20
2.0020
 30
0.0000
 42
1.0000
  0
VERTEX
  8
46
 10
30.1490
 20
1.8853
 30
0.0000
  0
SEQEND
  8
0
  0
POLYLINE
  8
46
 66
1
 10
0.0000
 20
0.0000
 30
0.0000
 40
0.1651
 41
0.1651
 70
0
  0
VERTEX
  8
46
 10
30.4276
 20
1.6067
 30
0.0000
 42
1.0000
  0
VERTEX
  8
46
 10
30.5443
 20
1.7235
 30
0.0000
  0
SEQEND
  8
0
  0
POLYLINE
  8
46
 66
1
 10
0.0000
 20
0.0000
 30
0.0000
 40
0.3302
 41
0.3302
 70
0
  0
VERTEX
  8
46
 10
30.2074
 20
1.9436
 30
0.0000
  0
VERTEX
  8
46
 10
30.4859
 20
2.2222
 30
0.0000
  0
SEQEND
  8
0
  0
POLYLINE
  8
46
 66
1
 10
0.0000
 20
0.0000
 30
0.0000
 40
0.1651
 41
0.1651
 70
0
  0
VERTEX
  8
46
 10
30.5443
 20
2.1638
 30
0.0000
 42
1.0000
  0
VERTEX
  8
46
 10
30.4276
 20
2.2805
 30
0.0000
  0
SEQEND
  8
0
  0
POLYLINE
  8
46
 66
1
 10
0.0000
 20
0.0000
 30
0.0000
 40
0.1651
 41
0.1651
 70
0
  0
VERTEX
  8
46
 10
30.1490
 20
2.0020
 30
0.0000
 42
1.0000
  0
VERTEX
  8
46
 10
30.2658
 20
1.8853
 30
0.0000
  0
SEQEND
  8
0
  0
POLYLINE
  8
46
 66
1
 10
0.0000
 20
0.0000
 30
0.0000
 40
0.3302
 41
0.3302
 70
0
  0
VERTEX
  8
46
 10
30.4859
 20
2.2222
 30
0.0000
  0
VERTEX
  8
46
 10
31.3215
 20
2.2222
 30
0.0000
  0
SEQEND
  8
0
  0
POLYLINE
  8
46
 66
1
 10
0.0000
 20
0.0000
 30
0.0000
 40
0.1651
 41
0.1651
 70
0
  0
VERTEX
  8
46
 10
31.3215
 20
2.1396
 30
0.0000
 42
1.0000
  0
VERTEX
  8
46
 10
31.3215
 20
2.3047
 30
0.0000
  0
SEQEND
  8
0
  0
POLYLINE
  8
46
 66
1
 10
0.0000
 20
0.0000
 30
0.0000
 40
0.1651
 41
0.1651
 70
0
  0
VERTEX
  8
46
 10
30.4859
 20
2.3047
 30
0.0000
 42
1.0000
  0
VERTEX
  8
46
 10
30.4859
 20
2.1396
 30
0.0000
  0
SEQEND
  8
0
  0
POLYLINE
  8
46
 66
1
 10
0.0000
 20
0.0000
 30
0.0000
 40
0.3302
 41
0.3302
 70
0
  0
VERTEX
  8
46
 10
32.0490
 20
1.6651
 30
0.0000
  0
VERTEX
  8
46
 10
32.0490
 20
2.7793
 30
0.0000
  0
SEQEND
  8
0
  0
POLYLINE
  8
46
 66
1
 10
0.0000
 20
0.0000
 30
0.0000
 40
0.1651
 41
0.1651
 70
0
  0
VERTEX
  8
46
 10
32.1315
 20
2.7793
 30
0.0000
 42
1.0000
  0
VERTEX
  8
46
 10
31.9664
 20
2.7793
 30
0.0000
  0
SEQEND
  8
0
  0
POLYLINE
  8
46
 66
1
 10
0.0000
 20
0.0000
 30
0.0000
 40
0.1651
 41
0.1651
 70
0
  0
VERTEX
  8
46
 10
31.9664
 20
1.6651
 30
0.0000
 42
1.0000
  0
VERTEX
  8
46
 10
32.1315
 20
1.6651
 30
0.0000
  0
SEQEND
  8
0
  0
POLYLINE
  8
46
 66
1
 10
0.0000
 20
0.0000
 30
0.0000
 40
0.3302
 41
0.3302
 70
0
  0
VERTEX
  8
46
 10
32.0490
 20
2.2222
 30
0.0000
  0
VERTEX
  8
46
 10
32.6060
 20
2.7793
 30
0.0000
  0
SEQEND
  8
0
  0
POLYLINE
  8
46
 66
1
 10
0.0000
 20
0.0000
 30
0.0000
 40
0.1651
 41
0.1651
 70
0
  0
VERTEX
  8
46
 10
32.6644
 20
2.7209
 30
0.0000
 42
1.0000
  0
VERTEX
  8
46
 10
32.5477
 20
2.8376
 30
0.0000
  0
SEQEND
  8
0
  0
POLYLINE
  8
46
 66
1
 10
0.0000
 20
0.0000
 30
0.0000
 40
0.1651
 41
0.1651
 70
0
  0
VERTEX
  8
46
 10
31.9906
 20
2.2805
 30
0.0000
 42
1.0000
  0
VERTEX
  8
46
 10
32.1073
 20
2.1638
 30
0.0000
  0
SEQEND
  8
0
  0
POLYLINE
  8
46
 66
1
 10
0.0000
 20
0.0000
 30
0.0000
 40
0.3302
 41
0.3302
 70
0
  0
VERTEX
  8
46
 10
32.6060
 20
2.7793
 30
0.0000
  0
VERTEX
  8
46
 10
32.8846
 20
2.7793
 30
0.0000
  0
SEQEND
  8
0
  0
POLYLINE
  8
46
 66
1
 10
0.0000
 20
0.0000
 30
0.0000
 40
0.1651
 41
0.1651
 70
0
  0
VERTEX
  8
46
 10
32.8846
 20
2.6967
 30
0.0000
 42
1.0000
  0
VERTEX
  8
46
 10
32.8846
 20
2.8618
 30
0.0000
  0
SEQEND
  8
0
  0
POLYLINE
  8
46
 66
1
 10
0.0000
 20
0.0000
 30
0.0000
 40
0.1651
 41
0.1651
 70
0
  0
VERTEX
  8
46
 10
32.6060
 20
2.8618
 30
0.0000
 42
1.0000
  0
VERTEX
  8
46
 10
32.6060
 20
2.6967
 30
0.0000
  0
SEQEND
  8
0
  0
POLYLINE
  8
46
 66
1
 10
0.0000
 20
0.0000
 30
0.0000
 40
0.3302
 41
0.3302
 70
0
  0
VERTEX
  8
46
 10
34.1407
 20
1.1080
 30
0.0000
  0
VERTEX
  8
46
 10
34.4192
 20
1.1080
 30
0.0000
  0
SEQEND
  8
0
  0
POLYLINE
  8
46
 66
1
 10
0.0000
 20
0.0000
 30
0.0000
 40
0.1651
 41
0.1651
 70
0
  0
VERTEX
  8
46
 10
34.4192
 20
1.0255
 30
0.0000
 42
1.0000
  0
VERTEX
  8
46
 10
34.4192
 20
1.1906
 30
0.0000
  0
SEQEND
  8
0
  0
POLYLINE
  8
46
 66
1
 10
0.0000
 20
0.0000
 30
0.0000
 40
0.1651
 41
0.1651
 70
0
  0
VERTEX
  8
46
 10
34.1407
 20
1.1906
 30
0.0000
 42
1.0000
  0
VERTEX
  8
46
 10
34.1407
 20
1.0255
 30
0.0000
  0
SEQEND
  8
0
  0
POLYLINE
  8
46
 66
1
 10
0.0000
 20
0.0000
 30
0.0000
 40
0.3302
 41
0.3302
 70
0
  0
VERTEX
  8
46
 10
34.4192
 20
1.1080
 30
0.0000
  0
VERTEX
  8
46
 10
34.6977
 20
1.3866
 30
0.0000
  0
SEQEND
  8
0
  0
POLYLINE
  8
46
 66
1
 10
0.0000
 20
0.0000
 30
0.0000
 40
0.1651
 41
0.1651
 70
0
  0
VERTEX
  8
46
 10
34.7561
 20
1.3282
 30
0.0000
 42
1.0000
  0
VERTEX
  8
46
 10
34.6394
 20
1.4449
 30
0.0000
  0
SEQEND
  8
0
  0
POLYLINE
  8
46
 66
1
 10
0.0000
 20
0.0000
 30
0.0000
 40
0.1651
 41
0.1651
 70
0
  0
VERTEX
  8
46
 10
34.3608
 20
1.1664
 30
0.0000
 42
1.0000
  0
VERTEX
  8
46
 10
34.4776
 20
1.0497
 30
0.0000
  0
SEQEND
  8
0
  0
POLYLINE
  8
46
 66
1
 10
0.0000
 20
0.0000
 30
0.0000
 40
0.3302
 41
0.3302
 70
0
  0
VERTEX
  8
46
 10
34.6977
 20
1.3866
 30
0.0000
  0
VERTEX
  8
46
 10
34.6977
 20
2.7793
 30
0.0000
  0
SEQEND
  8
0
  0
POLYLINE
  8
46
 66
1
 10
0.0000
 20
0.0000
 30
0.0000
 40
0.1651
 41
0.1651
 70
0
  0
VERTEX
  8
46
 10
34.7803
 20
2.7793
 30
0.0000
 42
1.0000
  0
VERTEX
  8
46
 10
34.6152
 20
2.7793
 30
0.0000
  0
SEQEND
  8
0
  0
POLYLINE
  8
46
 66
1
 10
0.0000
 20
0.0000
 30
0.0000
 40
0.1651
 41
0.1651
 70
0
  0
VERTEX
  8
46
 10
34.6152
 20
1.3866
 30
0.0000
 42
1.0000
  0
VERTEX
  8
46
 10
34.7803
 20
1.3866
 30
0.0000
  0
SEQEND
  8
0
  0
POLYLINE
  8
46
 66
1
 10
0.0000
 20
0.0000
 30
0.0000
 40
0.3302
 41
0.3302
 70
0
  0
VERTEX
  8
46
 10
34.6977
 20
2.7793
 30
0.0000
  0
VERTEX
  8
46
 10
33.8621
 20
2.7793
 30
0.0000
  0
SEQEND
  8
0
  0
POLYLINE
  8
46
 66
1
 10
0.0000
 20
0.0000
 30
0.0000
 40
0.1651
 41
0.1651
 70
0
  0
VERTEX
  8
46
 10
33.8621
 20
2.8618
 30
0.0000
 42
1.0000
  0
VERTEX
  8
46
 10
33.8621
 20
2.6967
 30
0.0000
  0
SEQEND
  8
0
  0
POLYLINE
  8
46
 66
1
 10
0.0000
 20
0.0000
 30
0.0000
 40
0.1651
 41
0.1651
 70
0
  0
VERTEX
  8
46
 10
34.6977
 20
2.6967
 30
0.0000
 42
1.0000
  0
VERTEX
  8
46
 10
34.6977
 20
2.8618
 30
0.0000
  0
SEQEND
  8
0
  0
POLYLINE
  8
46
 66
1
 10
0.0000
 20
0.0000
 30
0.0000
 40
0.3302
 41
0.3302
 70
0
  0
VERTEX
  8
46
 10
33.8621
 20
2.7793
 30
0.0000
  0
VERTEX
  8
46
 10
33.5836
 20
2.5007
 30
0.0000
  0
SEQEND
  8
0
  0
POLYLINE
  8
46
 66
1
 10
0.0000
 20
0.0000
 30
0.0000
 40
0.1651
 41
0.1651
 70
0
  0
VERTEX
  8
46
 10
33.5252
 20
2.5591
 30
0.0000
 42
1.0000
  0
VERTEX
  8
46
 10
33.6420
 20
2.4423
 30
0.0000
  0
SEQEND
  8
0
  0
POLYLINE
  8
46
 66
1
 10
0.0000
 20
0.0000
 30
0.0000
 40
0.1651
 41
0.1651
 70
0
  0
VERTEX
  8
46
 10
33.9205
 20
2.7209
 30
0.0000
 42
1.0000
  0
VERTEX
  8
46
 10
33.8038
 20
2.8376
 30
0.0000
  0
SEQEND
  8
0
  0
POLYLINE
  8
46
 66
1
 10
0.0000
 20
0.0000
 30
0.0000
 40
0.3302
 41
0.3302
 70
0
  0
VERTEX
  8
46
 10
33.5836
 20
2.5007
 30
0.0000
  0
VERTEX
  8
46
 10
33.5836
 20
1.9436
 30
0.0000
  0
SEQEND
  8
0
  0
POLYLINE
  8
46
 66
1
 10
0.0000
 20
0.0000
 30
0.0000
 40
0.1651
 41
0.1651
 70
0
  0
VERTEX
  8
46
 10
33.5011
 20
1.9436
 30
0.0000
 42
1.0000
  0
VERTEX
  8
46
 10
33.6662
 20
1.9436
 30
0.0000
  0
SEQEND
  8
0
  0
POLYLINE
  8
46
 66
1
 10
0.0000
 20
0.0000
 30
0.0000
 40
0.1651
 41
0.1651
 70
0
  0
VERTEX
  8
46
 10
33.6662
 20
2.5007
 30
0.0000
 42
1.0000
  0
VERTEX
  8
46
 10
33.5011
 20
2.5007
 30
0.0000
  0
SEQEND
  8
0
  0
POLYLINE
  8
46
 66
1
 10
0.0000
 20
0.0000
 30
0.0000
 40
0.3302
 41
0.3302
 70
0
  0
VERTEX
  8
46
 10
33.5836
 20
1.9436
 30
0.0000
  0
VERTEX
  8
46
 10
33.8621
 20
1.6651
 30
0.0000
  0
SEQEND
  8
0
  0
POLYLINE
  8
46
 66
1
 10
0.0000
 20
0.0000
 30
0.0000
 40
0.1651
 41
0.1651
 70
0
  0
VERTEX
  8
46
 10
33.8038
 20
1.6067
 30
0.0000
 42
1.0000
  0
VERTEX
  8
46
 10
33.9205
 20
1.7235
 30
0.0000
  0
SEQEND
  8
0
  0
POLYLINE
  8
46
 66
1
 10
0.0000
 20
0.0000
 30
0.0000
 40
0.1651
 41
0.1651
 70
0
  0
VERTEX
  8
46
 10
33.6420
 20
2.0020
 30
0.0000
 42
1.0000
  0
VERTEX
  8
46
 10
33.5252
 20
1.8853
 30
0.0000
  0
SEQEND
  8
0
  0
POLYLINE
  8
46
 66
1
 10
0.0000
 20
0.0000
 30
0.0000
 40
0.3302
 41
0.3302
 70
0
  0
VERTEX
  8
46
 10
33.8621
 20
1.6651
 30
0.0000
  0
VERTEX
  8
46
 10
34.6977
 20
1.6651
 30
0.0000
  0
SEQEND
  8
0
  0
POLYLINE
  8
46
 66
1
 10
0.0000
 20
0.0000
 30
0.0000
 40
0.1651
 41
0.1651
 70
0
  0
VERTEX
  8
46
 10
34.6977
 20
1.5826
 30
0.0000
 42
1.0000
  0
VERTEX
  8
46
 10
34.6977
 20
1.7476
 30
0.0000
  0
SEQEND
  8
0
  0
POLYLINE
  8
46
 66
1
 10
0.0000
 20
0.0000
 30
0.0000
 40
0.1651
 41
0.1651
 70
0
  0
VERTEX
  8
46
 10
33.8621
 20
1.7476
 30
0.0000
 42
1.0000
  0
VERTEX
  8
46
 10
33.8621
 20
1.5826
 30
0.0000
  0
SEQEND
  8
0
  0
POLYLINE
  8
46
 66
1
 10
0.0000
 20
0.0000
 30
0.0000
 40
0.3302
 41
0.3302
 70
0
  0
VERTEX
  8
46
 10
36.2608
 20
1.6651
 30
0.0000
  0
VERTEX
  8
46
 10
35.7037
 20
1.6651
 30
0.0000
  0
SEQEND
  8
0
  0
POLYLINE
  8
46
 66
1
 10
0.0000
 20
0.0000
 30
0.0000
 40
0.1651
 41
0.1651
 70
0
  0
VERTEX
  8
46
 10
35.7037
 20
1.7476
 30
0.0000
 42
1.0000
  0
VERTEX
  8
46
 10
35.7037
 20
1.5826
 30
0.0000
  0
SEQEND
  8
0
  0
POLYLINE
  8
46
 66
1
 10
0.0000
 20
0.0000
 30
0.0000
 40
0.1651
 41
0.1651
 70
0
  0
VERTEX
  8
46
 10
36.2608
 20
1.5826
 30
0.0000
 42
1.0000
  0
VERTEX
  8
46
 10
36.2608
 20
1.7476
 30
0.0000
  0
SEQEND
  8
0
  0
POLYLINE
  8
46
 66
1
 10
0.0000
 20
0.0000
 30
0.0000
 40
0.3302
 41
0.3302
 70
0
  0
VERTEX
  8
46
 10
35.7037
 20
1.6651
 30
0.0000
  0
VERTEX
  8
46
 10
35.4252
 20
1.9436
 30
0.0000
  0
SEQEND
  8
0
  0
POLYLINE
  8
46
 66
1
 10
0.0000
 20
0.0000
 30
0.0000
 40
0.1651
 41
0.1651
 70
0
  0
VERTEX
  8
46
 10
35.4835
 20
2.0020
 30
0.0000
 42
1.0000
  0
VERTEX
  8
46
 10
35.3668
 20
1.8853
 30
0.0000
  0
SEQEND
  8
0
  0
POLYLINE
  8
46
 66
1
 10
0.0000
 20
0.0000
 30
0.0000
 40
0.1651
 41
0.1651
 70
0
  0
VERTEX
  8
46
 10
35.6453
 20
1.6067
 30
0.0000
 42
1.0000
  0
VERTEX
  8
46
 10
35.7621
 20
1.7235
 30
0.0000
  0
SEQEND
  8
0
  0
POLYLINE
  8
46
 66
1
 10
0.0000
 20
0.0000
 30
0.0000
 40
0.3302
 41
0.3302
 70
0
  0
VERTEX
  8
46
 10
35.4252
 20
1.9436
 30
0.0000
  0
VERTEX
  8
46
 10
35.4252
 20
2.5007
 30
0.0000
  0
SEQEND
  8
0
  0
POLYLINE
  8
46
 66
1
 10
0.0000
 20
0.0000
 30
0.0000
 40
0.1651
 41
0.1651
 70
0
  0
VERTEX
  8
46
 10
35.5077
 20
2.5007
 30
0.0000
 42
1.0000
  0
VERTEX
  8
46
 10
35.3426
 20
2.5007
 30
0.0000
  0
SEQEND
  8
0
  0
POLYLINE
  8
46
 66
1
 10
0.0000
 20
0.0000
 30
0.0000
 40
0.1651
 41
0.1651
 70
0
  0
VERTEX
  8
46
 10
35.3426
 20
1.9436
 30
0.0000
 42
1.0000
  0
VERTEX
  8
46
 10
35.5077
 20
1.9436
 30
0.0000
  0
SEQEND
  8
0
  0
POLYLINE
  8
46
 66
1
 10
0.0000
 20
0.0000
 30
0.0000
 40
0.3302
 41
0.3302
 70
0
  0
VERTEX
  8
46
 10
35.4252
 20
2.5007
 30
0.0000
  0
VERTEX
  8
46
 10
35.7037
 20
2.7793
 30
0.0000
  0
SEQEND
  8
0
  0
POLYLINE
  8
46
 66
1
 10
0.0000
 20
0.0000
 30
0.0000
 40
0.1651
 41
0.1651
 70
0
  0
VERTEX
  8
46
 10
35.7621
 20
2.7209
 30
0.0000
 42
1.0000
  0
VERTEX
  8
46
 10
35.6453
 20
2.8376
 30
0.0000
  0
SEQEND
  8
0
  0
POLYLINE
  8
46
 66
1
 10
0.0000
 20
0.0000
 30
0.0000
 40
0.1651
 41
0.1651
 70
0
  0
VERTEX
  8
46
 10
35.3668
 20
2.5591
 30
0.0000
 42
1.0000
  0
VERTEX
  8
46
 10
35.4835
 20
2.4423
 30
0.0000
  0
SEQEND
  8
0
  0
POLYLINE
  8
46
 66
1
 10
0.0000
 20
0.0000
 30
0.0000
 40
0.3302
 41
0.3302
 70
0
  0
VERTEX
  8
46
 10
35.7037
 20
2.7793
 30
0.0000
  0
VERTEX
  8
46
 10
36.2608
 20
2.7793
 30
0.0000
  0
SEQEND
  8
0
  0
POLYLINE
  8
46
 66
1
 10
0.0000
 20
0.0000
 30
0.0000
 40
0.1651
 41
0.1651
 70
0
  0
VERTEX
  8
46
 10
36.2608
 20
2.6967
 30
0.0000
 42
1.0000
  0
VERTEX
  8
46
 10
36.2608
 20
2.8618
 30
0.0000
  0
SEQEND
  8
0
  0
POLYLINE
  8
46
 66
1
 10
0.0000
 20
0.0000
 30
0.0000
 40
0.1651
 41
0.1651
 70
0
  0
VERTEX
  8
46
 10
35.7037
 20
2.8618
 30
0.0000
 42
1.0000
  0
VERTEX
  8
46
 10
35.7037
 20
2.6967
 30
0.0000
  0
SEQEND
  8
0
  0
POLYLINE
  8
46
 66
1
 10
0.0000
 20
0.0000
 30
0.0000
 40
0.3302
 41
0.3302
 70
0
  0
VERTEX
  8
46
 10
36.2608
 20
2.7793
 30
0.0000
  0
VERTEX
  8
46
 10
36.5393
 20
2.5007
 30
0.0000
  0
SEQEND
  8
0
  0
POLYLINE
  8
46
 66
1
 10
0.0000
 20
0.0000
 30
0.0000
 40
0.1651
 41
0.1651
 70
0
  0
VERTEX
  8
46
 10
36.4810
 20
2.4423
 30
0.0000
 42
1.0000
  0
VERTEX
  8
46
 10
36.5977
 20
2.5591
 30
0.0000
  0
SEQEND
  8
0
  0
POLYLINE
  8
46
 66
1
 10
0.0000
 20
0.0000
 30
0.0000
 40
0.1651
 41
0.1651
 70
0
  0
VERTEX
  8
46
 10
36.3192
 20
2.8376
 30
0.0000
 42
1.0000
  0
VERTEX
  8
46
 10
36.2024
 20
2.7209
 30
0.0000
  0
SEQEND
  8
0
  0
POLYLINE
  8
46
 66
1
 10
0.0000
 20
0.0000
 30
0.0000
 40
0.3302
 41
0.3302
 70
0
  0
VERTEX
  8
46
 10
36.5393
 20
2.5007
 30
0.0000
  0
VERTEX
  8
46
 10
36.5393
 20
2.2222
 30
0.0000
  0
SEQEND
  8
0
  0
POLYLINE
  8
46
 66
1
 10
0.0000
 20
0.0000
 30
0.0000
 40
0.1651
 41
0.1651
 70
0
  0
VERTEX
  8
46
 10
36.4568
 20
2.2222
 30
0.0000
 42
1.0000
  0
VERTEX
  8
46
 10
36.6219
 20
2.2222
 30
0.0000
  0
SEQEND
  8
0
  0
POLYLINE
  8
46
 66
1
 10
0.0000
 20
0.0000
 30
0.0000
 40
0.1651
 41
0.1651
 70
0
  0
VERTEX
  8
46
 10
36.6219
 20
2.5007
 30
0.0000
 42
1.0000
  0
VERTEX
  8
46
 10
36.4568
 20
2.5007
 30
0.0000
  0
SEQEND
  8
0
  0
POLYLINE
  8
46
 66
1
 10
0.0000
 20
0.0000
 30
0.0000
 40
0.3302
 41
0.3302
 70
0
  0
VERTEX
  8
46
 10
36.5393
 20
2.2222
 30
0.0000
  0
VERTEX
  8
46
 10
35.4252
 20
2.2222
 30
0.0000
  0
SEQEND
  8
0
  0
POLYLINE
  8
46
 66
1
 10
0.0000
 20
0.0000
 30
0.0000
 40
0.1651
 41
0.1651
 70
0
  0
VERTEX
  8
46
 10
35.4252
 20
2.3047
 30
0.0000
 42
1.0000
  0
VERTEX
  8
46
 10
35.4252
 20
2.1396
 30
0.0000
  0
SEQEND
  8
0
  0
POLYLINE
  8
46
 66
1
 10
0.0000
 20
0.0000
 30
0.0000
 40
0.1651
 41
0.1651
 70
0
  0
VERTEX
  8
46
 10
36.5393
 20
2.1396
 30
0.0000
 42
1.0000
  0
VERTEX
  8
46
 10
36.5393
 20
2.3047
 30
0.0000
  0
SEQEND
  8
0
  0
POLYLINE
  8
46
 66
1
 10
0.0000
 20
0.0000
 30
0.0000
 40
0.3302
 41
0.3302
 70
0
  0
VERTEX
  8
46
 10
40.2225
 20
3.0578
 30
0.0000
  0
VERTEX
  8
46
 10
39.9439
 20
3.3363
 30
0.0000
  0
SEQEND
  8
0
  0
POLYLINE
  8
46
 66
1
 10
0.0000
 20
0.0000
 30
0.0000
 40
0.1651
 41
0.1651
 70
0
  0
VERTEX
  8
46
 10
40.0023
 20
3.3947
 30
0.0000
 42
1.0000
  0
VERTEX
  8
46
 10
39.8856
 20
3.2780
 30
0.0000
  0
SEQEND
  8
0
  0
POLYLINE
  8
46
 66
1
 10
0.0000
 20
0.0000
 30
0.0000
 40
0.1651
 41
0.1651
 70
0
  0
VERTEX
  8
46
 10
40.1641
 20
2.9994
 30
0.0000
 42
1.0000
  0
VERTEX
  8
46
 10
40.2808
 20
3.1162
 30
0.0000
  0
SEQEND
  8
0
  0
POLYLINE
  8
46
 66
1
 10
0.0000
 20
0.0000
 30
0.0000
 40
0.3302
 41
0.3302
 70
0
  0
VERTEX
  8
46
 10
39.9439
 20
3.3363
 30
0.0000
  0
VERTEX
  8
46
 10
39.3869
 20
3.3363
 30
0.0000
  0
SEQEND
  8
0
  0
POLYLINE
  8
46
 66
1
 10
0.0000
 20
0.0000
 30
0.0000
 40
0.1651
 41
0.1651
 70
0
  0
VERTEX
  8
46
 10
39.3869
 20
3.4189
 30
0.0000
 42
1.0000
  0
VERTEX
  8
46
 10
39.3869
 20
3.2538
 30
0.0000
  0
SEQEND
  8
0
  0
POLYLINE
  8
46
 66
1
 10
0.0000
 20
0.0000
 30
0.0000
 40
0.1651
 41
0.1651
 70
0
  0
VERTEX
  8
46
 10
39.9439
 20
3.2538
 30
0.0000
 42
1.0000
  0
VERTEX
  8
46
 10
39.9439
 20
3.4189
 30
0.0000
  0
SEQEND
  8
0
  0
POLYLINE
  8
46
 66
1
 10
0.0000
 20
0.0000
 30
0.0000
 40
0.3302
 41
0.3302
 70
0
  0
VERTEX
  8
46
 10
39.3869
 20
3.3363
 30
0.0000
  0
VERTEX
  8
46
 10
39.1083
 20
3.0578
 30
0.0000
  0
SEQEND
  8
0
  0
POLYLINE
  8
46
 66
1
 10
0.0000
 20
0.0000
 30
0.0000
 40
0.1651
 41
0.1651
 70
0
  0
VERTEX
  8
46
 10
39.0499
 20
3.1162
 30
0.0000
 42
1.0000
  0
VERTEX
  8
46
 10
39.1667
 20
2.9994
 30
0.0000
  0
SEQEND
  8
0
  0
POLYLINE
  8
46
 66
1
 10
0.0000
 20
0.0000
 30
0.0000
 40
0.1651
 41
0.1651
 70
0
  0
VERTEX
  8
46
 10
39.4452
 20
3.2780
 30
0.0000
 42
1.0000
  0
VERTEX
  8
46
 10
39.3285
 20
3.3947
 30
0.0000
  0
SEQEND
  8
0
  0
POLYLINE
  8
46
 66
1
 10
0.0000
 20
0.0000
 30
0.0000
 40
0.3302
 41
0.3302
 70
0
  0
VERTEX
  8
46
 10
39.1083
 20
3.0578
 30
0.0000
  0
VERTEX
  8
46
 10
39.1083
 20
2.7793
 30
0.0000
  0
SEQEND
  8
0
  0
POLYLINE
  8
46
 66
1
 10
0.0000
 20
0.0000
 30
0.0000
 40
0.1651
 41
0.1651
 70
0
  0
VERTEX
  8
46
 10
39.0258
 20
2.7793
 30
0.0000
 42
1.0000
  0
VERTEX
  8
46
 10
39.1909
 20
2.7793
 30
0.0000
  0
SEQEND
  8
0
  0
POLYLINE
  8
46
 66
1
 10
0.0000
 20
0.0000
 30
0.0000
 40
0.1651
 41
0.1651
 70
0
  0
VERTEX
  8
46
 10
39.1909
 20
3.0578
 30
0.0000
 42
1.0000
  0
VERTEX
  8
46
 10
39.0258
 20
3.0578
 30
0.0000
  0
SEQEND
  8
0
  0
POLYLINE
  8
46
 66
1
 10
0.0000
 20
0.0000
 30
0.0000
 40
0.3302
 41
0.3302
 70
0
  0
VERTEX
  8
46
 10
39.1083
 20
2.7793
 30
0.0000
  0
VERTEX
  8
46
 10
39.3869
 20
2.5007
 30
0.0000
  0
SEQEND
  8
0
  0
POLYLINE
  8
46
 66
1
 10
0.0000
 20
0.0000
 30
0.0000
 40
0.1651
 41
0.1651
 70
0
  0
VERTEX
  8
46
 10
39.3285
 20
2.4423
 30
0.0000
 42
1.0000
  0
VERTEX
  8
46
 10
39.4452
 20
2.5591
 30
0.0000
  0
SEQEND
  8
0
  0
POLYLINE
  8
46
 66
1
 10
0.0000
 20
0.0000
 30
0.0000
 40
0.1651
 41
0.1651
 70
0
  0
VERTEX
  8
46
 10
39.1667
 20
2.8376
 30
0.0000
 42
1.0000
  0
VERTEX
  8
46
 10
39.0499
 20
2.7209
 30
0.0000
  0
SEQEND
  8
0
  0
POLYLINE
  8
46
 66
1
 10
0.0000
 20
0.0000
 30
0.0000
 40
0.3302
 41
0.3302
 70
0
  0
VERTEX
  8
46
 10
39.3869
 20
2.5007
 30
0.0000
  0
VERTEX
  8
46
 10
39.9439
 20
2.5007
 30
0.0000
  0
SEQEND
  8
0
  0
POLYLINE
  8
46
 66
1
 10
0.0000
 20
0.0000
 30
0.0000
 40
0.1651
 41
0.1651
 70
0
  0
VERTEX
  8
46
 10
39.9439
 20
2.4182
 30
0.0000
 42
1.0000
  0
VERTEX
  8
46
 10
39.9439
 20
2.5833
 30
0.0000
  0
SEQEND
  8
0
  0
POLYLINE
  8
46
 66
1
 10
0.0000
 20
0.0000
 30
0.0000
 40
0.1651
 41
0.1651
 70
0
  0
VERTEX
  8
46
 10
39.3869
 20
2.5833
 30
0.0000
 42
1.0000
  0
VERTEX
  8
46
 10
39.3869
 20
2.4182
 30
0.0000
  0
SEQEND
  8
0
  0
POLYLINE
  8
46
 66
1
 10
0.0000
 20
0.0000
 30
0.0000
 40
0.3302
 41
0.3302
 70
0
  0
VERTEX
  8
46
 10
39.9439
 20
2.5007
 30
0.0000
  0
VERTEX
  8
46
 10
40.2225
 20
2.2222
 30
0.0000
  0
SEQEND
  8
0
  0
POLYLINE
  8
46
 66
1
 10
0.0000
 20
0.0000
 30
0.0000
 40
0.1651
 41
0.1651
 70
0
  0
VERTEX
  8
46
 10
40.1641
 20
2.1638
 30
0.0000
 42
1.0000
  0
VERTEX
  8
46
 10
40.2808
 20
2.2805
 30
0.0000
  0
SEQEND
  8
0
  0
POLYLINE
  8
46
 66
1
 10
0.0000
 20
0.0000
 30
0.0000
 40
0.1651
 41
0.1651
 70
0
  0
VERTEX
  8
46
 10
40.0023
 20
2.5591
 30
0.0000
 42
1.0000
  0
VERTEX
  8
46
 10
39.8856
 20
2.4423
 30
0.0000
  0
SEQEND
  8
0
  0
POLYLINE
  8
46
 66
1
 10
0.0000
 20
0.0000
 30
0.0000
 40
0.3302
 41
0.3302
 70
0
  0
VERTEX
  8
46
 10
40.2225
 20
2.2222
 30
0.0000
  0
VERTEX
  8
46
 10
40.2225
 20
1.9436
 30
0.0000
  0
SEQEND
  8
0
  0
POLYLINE
  8
46
 66
1
 10
0.0000
 20
0.0000
 30
0.0000
 40
0.1651
 41
0.1651
 70
0
  0
VERTEX
  8
46
 10
40.1399
 20
1.9436
 30
0.0000
 42
1.0000
  0
VERTEX
  8
46
 10
40.3050
 20
1.9436
 30
0.0000
  0
SEQEND
  8
0
  0
POLYLINE
  8
46
 66
1
 10
0.0000
 20
0.0000
 30
0.0000
 40
0.1651
 41
0.1651
 70
0
  0
VERTEX
  8
46
 10
40.3050
 20
2.2222
 30
0.0000
 42
1.0000
  0
VERTEX
  8
46
 10
40.1399
 20
2.2222
 30
0.0000
  0
SEQEND
  8
0
  0
POLYLINE
  8
46
 66
1
 10
0.0000
 20
0.0000
 30
0.0000
 40
0.3302
 41
0.3302
 70
0
  0
VERTEX
  8
46
 10
40.2225
 20
1.9436
 30
0.0000
  0
VERTEX
  8
46
 10
39.9439
 20
1.6651
 30
0.0000
  0
SEQEND
  8
0
  0
POLYLINE
  8
46
 66
1
 10
0.0000
 20
0.0000
 30
0.0000
 40
0.1651
 41
0.1651
 70
0
  0
VERTEX
  8
46
 10
39.8856
 20
1.7235
 30
0.0000
 42
1.0000
  0
VERTEX
  8
46
 10
40.0023
 20
1.6067
 30
0.0000
  0
SEQEND
  8
0
  0
POLYLINE
  8
46
 66
1
 10
0.0000
 20
0.0000
 30
0.0000
 40
0.1651
 41
0.1651
 70
0
  0
VERTEX
  8
46
 10
40.2808
 20
1.8853
 30
0.0000
 42
1.0000
  0
VERTEX
  8
46
 10
40.1641
 20
2.0020
 30
0.0000
  0
SEQEND
  8
0
  0
POLYLINE
  8
46
 66
1
 10
0.0000
 20
0.0000
 30
0.0000
 40
0.3302
 41
0.3302
 70
0
  0
VERTEX
  8
46
 10
39.9439
 20
1.6651
 30
0.0000
  0
VERTEX
  8
46
 10
39.3869
 20
1.6651
 30
0.0000
  0
SEQEND
  8
0
  0
POLYLINE
  8
46
 66
1
 10
0.0000
 20
0.0000
 30
0.0000
 40
0.1651
 41
0.1651
 70
0
  0
VERTEX
  8
46
 10
39.3869
 20
1.7476
 30
0.0000
 42
1.0000
  0
VERTEX
  8
46
 10
39.3869
 20
1.5826
 30
0.0000
  0
SEQEND
  8
0
  0
POLYLINE
  8
46
 66
1
 10
0.0000
 20
0.0000
 30
0.0000
 40
0.1651
 41
0.1651
 70
0
  0
VERTEX
  8
46
 10
39.9439
 20
1.5826
 30
0.0000
 42
1.0000
  0
VERTEX
  8
46
 10
39.9439
 20
1.7476
 30
0.0000
  0
SEQEND
  8
0
  0
POLYLINE
  8
46
 66
1
 10
0.0000
 20
0.0000
 30
0.0000
 40
0.3302
 41
0.3302
 70
0
  0
VERTEX
  8
46
 10
39.3869
 20
1.6651
 30
0.0000
  0
VERTEX
  8
46
 10
39.1083
 20
1.9436
 30
0.0000
  0
SEQEND
  8
0
  0
POLYLINE
  8
46
 66
1
 10
0.0000
 20
0.0000
 30
0.0000
 40
0.1651
 41
0.1651
 70
0
  0
VERTEX
  8
46
 10
39.1667
 20
2.0020
 30
0.0000
 42
1.0000
  0
VERTEX
  8
46
 10
39.0499
 20
1.8853
 30
0.0000
  0
SEQEND
  8
0
  0
POLYLINE
  8
46
 66
1
 10
0.0000
 20
0.0000
 30
0.0000
 40
0.1651
 41
0.1651
 70
0
  0
VERTEX
  8
46
 10
39.3285
 20
1.6067
 30
0.0000
 42
1.0000
  0
VERTEX
  8
46
 10
39.4452
 20
1.7235
 30
0.0000
  0
SEQEND
  8
0
  0
POLYLINE
  8
46
 66
1
 10
0.0000
 20
0.0000
 30
0.0000
 40
0.3302
 41
0.3302
 70
0
  0
VERTEX
  8
46
 10
41.2284
 20
3.0578
 30
0.0000
  0
VERTEX
  8
46
 10
41.2284
 20
1.9436
 30
0.0000
  0
SEQEND
  8
0
  0
POLYLINE
  8
46
 66
1
 10
0.0000
 20
0.0000
 30
0.0000
 40
0.1651
 41
0.1651
 70
0
  0
VERTEX
  8
46
 10
41.1459
 20
1.9436
 30
0.0000
 42
1.0000
  0
VERTEX
  8
46
 10
41.3110
 20
1.9436
 30
0.0000
  0
SEQEND
  8
0
  0
POLYLINE
  8
46
 66
1
 10
0.0000
 20
0.0000
 30
0.0000
 40
0.1651
 41
0.1651
 70
0
  0
VERTEX
  8
46
 10
41.3110
 20
3.0578
 30
0.0000
 42
1.0000
  0
VERTEX
  8
46
 10
41.1459
 20
3.0578
 30
0.0000
  0
SEQEND
  8
0
  0
POLYLINE
  8
46
 66
1
 10
0.0000
 20
0.0000
 30
0.0000
 40
0.3302
 41
0.3302
 70
0
  0
VERTEX
  8
46
 10
41.2284
 20
1.9436
 30
0.0000
  0
VERTEX
  8
46
 10
41.5070
 20
1.6651
 30
0.0000
  0
SEQEND
  8
0
  0
POLYLINE
  8
46
 66
1
 10
0.0000
 20
0.0000
 30
0.0000
 40
0.1651
 41
0.1651
 70
0
  0
VERTEX
  8
46
 10
41.4486
 20
1.6067
 30
0.0000
 42
1.0000
  0
VERTEX
  8
46
 10
41.5653
 20
1.7235
 30
0.0000
  0
SEQEND
  8
0
  0
POLYLINE
  8
46
 66
1
 10
0.0000
 20
0.0000
 30
0.0000
 40
0.1651
 41
0.1651
 70
0
  0
VERTEX
  8
46
 10
41.2868
 20
2.0020
 30
0.0000
 42
1.0000
  0
VERTEX
  8
46
 10
41.1701
 20
1.8853
 30
0.0000
  0
SEQEND
  8
0
  0
POLYLINE
  8
46
 66
1
 10
0.0000
 20
0.0000
 30
0.0000
 40
0.3302
 41
0.3302
 70
0
  0
VERTEX
  8
46
 10
40.9499
 20
2.7793
 30
0.0000
  0
VERTEX
  8
46
 10
41.5070
 20
2.7793
 30
0.0000
  0
SEQEND
  8
0
  0
POLYLINE
  8
46
 66
1
 10
0.0000
 20
0.0000
 30
0.0000
 40
0.1651
 41
0.1651
 70
0
  0
VERTEX
  8
46
 10
41.5070
 20
2.6967
 30
0.0000
 42
1.0000
  0
VERTEX
  8
46
 10
41.5070
 20
2.8618
 30
0.0000
  0
SEQEND
  8
0
  0
POLYLINE
  8
46
 66
1
 10
0.0000
 20
0.0000
 30
0.0000
 40
0.1651
 41
0.1651
 70
0
  0
VERTEX
  8
46
 10
40.9499
 20
2.8618
 30
0.0000
 42
1.0000
  0
VERTEX
  8
46
 10
40.9499
 20
2.6967
 30
0.0000
  0
SEQEND
  8
0
  0
POLYLINE
  8
46
 66
1
 10
0.0000
 20
0.0000
 30
0.0000
 40
0.3302
 41
0.3302
 70
0
  0
VERTEX
  8
46
 10
42.4561
 20
2.7793
 30
0.0000
  0
VERTEX
  8
46
 10
43.0132
 20
2.7793
 30
0.0000
  0
SEQEND
  8
0
  0
POLYLINE
  8
46
 66
1
 10
0.0000
 20
0.0000
 30
0.0000
 40
0.1651
 41
0.1651
 70
0
  0
VERTEX
  8
46
 10
43.0132
 20
2.6967
 30
0.0000
 42
1.0000
  0
VERTEX
  8
46
 10
43.0132
 20
2.8618
 30
0.0000
  0
SEQEND
  8
0
  0
POLYLINE
  8
46
 66
1
 10
0.0000
 20
0.0000
 30
0.0000
 40
0.1651
 41
0.1651
 70
0
  0
VERTEX
  8
46
 10
42.4561
 20
2.8618
 30
0.0000
 42
1.0000
  0
VERTEX
  8
46
 10
42.4561
 20
2.6967
 30
0.0000
  0
SEQEND
  8
0
  0
POLYLINE
  8
46
 66
1
 10
0.0000
 20
0.0000
 30
0.0000
 40
0.3302
 41
0.3302
 70
0
  0
VERTEX
  8
46
 10
43.0132
 20
2.7793
 30
0.0000
  0
VERTEX
  8
46
 10
43.2918
 20
2.5007
 30
0.0000
  0
SEQEND
  8
0
  0
POLYLINE
  8
46
 66
1
 10
0.0000
 20
0.0000
 30
0.0000
 40
0.1651
 41
0.1651
 70
0
  0
VERTEX
  8
46
 10
43.2334
 20
2.4423
 30
0.0000
 42
1.0000
  0
VERTEX
  8
46
 10
43.3501
 20
2.5591
 30
0.0000
  0
SEQEND
  8
0
  0
POLYLINE
  8
46
 66
1
 10
0.0000
 20
0.0000
 30
0.0000
 40
0.1651
 41
0.1651
 70
0
  0
VERTEX
  8
46
 10
43.0716
 20
2.8376
 30
0.0000
 42
1.0000
  0
VERTEX
  8
46
 10
42.9548
 20
2.7209
 30
0.0000
  0
SEQEND
  8
0
  0
POLYLINE
  8
46
 66
1
 10
0.0000
 20
0.0000
 30
0.0000
 40
0.3302
 41
0.3302
 70
0
  0
VERTEX
  8
46
 10
43.2918
 20
2.5007
 30
0.0000
  0
VERTEX
  8
46
 10
43.2918
 20
1.6651
 30
0.0000
  0
SEQEND
  8
0
  0
POLYLINE
  8
46
 66
1
 10
0.0000
 20
0.0000
 30
0.0000
 40
0.1651
 41
0.1651
 70
0
  0
VERTEX
  8
46
 10
43.2092
 20
1.6651
 30
0.0000
 42
1.0000
  0
VERTEX
  8
46
 10
43.3743
 20
1.6651
 30
0.0000
  0
SEQEND
  8
0
  0
POLYLINE
  8
46
 66
1
 10
0.0000
 20
0.0000
 30
0.0000
 40
0.1651
 41
0.1651
 70
0
  0
VERTEX
  8
46
 10
43.3743
 20
2.5007
 30
0.0000
 42
1.0000
  0
VERTEX
  8
46
 10
43.2092
 20
2.5007
 30
0.0000
  0
SEQEND
  8
0
  0
POLYLINE
  8
46
 66
1
 10
0.0000
 20
0.0000
 30
0.0000
 40
0.3302
 41
0.3302
 70
0
  0
VERTEX
  8
46
 10
43.2918
 20
1.6651
 30
0.0000
  0
VERTEX
  8
46
 10
42.4561
 20
1.6651
 30
0.0000
  0
SEQEND
  8
0
  0
POLYLINE
  8
46
 66
1
 10
0.0000
 20
0.0000
 30
0.0000
 40
0.1651
 41
0.1651
 70
0
  0
VERTEX
  8
46
 10
42.4561
 20
1.7476
 30
0.0000
 42
1.0000
  0
VERTEX
  8
46
 10
42.4561
 20
1.5826
 30
0.0000
  0
SEQEND
  8
0
  0
POLYLINE
  8
46
 66
1
 10
0.0000
 20
0.0000
 30
0.0000
 40
0.1651
 41
0.1651
 70
0
  0
VERTEX
  8
46
 10
43.2918
 20
1.5826
 30
0.0000
 42
1.0000
  0
VERTEX
  8
46
 10
43.2918
 20
1.7476
 30
0.0000
  0
SEQEND
  8
0
  0
POLYLINE
  8
46
 66
1
 10
0.0000
 20
0.0000
 30
0.0000
 40
0.3302
 41
0.3302
 70
0
  0
VERTEX
  8
46
 10
42.4561
 20
1.6651
 30
0.0000
  0
VERTEX
  8
46
 10
42.1776
 20
1.9436
 30
0.0000
  0
SEQEND
  8
0
  0
POLYLINE
  8
46
 66
1
 10
0.0000
 20
0.0000
 30
0.0000
 40
0.1651
 41
0.1651
 70
0
  0
VERTEX
  8
46
 10
42.2360
 20
2.0020
 30
0.0000
 42
1.0000
  0
VERTEX
  8
46
 10
42.1192
 20
1.8853
 30
0.0000
  0
SEQEND
  8
0
  0
POLYLINE
  8
46
 66
1
 10
0.0000
 20
0.0000
 30
0.0000
 40
0.1651
 41
0.1651
 70
0
  0
VERTEX
  8
46
 10
42.3978
 20
1.6067
 30
0.0000
 42
1.0000
  0
VERTEX
  8
46
 10
42.5145
 20
1.7235
 30
0.0000
  0
SEQEND
  8
0
  0
POLYLINE
  8
46
 66
1
 10
0.0000
 20
0.0000
 30
0.0000
 40
0.3302
 41
0.3302
 70
0
  0
VERTEX
  8
46
 10
42.1776
 20
1.9436
 30
0.0000
  0
VERTEX
  8
46
 10
42.4561
 20
2.2222
 30
0.0000
  0
SEQEND
  8
0
  0
POLYLINE
  8
46
 66
1
 10
0.0000
 20
0.0000
 30
0.0000
 40
0.1651
 41
0.1651
 70
0
  0
VERTEX
  8
46
 10
42.5145
 20
2.1638
 30
0.0000
 42
1.0000
  0
VERTEX
  8
46
 10
42.3978
 20
2.2805
 30
0.0000
  0
SEQEND
  8
0
  0
POLYLINE
  8
46
 66
1
 10
0.0000
 20
0.0000
 30
0.0000
 40
0.1651
 41
0.1651
 70
0
  0
VERTEX
  8
46
 10
42.1192
 20
2.0020
 30
0.0000
 42
1.0000
  0
VERTEX
  8
46
 10
42.2360
 20
1.8853
 30
0.0000
  0
SEQEND
  8
0
  0
POLYLINE
  8
46
 66
1
 10
0.0000
 20
0.0000
 30
0.0000
 40
0.3302
 41
0.3302
 70
0
  0
VERTEX
  8
46
 10
42.4561
 20
2.2222
 30
0.0000
  0
VERTEX
  8
46
 10
43.2918
 20
2.2222
 30
0.0000
  0
SEQEND
  8
0
  0
POLYLINE
  8
46
 66
1
 10
0.0000
 20
0.0000
 30
0.0000
 40
0.1651
 41
0.1651
 70
0
  0
VERTEX
  8
46
 10
43.2918
 20
2.1396
 30
0.0000
 42
1.0000
  0
VERTEX
  8
46
 10
43.2918
 20
2.3047
 30
0.0000
  0
SEQEND
  8
0
  0
POLYLINE
  8
46
 66
1
 10
0.0000
 20
0.0000
 30
0.0000
 40
0.1651
 41
0.1651
 70
0
  0
VERTEX
  8
46
 10
42.4561
 20
2.3047
 30
0.0000
 42
1.0000
  0
VERTEX
  8
46
 10
42.4561
 20
2.1396
 30
0.0000
  0
SEQEND
  8
0
  0
POLYLINE
  8
46
 66
1
 10
0.0000
 20
0.0000
 30
0.0000
 40
0.3302
 41
0.3302
 70
0
  0
VERTEX
  8
46
 10
44.2977
 20
3.0578
 30
0.0000
  0
VERTEX
  8
46
 10
44.2977
 20
1.9436
 30
0.0000
  0
SEQEND
  8
0
  0
POLYLINE
  8
46
 66
1
 10
0.0000
 20
0.0000
 30
0.0000
 40
0.1651
 41
0.1651
 70
0
  0
VERTEX
  8
46
 10
44.2152
 20
1.9436
 30
0.0000
 42
1.0000
  0
VERTEX
  8
46
 10
44.3803
 20
1.9436
 30
0.0000
  0
SEQEND
  8
0
  0
POLYLINE
  8
46
 66
1
 10
0.0000
 20
0.0000
 30
0.0000
 40
0.1651
 41
0.1651
 70
0
  0
VERTEX
  8
46
 10
44.3803
 20
3.0578
 30
0.0000
 42
1.0000
  0
VERTEX
  8
46
 10
44.2152
 20
3.0578
 30
0.0000
  0
SEQEND
  8
0
  0
POLYLINE
  8
46
 66
1
 10
0.0000
 20
0.0000
 30
0.0000
 40
0.3302
 41
0.3302
 70
0
  0
VERTEX
  8
46
 10
44.2977
 20
1.9436
 30
0.0000
  0
VERTEX
  8
46
 10
44.5763
 20
1.6651
 30
0.0000
  0
SEQEND
  8
0
  0
POLYLINE
  8
46
 66
1
 10
0.0000
 20
0.0000
 30
0.0000
 40
0.1651
 41
0.1651
 70
0
  0
VERTEX
  8
46
 10
44.5179
 20
1.6067
 30
0.0000
 42
1.0000
  0
VERTEX
  8
46
 10
44.6346
 20
1.7235
 30
0.0000
  0
SEQEND
  8
0
  0
POLYLINE
  8
46
 66
1
 10
0.0000
 20
0.0000
 30
0.0000
 40
0.1651
 41
0.1651
 70
0
  0
VERTEX
  8
46
 10
44.3561
 20
2.0020
 30
0.0000
 42
1.0000
  0
VERTEX
  8
46
 10
44.2393
 20
1.8853
 30
0.0000
  0
SEQEND
  8
0
  0
POLYLINE
  8
46
 66
1
 10
0.0000
 20
0.0000
 30
0.0000
 40
0.3302
 41
0.3302
 70
0
  0
VERTEX
  8
46
 10
44.0192
 20
2.7793
 30
0.0000
  0
VERTEX
  8
46
 10
44.5763
 20
2.7793
 30
0.0000
  0
SEQEND
  8
0
  0
POLYLINE
  8
46
 66
1
 10
0.0000
 20
0.0000
 30
0.0000
 40
0.1651
 41
0.1651
 70
0
  0
VERTEX
  8
46
 10
44.5763
 20
2.6967
 30
0.0000
 42
1.0000
  0
VERTEX
  8
46
 10
44.5763
 20
2.8618
 30
0.0000
  0
SEQEND
  8
0
  0
POLYLINE
  8
46
 66
1
 10
0.0000
 20
0.0000
 30
0.0000
 40
0.1651
 41
0.1651
 70
0
  0
VERTEX
  8
46
 10
44.0192
 20
2.8618
 30
0.0000
 42
1.0000
  0
VERTEX
  8
46
 10
44.0192
 20
2.6967
 30
0.0000
  0
SEQEND
  8
0
  0
POLYLINE
  8
46
 66
1
 10
0.0000
 20
0.0000
 30
0.0000
 40
0.3302
 41
0.3302
 70
0
  0
VERTEX
  8
46
 10
45.2469
 20
2.7793
 30
0.0000
  0
VERTEX
  8
46
 10
45.5254
 20
2.7793
 30
0.0000
  0
SEQEND
  8
0
  0
POLYLINE
  8
46
 66
1
 10
0.0000
 20
0.0000
 30
0.0000
 40
0.1651
 41
0.1651
 70
0
  0
VERTEX
  8
46
 10
45.5254
 20
2.6967
 30
0.0000
 42
1.0000
  0
VERTEX
  8
46
 10
45.5254
 20
2.8618
 30
0.0000
  0
SEQEND
  8
0
  0
POLYLINE
  8
46
 66
1
 10
0.0000
 20
0.0000
 30
0.0000
 40
0.1651
 41
0.1651
 70
0
  0
VERTEX
  8
46
 10
45.2469
 20
2.8618
 30
0.0000
 42
1.0000
  0
VERTEX
  8
46
 10
45.2469
 20
2.6967
 30
0.0000
  0
SEQEND
  8
0
  0
POLYLINE
  8
46
 66
1
 10
0.0000
 20
0.0000
 30
0.0000
 40
0.3302
 41
0.3302
 70
0
  0
VERTEX
  8
46
 10
45.5254
 20
2.7793
 30
0.0000
  0
VERTEX
  8
46
 10
45.5254
 20
1.6651
 30
0.0000
  0
SEQEND
  8
0
  0
POLYLINE
  8
46
 66
1
 10
0.0000
 20
0.0000
 30
0.0000
 40
0.1651
 41
0.1651
 70
0
  0
VERTEX
  8
46
 10
45.4429
 20
1.6651
 30
0.0000
 42
1.0000
  0
VERTEX
  8
46
 10
45.6080
 20
1.6651
 30
0.0000
  0
SEQEND
  8
0
  0
POLYLINE
  8
46
 66
1
 10
0.0000
 20
0.0000
 30
0.0000
 40
0.1651
 41
0.1651
 70
0
  0
VERTEX
  8
46
 10
45.6080
 20
2.7793
 30
0.0000
 42
1.0000
  0
VERTEX
  8
46
 10
45.4429
 20
2.7793
 30
0.0000
  0
SEQEND
  8
0
  0
POLYLINE
  8
46
 66
1
 10
0.0000
 20
0.0000
 30
0.0000
 40
0.3302
 41
0.3302
 70
0
  0
VERTEX
  8
46
 10
45.2469
 20
1.6651
 30
0.0000
  0
VERTEX
  8
46
 10
45.8040
 20
1.6651
 30
0.0000
  0
SEQEND
  8
0
  0
POLYLINE
  8
46
 66
1
 10
0.0000
 20
0.0000
 30
0.0000
 40
0.1651
 41
0.1651
 70
0
  0
VERTEX
  8
46
 10
45.8040
 20
1.5826
 30
0.0000
 42
1.0000
  0
VERTEX
  8
46
 10
45.8040
 20
1.7476
 30
0.0000
  0
SEQEND
  8
0
  0
POLYLINE
  8
46
 66
1
 10
0.0000
 20
0.0000
 30
0.0000
 40
0.1651
 41
0.1651
 70
0
  0
VERTEX
  8
46
 10
45.2469
 20
1.7476
 30
0.0000
 42
1.0000
  0
VERTEX
  8
46
 10
45.2469
 20
1.5826
 30
0.0000
  0
SEQEND
  8
0
  0
POLYLINE
  8
46
 66
1
 10
0.0000
 20
0.0000
 30
0.0000
 40
0.3302
 41
0.3302
 70
0
  0
VERTEX
  8
46
 10
45.5254
 20
3.6149
 30
0.0000
  0
VERTEX
  8
46
 10
45.5254
 20
3.3363
 30
0.0000
  0
SEQEND
  8
0
  0
POLYLINE
  8
46
 66
1
 10
0.0000
 20
0.0000
 30
0.0000
 40
0.1651
 41
0.1651
 70
0
  0
VERTEX
  8
46
 10
45.4429
 20
3.3363
 30
0.0000
 42
1.0000
  0
VERTEX
  8
46
 10
45.6080
 20
3.3363
 30
0.0000
  0
SEQEND
  8
0
  0
POLYLINE
  8
46
 66
1
 10
0.0000
 20
0.0000
 30
0.0000
 40
0.1651
 41
0.1651
 70
0
  0
VERTEX
  8
46
 10
45.6080
 20
3.6149
 30
0.0000
 42
1.0000
  0
VERTEX
  8
46
 10
45.4429
 20
3.6149
 30
0.0000
  0
SEQEND
  8
0
  0
POLYLINE
  8
46
 66
1
 10
0.0000
 20
0.0000
 30
0.0000
 40
0.3302
 41
0.3302
 70
0
  0
VERTEX
  8
46
 10
46.7531
 20
1.6651
 30
0.0000
  0
VERTEX
  8
46
 10
47.3102
 20
1.6651
 30
0.0000
  0
SEQEND
  8
0
  0
POLYLINE
  8
46
 66
1
 10
0.0000
 20
0.0000
 30
0.0000
 40
0.1651
 41
0.1651
 70
0
  0
VERTEX
  8
46
 10
47.3102
 20
1.5826
 30
0.0000
 42
1.0000
  0
VERTEX
  8
46
 10
47.3102
 20
1.7476
 30
0.0000
  0
SEQEND
  8
0
  0
POLYLINE
  8
46
 66
1
 10
0.0000
 20
0.0000
 30
0.0000
 40
0.1651
 41
0.1651
 70
0
  0
VERTEX
  8
46
 10
46.7531
 20
1.7476
 30
0.0000
 42
1.0000
  0
VERTEX
  8
46
 10
46.7531
 20
1.5826
 30
0.0000
  0
SEQEND
  8
0
  0
POLYLINE
  8
46
 66
1
 10
0.0000
 20
0.0000
 30
0.0000
 40
0.3302
 41
0.3302
 70
0
  0
VERTEX
  8
46
 10
47.3102
 20
1.6651
 30
0.0000
  0
VERTEX
  8
46
 10
47.5888
 20
1.9436
 30
0.0000
  0
SEQEND
  8
0
  0
POLYLINE
  8
46
 66
1
 10
0.0000
 20
0.0000
 30
0.0000
 40
0.1651
 41
0.1651
 70
0
  0
VERTEX
  8
46
 10
47.6471
 20
1.8853
 30
0.0000
 42
1.0000
  0
VERTEX
  8
46
 10
47.5304
 20
2.0020
 30
0.0000
  0
SEQEND
  8
0
  0
POLYLINE
  8
46
 66
1
 10
0.0000
 20
0.0000
 30
0.0000
 40
0.1651
 41
0.1651
 70
0
  0
VERTEX
  8
46
 10
47.2518
 20
1.7235
 30
0.0000
 42
1.0000
  0
VERTEX
  8
46
 10
47.3686
 20
1.6067
 30
0.0000
  0
SEQEND
  8
0
  0
POLYLINE
  8
46
 66
1
 10
0.0000
 20
0.0000
 30
0.0000
 40
0.3302
 41
0.3302
 70
0
  0
VERTEX
  8
46
 10
47.5888
 20
1.9436
 30
0.0000
  0
VERTEX
  8
46
 10
47.5888
 20
2.5007
 30
0.0000
  0
SEQEND
  8
0
  0
POLYLINE
  8
46
 66
1
 10
0.0000
 20
0.0000
 30
0.0000
 40
0.1651
 41
0.1651
 70
0
  0
VERTEX
  8
46
 10
47.6713
 20
2.5007
 30
0.0000
 42
1.0000
  0
VERTEX
  8
46
 10
47.5062
 20
2.5007
 30
0.0000
  0
SEQEND
  8
0
  0
POLYLINE
  8
46
 66
1
 10
0.0000
 20
0.0000
 30
0.0000
 40
0.1651
 41
0.1651
 70
0
  0
VERTEX
  8
46
 10
47.5062
 20
1.9436
 30
0.0000
 42
1.0000
  0
VERTEX
  8
46
 10
47.6713
 20
1.9436
 30
0.0000
  0
SEQEND
  8
0
  0
POLYLINE
  8
46
 66
1
 10
0.0000
 20
0.0000
 30
0.0000
 40
0.3302
 41
0.3302
 70
0
  0
VERTEX
  8
46
 10
47.5888
 20
2.5007
 30
0.0000
  0
VERTEX
  8
46
 10
47.3102
 20
2.7793
 30
0.0000
  0
SEQEND
  8
0
  0
POLYLINE
  8
46
 66
1
 10
0.0000
 20
0.0000
 30
0.0000
 40
0.1651
 41
0.1651
 70
0
  0
VERTEX
  8
46
 10
47.3686
 20
2.8376
 30
0.0000
 42
1.0000
  0
VERTEX
  8
46
 10
47.2518
 20
2.7209
 30
0.0000
  0
SEQEND
  8
0
  0
POLYLINE
  8
46
 66
1
 10
0.0000
 20
0.0000
 30
0.0000
 40
0.1651
 41
0.1651
 70
0
  0
VERTEX
  8
46
 10
47.5304
 20
2.4423
 30
0.0000
 42
1.0000
  0
VERTEX
  8
46
 10
47.6471
 20
2.5591
 30
0.0000
  0
SEQEND
  8
0
  0
POLYLINE
  8
46
 66
1
 10
0.0000
 20
0.0000
 30
0.0000
 40
0.3302
 41
0.3302
 70
0
  0
VERTEX
  8
46
 10
47.3102
 20
2.7793
 30
0.0000
  0
VERTEX
  8
46
 10
46.7531
 20
2.7793
 30
0.0000
  0
SEQEND
  8
0
  0
POLYLINE
  8
46
 66
1
 10
0.0000
 20
0.0000
 30
0.0000
 40
0.1651
 41
0.1651
 70
0
  0
VERTEX
  8
46
 10
46.7531
 20
2.8618
 30
0.0000
 42
1.0000
  0
VERTEX
  8
46
 10
46.7531
 20
2.6967
 30
0.0000
  0
SEQEND
  8
0
  0
POLYLINE
  8
46
 66
1
 10
0.0000
 20
0.0000
 30
0.0000
 40
0.1651
 41
0.1651
 70
0
  0
VERTEX
  8
46
 10
47.3102
 20
2.6967
 30
0.0000
 42
1.0000
  0
VERTEX
  8
46
 10
47.3102
 20
2.8618
 30
0.0000
  0
SEQEND
  8
0
  0
POLYLINE
  8
46
 66
1
 10
0.0000
 20
0.0000
 30
0.0000
 40
0.3302
 41
0.3302
 70
0
  0
VERTEX
  8
46
 10
46.7531
 20
2.7793
 30
0.0000
  0
VERTEX
  8
46
 10
46.4746
 20
2.5007
 30
0.0000
  0
SEQEND
  8
0
  0
POLYLINE
  8
46
 66
1
 10
0.0000
 20
0.0000
 30
0.0000
 40
0.1651
 41
0.1651
 70
0
  0
VERTEX
  8
46
 10
46.4162
 20
2.5591
 30
0.0000
 42
1.0000
  0
VERTEX
  8
46
 10
46.5330
 20
2.4423
 30
0.0000
  0
SEQEND
  8
0
  0
POLYLINE
  8
46
 66
1
 10
0.0000
 20
0.0000
 30
0.0000
 40
0.1651
 41
0.1651
 70
0
  0
VERTEX
  8
46
 10
46.8115
 20
2.7209
 30
0.0000
 42
1.0000
  0
VERTEX
  8
46
 10
46.6948
 20
2.8376
 30
0.0000
  0
SEQEND
  8
0
  0
POLYLINE
  8
46
 66
1
 10
0.0000
 20
0.0000
 30
0.0000
 40
0.3302
 41
0.3302
 70
0
  0
VERTEX
  8
46
 10
46.4746
 20
2.5007
 30
0.0000
  0
VERTEX
  8
46
 10
46.4746
 20
1.9436
 30
0.0000
  0
SEQEND
  8
0
  0
POLYLINE
  8
46
 66
1
 10
0.0000
 20
0.0000
 30
0.0000
 40
0.1651
 41
0.1651
 70
0
  0
VERTEX
  8
46
 10
46.3921
 20
1.9436
 30
0.0000
 42
1.0000
  0
VERTEX
  8
46
 10
46.5572
 20
1.9436
 30
0.0000
  0
SEQEND
  8
0
  0
POLYLINE
  8
46
 66
1
 10
0.0000
 20
0.0000
 30
0.0000
 40
0.1651
 41
0.1651
 70
0
  0
VERTEX
  8
46
 10
46.5572
 20
2.5007
 30
0.0000
 42
1.0000
  0
VERTEX
  8
46
 10
46.3921
 20
2.5007
 30
0.0000
  0
SEQEND
  8
0
  0
POLYLINE
  8
46
 66
1
 10
0.0000
 20
0.0000
 30
0.0000
 40
0.3302
 41
0.3302
 70
0
  0
VERTEX
  8
46
 10
46.4746
 20
1.9436
 30
0.0000
  0
VERTEX
  8
46
 10
46.7531
 20
1.6651
 30
0.0000
  0
SEQEND
  8
0
  0
POLYLINE
  8
46
 66
1
 10
0.0000
 20
0.0000
 30
0.0000
 40
0.1651
 41
0.1651
 70
0
  0
VERTEX
  8
46
 10
46.6948
 20
1.6067
 30
0.0000
 42
1.0000
  0
VERTEX
  8
46
 10
46.8115
 20
1.7235
 30
0.0000
  0
SEQEND
  8
0
  0
POLYLINE
  8
46
 66
1
 10
0.0000
 20
0.0000
 30
0.0000
 40
0.1651
 41
0.1651
 70
0
  0
VERTEX
  8
46
 10
46.5330
 20
2.0020
 30
0.0000
 42
1.0000
  0
VERTEX
  8
46
 10
46.4162
 20
1.8853
 30
0.0000
  0
SEQEND
  8
0
  0
POLYLINE
  8
46
 66
1
 10
0.0000
 20
0.0000
 30
0.0000
 40
0.3302
 41
0.3302
 70
0
  0
VERTEX
  8
46
 10
48.3162
 20
1.6651
 30
0.0000
  0
VERTEX
  8
46
 10
48.3162
 20
2.7793
 30
0.0000
  0
SEQEND
  8
0
  0
POLYLINE
  8
46
 66
1
 10
0.0000
 20
0.0000
 30
0.0000
 40
0.1651
 41
0.1651
 70
0
  0
VERTEX
  8
46
 10
48.3987
 20
2.7793
 30
0.0000
 42
1.0000
  0
VERTEX
  8
46
 10
48.2336
 20
2.7793
 30
0.0000
  0
SEQEND
  8
0
  0
POLYLINE
  8
46
 66
1
 10
0.0000
 20
0.0000
 30
0.0000
 40
0.1651
 41
0.1651
 70
0
  0
VERTEX
  8
46
 10
48.2336
 20
1.6651
 30
0.0000
 42
1.0000
  0
VERTEX
  8
46
 10
48.3987
 20
1.6651
 30
0.0000
  0
SEQEND
  8
0
  0
POLYLINE
  8
46
 66
1
 10
0.0000
 20
0.0000
 30
0.0000
 40
0.3302
 41
0.3302
 70
0
  0
VERTEX
  8
46
 10
48.3162
 20
2.7793
 30
0.0000
  0
VERTEX
  8
46
 10
49.1518
 20
2.7793
 30
0.0000
  0
SEQEND
  8
0
  0
POLYLINE
  8
46
 66
1
 10
0.0000
 20
0.0000
 30
0.0000
 40
0.1651
 41
0.1651
 70
0
  0
VERTEX
  8
46
 10
49.1518
 20
2.6967
 30
0.0000
 42
1.0000
  0
VERTEX
  8
46
 10
49.1518
 20
2.8618
 30
0.0000
  0
SEQEND
  8
0
  0
POLYLINE
  8
46
 66
1
 10
0.0000
 20
0.0000
 30
0.0000
 40
0.1651
 41
0.1651
 70
0
  0
VERTEX
  8
46
 10
48.3162
 20
2.8618
 30
0.0000
 42
1.0000
  0
VERTEX
  8
46
 10
48.3162
 20
2.6967
 30
0.0000
  0
SEQEND
  8
0
  0
POLYLINE
  8
46
 66
1
 10
0.0000
 20
0.0000
 30
0.0000
 40
0.3302
 41
0.3302
 70
0
  0
VERTEX
  8
46
 10
49.1518
 20
2.7793
 30
0.0000
  0
VERTEX
  8
46
 10
49.4303
 20
2.5007
 30
0.0000
  0
SEQEND
  8
0
  0
POLYLINE
  8
46
 66
1
 10
0.0000
 20
0.0000
 30
0.0000
 40
0.1651
 41
0.1651
 70
0
  0
VERTEX
  8
46
 10
49.3720
 20
2.4423
 30
0.0000
 42
1.0000
  0
VERTEX
  8
46
 10
49.4887
 20
2.5591
 30
0.0000
  0
SEQEND
  8
0
  0
POLYLINE
  8
46
 66
1
 10
0.0000
 20
0.0000
 30
0.0000
 40
0.1651
 41
0.1651
 70
0
  0
VERTEX
  8
46
 10
49.2102
 20
2.8376
 30
0.0000
 42
1.0000
  0
VERTEX
  8
46
 10
49.0934
 20
2.7209
 30
0.0000
  0
SEQEND
  8
0
  0
POLYLINE
  8
46
 66
1
 10
0.0000
 20
0.0000
 30
0.0000
 40
0.3302
 41
0.3302
 70
0
  0
VERTEX
  8
46
 10
49.4303
 20
2.5007
 30
0.0000
  0
VERTEX
  8
46
 10
49.4303
 20
1.6651
 30
0.0000
  0
SEQEND
  8
0
  0
POLYLINE
  8
46
 66
1
 10
0.0000
 20
0.0000
 30
0.0000
 40
0.1651
 41
0.1651
 70
0
  0
VERTEX
  8
46
 10
49.3478
 20
1.6651
 30
0.0000
 42
1.0000
  0
VERTEX
  8
46
 10
49.5129
 20
1.6651
 30
0.0000
  0
SEQEND
  8
0
  0
POLYLINE
  8
46
 66
1
 10
0.0000
 20
0.0000
 30
0.0000
 40
0.1651
 41
0.1651
 70
0
  0
VERTEX
  8
46
 10
49.5129
 20
2.5007
 30
0.0000
 42
1.0000
  0
VERTEX
  8
46
 10
49.3478
 20
2.5007
 30
0.0000
  0
SEQEND
  8
0
  0
POLYLINE
  8
46
 66
1
 10
0.0000
 20
0.0000
 30
0.0000
 40
0.3302
 41
0.3302
 70
0
  0
VERTEX
  8
46
 10
51.9993
 20
2.5007
 30
0.0000
  0
VERTEX
  8
46
 10
53.1135
 20
2.5007
 30
0.0000
  0
SEQEND
  8
0
  0
POLYLINE
  8
46
 66
1
 10
0.0000
 20
0.0000
 30
0.0000
 40
0.1651
 41
0.1651
 70
0
  0
VERTEX
  8
46
 10
53.1135
 20
2.4182
 30
0.0000
 42
1.0000
  0
VERTEX
  8
46
 10
53.1135
 20
2.5833
 30
0.0000
  0
SEQEND
  8
0
  0
POLYLINE
  8
46
 66
1
 10
0.0000
 20
0.0000
 30
0.0000
 40
0.1651
 41
0.1651
 70
0
  0
VERTEX
  8
46
 10
51.9993
 20
2.5833
 30
0.0000
 42
1.0000
  0
VERTEX
  8
46
 10
51.9993
 20
2.4182
 30
0.0000
  0
SEQEND
  8
0
  0
POLYLINE
  8
46
 66
1
 10
0.0000
 20
0.0000
 30
0.0000
 40
0.3302
 41
0.3302
 70
0
  0
VERTEX
  8
46
 10
55.6825
 20
1.6651
 30
0.0000
  0
VERTEX
  8
46
 10
55.6825
 20
3.3363
 30
0.0000
  0
SEQEND
  8
0
  0
POLYLINE
  8
46
 66
1
 10
0.0000
 20
0.0000
 30
0.0000
 40
0.1651
 41
0.1651
 70
0
  0
VERTEX
  8
46
 10
55.7650
 20
3.3363
 30
0.0000
 42
1.0000
  0
VERTEX
  8
46
 10
55.5999
 20
3.3363
 30
0.0000
  0
SEQEND
  8
0
  0
POLYLINE
  8
46
 66
1
 10
0.0000
 20
0.0000
 30
0.0000
 40
0.1651
 41
0.1651
 70
0
  0
VERTEX
  8
46
 10
55.5999
 20
1.6651
 30
0.0000
 42
1.0000
  0
VERTEX
  8
46
 10
55.7650
 20
1.6651
 30
0.0000
  0
SEQEND
  8
0
  0
POLYLINE
  8
46
 66
1
 10
0.0000
 20
0.0000
 30
0.0000
 40
0.3302
 41
0.3302
 70
0
  0
VERTEX
  8
46
 10
55.6825
 20
3.3363
 30
0.0000
  0
VERTEX
  8
46
 10
56.5181
 20
3.3363
 30
0.0000
  0
SEQEND
  8
0
  0
POLYLINE
  8
46
 66
1
 10
0.0000
 20
0.0000
 30
0.0000
 40
0.1651
 41
0.1651
 70
0
  0
VERTEX
  8
46
 10
56.5181
 20
3.2538
 30
0.0000
 42
1.0000
  0
VERTEX
  8
46
 10
56.5181
 20
3.4189
 30
0.0000
  0
SEQEND
  8
0
  0
POLYLINE
  8
46
 66
1
 10
0.0000
 20
0.0000
 30
0.0000
 40
0.1651
 41
0.1651
 70
0
  0
VERTEX
  8
46
 10
55.6825
 20
3.4189
 30
0.0000
 42
1.0000
  0
VERTEX
  8
46
 10
55.6825
 20
3.2538
 30
0.0000
  0
SEQEND
  8
0
  0
POLYLINE
  8
46
 66
1
 10
0.0000
 20
0.0000
 30
0.0000
 40
0.3302
 41
0.3302
 70
0
  0
VERTEX
  8
46
 10
56.5181
 20
3.3363
 30
0.0000
  0
VERTEX
  8
46
 10
56.7966
 20
3.0578
 30
0.0000
  0
SEQEND
  8
0
  0
POLYLINE
  8
46
 66
1
 10
0.0000
 20
0.0000
 30
0.0000
 40
0.1651
 41
0.1651
 70
0
  0
VERTEX
  8
46
 10
56.7382
 20
2.9994
 30
0.0000
 42
1.0000
  0
VERTEX
  8
46
 10
56.8550
 20
3.1162
 30
0.0000
  0
SEQEND
  8
0
  0
POLYLINE
  8
46
 66
1
 10
0.0000
 20
0.0000
 30
0.0000
 40
0.1651
 41
0.1651
 70
0
  0
VERTEX
  8
46
 10
56.5765
 20
3.3947
 30
0.0000
 42
1.0000
  0
VERTEX
  8
46
 10
56.4597
 20
3.2780
 30
0.0000
  0
SEQEND
  8
0
  0
POLYLINE
  8
46
 66
1
 10
0.0000
 20
0.0000
 30
0.0000
 40
0.3302
 41
0.3302
 70
0
  0
VERTEX
  8
46
 10
56.7966
 20
3.0578
 30
0.0000
  0
VERTEX
  8
46
 10
56.7966
 20
2.5007
 30
0.0000
  0
SEQEND
  8
0
  0
POLYLINE
  8
46
 66
1
 10
0.0000
 20
0.0000
 30
0.0000
 40
0.1651
 41
0.1651
 70
0
  0
VERTEX
  8
46
 10
56.7141
 20
2.5007
 30
0.0000
 42
1.0000
  0
VERTEX
  8
46
 10
56.8792
 20
2.5007
 30
0.0000
  0
SEQEND
  8
0
  0
POLYLINE
  8
46
 66
1
 10
0.0000
 20
0.0000
 30
0.0000
 40
0.1651
 41
0.1651
 70
0
  0
VERTEX
  8
46
 10
56.8792
 20
3.0578
 30
0.0000
 42
1.0000
  0
VERTEX
  8
46
 10
56.7141
 20
3.0578
 30
0.0000
  0
SEQEND
  8
0
  0
POLYLINE
  8
46
 66
1
 10
0.0000
 20
0.0000
 30
0.0000
 40
0.3302
 41
0.3302
 70
0
  0
VERTEX
  8
46
 10
56.7966
 20
2.5007
 30
0.0000
  0
VERTEX
  8
46
 10
56.5181
 20
2.2222
 30
0.0000
  0
SEQEND
  8
0
  0
POLYLINE
  8
46
 66
1
 10
0.0000
 20
0.0000
 30
0.0000
 40
0.1651
 41
0.1651
 70
0
  0
VERTEX
  8
46
 10
56.4597
 20
2.2805
 30
0.0000
 42
1.0000
  0
VERTEX
  8
46
 10
56.5764
 20
2.1638
 30
0.0000
  0
SEQEND
  8
0
  0
POLYLINE
  8
46
 66
1
 10
0.0000
 20
0.0000
 30
0.0000
 40
0.1651
 41
0.1651
 70
0
  0
VERTEX
  8
46
 10
56.8550
 20
2.4423
 30
0.0000
 42
1.0000
  0
VERTEX
  8
46
 10
56.7382
 20
2.5591
 30
0.0000
  0
SEQEND
  8
0
  0
POLYLINE
  8
46
 66
1
 10
0.0000
 20
0.0000
 30
0.0000
 40
0.3302
 41
0.3302
 70
0
  0
VERTEX
  8
46
 10
56.5181
 20
2.2222
 30
0.0000
  0
VERTEX
  8
46
 10
55.6825
 20
2.2222
 30
0.0000
  0
SEQEND
  8
0
  0
POLYLINE
  8
46
 66
1
 10
0.0000
 20
0.0000
 30
0.0000
 40
0.1651
 41
0.1651
 70
0
  0
VERTEX
  8
46
 10
55.6825
 20
2.3047
 30
0.0000
 42
1.0000
  0
VERTEX
  8
46
 10
55.6825
 20
2.1396
 30
0.0000
  0
SEQEND
  8
0
  0
POLYLINE
  8
46
 66
1
 10
0.0000
 20
0.0000
 30
0.0000
 40
0.1651
 41
0.1651
 70
0
  0
VERTEX
  8
46
 10
56.5181
 20
2.1396
 30
0.0000
 42
1.0000
  0
VERTEX
  8
46
 10
56.5181
 20
2.3047
 30
0.0000
  0
SEQEND
  8
0
  0
POLYLINE
  8
46
 66
1
 10
0.0000
 20
0.0000
 30
0.0000
 40
0.3302
 41
0.3302
 70
0
  0
VERTEX
  8
46
 10
57.5240
 20
1.9436
 30
0.0000
  0
VERTEX
  8
46
 10
57.8026
 20
1.6651
 30
0.0000
  0
SEQEND
  8
0
  0
POLYLINE
  8
46
 66
1
 10
0.0000
 20
0.0000
 30
0.0000
 40
0.1651
 41
0.1651
 70
0
  0
VERTEX
  8
46
 10
57.7442
 20
1.6067
 30
0.0000
 42
1.0000
  0
VERTEX
  8
46
 10
57.8609
 20
1.7235
 30
0.0000
  0
SEQEND
  8
0
  0
POLYLINE
  8
46
 66
1
 10
0.0000
 20
0.0000
 30
0.0000
 40
0.1651
 41
0.1651
 70
0
  0
VERTEX
  8
46
 10
57.5824
 20
2.0020
 30
0.0000
 42
1.0000
  0
VERTEX
  8
46
 10
57.4657
 20
1.8853
 30
0.0000
  0
SEQEND
  8
0
  0
POLYLINE
  8
46
 66
1
 10
0.0000
 20
0.0000
 30
0.0000
 40
0.3302
 41
0.3302
 70
0
  0
VERTEX
  8
46
 10
57.8026
 20
1.6651
 30
0.0000
  0
VERTEX
  8
46
 10
58.0811
 20
1.6651
 30
0.0000
  0
SEQEND
  8
0
  0
POLYLINE
  8
46
 66
1
 10
0.0000
 20
0.0000
 30
0.0000
 40
0.1651
 41
0.1651
 70
0
  0
VERTEX
  8
46
 10
58.0811
 20
1.5826
 30
0.0000
 42
1.0000
  0
VERTEX
  8
46
 10
58.0811
 20
1.7476
 30
0.0000
  0
SEQEND
  8
0
  0
POLYLINE
  8
46
 66
1
 10
0.0000
 20
0.0000
 30
0.0000
 40
0.1651
 41
0.1651
 70
0
  0
VERTEX
  8
46
 10
57.8026
 20
1.7476
 30
0.0000
 42
1.0000
  0
VERTEX
  8
46
 10
57.8026
 20
1.5826
 30
0.0000
  0
SEQEND
  8
0
  0
POLYLINE
  8
46
 66
1
 10
0.0000
 20
0.0000
 30
0.0000
 40
0.3302
 41
0.3302
 70
0
  0
VERTEX
  8
46
 10
58.0811
 20
1.6651
 30
0.0000
  0
VERTEX
  8
46
 10
58.3597
 20
1.9436
 30
0.0000
  0
SEQEND
  8
0
  0
POLYLINE
  8
46
 66
1
 10
0.0000
 20
0.0000
 30
0.0000
 40
0.1651
 41
0.1651
 70
0
  0
VERTEX
  8
46
 10
58.4180
 20
1.8853
 30
0.0000
 42
1.0000
  0
VERTEX
  8
46
 10
58.3013
 20
2.0020
 30
0.0000
  0
SEQEND
  8
0
  0
POLYLINE
  8
46
 66
1
 10
0.0000
 20
0.0000
 30
0.0000
 40
0.1651
 41
0.1651
 70
0
  0
VERTEX
  8
46
 10
58.0227
 20
1.7235
 30
0.0000
 42
1.0000
  0
VERTEX
  8
46
 10
58.1395
 20
1.6067
 30
0.0000
  0
SEQEND
  8
0
  0
POLYLINE
  8
46
 66
1
 10
0.0000
 20
0.0000
 30
0.0000
 40
0.3302
 41
0.3302
 70
0
  0
VERTEX
  8
46
 10
58.3597
 20
1.9436
 30
0.0000
  0
VERTEX
  8
46
 10
58.3597
 20
3.3363
 30
0.0000
  0
SEQEND
  8
0
  0
POLYLINE
  8
46
 66
1
 10
0.0000
 20
0.0000
 30
0.0000
 40
0.1651
 41
0.1651
 70
0
  0
VERTEX
  8
46
 10
58.4422
 20
3.3363
 30
0.0000
 42
1.0000
  0
VERTEX
  8
46
 10
58.2771
 20
3.3363
 30
0.0000
  0
SEQEND
  8
0
  0
POLYLINE
  8
46
 66
1
 10
0.0000
 20
0.0000
 30
0.0000
 40
0.1651
 41
0.1651
 70
0
  0
VERTEX
  8
46
 10
58.2771
 20
1.9436
 30
0.0000
 42
1.0000
  0
VERTEX
  8
46
 10
58.4422
 20
1.9436
 30
0.0000
  0
SEQEND
  8
0
  0
POLYLINE
  8
46
 66
1
 10
0.0000
 20
0.0000
 30
0.0000
 40
0.3302
 41
0.3302
 70
0
  0
VERTEX
  8
46
 10
58.0811
 20
3.3363
 30
0.0000
  0
VERTEX
  8
46
 10
58.6382
 20
3.3363
 30
0.0000
  0
SEQEND
  8
0
  0
POLYLINE
  8
46
 66
1
 10
0.0000
 20
0.0000
 30
0.0000
 40
0.1651
 41
0.1651
 70
0
  0
VERTEX
  8
46
 10
58.6382
 20
3.2538
 30
0.0000
 42
1.0000
  0
VERTEX
  8
46
 10
58.6382
 20
3.4189
 30
0.0000
  0
SEQEND
  8
0
  0
POLYLINE
  8
46
 66
1
 10
0.0000
 20
0.0000
 30
0.0000
 40
0.1651
 41
0.1651
 70
0
  0
VERTEX
  8
46
 10
58.0811
 20
3.4189
 30
0.0000
 42
1.0000
  0
VERTEX
  8
46
 10
58.0811
 20
3.2538
 30
0.0000
  0
SEQEND
  8
0
  0
POLYLINE
  8
46
 66
1
 10
0.0000
 20
0.0000
 30
0.0000
 40
0.3302
 41
0.3302
 70
0
  0
VERTEX
  8
46
 10
59.3656
 20
1.6651
 30
0.0000
  0
VERTEX
  8
46
 10
59.3656
 20
3.3363
 30
0.0000
  0
SEQEND
  8
0
  0
POLYLINE
  8
46
 66
1
 10
0.0000
 20
0.0000
 30
0.0000
 40
0.1651
 41
0.1651
 70
0
  0
VERTEX
  8
46
 10
59.4482
 20
3.3363
 30
0.0000
 42
1.0000
  0
VERTEX
  8
46
 10
59.2831
 20
3.3363
 30
0.0000
  0
SEQEND
  8
0
  0
POLYLINE
  8
46
 66
1
 10
0.0000
 20
0.0000
 30
0.0000
 40
0.1651
 41
0.1651
 70
0
  0
VERTEX
  8
46
 10
59.2831
 20
1.6651
 30
0.0000
 42
1.0000
  0
VERTEX
  8
46
 10
59.4482
 20
1.6651
 30
0.0000
  0
SEQEND
  8
0
  0
POLYLINE
  8
46
 66
1
 10
0.0000
 20
0.0000
 30
0.0000
 40
0.3302
 41
0.3302
 70
0
  0
VERTEX
  8
46
 10
59.3656
 20
2.5007
 30
0.0000
  0
VERTEX
  8
46
 10
60.4798
 20
2.5007
 30
0.0000
  0
SEQEND
  8
0
  0
POLYLINE
  8
46
 66
1
 10
0.0000
 20
0.0000
 30
0.0000
 40
0.1651
 41
0.1651
 70
0
  0
VERTEX
  8
46
 10
60.4798
 20
2.4182
 30
0.0000
 42
1.0000
  0
VERTEX
  8
46
 10
60.4798
 20
2.5833
 30
0.0000
  0
SEQEND
  8
0
  0
POLYLINE
  8
46
 66
1
 10
0.0000
 20
0.0000
 30
0.0000
 40
0.1651
 41
0.1651
 70
0
  0
VERTEX
  8
46
 10
59.3656
 20
2.5833
 30
0.0000
 42
1.0000
  0
VERTEX
  8
46
 10
59.3656
 20
2.4182
 30
0.0000
  0
SEQEND
  8
0
  0
POLYLINE
  8
46
 66
1
 10
0.0000
 20
0.0000
 30
0.0000
 40
0.3302
 41
0.3302
 70
0
  0
VERTEX
  8
46
 10
60.4798
 20
3.3363
 30
0.0000
  0
VERTEX
  8
46
 10
60.4798
 20
1.6651
 30
0.0000
  0
SEQEND
  8
0
  0
POLYLINE
  8
46
 66
1
 10
0.0000
 20
0.0000
 30
0.0000
 40
0.1651
 41
0.1651
 70
0
  0
VERTEX
  8
46
 10
60.3972
 20
1.6651
 30
0.0000
 42
1.0000
  0
VERTEX
  8
46
 10
60.5623
 20
1.6651
 30
0.0000
  0
SEQEND
  8
0
  0
POLYLINE
  8
46
 66
1
 10
0.0000
 20
0.0000
 30
0.0000
 40
0.1651
 41
0.1651
 70
0
  0
VERTEX
  8
46
 10
60.5623
 20
3.3363
 30
0.0000
 42
1.0000
  0
VERTEX
  8
46
 10
60.3972
 20
3.3363
 30
0.0000
  0
SEQEND
  8
0
  0
POLYLINE
  8
46
 66
1
 10
0.0000
 20
0.0000
 30
0.0000
 40
0.3302
 41
0.3302
 70
0
  0
VERTEX
  8
46
 10
64.1629
 20
1.6651
 30
0.0000
  0
VERTEX
  8
46
 10
63.0488
 20
1.6651
 30
0.0000
  0
SEQEND
  8
0
  0
POLYLINE
  8
46
 66
1
 10
0.0000
 20
0.0000
 30
0.0000
 40
0.1651
 41
0.1651
 70
0
  0
VERTEX
  8
46
 10
63.0488
 20
1.7476
 30
0.0000
 42
1.0000
  0
VERTEX
  8
46
 10
63.0488
 20
1.5826
 30
0.0000
  0
SEQEND
  8
0
  0
POLYLINE
  8
46
 66
1
 10
0.0000
 20
0.0000
 30
0.0000
 40
0.1651
 41
0.1651
 70
0
  0
VERTEX
  8
46
 10
64.1629
 20
1.5826
 30
0.0000
 42
1.0000
  0
VERTEX
  8
46
 10
64.1629
 20
1.7476
 30
0.0000
  0
SEQEND
  8
0
  0
POLYLINE
  8
46
 66
1
 10
0.0000
 20
0.0000
 30
0.0000
 40
0.3302
 41
0.3302
 70
0
  0
VERTEX
  8
46
 10
63.0488
 20
1.6651
 30
0.0000
  0
VERTEX
  8
46
 10
64.1629
 20
2.7793
 30
0.0000
  0
SEQEND
  8
0
  0
POLYLINE
  8
46
 66
1
 10
0.0000
 20
0.0000
 30
0.0000
 40
0.1651
 41
0.1651
 70
0
  0
VERTEX
  8
46
 10
64.2213
 20
2.7209
 30
0.0000
 42
1.0000
  0
VERTEX
  8
46
 10
64.1045
 20
2.8376
 30
0.0000
  0
SEQEND
  8
0
  0
POLYLINE
  8
46
 66
1
 10
0.0000
 20
0.0000
 30
0.0000
 40
0.1651
 41
0.1651
 70
0
  0
VERTEX
  8
46
 10
62.9904
 20
1.7235
 30
0.0000
 42
1.0000
  0
VERTEX
  8
46
 10
63.1071
 20
1.6067
 30
0.0000
  0
SEQEND
  8
0
  0
POLYLINE
  8
46
 66
1
 10
0.0000
 20
0.0000
 30
0.0000
 40
0.3302
 41
0.3302
 70
0
  0
VERTEX
  8
46
 10
64.1629
 20
2.7793
 30
0.0000
  0
VERTEX
  8
46
 10
64.1629
 20
3.0578
 30
0.0000
  0
SEQEND
  8
0
  0
POLYLINE
  8
46
 66
1
 10
0.0000
 20
0.0000
 30
0.0000
 40
0.1651
 41
0.1651
 70
0
  0
VERTEX
  8
46
 10
64.2455
 20
3.0578
 30
0.0000
 42
1.0000
  0
VERTEX
  8
46
 10
64.0804
 20
3.0578
 30
0.0000
  0
SEQEND
  8
0
  0
POLYLINE
  8
46
 66
1
 10
0.0000
 20
0.0000
 30
0.0000
 40
0.1651
 41
0.1651
 70
0
  0
VERTEX
  8
46
 10
64.0804
 20
2.7793
 30
0.0000
 42
1.0000
  0
VERTEX
  8
46
 10
64.2455
 20
2.7793
 30
0.0000
  0
SEQEND
  8
0
  0
POLYLINE
  8
46
 66
1
 10
0.0000
 20
0.0000
 30
0.0000
 40
0.3302
 41
0.3302
 70
0
  0
VERTEX
  8
46
 10
64.1629
 20
3.0578
 30
0.0000
  0
VERTEX
  8
46
 10
63.8844
 20
3.3363
 30
0.0000
  0
SEQEND
  8
0
  0
POLYLINE
  8
46
 66
1
 10
0.0000
 20
0.0000
 30
0.0000
 40
0.1651
 41
0.1651
 70
0
  0
VERTEX
  8
46
 10
63.9427
 20
3.3947
 30
0.0000
 42
1.0000
  0
VERTEX
  8
46
 10
63.8260
 20
3.2780
 30
0.0000
  0
SEQEND
  8
0
  0
POLYLINE
  8
46
 66
1
 10
0.0000
 20
0.0000
 30
0.0000
 40
0.1651
 41
0.1651
 70
0
  0
VERTEX
  8
46
 10
64.1045
 20
2.9994
 30
0.0000
 42
1.0000
  0
VERTEX
  8
46
 10
64.2213
 20
3.1162
 30
0.0000
  0
SEQEND
  8
0
  0
POLYLINE
  8
46
 66
1
 10
0.0000
 20
0.0000
 30
0.0000
 40
0.3302
 41
0.3302
 70
0
  0
VERTEX
  8
46
 10
63.8844
 20
3.3363
 30
0.0000
  0
VERTEX
  8
46
 10
63.3273
 20
3.3363
 30
0.0000
  0
SEQEND
  8
0
  0
POLYLINE
  8
46
 66
1
 10
0.0000
 20
0.0000
 30
0.0000
 40
0.1651
 41
0.1651
 70
0
  0
VERTEX
  8
46
 10
63.3273
 20
3.4189
 30
0.0000
 42
1.0000
  0
VERTEX
  8
46
 10
63.3273
 20
3.2538
 30
0.0000
  0
SEQEND
  8
0
  0
POLYLINE
  8
46
 66
1
 10
0.0000
 20
0.0000
 30
0.0000
 40
0.1651
 41
0.1651
 70
0
  0
VERTEX
  8
46
 10
63.8844
 20
3.2538
 30
0.0000
 42
1.0000
  0
VERTEX
  8
46
 10
63.8844
 20
3.4189
 30
0.0000
  0
SEQEND
  8
0
  0
POLYLINE
  8
46
 66
1
 10
0.0000
 20
0.0000
 30
0.0000
 40
0.3302
 41
0.3302
 70
0
  0
VERTEX
  8
46
 10
63.3273
 20
3.3363
 30
0.0000
  0
VERTEX
  8
46
 10
63.0488
 20
3.0578
 30
0.0000
  0
SEQEND
  8
0
  0
POLYLINE
  8
46
 66
1
 10
0.0000
 20
0.0000
 30
0.0000
 40
0.1651
 41
0.1651
 70
0
  0
VERTEX
  8
46
 10
62.9904
 20
3.1162
 30
0.0000
 42
1.0000
  0
VERTEX
  8
46
 10
63.1071
 20
2.9994
 30
0.0000
  0
SEQEND
  8
0
  0
POLYLINE
  8
46
 66
1
 10
0.0000
 20
0.0000
 30
0.0000
 40
0.1651
 41
0.1651
 70
0
  0
VERTEX
  8
46
 10
63.3857
 20
3.2780
 30
0.0000
 42
1.0000
  0
VERTEX
  8
46
 10
63.2689
 20
3.3947
 30
0.0000
  0
SEQEND
  8
0
  0
POLYLINE
  8
46
 66
1
 10
0.0000
 20
0.0000
 30
0.0000
 40
0.3302
 41
0.3302
 70
0
  0
VERTEX
  8
46
 10
64.8903
 20
1.9436
 30
0.0000
  0
VERTEX
  8
46
 10
64.8903
 20
3.0578
 30
0.0000
  0
SEQEND
  8
0
  0
POLYLINE
  8
46
 66
1
 10
0.0000
 20
0.0000
 30
0.0000
 40
0.1651
 41
0.1651
 70
0
  0
VERTEX
  8
46
 10
64.9729
 20
3.0578
 30
0.0000
 42
1.0000
  0
VERTEX
  8
46
 10
64.8078
 20
3.0578
 30
0.0000
  0
SEQEND
  8
0
  0
POLYLINE
  8
46
 66
1
 10
0.0000
 20
0.0000
 30
0.0000
 40
0.1651
 41
0.1651
 70
0
  0
VERTEX
  8
46
 10
64.8078
 20
1.9436
 30
0.0000
 42
1.0000
  0
VERTEX
  8
46
 10
64.9729
 20
1.9436
 30
0.0000
  0
SEQEND
  8
0
  0
POLYLINE
  8
46
 66
1
 10
0.0000
 20
0.0000
 30
0.0000
 40
0.3302
 41
0.3302
 70
0
  0
VERTEX
  8
46
 10
64.8903
 20
3.0578
 30
0.0000
  0
VERTEX
  8
46
 10
65.1689
 20
3.3363
 30
0.0000
  0
SEQEND
  8
0
  0
POLYLINE
  8
46
 66
1
 10
0.0000
 20
0.0000
 30
0.0000
 40
0.1651
 41
0.1651
 70
0
  0
VERTEX
  8
46
 10
65.2272
 20
3.2780
 30
0.0000
 42
1.0000
  0
VERTEX
  8
46
 10
65.1105
 20
3.3947
 30
0.0000
  0
SEQEND
  8
0
  0
POLYLINE
  8
46
 66
1
 10
0.0000
 20
0.0000
 30
0.0000
 40
0.1651
 41
0.1651
 70
0
  0
VERTEX
  8
46
 10
64.8320
 20
3.1162
 30
0.0000
 42
1.0000
  0
VERTEX
  8
46
 10
64.9487
 20
2.9994
 30
0.0000
  0
SEQEND
  8
0
  0
POLYLINE
  8
46
 66
1
 10
0.0000
 20
0.0000
 30
0.0000
 40
0.3302
 41
0.3302
 70
0
  0
VERTEX
  8
46
 10
65.1689
 20
3.3363
 30
0.0000
  0
VERTEX
  8
46
 10
65.7259
 20
3.3363
 30
0.0000
  0
SEQEND
  8
0
  0
POLYLINE
  8
46
 66
1
 10
0.0000
 20
0.0000
 30
0.0000
 40
0.1651
 41
0.1651
 70
0
  0
VERTEX
  8
46
 10
65.7259
 20
3.2538
 30
0.0000
 42
1.0000
  0
VERTEX
  8
46
 10
65.7259
 20
3.4189
 30
0.0000
  0
SEQEND
  8
0
  0
POLYLINE
  8
46
 66
1
 10
0.0000
 20
0.0000
 30
0.0000
 40
0.1651
 41
0.1651
 70
0
  0
VERTEX
  8
46
 10
65.1689
 20
3.4189
 30
0.0000
 42
1.0000
  0
VERTEX
  8
46
 10
65.1689
 20
3.2538
 30
0.0000
  0
SEQEND
  8
0
  0
POLYLINE
  8
46
 66
1
 10
0.0000
 20
0.0000
 30
0.0000
 40
0.3302
 41
0.3302
 70
0
  0
VERTEX
  8
46
 10
65.7259
 20
3.3363
 30
0.0000
  0
VERTEX
  8
46
 10
66.0045
 20
3.0578
 30
0.0000
  0
SEQEND
  8
0
  0
POLYLINE
  8
46
 66
1
 10
0.0000
 20
0.0000
 30
0.0000
 40
0.1651
 41
0.1651
 70
0
  0
VERTEX
  8
46
 10
65.9461
 20
2.9994
 30
0.0000
 42
1.0000
  0
VERTEX
  8
46
 10
66.0628
 20
3.1162
 30
0.0000
  0
SEQEND
  8
0
  0
POLYLINE
  8
46
 66
1
 10
0.0000
 20
0.0000
 30
0.0000
 40
0.1651
 41
0.1651
 70
0
  0
VERTEX
  8
46
 10
65.7843
 20
3.3947
 30
0.0000
 42
1.0000
  0
VERTEX
  8
46
 10
65.6676
 20
3.2780
 30
0.0000
  0
SEQEND
  8
0
  0
POLYLINE
  8
46
 66
1
 10
0.0000
 20
0.0000
 30
0.0000
 40
0.3302
 41
0.3302
 70
0
  0
VERTEX
  8
46
 10
66.0045
 20
3.0578
 30
0.0000
  0
VERTEX
  8
46
 10
66.0045
 20
1.9436
 30
0.0000
  0
SEQEND
  8
0
  0
POLYLINE
  8
46
 66
1
 10
0.0000
 20
0.0000
 30
0.0000
 40
0.1651
 41
0.1651
 70
0
  0
VERTEX
  8
46
 10
65.9219
 20
1.9436
 30
0.0000
 42
1.0000
  0
VERTEX
  8
46
 10
66.0870
 20
1.9436
 30
0.0000
  0
SEQEND
  8
0
  0
POLYLINE
  8
46
 66
1
 10
0.0000
 20
0.0000
 30
0.0000
 40
0.1651
 41
0.1651
 70
0
  0
VERTEX
  8
46
 10
66.0870
 20
3.0578
 30
0.0000
 42
1.0000
  0
VERTEX
  8
46
 10
65.9219
 20
3.0578
 30
0.0000
  0
SEQEND
  8
0
  0
POLYLINE
  8
46
 66
1
 10
0.0000
 20
0.0000
 30
0.0000
 40
0.3302
 41
0.3302
 70
0
  0
VERTEX
  8
46
 10
66.0045
 20
1.9436
 30
0.0000
  0
VERTEX
  8
46
 10
65.7259
 20
1.6651
 30
0.0000
  0
SEQEND
  8
0
  0
POLYLINE
  8
46
 66
1
 10
0.0000
 20
0.0000
 30
0.0000
 40
0.1651
 41
0.1651
 70
0
  0
VERTEX
  8
46
 10
65.6676
 20
1.7235
 30
0.0000
 42
1.0000
  0
VERTEX
  8
46
 10
65.7843
 20
1.6067
 30
0.0000
  0
SEQEND
  8
0
  0
POLYLINE
  8
46
 66
1
 10
0.0000
 20
0.0000
 30
0.0000
 40
0.1651
 41
0.1651
 70
0
  0
VERTEX
  8
46
 10
66.0628
 20
1.8853
 30
0.0000
 42
1.0000
  0
VERTEX
  8
46
 10
65.9461
 20
2.0020
 30
0.0000
  0
SEQEND
  8
0
  0
POLYLINE
  8
46
 66
1
 10
0.0000
 20
0.0000
 30
0.0000
 40
0.3302
 41
0.3302
 70
0
  0
VERTEX
  8
46
 10
65.7259
 20
1.6651
 30
0.0000
  0
VERTEX
  8
46
 10
65.1689
 20
1.6651
 30
0.0000
  0
SEQEND
  8
0
  0
POLYLINE
  8
46
 66
1
 10
0.0000
 20
0.0000
 30
0.0000
 40
0.1651
 41
0.1651
 70
0
  0
VERTEX
  8
46
 10
65.1689
 20
1.7476
 30
0.0000
 42
1.0000
  0
VERTEX
  8
46
 10
65.1689
 20
1.5826
 30
0.0000
  0
SEQEND
  8
0
  0
POLYLINE
  8
46
 66
1
 10
0.0000
 20
0.0000
 30
0.0000
 40
0.1651
 41
0.1651
 70
0
  0
VERTEX
  8
46
 10
65.7259
 20
1.5826
 30
0.0000
 42
1.0000
  0
VERTEX
  8
46
 10
65.7259
 20
1.7476
 30
0.0000
  0
SEQEND
  8
0
  0
POLYLINE
  8
46
 66
1
 10
0.0000
 20
0.0000
 30
0.0000
 40
0.3302
 41
0.3302
 70
0
  0
VERTEX
  8
46
 10
65.1689
 20
1.6651
 30
0.0000
  0
VERTEX
  8
46
 10
64.8903
 20
1.9436
 30
0.0000
  0
SEQEND
  8
0
  0
POLYLINE
  8
46
 66
1
 10
0.0000
 20
0.0000
 30
0.0000
 40
0.1651
 41
0.1651
 70
0
  0
VERTEX
  8
46
 10
64.9487
 20
2.0020
 30
0.0000
 42
1.0000
  0
VERTEX
  8
46
 10
64.8320
 20
1.8853
 30
0.0000
  0
SEQEND
  8
0
  0
POLYLINE
  8
46
 66
1
 10
0.0000
 20
0.0000
 30
0.0000
 40
0.1651
 41
0.1651
 70
0
  0
VERTEX
  8
46
 10
65.1105
 20
1.6067
 30
0.0000
 42
1.0000
  0
VERTEX
  8
46
 10
65.2272
 20
1.7235
 30
0.0000
  0
SEQEND
  8
0
  0
POLYLINE
  8
46
 66
1
 10
0.0000
 20
0.0000
 30
0.0000
 40
0.3302
 41
0.3302
 70
0
  0
VERTEX
  8
46
 10
64.8903
 20
1.9436
 30
0.0000
  0
VERTEX
  8
46
 10
66.0045
 20
3.0578
 30
0.0000
  0
SEQEND
  8
0
  0
POLYLINE
  8
46
 66
1
 10
0.0000
 20
0.0000
 30
0.0000
 40
0.1651
 41
0.1651
 70
0
  0
VERTEX
  8
46
 10
66.0628
 20
2.9994
 30
0.0000
 42
1.0000
  0
VERTEX
  8
46
 10
65.9461
 20
3.1162
 30
0.0000
  0
SEQEND
  8
0
  0
POLYLINE
  8
46
 66
1
 10
0.0000
 20
0.0000
 30
0.0000
 40
0.1651
 41
0.1651
 70
0
  0
VERTEX
  8
46
 10
64.8320
 20
2.0020
 30
0.0000
 42
1.0000
  0
VERTEX
  8
46
 10
64.9487
 20
1.8853
 30
0.0000
  0
SEQEND
  8
0
  0
POLYLINE
  8
46
 66
1
 10
0.0000
 20
0.0000
 30
0.0000
 40
0.3302
 41
0.3302
 70
0
  0
VERTEX
  8
46
 10
67.8460
 20
1.6651
 30
0.0000
  0
VERTEX
  8
46
 10
66.7319
 20
1.6651
 30
0.0000
  0
SEQEND
  8
0
  0
POLYLINE
  8
46
 66
1
 10
0.0000
 20
0.0000
 30
0.0000
 40
0.1651
 41
0.1651
 70
0
  0
VERTEX
  8
46
 10
66.7319
 20
1.7476
 30
0.0000
 42
1.0000
  0
VERTEX
  8
46
 10
66.7319
 20
1.5826
 30
0.0000
  0
SEQEND
  8
0
  0
POLYLINE
  8
46
 66
1
 10
0.0000
 20
0.0000
 30
0.0000
 40
0.1651
 41
0.1651
 70
0
  0
VERTEX
  8
46
 10
67.8460
 20
1.5826
 30
0.0000
 42
1.0000
  0
VERTEX
  8
46
 10
67.8460
 20
1.7476
 30
0.0000
  0
SEQEND
  8
0
  0
POLYLINE
  8
46
 66
1
 10
0.0000
 20
0.0000
 30
0.0000
 40
0.3302
 41
0.3302
 70
0
  0
VERTEX
  8
46
 10
66.7319
 20
1.6651
 30
0.0000
  0
VERTEX
  8
46
 10
67.8460
 20
2.7793
 30
0.0000
  0
SEQEND
  8
0
  0
POLYLINE
  8
46
 66
1
 10
0.0000
 20
0.0000
 30
0.0000
 40
0.1651
 41
0.1651
 70
0
  0
VERTEX
  8
46
 10
67.9044
 20
2.7209
 30
0.0000
 42
1.0000
  0
VERTEX
  8
46
 10
67.7877
 20
2.8376
 30
0.0000
  0
SEQEND
  8
0
  0
POLYLINE
  8
46
 66
1
 10
0.0000
 20
0.0000
 30
0.0000
 40
0.1651
 41
0.1651
 70
0
  0
VERTEX
  8
46
 10
66.6735
 20
1.7235
 30
0.0000
 42
1.0000
  0
VERTEX
  8
46
 10
66.7903
 20
1.6067
 30
0.0000
  0
SEQEND
  8
0
  0
POLYLINE
  8
46
 66
1
 10
0.0000
 20
0.0000
 30
0.0000
 40
0.3302
 41
0.3302
 70
0
  0
VERTEX
  8
46
 10
67.8460
 20
2.7793
 30
0.0000
  0
VERTEX
  8
46
 10
67.8460
 20
3.0578
 30
0.0000
  0
SEQEND
  8
0
  0
POLYLINE
  8
46
 66
1
 10
0.0000
 20
0.0000
 30
0.0000
 40
0.1651
 41
0.1651
 70
0
  0
VERTEX
  8
46
 10
67.9286
 20
3.0578
 30
0.0000
 42
1.0000
  0
VERTEX
  8
46
 10
67.7635
 20
3.0578
 30
0.0000
  0
SEQEND
  8
0
  0
POLYLINE
  8
46
 66
1
 10
0.0000
 20
0.0000
 30
0.0000
 40
0.1651
 41
0.1651
 70
0
  0
VERTEX
  8
46
 10
67.7635
 20
2.7793
 30
0.0000
 42
1.0000
  0
VERTEX
  8
46
 10
67.9286
 20
2.7793
 30
0.0000
  0
SEQEND
  8
0
  0
POLYLINE
  8
46
 66
1
 10
0.0000
 20
0.0000
 30
0.0000
 40
0.3302
 41
0.3302
 70
0
  0
VERTEX
  8
46
 10
67.8460
 20
3.0578
 30
0.0000
  0
VERTEX
  8
46
 10
67.5675
 20
3.3363
 30
0.0000
  0
SEQEND
  8
0
  0
POLYLINE
  8
46
 66
1
 10
0.0000
 20
0.0000
 30
0.0000
 40
0.1651
 41
0.1651
 70
0
  0
VERTEX
  8
46
 10
67.6259
 20
3.3947
 30
0.0000
 42
1.0000
  0
VERTEX
  8
46
 10
67.5091
 20
3.2780
 30
0.0000
  0
SEQEND
  8
0
  0
POLYLINE
  8
46
 66
1
 10
0.0000
 20
0.0000
 30
0.0000
 40
0.1651
 41
0.1651
 70
0
  0
VERTEX
  8
46
 10
67.7877
 20
2.9994
 30
0.0000
 42
1.0000
  0
VERTEX
  8
46
 10
67.9044
 20
3.1162
 30
0.0000
  0
SEQEND
  8
0
  0
POLYLINE
  8
46
 66
1
 10
0.0000
 20
0.0000
 30
0.0000
 40
0.3302
 41
0.3302
 70
0
  0
VERTEX
  8
46
 10
67.5675
 20
3.3363
 30
0.0000
  0
VERTEX
  8
46
 10
67.0104
 20
3.3363
 30
0.0000
  0
SEQEND
  8
0
  0
POLYLINE
  8
46
 66
1
 10
0.0000
 20
0.0000
 30
0.0000
 40
0.1651
 41
0.1651
 70
0
  0
VERTEX
  8
46
 10
67.0104
 20
3.4189
 30
0.0000
 42
1.0000
  0
VERTEX
  8
46
 10
67.0104
 20
3.2538
 30
0.0000
  0
SEQEND
  8
0
  0
POLYLINE
  8
46
 66
1
 10
0.0000
 20
0.0000
 30
0.0000
 40
0.1651
 41
0.1651
 70
0
  0
VERTEX
  8
46
 10
67.5675
 20
3.2538
 30
0.0000
 42
1.0000
  0
VERTEX
  8
46
 10
67.5675
 20
3.4189
 30
0.0000
  0
SEQEND
  8
0
  0
POLYLINE
  8
46
 66
1
 10
0.0000
 20
0.0000
 30
0.0000
 40
0.3302
 41
0.3302
 70
0
  0
VERTEX
  8
46
 10
67.0104
 20
3.3363
 30
0.0000
  0
VERTEX
  8
46
 10
66.7319
 20
3.0578
 30
0.0000
  0
SEQEND
  8
0
  0
POLYLINE
  8
46
 66
1
 10
0.0000
 20
0.0000
 30
0.0000
 40
0.1651
 41
0.1651
 70
0
  0
VERTEX
  8
46
 10
66.6735
 20
3.1162
 30
0.0000
 42
1.0000
  0
VERTEX
  8
46
 10
66.7903
 20
2.9994
 30
0.0000
  0
SEQEND
  8
0
  0
POLYLINE
  8
46
 66
1
 10
0.0000
 20
0.0000
 30
0.0000
 40
0.1651
 41
0.1651
 70
0
  0
VERTEX
  8
46
 10
67.0688
 20
3.2780
 30
0.0000
 42
1.0000
  0
VERTEX
  8
46
 10
66.9521
 20
3.3947
 30
0.0000
  0
SEQEND
  8
0
  0
POLYLINE
  8
46
 66
1
 10
0.0000
 20
0.0000
 30
0.0000
 40
0.3302
 41
0.3302
 70
0
  0
VERTEX
  8
46
 10
68.5735
 20
1.9436
 30
0.0000
  0
VERTEX
  8
46
 10
68.5735
 20
3.0578
 30
0.0000
  0
SEQEND
  8
0
  0
POLYLINE
  8
46
 66
1
 10
0.0000
 20
0.0000
 30
0.0000
 40
0.1651
 41
0.1651
 70
0
  0
VERTEX
  8
46
 10
68.6560
 20
3.0578
 30
0.0000
 42
1.0000
  0
VERTEX
  8
46
 10
68.4909
 20
3.0578
 30
0.0000
  0
SEQEND
  8
0
  0
POLYLINE
  8
46
 66
1
 10
0.0000
 20
0.0000
 30
0.0000
 40
0.1651
 41
0.1651
 70
0
  0
VERTEX
  8
46
 10
68.4909
 20
1.9436
 30
0.0000
 42
1.0000
  0
VERTEX
  8
46
 10
68.6560
 20
1.9436
 30
0.0000
  0
SEQEND
  8
0
  0
POLYLINE
  8
46
 66
1
 10
0.0000
 20
0.0000
 30
0.0000
 40
0.3302
 41
0.3302
 70
0
  0
VERTEX
  8
46
 10
68.5735
 20
3.0578
 30
0.0000
  0
VERTEX
  8
46
 10
68.8520
 20
3.3363
 30
0.0000
  0
SEQEND
  8
0
  0
POLYLINE
  8
46
 66
1
 10
0.0000
 20
0.0000
 30
0.0000
 40
0.1651
 41
0.1651
 70
0
  0
VERTEX
  8
46
 10
68.9104
 20
3.2780
 30
0.0000
 42
1.0000
  0
VERTEX
  8
46
 10
68.7936
 20
3.3947
 30
0.0000
  0
SEQEND
  8
0
  0
POLYLINE
  8
46
 66
1
 10
0.0000
 20
0.0000
 30
0.0000
 40
0.1651
 41
0.1651
 70
0
  0
VERTEX
  8
46
 10
68.5151
 20
3.1162
 30
0.0000
 42
1.0000
  0
VERTEX
  8
46
 10
68.6318
 20
2.9994
 30
0.0000
  0
SEQEND
  8
0
  0
POLYLINE
  8
46
 66
1
 10
0.0000
 20
0.0000
 30
0.0000
 40
0.3302
 41
0.3302
 70
0
  0
VERTEX
  8
46
 10
68.8520
 20
3.3363
 30
0.0000
  0
VERTEX
  8
46
 10
69.4091
 20
3.3363
 30
0.0000
  0
SEQEND
  8
0
  0
POLYLINE
  8
46
 66
1
 10
0.0000
 20
0.0000
 30
0.0000
 40
0.1651
 41
0.1651
 70
0
  0
VERTEX
  8
46
 10
69.4091
 20
3.2538
 30
0.0000
 42
1.0000
  0
VERTEX
  8
46
 10
69.4091
 20
3.4189
 30
0.0000
  0
SEQEND
  8
0
  0
POLYLINE
  8
46
 66
1
 10
0.0000
 20
0.0000
 30
0.0000
 40
0.1651
 41
0.1651
 70
0
  0
VERTEX
  8
46
 10
68.8520
 20
3.4189
 30
0.0000
 42
1.0000
  0
VERTEX
  8
46
 10
68.8520
 20
3.2538
 30
0.0000
  0
SEQEND
  8
0
  0
POLYLINE
  8
46
 66
1
 10
0.0000
 20
0.0000
 30
0.0000
 40
0.3302
 41
0.3302
 70
0
  0
VERTEX
  8
46
 10
69.4091
 20
3.3363
 30
0.0000
  0
VERTEX
  8
46
 10
69.6876
 20
3.0578
 30
0.0000
  0
SEQEND
  8
0
  0
POLYLINE
  8
46
 66
1
 10
0.0000
 20
0.0000
 30
0.0000
 40
0.1651
 41
0.1651
 70
0
  0
VERTEX
  8
46
 10
69.6292
 20
2.9994
 30
0.0000
 42
1.0000
  0
VERTEX
  8
46
 10
69.7460
 20
3.1162
 30
0.0000
  0
SEQEND
  8
0
  0
POLYLINE
  8
46
 66
1
 10
0.0000
 20
0.0000
 30
0.0000
 40
0.1651
 41
0.1651
 70
0
  0
VERTEX
  8
46
 10
69.4675
 20
3.3947
 30
0.0000
 42
1.0000
  0
VERTEX
  8
46
 10
69.3507
 20
3.2780
 30
0.0000
  0
SEQEND
  8
0
  0
POLYLINE
  8
46
 66
1
 10
0.0000
 20
0.0000
 30
0.0000
 40
0.3302
 41
0.3302
 70
0
  0
VERTEX
  8
46
 10
69.6876
 20
3.0578
 30
0.0000
  0
VERTEX
  8
46
 10
69.6876
 20
1.9436
 30
0.0000
  0
SEQEND
  8
0
  0
POLYLINE
  8
46
 66
1
 10
0.0000
 20
0.0000
 30
0.0000
 40
0.1651
 41
0.1651
 70
0
  0
VERTEX
  8
46
 10
69.6051
 20
1.9436
 30
0.0000
 42
1.0000
  0
VERTEX
  8
46
 10
69.7702
 20
1.9436
 30
0.0000
  0
SEQEND
  8
0
  0
POLYLINE
  8
46
 66
1
 10
0.0000
 20
0.0000
 30
0.0000
 40
0.1651
 41
0.1651
 70
0
  0
VERTEX
  8
46
 10
69.7702
 20
3.0578
 30
0.0000
 42
1.0000
  0
VERTEX
  8
46
 10
69.6051
 20
3.0578
 30
0.0000
  0
SEQEND
  8
0
  0
POLYLINE
  8
46
 66
1
 10
0.0000
 20
0.0000
 30
0.0000
 40
0.3302
 41
0.3302
 70
0
  0
VERTEX
  8
46
 10
69.6876
 20
1.9436
 30
0.0000
  0
VERTEX
  8
46
 10
69.4091
 20
1.6651
 30
0.0000
  0
SEQEND
  8
0
  0
POLYLINE
  8
46
 66
1
 10
0.0000
 20
0.0000
 30
0.0000
 40
0.1651
 41
0.1651
 70
0
  0
VERTEX
  8
46
 10
69.3507
 20
1.7235
 30
0.0000
 42
1.0000
  0
VERTEX
  8
46
 10
69.4675
 20
1.6067
 30
0.0000
  0
SEQEND
  8
0
  0
POLYLINE
  8
46
 66
1
 10
0.0000
 20
0.0000
 30
0.0000
 40
0.1651
 41
0.1651
 70
0
  0
VERTEX
  8
46
 10
69.7460
 20
1.8853
 30
0.0000
 42
1.0000
  0
VERTEX
  8
46
 10
69.6292
 20
2.0020
 30
0.0000
  0
SEQEND
  8
0
  0
POLYLINE
  8
46
 66
1
 10
0.0000
 20
0.0000
 30
0.0000
 40
0.3302
 41
0.3302
 70
0
  0
VERTEX
  8
46
 10
69.4091
 20
1.6651
 30
0.0000
  0
VERTEX
  8
46
 10
68.8520
 20
1.6651
 30
0.0000
  0
SEQEND
  8
0
  0
POLYLINE
  8
46
 66
1
 10
0.0000
 20
0.0000
 30
0.0000
 40
0.1651
 41
0.1651
 70
0
  0
VERTEX
  8
46
 10
68.8520
 20
1.7476
 30
0.0000
 42
1.0000
  0
VERTEX
  8
46
 10
68.8520
 20
1.5826
 30
0.0000
  0
SEQEND
  8
0
  0
POLYLINE
  8
46
 66
1
 10
0.0000
 20
0.0000
 30
0.0000
 40
0.1651
 41
0.1651
 70
0
  0
VERTEX
  8
46
 10
69.4091
 20
1.5826
 30
0.0000
 42
1.0000
  0
VERTEX
  8
46
 10
69.4091
 20
1.7476
 30
0.0000
  0
SEQEND
  8
0
  0
POLYLINE
  8
46
 66
1
 10
0.0000
 20
0.0000
 30
0.0000
 40
0.3302
 41
0.3302
 70
0
  0
VERTEX
  8
46
 10
68.8520
 20
1.6651
 30
0.0000
  0
VERTEX
  8
46
 10
68.5735
 20
1.9436
 30
0.0000
  0
SEQEND
  8
0
  0
POLYLINE
  8
46
 66
1
 10
0.0000
 20
0.0000
 30
0.0000
 40
0.1651
 41
0.1651
 70
0
  0
VERTEX
  8
46
 10
68.6318
 20
2.0020
 30
0.0000
 42
1.0000
  0
VERTEX
  8
46
 10
68.5151
 20
1.8853
 30
0.0000
  0
SEQEND
  8
0
  0
POLYLINE
  8
46
 66
1
 10
0.0000
 20
0.0000
 30
0.0000
 40
0.1651
 41
0.1651
 70
0
  0
VERTEX
  8
46
 10
68.7936
 20
1.6067
 30
0.0000
 42
1.0000
  0
VERTEX
  8
46
 10
68.9104
 20
1.7235
 30
0.0000
  0
SEQEND
  8
0
  0
POLYLINE
  8
46
 66
1
 10
0.0000
 20
0.0000
 30
0.0000
 40
0.3302
 41
0.3302
 70
0
  0
VERTEX
  8
46
 10
68.5735
 20
1.9436
 30
0.0000
  0
VERTEX
  8
46
 10
69.6876
 20
3.0578
 30
0.0000
  0
SEQEND
  8
0
  0
POLYLINE
  8
46
 66
1
 10
0.0000
 20
0.0000
 30
0.0000
 40
0.1651
 41
0.1651
 70
0
  0
VERTEX
  8
46
 10
69.7460
 20
2.9994
 30
0.0000
 42
1.0000
  0
VERTEX
  8
46
 10
69.6292
 20
3.1162
 30
0.0000
  0
SEQEND
  8
0
  0
POLYLINE
  8
46
 66
1
 10
0.0000
 20
0.0000
 30
0.0000
 40
0.1651
 41
0.1651
 70
0
  0
VERTEX
  8
46
 10
68.5151
 20
2.0020
 30
0.0000
 42
1.0000
  0
VERTEX
  8
46
 10
68.6318
 20
1.8853
 30
0.0000
  0
SEQEND
  8
0
  0
ENDSEC
  0
EOF
