<?xml version="1.0" encoding="UTF-8" standalone="no"?>
<svg
   xmlns:dc="http://purl.org/dc/elements/1.1/"
   xmlns:cc="http://creativecommons.org/ns#"
   xmlns:rdf="http://www.w3.org/1999/02/22-rdf-syntax-ns#"
   xmlns:svg="http://www.w3.org/2000/svg"
   xmlns="http://www.w3.org/2000/svg"
   xmlns:sodipodi="http://sodipodi.sourceforge.net/DTD/sodipodi-0.dtd"
   xmlns:inkscape="http://www.inkscape.org/namespaces/inkscape"
   width="160.10001mm"
   height="101.60001mm"
   viewBox="0 0 160.10001 101.60001"
   version="1.1"
   id="svg5015"
   inkscape:version="1.0.1 (3bc2e813f5, 2020-09-07)"
   sodipodi:docname="front-panel-old.svg">
  <defs
     id="defs5009">
    <marker
       style="overflow:visible"
       refY="0"
       refX="0"
       orient="auto"
       id="DistanceX">
      <path
         id="path5578"
         style="stroke:#000000;stroke-width:0.5"
         d="M 3,-3 -3,3 M 0,-5 V 5" />
    </marker>
    <pattern
       y="0"
       x="0"
       height="8"
       width="8"
       patternUnits="userSpaceOnUse"
       id="Hatch">
      <path
         id="path5581"
         linecap="square"
         stroke-width="0.25"
         stroke="#000000"
         d="M8 4 l-4,4" />
      <path
         id="path5583"
         linecap="square"
         stroke-width="0.25"
         stroke="#000000"
         d="M6 2 l-4,4" />
      <path
         id="path5585"
         linecap="square"
         stroke-width="0.25"
         stroke="#000000"
         d="M4 0 l-4,4" />
    </pattern>
    <symbol
       id="RECT" />
    <symbol
       id="PIE" />
    <symbol
       id="OCTAGONP" />
    <symbol
       id="SQUAREP" />
    <symbol
       id="ROUNDP" />
    <symbol
       id="ANNULUSP" />
    <symbol
       id="THERMALP" />
    <symbol
       id="OCTAGONV" />
    <symbol
       id="SQUAREV" />
    <symbol
       id="ROUNDV" />
    <symbol
       id="ANNULUSV" />
    <symbol
       id="THERMALV" />
    <marker
       style="overflow:visible"
       refY="0"
       refX="0"
       orient="auto"
       id="DistanceX-0">
      <path
         id="path5675"
         style="stroke:#000000;stroke-width:0.5"
         d="M 3,-3 -3,3 M 0,-5 V 5" />
    </marker>
    <pattern
       y="0"
       x="0"
       height="8"
       width="8"
       patternUnits="userSpaceOnUse"
       id="Hatch-6">
      <path
         id="path5678"
         linecap="square"
         stroke-width="0.25"
         stroke="#000000"
         d="M8 4 l-4,4" />
      <path
         id="path5680"
         linecap="square"
         stroke-width="0.25"
         stroke="#000000"
         d="M6 2 l-4,4" />
      <path
         id="path5682"
         linecap="square"
         stroke-width="0.25"
         stroke="#000000"
         d="M4 0 l-4,4" />
    </pattern>
    <symbol
       id="*MODEL_SPACE" />
    <symbol
       id="*PAPER_SPACE" />
  </defs>
  <sodipodi:namedview
     id="base"
     pagecolor="#ffffff"
     bordercolor="#666666"
     borderopacity="1.0"
     inkscape:pageopacity="0.0"
     inkscape:pageshadow="2"
     inkscape:zoom="0.55930352"
     inkscape:cx="-6.6722836"
     inkscape:cy="365.68952"
     inkscape:document-units="mm"
     inkscape:current-layer="layer1"
     inkscape:document-rotation="0"
     showgrid="false"
     inkscape:window-width="1366"
     inkscape:window-height="716"
     inkscape:window-x="-8"
     inkscape:window-y="-8"
     inkscape:window-maximized="1" />
  <metadata
     id="metadata5012">
    <rdf:RDF>
      <cc:Work
         rdf:about="">
        <dc:format>image/svg+xml</dc:format>
        <dc:type
           rdf:resource="http://purl.org/dc/dcmitype/StillImage" />
        <dc:title />
      </cc:Work>
    </rdf:RDF>
  </metadata>
  <g
     inkscape:label="Layer 1"
     inkscape:groupmode="layer"
     id="layer1"
     transform="translate(396.79405,130.18095)">
    <g
       id="g5667"
       transform="scale(0.26458333)"
       style="stroke:#ff0000;stroke-width:0.377953;stroke-miterlimit:4;stroke-dasharray:none">
      <g
         id="g5602"
         inkscape:label="1"
         style="stroke:#ff0000;stroke-width:0.377953;stroke-miterlimit:4;stroke-dasharray:none" />
      <g
         id="g5604"
         inkscape:label="16"
         style="stroke:#ff0000;stroke-width:0.377953;stroke-miterlimit:4;stroke-dasharray:none" />
      <g
         id="g5606"
         inkscape:label="17"
         style="stroke:#ff0000;stroke-width:0.377953;stroke-miterlimit:4;stroke-dasharray:none" />
      <g
         id="g5608"
         inkscape:label="18"
         style="stroke:#ff0000;stroke-width:0.377953;stroke-miterlimit:4;stroke-dasharray:none" />
      <g
         id="g5610"
         inkscape:label="19"
         style="stroke:#ff0000;stroke-width:0.377953;stroke-miterlimit:4;stroke-dasharray:none" />
      <g
         id="g5612"
         inkscape:label="20"
         style="stroke:#ff0000;stroke-width:0.377953;stroke-miterlimit:4;stroke-dasharray:none" />
      <g
         id="g5614"
         inkscape:label="21"
         style="stroke:#ff0000;stroke-width:0.377953;stroke-miterlimit:4;stroke-dasharray:none" />
      <g
         id="g5616"
         inkscape:label="22"
         style="stroke:#ff0000;stroke-width:0.377953;stroke-miterlimit:4;stroke-dasharray:none" />
      <g
         id="g5618"
         inkscape:label="23"
         style="stroke:#ff0000;stroke-width:0.377953;stroke-miterlimit:4;stroke-dasharray:none" />
      <g
         id="g5620"
         inkscape:label="24"
         style="stroke:#ff0000;stroke-width:0.377953;stroke-miterlimit:4;stroke-dasharray:none" />
      <g
         id="g5622"
         inkscape:label="45"
         style="stroke:#ff0000;stroke-width:0.377953;stroke-miterlimit:4;stroke-dasharray:none" />
      <g
         id="g5624"
         inkscape:label="51"
         style="stroke:#ff0000;stroke-width:0.377953;stroke-miterlimit:4;stroke-dasharray:none" />
      <g
         id="g5628"
         inkscape:label="0"
         style="stroke:#ff0000;stroke-width:0.377953;stroke-miterlimit:4;stroke-dasharray:none" />
    </g>
    <path
       d="m -279.04405,-108.13095 a 1.3,1.3 0 0 1 1.3,1.3 v 25.399997 a 1.3,1.3 0 0 1 -1.3,1.300001 h -75.4 a 1.3,1.3 0 0 1 -1.3,-1.300001 v -25.399997 a 1.3,1.3 0 0 1 1.3,-1.3 z"
       style="fill:none;stroke:#ff0000;stroke-width:0.1;stroke-miterlimit:4;stroke-dasharray:none"
       id="path5689" />
    <path
       d="m -255.24405,-94.130953 a 3.5000001,3.5000001 0 1 0 -7,0 3.5,3.5 0 1 0 7,0 z"
       style="fill:none;stroke:#ff0000;stroke-width:0.1;stroke-miterlimit:4;stroke-dasharray:none"
       id="path5691" />
    <path
       d="m -257.49405,-100.63095 a 1.2500001,1.2500001 0 1 0 -2.5,0 1.2500001,1.2500001 0 1 0 2.5,0 z"
       style="fill:none;stroke:#ff0000;stroke-width:0.1;stroke-miterlimit:4;stroke-dasharray:none"
       id="path5693" />
    <path
       d="m -376.74405,-94.130953 a 4,4 0 1 0 -8,0 4,4 0 1 0 8,0 z"
       style="fill:none;stroke:#ff0000;stroke-width:0.1;stroke-miterlimit:4;stroke-dasharray:none"
       id="path5695" />
    <path
       d="m -376.74405,-82.130954 a 4,4 0 1 0 -8,0 4,4 0 1 0 8,0 z"
       style="fill:none;stroke:#ff0000;stroke-width:0.1;stroke-miterlimit:4;stroke-dasharray:none"
       id="path5697" />
    <path
       d="m -376.74405,-106.13095 a 4,4 0 1 0 -8,0 4,4 0 1 0 8,0 z"
       style="fill:none;stroke:#ff0000;stroke-width:0.1;stroke-miterlimit:4;stroke-dasharray:none"
       id="path5699" />
    <path
       d="m -376.74405,-70.130954 a 4,4 0 1 0 -8,0 4,4 0 1 0 8,0 z"
       style="fill:none;stroke:#ff0000;stroke-width:0.1;stroke-miterlimit:4;stroke-dasharray:none"
       id="path5701" />
    <path
       d="m -376.74405,-118.13095 a 4,4 0 1 0 -8,0 4,4 0 1 0 8,0 z"
       style="fill:none;stroke:#ff0000;stroke-width:0.1;stroke-miterlimit:4;stroke-dasharray:none"
       id="path5703" />
    <path
       d="m -361.49405,-66.830954 a 1.7500004,1.7500004 0 1 0 -3.5,0 1.7500004,1.7500004 0 1 0 3.5,0 z"
       style="fill:none;stroke:#ff0000;stroke-width:0.1;stroke-miterlimit:4;stroke-dasharray:none"
       id="path5705" />
    <path
       d="m -268.49405,-66.830954 a 1.7500004,1.7500004 0 1 0 -3.5,0 1.7500004,1.7500004 0 1 0 3.5,0 z"
       style="fill:none;stroke:#ff0000;stroke-width:0.1;stroke-miterlimit:4;stroke-dasharray:none"
       id="path5707" />
    <path
       d="m -361.49405,-121.43095 a 1.7500004,1.7500004 0 1 0 -3.5,0 1.7500004,1.7500004 0 1 0 3.5,0 z"
       style="fill:none;stroke:#ff0000;stroke-width:0.1;stroke-miterlimit:4;stroke-dasharray:none"
       id="path5709" />
    <path
       d="m -268.49405,-121.43095 a 1.7500004,1.7500004 0 1 0 -3.5,0 1.7500004,1.7500004 0 1 0 3.5,0 z"
       style="fill:none;stroke:#ff0000;stroke-width:0.1;stroke-miterlimit:4;stroke-dasharray:none"
       id="path5711" />
    <path
       d="m -322.24405,-50.130962 a 12,12 0 1 0 -24,0 12,12 0 1 0 24,0 z"
       style="fill:none;stroke:#ff0000;stroke-width:0.1;stroke-miterlimit:4;stroke-dasharray:none"
       id="path5713" />
    <path
       d="m -287.24405,-50.130962 a 12,12 0 1 0 -24,0 12,12 0 1 0 24,0 z"
       style="fill:none;stroke:#ff0000;stroke-width:0.1;stroke-miterlimit:4;stroke-dasharray:none"
       id="path5715" />
    <path
       d="m -357.24405,-50.130962 a 12,12 0 1 0 -24,0 12,12 0 1 0 24,0 z"
       style="fill:none;stroke:#ff0000;stroke-width:0.1;stroke-miterlimit:4;stroke-dasharray:none"
       id="path5717" />
    <path
       d="m -252.24405,-50.130962 a 12,12 0 1 0 -24,0 12,12 0 1 0 24,0 z"
       style="fill:none;stroke:#ff0000;stroke-width:0.1;stroke-miterlimit:4;stroke-dasharray:none"
       id="path5719" />
    <path
       d="m -240.99405,-36.130959 a 1.7500004,1.7500004 0 1 0 -3.5,0 1.7500004,1.7500004 0 1 0 3.5,0 z"
       style="fill:none;stroke:#ff0000;stroke-width:0.1;stroke-miterlimit:4;stroke-dasharray:none"
       id="path5721" />
    <path
       d="m -240.99405,-124.13095 a 1.7500004,1.7500004 0 1 0 -3.5,0 1.7500004,1.7500004 0 1 0 3.5,0 z"
       style="fill:none;stroke:#ff0000;stroke-width:0.1;stroke-miterlimit:4;stroke-dasharray:none"
       id="path5723" />
    <path
       d="m -388.99405,-124.13095 a 1.75,1.75 0 1 0 -3.5,0 1.75,1.75 0 1 0 3.5,0 z"
       style="fill:none;stroke:#ff0000;stroke-width:0.1;stroke-miterlimit:4;stroke-dasharray:none"
       id="path5725" />
    <path
       d="m -388.99405,-36.130959 a 1.75,1.75 0 1 0 -3.5,0 1.75,1.75 0 1 0 3.5,0 z"
       style="fill:none;stroke:#ff0000;stroke-width:0.1;stroke-miterlimit:4;stroke-dasharray:none"
       id="path5727" />
    <path
       d="m -396.74368,-130.13058 h 159.99926 v 101.499257 h -159.99926 z"
       style="fill:none;stroke:#ff0000;stroke-width:0.100747;stroke-miterlimit:4;stroke-dasharray:none"
       id="path5729" />
  </g>
  <g
     inkscape:groupmode="layer"
     id="layer2"
     inkscape:label="legend"
     transform="translate(-0.0822865,-0.0822865)">
    <text
       xml:space="preserve"
       style="font-style:normal;font-variant:normal;font-weight:normal;font-stretch:normal;font-size:4.03459px;line-height:1.25;font-family:Audiowide;-inkscape-font-specification:'Audiowide, Normal';font-variant-ligatures:normal;font-variant-caps:normal;font-variant-numeric:normal;font-variant-east-asian:normal;letter-spacing:0px;word-spacing:0px;fill:#000000;fill-opacity:1;stroke:none;stroke-width:0.101;stroke-miterlimit:4;stroke-dasharray:none"
       x="19.796556"
       y="97.901604"
       id="text5820"><tspan
         sodipodi:role="line"
         id="tspan5818"
         x="19.796556"
         y="97.901604"
         style="font-style:normal;font-variant:normal;font-weight:normal;font-stretch:normal;font-size:4.03459px;font-family:Audiowide;-inkscape-font-specification:'Audiowide, Normal';font-variant-ligatures:normal;font-variant-caps:normal;font-variant-numeric:normal;font-variant-east-asian:normal;stroke-width:0.101;stroke-miterlimit:4;stroke-dasharray:none">START</tspan></text>
    <text
       id="text916"
       y="97.862206"
       x="55.97364"
       style="font-style:normal;font-variant:normal;font-weight:normal;font-stretch:normal;font-size:4.03459px;line-height:1.25;font-family:Audiowide;-inkscape-font-specification:'Audiowide, Normal';font-variant-ligatures:normal;font-variant-caps:normal;font-variant-numeric:normal;font-variant-east-asian:normal;letter-spacing:0px;word-spacing:0px;fill:#000000;fill-opacity:1;stroke:none;stroke-width:0.101;stroke-miterlimit:4;stroke-dasharray:none"
       xml:space="preserve"><tspan
         style="font-style:normal;font-variant:normal;font-weight:normal;font-stretch:normal;font-size:4.03459px;font-family:Audiowide;-inkscape-font-specification:'Audiowide, Normal';font-variant-ligatures:normal;font-variant-caps:normal;font-variant-numeric:normal;font-variant-east-asian:normal;stroke-width:0.101;stroke-miterlimit:4;stroke-dasharray:none"
         y="97.862206"
         x="55.97364"
         id="tspan914"
         sodipodi:role="line">GOAL</tspan></text>
    <text
       xml:space="preserve"
       style="font-style:normal;font-variant:normal;font-weight:normal;font-stretch:normal;font-size:4.03459px;line-height:1.25;font-family:Audiowide;-inkscape-font-specification:'Audiowide, Normal';font-variant-ligatures:normal;font-variant-caps:normal;font-variant-numeric:normal;font-variant-east-asian:normal;letter-spacing:0px;word-spacing:0px;fill:#000000;fill-opacity:1;stroke:none;stroke-width:0.101;stroke-miterlimit:4;stroke-dasharray:none"
       x="92.364471"
       y="97.862206"
       id="text920"><tspan
         sodipodi:role="line"
         id="tspan918"
         x="92.364471"
         y="97.862206"
         style="font-style:normal;font-variant:normal;font-weight:normal;font-stretch:normal;font-size:4.03459px;font-family:Audiowide;-inkscape-font-specification:'Audiowide, Normal';font-variant-ligatures:normal;font-variant-caps:normal;font-variant-numeric:normal;font-variant-east-asian:normal;stroke-width:0.101;stroke-miterlimit:4;stroke-dasharray:none">ARM</tspan></text>
    <text
       id="text924"
       y="97.901604"
       x="124.76996"
       style="font-style:normal;font-variant:normal;font-weight:normal;font-stretch:normal;font-size:4.03459px;line-height:1.25;font-family:Audiowide;-inkscape-font-specification:'Audiowide, Normal';font-variant-ligatures:normal;font-variant-caps:normal;font-variant-numeric:normal;font-variant-east-asian:normal;letter-spacing:0px;word-spacing:0px;fill:#000000;fill-opacity:1;stroke:none;stroke-width:0.101;stroke-miterlimit:4;stroke-dasharray:none"
       xml:space="preserve"><tspan
         style="font-style:normal;font-variant:normal;font-weight:normal;font-stretch:normal;font-size:4.03459px;font-family:Audiowide;-inkscape-font-specification:'Audiowide, Normal';font-variant-ligatures:normal;font-variant-caps:normal;font-variant-numeric:normal;font-variant-east-asian:normal;stroke-width:0.101;stroke-miterlimit:4;stroke-dasharray:none"
         y="97.901604"
         x="124.76996"
         id="tspan922"
         sodipodi:role="line">RESET</tspan></text>
    <text
       xml:space="preserve"
       style="font-style:normal;font-variant:normal;font-weight:normal;font-stretch:normal;font-size:5.13113px;line-height:1.25;font-family:Audiowide;-inkscape-font-specification:'Audiowide, Normal';font-variant-ligatures:normal;font-variant-caps:normal;font-variant-numeric:normal;font-variant-east-asian:normal;text-align:center;letter-spacing:0px;word-spacing:0px;text-anchor:middle;fill:#000000;fill-opacity:1;stroke:none;stroke-width:0.12242;stroke-miterlimit:4;stroke-dasharray:none"
       x="80.14357"
       y="8.5092545"
       id="text1060"><tspan
         sodipodi:role="line"
         x="80.14357"
         y="8.5092545"
         style="font-style:normal;font-variant:normal;font-weight:normal;font-stretch:normal;font-size:5.13113px;font-family:Audiowide;-inkscape-font-specification:'Audiowide, Normal';font-variant-ligatures:normal;font-variant-caps:normal;font-variant-numeric:normal;font-variant-east-asian:normal;text-align:center;text-anchor:middle;stroke-width:0.12242;stroke-miterlimit:4;stroke-dasharray:none"
         id="tspan1062">UKMARS</tspan><tspan
         sodipodi:role="line"
         x="80.14357"
         y="14.923167"
         style="font-style:normal;font-variant:normal;font-weight:normal;font-stretch:normal;font-size:5.13113px;font-family:Audiowide;-inkscape-font-specification:'Audiowide, Normal';font-variant-ligatures:normal;font-variant-caps:normal;font-variant-numeric:normal;font-variant-east-asian:normal;text-align:center;text-anchor:middle;stroke-width:0.12242;stroke-miterlimit:4;stroke-dasharray:none"
         id="tspan1066">Timing Controller</tspan></text>
  </g>
</svg>
