  0
SECTION
  2
HEADER
  9
$ACADVER
  1
AC1009
  9
$FILLMODE
 70
1
  9
$EXTMIN
 10
-0.0050
 20
-0.0050
 30
0.0000
  9
$EXTMAX
 10
160.0050
 20
100.0050
 30
0.0000
  0
ENDSEC
  0
SECTION
  2
TABLES
  0
TABLE
  2
LTYPE
 70
1
  0
LTYPE
  2
CONTINUOUS
 70
64
  3
Solid line
 72
65
 73
0
 40
0
  0
ENDTAB
  0
TABLE
  2
LAYER
 70
255
  0
LAYER
  2
1
 70
64
 62
22
  6
CONTINUOUS
  0
LAYER
  2
16
 70
64
 62
175
  6
CONTINUOUS
  0
LAYER
  2
17
 70
64
 62
82
  6
CONTINUOUS
  0
LAYER
  2
18
 70
64
 62
82
  6
CONTINUOUS
  0
LAYER
  2
19
 70
64
 62
53
  6
CONTINUOUS
  0
LAYER
  2
20
 70
64
 62
7
  6
CONTINUOUS
  0
LAYER
  2
21
 70
64
 62
253
  6
CONTINUOUS
  0
LAYER
  2
22
 70
64
 62
253
  6
CONTINUOUS
  0
LAYER
  2
23
 70
64
 62
7
  6
CONTINUOUS
  0
LAYER
  2
24
 70
64
 62
7
  6
CONTINUOUS
  0
LAYER
  2
45
 70
64
 62
253
  6
CONTINUOUS
  0
LAYER
  2
51
 70
64
 62
253
  6
CONTINUOUS
  0
ENDTAB
  0
ENDSEC
  0
SECTION
  2
BLOCKS
  0
BLOCK
  8
0
  2
RECT
 70
64
 10
0.0000
 20
0.0000
 30
0.0000
  3
RECT
  0
SOLID
  8
0
 10
-0.5000
 20
-0.5000
 30
0.0000
 11
0.5000
 21
-0.5000
 31
0.0000
 12
-0.5000
 22
0.5000
 32
0.0000
 13
0.5000
 23
0.5000
 33
0.0000
  0
ENDBLK
  8
0
  0
BLOCK
  8
0
  2
PIE
 70
64
 10
0.0000
 20
0.0000
 30
0.0000
  3
PIE
  0
POLYLINE
  8
0
 66
1
 10
0.0000
 20
0.0000
 30
0.0000
 40
0.5000
 41
0.5000
 70
0
  0
VERTEX
  8
0
 10
0.0000
 20
-0.2500
 30
0.0000
 42
1.0000
  0
VERTEX
  8
0
 10
0.0000
 20
0.2500
 30
0.0000
 42
1.0000
  0
VERTEX
  8
0
 10
0.0000
 20
-0.2500
 30
0.0000
  0
SEQEND
  8
0
  0
ENDBLK
  8
0
  0
BLOCK
  8
0
  2
OCTAGONP
 70
64
 10
0.0000
 20
0.0000
 30
0.0000
  3
OCTAGONP
  0
POLYLINE
  8
0
 66
1
 10
0.0000
 20
0.0000
 30
0.0000
 40
0.5000
 41
0.5000
 70
0
  0
VERTEX
  8
0
 10
-0.2500
 20
-0.1036
 30
0.0000
  0
VERTEX
  8
0
 10
-0.2500
 20
0.1036
 30
0.0000
  0
VERTEX
  8
0
 10
-0.1036
 20
0.2500
 30
0.0000
  0
VERTEX
  8
0
 10
0.1036
 20
0.2500
 30
0.0000
  0
VERTEX
  8
0
 10
0.2500
 20
0.1036
 30
0.0000
  0
VERTEX
  8
0
 10
0.2500
 20
-0.1036
 30
0.0000
  0
VERTEX
  8
0
 10
0.1036
 20
-0.2500
 30
0.0000
  0
VERTEX
  8
0
 10
-0.1036
 20
-0.2500
 30
0.0000
  0
VERTEX
  8
0
 10
-0.2500
 20
-0.1036
 30
0.0000
  0
VERTEX
  8
0
 10
-0.2500
 20
0.1036
 30
0.0000
  0
SEQEND
  8
0
  0
ENDBLK
  8
0
  0
BLOCK
  8
0
  2
SQUAREP
 70
64
 10
0.0000
 20
0.0000
 30
0.0000
  3
SQUAREP
  0
SOLID
  8
0
 10
-0.5000
 20
-0.5000
 30
0.0000
 11
0.5000
 21
-0.5000
 31
0.0000
 12
-0.5000
 22
0.5000
 32
0.0000
 13
0.5000
 23
0.5000
 33
0.0000
  0
ENDBLK
  8
0
  0
BLOCK
  8
0
  2
ROUNDP
 70
64
 10
0.0000
 20
0.0000
 30
0.0000
  3
ROUNDP
  0
POLYLINE
  8
0
 66
1
 10
0.0000
 20
0.0000
 30
0.0000
 40
0.5000
 41
0.5000
 70
0
  0
VERTEX
  8
0
 10
0.0000
 20
-0.2500
 30
0.0000
 42
1.0000
  0
VERTEX
  8
0
 10
0.0000
 20
0.2500
 30
0.0000
 42
1.0000
  0
VERTEX
  8
0
 10
0.0000
 20
-0.2500
 30
0.0000
  0
SEQEND
  8
0
  0
ENDBLK
  8
0
  0
BLOCK
  8
0
  2
ANNULUSP
 70
64
 10
0.0000
 20
0.0000
 30
0.0000
  3
ANNULUSP
  0
POLYLINE
  8
0
 66
1
 10
0.0000
 20
0.0000
 30
0.0000
 40
0.5000
 41
0.5000
 70
0
  0
VERTEX
  8
0
 10
0.0000
 20
-0.2500
 30
0.0000
 42
1.0000
  0
VERTEX
  8
0
 10
0.0000
 20
0.2500
 30
0.0000
 42
1.0000
  0
VERTEX
  8
0
 10
0.0000
 20
-0.2500
 30
0.0000
  0
SEQEND
  8
0
  0
ENDBLK
  8
0
  0
BLOCK
  8
0
  2
THERMALP
 70
64
 10
0.0000
 20
0.0000
 30
0.0000
  3
THERMALP
  0
POLYLINE
  8
0
 66
1
 10
0.0000
 20
0.0000
 30
0.0000
 40
0.1000
 41
0.1000
 70
0
  0
VERTEX
  8
0
 10
-0.2379
 20
0.4500
 30
0.0000
  0
VERTEX
  8
0
 10
0.2379
 20
0.4500
 30
0.0000
  0
SEQEND
  8
0
  0
POLYLINE
  8
0
 66
1
 10
0.0000
 20
0.0000
 30
0.0000
 40
0.0500
 41
0.0500
 70
0
  0
VERTEX
  8
0
 10
0.2379
 20
0.4250
 30
0.0000
 42
1.0000
  0
VERTEX
  8
0
 10
0.2379
 20
0.4750
 30
0.0000
  0
SEQEND
  8
0
  0
POLYLINE
  8
0
 66
1
 10
0.0000
 20
0.0000
 30
0.0000
 40
0.0500
 41
0.0500
 70
0
  0
VERTEX
  8
0
 10
-0.2379
 20
0.4750
 30
0.0000
 42
1.0000
  0
VERTEX
  8
0
 10
-0.2379
 20
0.4250
 30
0.0000
  0
SEQEND
  8
0
  0
POLYLINE
  8
0
 66
1
 10
0.0000
 20
0.0000
 30
0.0000
 40
0.1000
 41
0.1000
 70
0
  0
VERTEX
  8
0
 10
0.4500
 20
0.2379
 30
0.0000
  0
VERTEX
  8
0
 10
0.4500
 20
-0.2379
 30
0.0000
  0
SEQEND
  8
0
  0
POLYLINE
  8
0
 66
1
 10
0.0000
 20
0.0000
 30
0.0000
 40
0.0500
 41
0.0500
 70
0
  0
VERTEX
  8
0
 10
0.4250
 20
-0.2379
 30
0.0000
 42
1.0000
  0
VERTEX
  8
0
 10
0.4750
 20
-0.2379
 30
0.0000
  0
SEQEND
  8
0
  0
POLYLINE
  8
0
 66
1
 10
0.0000
 20
0.0000
 30
0.0000
 40
0.0500
 41
0.0500
 70
0
  0
VERTEX
  8
0
 10
0.4750
 20
0.2379
 30
0.0000
 42
1.0000
  0
VERTEX
  8
0
 10
0.4250
 20
0.2379
 30
0.0000
  0
SEQEND
  8
0
  0
POLYLINE
  8
0
 66
1
 10
0.0000
 20
0.0000
 30
0.0000
 40
0.1000
 41
0.1000
 70
0
  0
VERTEX
  8
0
 10
0.2379
 20
-0.4500
 30
0.0000
  0
VERTEX
  8
0
 10
-0.2379
 20
-0.4500
 30
0.0000
  0
SEQEND
  8
0
  0
POLYLINE
  8
0
 66
1
 10
0.0000
 20
0.0000
 30
0.0000
 40
0.0500
 41
0.0500
 70
0
  0
VERTEX
  8
0
 10
-0.2379
 20
-0.4250
 30
0.0000
 42
1.0000
  0
VERTEX
  8
0
 10
-0.2379
 20
-0.4750
 30
0.0000
  0
SEQEND
  8
0
  0
POLYLINE
  8
0
 66
1
 10
0.0000
 20
0.0000
 30
0.0000
 40
0.0500
 41
0.0500
 70
0
  0
VERTEX
  8
0
 10
0.2379
 20
-0.4750
 30
0.0000
 42
1.0000
  0
VERTEX
  8
0
 10
0.2379
 20
-0.4250
 30
0.0000
  0
SEQEND
  8
0
  0
POLYLINE
  8
0
 66
1
 10
0.0000
 20
0.0000
 30
0.0000
 40
0.1000
 41
0.1000
 70
0
  0
VERTEX
  8
0
 10
-0.4500
 20
-0.2379
 30
0.0000
  0
VERTEX
  8
0
 10
-0.4500
 20
0.2379
 30
0.0000
  0
SEQEND
  8
0
  0
POLYLINE
  8
0
 66
1
 10
0.0000
 20
0.0000
 30
0.0000
 40
0.0500
 41
0.0500
 70
0
  0
VERTEX
  8
0
 10
-0.4250
 20
0.2379
 30
0.0000
 42
1.0000
  0
VERTEX
  8
0
 10
-0.4750
 20
0.2379
 30
0.0000
  0
SEQEND
  8
0
  0
POLYLINE
  8
0
 66
1
 10
0.0000
 20
0.0000
 30
0.0000
 40
0.0500
 41
0.0500
 70
0
  0
VERTEX
  8
0
 10
-0.4750
 20
-0.2379
 30
0.0000
 42
1.0000
  0
VERTEX
  8
0
 10
-0.4250
 20
-0.2379
 30
0.0000
  0
SEQEND
  8
0
  0
ENDBLK
  8
0
  0
BLOCK
  8
0
  2
OCTAGONV
 70
64
 10
0.0000
 20
0.0000
 30
0.0000
  3
OCTAGONV
  0
POLYLINE
  8
0
 66
1
 10
0.0000
 20
0.0000
 30
0.0000
 40
0.5000
 41
0.5000
 70
0
  0
VERTEX
  8
0
 10
-0.2500
 20
-0.1036
 30
0.0000
  0
VERTEX
  8
0
 10
-0.2500
 20
0.1036
 30
0.0000
  0
VERTEX
  8
0
 10
-0.1036
 20
0.2500
 30
0.0000
  0
VERTEX
  8
0
 10
0.1036
 20
0.2500
 30
0.0000
  0
VERTEX
  8
0
 10
0.2500
 20
0.1036
 30
0.0000
  0
VERTEX
  8
0
 10
0.2500
 20
-0.1036
 30
0.0000
  0
VERTEX
  8
0
 10
0.1036
 20
-0.2500
 30
0.0000
  0
VERTEX
  8
0
 10
-0.1036
 20
-0.2500
 30
0.0000
  0
VERTEX
  8
0
 10
-0.2500
 20
-0.1036
 30
0.0000
  0
VERTEX
  8
0
 10
-0.2500
 20
0.1036
 30
0.0000
  0
SEQEND
  8
0
  0
ENDBLK
  8
0
  0
BLOCK
  8
0
  2
SQUAREV
 70
64
 10
0.0000
 20
0.0000
 30
0.0000
  3
SQUAREV
  0
SOLID
  8
0
 10
-0.5000
 20
-0.5000
 30
0.0000
 11
0.5000
 21
-0.5000
 31
0.0000
 12
-0.5000
 22
0.5000
 32
0.0000
 13
0.5000
 23
0.5000
 33
0.0000
  0
ENDBLK
  8
0
  0
BLOCK
  8
0
  2
ROUNDV
 70
64
 10
0.0000
 20
0.0000
 30
0.0000
  3
ROUNDV
  0
POLYLINE
  8
0
 66
1
 10
0.0000
 20
0.0000
 30
0.0000
 40
0.5000
 41
0.5000
 70
0
  0
VERTEX
  8
0
 10
0.0000
 20
-0.2500
 30
0.0000
 42
1.0000
  0
VERTEX
  8
0
 10
0.0000
 20
0.2500
 30
0.0000
 42
1.0000
  0
VERTEX
  8
0
 10
0.0000
 20
-0.2500
 30
0.0000
  0
SEQEND
  8
0
  0
ENDBLK
  8
0
  0
BLOCK
  8
0
  2
ANNULUSV
 70
64
 10
0.0000
 20
0.0000
 30
0.0000
  3
ANNULUSV
  0
POLYLINE
  8
0
 66
1
 10
0.0000
 20
0.0000
 30
0.0000
 40
0.5000
 41
0.5000
 70
0
  0
VERTEX
  8
0
 10
0.0000
 20
-0.2500
 30
0.0000
 42
1.0000
  0
VERTEX
  8
0
 10
0.0000
 20
0.2500
 30
0.0000
 42
1.0000
  0
VERTEX
  8
0
 10
0.0000
 20
-0.2500
 30
0.0000
  0
SEQEND
  8
0
  0
ENDBLK
  8
0
  0
BLOCK
  8
0
  2
THERMALV
 70
64
 10
0.0000
 20
0.0000
 30
0.0000
  3
THERMALV
  0
POLYLINE
  8
0
 66
1
 10
0.0000
 20
0.0000
 30
0.0000
 40
0.1000
 41
0.1000
 70
0
  0
VERTEX
  8
0
 10
-0.2379
 20
0.4500
 30
0.0000
  0
VERTEX
  8
0
 10
0.2379
 20
0.4500
 30
0.0000
  0
SEQEND
  8
0
  0
POLYLINE
  8
0
 66
1
 10
0.0000
 20
0.0000
 30
0.0000
 40
0.0500
 41
0.0500
 70
0
  0
VERTEX
  8
0
 10
0.2379
 20
0.4250
 30
0.0000
 42
1.0000
  0
VERTEX
  8
0
 10
0.2379
 20
0.4750
 30
0.0000
  0
SEQEND
  8
0
  0
POLYLINE
  8
0
 66
1
 10
0.0000
 20
0.0000
 30
0.0000
 40
0.0500
 41
0.0500
 70
0
  0
VERTEX
  8
0
 10
-0.2379
 20
0.4750
 30
0.0000
 42
1.0000
  0
VERTEX
  8
0
 10
-0.2379
 20
0.4250
 30
0.0000
  0
SEQEND
  8
0
  0
POLYLINE
  8
0
 66
1
 10
0.0000
 20
0.0000
 30
0.0000
 40
0.1000
 41
0.1000
 70
0
  0
VERTEX
  8
0
 10
0.4500
 20
0.2379
 30
0.0000
  0
VERTEX
  8
0
 10
0.4500
 20
-0.2379
 30
0.0000
  0
SEQEND
  8
0
  0
POLYLINE
  8
0
 66
1
 10
0.0000
 20
0.0000
 30
0.0000
 40
0.0500
 41
0.0500
 70
0
  0
VERTEX
  8
0
 10
0.4250
 20
-0.2379
 30
0.0000
 42
1.0000
  0
VERTEX
  8
0
 10
0.4750
 20
-0.2379
 30
0.0000
  0
SEQEND
  8
0
  0
POLYLINE
  8
0
 66
1
 10
0.0000
 20
0.0000
 30
0.0000
 40
0.0500
 41
0.0500
 70
0
  0
VERTEX
  8
0
 10
0.4750
 20
0.2379
 30
0.0000
 42
1.0000
  0
VERTEX
  8
0
 10
0.4250
 20
0.2379
 30
0.0000
  0
SEQEND
  8
0
  0
POLYLINE
  8
0
 66
1
 10
0.0000
 20
0.0000
 30
0.0000
 40
0.1000
 41
0.1000
 70
0
  0
VERTEX
  8
0
 10
0.2379
 20
-0.4500
 30
0.0000
  0
VERTEX
  8
0
 10
-0.2379
 20
-0.4500
 30
0.0000
  0
SEQEND
  8
0
  0
POLYLINE
  8
0
 66
1
 10
0.0000
 20
0.0000
 30
0.0000
 40
0.0500
 41
0.0500
 70
0
  0
VERTEX
  8
0
 10
-0.2379
 20
-0.4250
 30
0.0000
 42
1.0000
  0
VERTEX
  8
0
 10
-0.2379
 20
-0.4750
 30
0.0000
  0
SEQEND
  8
0
  0
POLYLINE
  8
0
 66
1
 10
0.0000
 20
0.0000
 30
0.0000
 40
0.0500
 41
0.0500
 70
0
  0
VERTEX
  8
0
 10
0.2379
 20
-0.4750
 30
0.0000
 42
1.0000
  0
VERTEX
  8
0
 10
0.2379
 20
-0.4250
 30
0.0000
  0
SEQEND
  8
0
  0
POLYLINE
  8
0
 66
1
 10
0.0000
 20
0.0000
 30
0.0000
 40
0.1000
 41
0.1000
 70
0
  0
VERTEX
  8
0
 10
-0.4500
 20
-0.2379
 30
0.0000
  0
VERTEX
  8
0
 10
-0.4500
 20
0.2379
 30
0.0000
  0
SEQEND
  8
0
  0
POLYLINE
  8
0
 66
1
 10
0.0000
 20
0.0000
 30
0.0000
 40
0.0500
 41
0.0500
 70
0
  0
VERTEX
  8
0
 10
-0.4250
 20
0.2379
 30
0.0000
 42
1.0000
  0
VERTEX
  8
0
 10
-0.4750
 20
0.2379
 30
0.0000
  0
SEQEND
  8
0
  0
POLYLINE
  8
0
 66
1
 10
0.0000
 20
0.0000
 30
0.0000
 40
0.0500
 41
0.0500
 70
0
  0
VERTEX
  8
0
 10
-0.4750
 20
-0.2379
 30
0.0000
 42
1.0000
  0
VERTEX
  8
0
 10
-0.4250
 20
-0.2379
 30
0.0000
  0
SEQEND
  8
0
  0
ENDBLK
  8
0
  0
ENDSEC
  0
SECTION
  2
ENTITIES
  0
POLYLINE
  8
20
 66
1
 10
0.0000
 20
0.0000
 30
0.0000
 40
0.0100
 41
0.0100
 70
0
  0
VERTEX
  8
20
 10
0.0000
 20
0.0000
 30
0.0000
  0
VERTEX
  8
20
 10
80.0000
 20
0.0000
 30
0.0000
  0
SEQEND
  8
0
  0
POLYLINE
  8
20
 66
1
 10
0.0000
 20
0.0000
 30
0.0000
 40
0.0050
 41
0.0050
 70
0
  0
VERTEX
  8
20
 10
80.0000
 20
-0.0025
 30
0.0000
 42
1.0000
  0
VERTEX
  8
20
 10
80.0000
 20
0.0025
 30
0.0000
  0
SEQEND
  8
0
  0
POLYLINE
  8
20
 66
1
 10
0.0000
 20
0.0000
 30
0.0000
 40
0.0050
 41
0.0050
 70
0
  0
VERTEX
  8
20
 10
0.0000
 20
0.0025
 30
0.0000
 42
1.0000
  0
VERTEX
  8
20
 10
0.0000
 20
-0.0025
 30
0.0000
  0
SEQEND
  8
0
  0
POLYLINE
  8
20
 66
1
 10
0.0000
 20
0.0000
 30
0.0000
 40
0.0100
 41
0.0100
 70
0
  0
VERTEX
  8
20
 10
128.0000
 20
0.0000
 30
0.0000
  0
VERTEX
  8
20
 10
160.0000
 20
0.0000
 30
0.0000
  0
SEQEND
  8
0
  0
POLYLINE
  8
20
 66
1
 10
0.0000
 20
0.0000
 30
0.0000
 40
0.0050
 41
0.0050
 70
0
  0
VERTEX
  8
20
 10
160.0000
 20
-0.0025
 30
0.0000
 42
1.0000
  0
VERTEX
  8
20
 10
160.0000
 20
0.0025
 30
0.0000
  0
SEQEND
  8
0
  0
POLYLINE
  8
20
 66
1
 10
0.0000
 20
0.0000
 30
0.0000
 40
0.0050
 41
0.0050
 70
0
  0
VERTEX
  8
20
 10
128.0000
 20
0.0025
 30
0.0000
 42
1.0000
  0
VERTEX
  8
20
 10
128.0000
 20
-0.0025
 30
0.0000
  0
SEQEND
  8
0
  0
POLYLINE
  8
20
 66
1
 10
0.0000
 20
0.0000
 30
0.0000
 40
0.0100
 41
0.0100
 70
0
  0
VERTEX
  8
20
 10
160.0000
 20
100.0000
 30
0.0000
  0
VERTEX
  8
20
 10
128.0000
 20
100.0000
 30
0.0000
  0
SEQEND
  8
0
  0
POLYLINE
  8
20
 66
1
 10
0.0000
 20
0.0000
 30
0.0000
 40
0.0050
 41
0.0050
 70
0
  0
VERTEX
  8
20
 10
128.0000
 20
100.0025
 30
0.0000
 42
1.0000
  0
VERTEX
  8
20
 10
128.0000
 20
99.9975
 30
0.0000
  0
SEQEND
  8
0
  0
POLYLINE
  8
20
 66
1
 10
0.0000
 20
0.0000
 30
0.0000
 40
0.0050
 41
0.0050
 70
0
  0
VERTEX
  8
20
 10
160.0000
 20
99.9975
 30
0.0000
 42
1.0000
  0
VERTEX
  8
20
 10
160.0000
 20
100.0025
 30
0.0000
  0
SEQEND
  8
0
  0
POLYLINE
  8
20
 66
1
 10
0.0000
 20
0.0000
 30
0.0000
 40
0.0100
 41
0.0100
 70
0
  0
VERTEX
  8
20
 10
80.0000
 20
100.0000
 30
0.0000
  0
VERTEX
  8
20
 10
0.0000
 20
100.0000
 30
0.0000
  0
SEQEND
  8
0
  0
POLYLINE
  8
20
 66
1
 10
0.0000
 20
0.0000
 30
0.0000
 40
0.0050
 41
0.0050
 70
0
  0
VERTEX
  8
20
 10
0.0000
 20
100.0025
 30
0.0000
 42
1.0000
  0
VERTEX
  8
20
 10
0.0000
 20
99.9975
 30
0.0000
  0
SEQEND
  8
0
  0
POLYLINE
  8
20
 66
1
 10
0.0000
 20
0.0000
 30
0.0000
 40
0.0050
 41
0.0050
 70
0
  0
VERTEX
  8
20
 10
80.0000
 20
99.9975
 30
0.0000
 42
1.0000
  0
VERTEX
  8
20
 10
80.0000
 20
100.0025
 30
0.0000
  0
SEQEND
  8
0
  0
POLYLINE
  8
20
 66
1
 10
0.0000
 20
0.0000
 30
0.0000
 40
0.0100
 41
0.0100
 70
0
  0
VERTEX
  8
20
 10
0.0000
 20
100.0000
 30
0.0000
  0
VERTEX
  8
20
 10
0.0000
 20
64.0000
 30
0.0000
  0
SEQEND
  8
0
  0
POLYLINE
  8
20
 66
1
 10
0.0000
 20
0.0000
 30
0.0000
 40
0.0050
 41
0.0050
 70
0
  0
VERTEX
  8
20
 10
-0.0025
 20
64.0000
 30
0.0000
 42
1.0000
  0
VERTEX
  8
20
 10
0.0025
 20
64.0000
 30
0.0000
  0
SEQEND
  8
0
  0
POLYLINE
  8
20
 66
1
 10
0.0000
 20
0.0000
 30
0.0000
 40
0.0050
 41
0.0050
 70
0
  0
VERTEX
  8
20
 10
0.0025
 20
100.0000
 30
0.0000
 42
1.0000
  0
VERTEX
  8
20
 10
-0.0025
 20
100.0000
 30
0.0000
  0
SEQEND
  8
0
  0
POLYLINE
  8
20
 66
1
 10
0.0000
 20
0.0000
 30
0.0000
 40
0.0100
 41
0.0100
 70
0
  0
VERTEX
  8
20
 10
0.0000
 20
22.0000
 30
0.0000
  0
VERTEX
  8
20
 10
0.0000
 20
0.0000
 30
0.0000
  0
SEQEND
  8
0
  0
POLYLINE
  8
20
 66
1
 10
0.0000
 20
0.0000
 30
0.0000
 40
0.0050
 41
0.0050
 70
0
  0
VERTEX
  8
20
 10
-0.0025
 20
0.0000
 30
0.0000
 42
1.0000
  0
VERTEX
  8
20
 10
0.0025
 20
0.0000
 30
0.0000
  0
SEQEND
  8
0
  0
POLYLINE
  8
20
 66
1
 10
0.0000
 20
0.0000
 30
0.0000
 40
0.0050
 41
0.0050
 70
0
  0
VERTEX
  8
20
 10
0.0025
 20
22.0000
 30
0.0000
 42
1.0000
  0
VERTEX
  8
20
 10
-0.0025
 20
22.0000
 30
0.0000
  0
SEQEND
  8
0
  0
POLYLINE
  8
20
 66
1
 10
0.0000
 20
0.0000
 30
0.0000
 40
0.0100
 41
0.0100
 70
0
  0
VERTEX
  8
20
 10
160.0000
 20
64.0000
 30
0.0000
  0
VERTEX
  8
20
 10
160.0000
 20
100.0000
 30
0.0000
  0
SEQEND
  8
0
  0
POLYLINE
  8
20
 66
1
 10
0.0000
 20
0.0000
 30
0.0000
 40
0.0050
 41
0.0050
 70
0
  0
VERTEX
  8
20
 10
160.0025
 20
100.0000
 30
0.0000
 42
1.0000
  0
VERTEX
  8
20
 10
159.9975
 20
100.0000
 30
0.0000
  0
SEQEND
  8
0
  0
POLYLINE
  8
20
 66
1
 10
0.0000
 20
0.0000
 30
0.0000
 40
0.0050
 41
0.0050
 70
0
  0
VERTEX
  8
20
 10
159.9975
 20
64.0000
 30
0.0000
 42
1.0000
  0
VERTEX
  8
20
 10
160.0025
 20
64.0000
 30
0.0000
  0
SEQEND
  8
0
  0
POLYLINE
  8
20
 66
1
 10
0.0000
 20
0.0000
 30
0.0000
 40
0.0100
 41
0.0100
 70
0
  0
VERTEX
  8
20
 10
104.5000
 20
78.0000
 30
0.0000
  0
VERTEX
  8
20
 10
104.5000
 20
76.7000
 30
0.0000
  0
SEQEND
  8
0
  0
POLYLINE
  8
20
 66
1
 10
0.0000
 20
0.0000
 30
0.0000
 40
0.0050
 41
0.0050
 70
0
  0
VERTEX
  8
20
 10
104.4975
 20
76.7000
 30
0.0000
 42
1.0000
  0
VERTEX
  8
20
 10
104.5025
 20
76.7000
 30
0.0000
  0
SEQEND
  8
0
  0
POLYLINE
  8
20
 66
1
 10
0.0000
 20
0.0000
 30
0.0000
 40
0.0050
 41
0.0050
 70
0
  0
VERTEX
  8
20
 10
104.5025
 20
78.0000
 30
0.0000
 42
1.0000
  0
VERTEX
  8
20
 10
104.4975
 20
78.0000
 30
0.0000
  0
SEQEND
  8
0
  0
POLYLINE
  8
20
 66
1
 10
0.0000
 20
0.0000
 30
0.0000
 40
0.0100
 41
0.0100
 70
0
  0
VERTEX
  8
20
 10
103.2000
 20
78.0000
 30
0.0000
  0
VERTEX
  8
20
 10
104.5000
 20
78.0000
 30
0.0000
  0
SEQEND
  8
0
  0
POLYLINE
  8
20
 66
1
 10
0.0000
 20
0.0000
 30
0.0000
 40
0.0050
 41
0.0050
 70
0
  0
VERTEX
  8
20
 10
104.5000
 20
77.9975
 30
0.0000
 42
1.0000
  0
VERTEX
  8
20
 10
104.5000
 20
78.0025
 30
0.0000
  0
SEQEND
  8
0
  0
POLYLINE
  8
20
 66
1
 10
0.0000
 20
0.0000
 30
0.0000
 40
0.0050
 41
0.0050
 70
0
  0
VERTEX
  8
20
 10
103.2000
 20
78.0025
 30
0.0000
 42
1.0000
  0
VERTEX
  8
20
 10
103.2000
 20
77.9975
 30
0.0000
  0
SEQEND
  8
0
  0
POLYLINE
  8
20
 66
1
 10
0.0000
 20
0.0000
 30
0.0000
 40
0.0100
 41
0.0100
 70
0
  0
VERTEX
  8
20
 10
26.5000
 20
50.0000
 30
0.0000
  0
VERTEX
  8
20
 10
26.5000
 20
51.3000
 30
0.0000
  0
SEQEND
  8
0
  0
POLYLINE
  8
20
 66
1
 10
0.0000
 20
0.0000
 30
0.0000
 40
0.0050
 41
0.0050
 70
0
  0
VERTEX
  8
20
 10
26.5025
 20
51.3000
 30
0.0000
 42
1.0000
  0
VERTEX
  8
20
 10
26.4975
 20
51.3000
 30
0.0000
  0
SEQEND
  8
0
  0
POLYLINE
  8
20
 66
1
 10
0.0000
 20
0.0000
 30
0.0000
 40
0.0050
 41
0.0050
 70
0
  0
VERTEX
  8
20
 10
26.4975
 20
50.0000
 30
0.0000
 42
1.0000
  0
VERTEX
  8
20
 10
26.5025
 20
50.0000
 30
0.0000
  0
SEQEND
  8
0
  0
POLYLINE
  8
20
 66
1
 10
0.0000
 20
0.0000
 30
0.0000
 40
0.0100
 41
0.0100
 70
0
  0
VERTEX
  8
20
 10
27.8000
 20
50.0000
 30
0.0000
  0
VERTEX
  8
20
 10
26.5000
 20
50.0000
 30
0.0000
  0
SEQEND
  8
0
  0
POLYLINE
  8
20
 66
1
 10
0.0000
 20
0.0000
 30
0.0000
 40
0.0050
 41
0.0050
 70
0
  0
VERTEX
  8
20
 10
26.5000
 20
50.0025
 30
0.0000
 42
1.0000
  0
VERTEX
  8
20
 10
26.5000
 20
49.9975
 30
0.0000
  0
SEQEND
  8
0
  0
POLYLINE
  8
20
 66
1
 10
0.0000
 20
0.0000
 30
0.0000
 40
0.0050
 41
0.0050
 70
0
  0
VERTEX
  8
20
 10
27.8000
 20
49.9975
 30
0.0000
 42
1.0000
  0
VERTEX
  8
20
 10
27.8000
 20
50.0025
 30
0.0000
  0
SEQEND
  8
0
  0
POLYLINE
  8
20
 66
1
 10
0.0000
 20
0.0000
 30
0.0000
 40
0.0100
 41
0.0100
 70
0
  0
VERTEX
  8
20
 10
160.0000
 20
0.0000
 30
0.0000
  0
VERTEX
  8
20
 10
160.0000
 20
22.0000
 30
0.0000
  0
SEQEND
  8
0
  0
POLYLINE
  8
20
 66
1
 10
0.0000
 20
0.0000
 30
0.0000
 40
0.0050
 41
0.0050
 70
0
  0
VERTEX
  8
20
 10
160.0025
 20
22.0000
 30
0.0000
 42
1.0000
  0
VERTEX
  8
20
 10
159.9975
 20
22.0000
 30
0.0000
  0
SEQEND
  8
0
  0
POLYLINE
  8
20
 66
1
 10
0.0000
 20
0.0000
 30
0.0000
 40
0.0050
 41
0.0050
 70
0
  0
VERTEX
  8
20
 10
159.9975
 20
0.0000
 30
0.0000
 42
1.0000
  0
VERTEX
  8
20
 10
160.0025
 20
0.0000
 30
0.0000
  0
SEQEND
  8
0
  0
POLYLINE
  8
20
 66
1
 10
0.0000
 20
0.0000
 30
0.0000
 40
0.0100
 41
0.0100
 70
0
  0
VERTEX
  8
20
 10
80.0000
 20
0.0000
 30
0.0000
  0
VERTEX
  8
20
 10
128.0000
 20
0.0000
 30
0.0000
  0
SEQEND
  8
0
  0
POLYLINE
  8
20
 66
1
 10
0.0000
 20
0.0000
 30
0.0000
 40
0.0050
 41
0.0050
 70
0
  0
VERTEX
  8
20
 10
128.0000
 20
-0.0025
 30
0.0000
 42
1.0000
  0
VERTEX
  8
20
 10
128.0000
 20
0.0025
 30
0.0000
  0
SEQEND
  8
0
  0
POLYLINE
  8
20
 66
1
 10
0.0000
 20
0.0000
 30
0.0000
 40
0.0050
 41
0.0050
 70
0
  0
VERTEX
  8
20
 10
80.0000
 20
0.0025
 30
0.0000
 42
1.0000
  0
VERTEX
  8
20
 10
80.0000
 20
-0.0025
 30
0.0000
  0
SEQEND
  8
0
  0
POLYLINE
  8
20
 66
1
 10
0.0000
 20
0.0000
 30
0.0000
 40
0.0100
 41
0.0100
 70
0
  0
VERTEX
  8
20
 10
26.5000
 20
78.0000
 30
0.0000
  0
VERTEX
  8
20
 10
27.8000
 20
78.0000
 30
0.0000
  0
SEQEND
  8
0
  0
POLYLINE
  8
20
 66
1
 10
0.0000
 20
0.0000
 30
0.0000
 40
0.0050
 41
0.0050
 70
0
  0
VERTEX
  8
20
 10
27.8000
 20
77.9975
 30
0.0000
 42
1.0000
  0
VERTEX
  8
20
 10
27.8000
 20
78.0025
 30
0.0000
  0
SEQEND
  8
0
  0
POLYLINE
  8
20
 66
1
 10
0.0000
 20
0.0000
 30
0.0000
 40
0.0050
 41
0.0050
 70
0
  0
VERTEX
  8
20
 10
26.5000
 20
78.0025
 30
0.0000
 42
1.0000
  0
VERTEX
  8
20
 10
26.5000
 20
77.9975
 30
0.0000
  0
SEQEND
  8
0
  0
POLYLINE
  8
20
 66
1
 10
0.0000
 20
0.0000
 30
0.0000
 40
0.0100
 41
0.0100
 70
0
  0
VERTEX
  8
20
 10
27.8000
 20
78.0000
 30
0.0000
  0
VERTEX
  8
20
 10
103.2000
 20
78.0000
 30
0.0000
  0
SEQEND
  8
0
  0
POLYLINE
  8
20
 66
1
 10
0.0000
 20
0.0000
 30
0.0000
 40
0.0050
 41
0.0050
 70
0
  0
VERTEX
  8
20
 10
103.2000
 20
77.9975
 30
0.0000
 42
1.0000
  0
VERTEX
  8
20
 10
103.2000
 20
78.0025
 30
0.0000
  0
SEQEND
  8
0
  0
POLYLINE
  8
20
 66
1
 10
0.0000
 20
0.0000
 30
0.0000
 40
0.0050
 41
0.0050
 70
0
  0
VERTEX
  8
20
 10
27.8000
 20
78.0025
 30
0.0000
 42
1.0000
  0
VERTEX
  8
20
 10
27.8000
 20
77.9975
 30
0.0000
  0
SEQEND
  8
0
  0
POLYLINE
  8
20
 66
1
 10
0.0000
 20
0.0000
 30
0.0000
 40
0.0100
 41
0.0100
 70
0
  0
VERTEX
  8
20
 10
104.5000
 20
76.7000
 30
0.0000
  0
VERTEX
  8
20
 10
104.5000
 20
51.3000
 30
0.0000
  0
SEQEND
  8
0
  0
POLYLINE
  8
20
 66
1
 10
0.0000
 20
0.0000
 30
0.0000
 40
0.0050
 41
0.0050
 70
0
  0
VERTEX
  8
20
 10
104.4975
 20
51.3000
 30
0.0000
 42
1.0000
  0
VERTEX
  8
20
 10
104.5025
 20
51.3000
 30
0.0000
  0
SEQEND
  8
0
  0
POLYLINE
  8
20
 66
1
 10
0.0000
 20
0.0000
 30
0.0000
 40
0.0050
 41
0.0050
 70
0
  0
VERTEX
  8
20
 10
104.5025
 20
76.7000
 30
0.0000
 42
1.0000
  0
VERTEX
  8
20
 10
104.4975
 20
76.7000
 30
0.0000
  0
SEQEND
  8
0
  0
POLYLINE
  8
20
 66
1
 10
0.0000
 20
0.0000
 30
0.0000
 40
0.0100
 41
0.0100
 70
0
  0
VERTEX
  8
20
 10
104.5000
 20
51.3000
 30
0.0000
  0
VERTEX
  8
20
 10
104.5000
 20
50.0000
 30
0.0000
  0
SEQEND
  8
0
  0
POLYLINE
  8
20
 66
1
 10
0.0000
 20
0.0000
 30
0.0000
 40
0.0050
 41
0.0050
 70
0
  0
VERTEX
  8
20
 10
104.4975
 20
50.0000
 30
0.0000
 42
1.0000
  0
VERTEX
  8
20
 10
104.5025
 20
50.0000
 30
0.0000
  0
SEQEND
  8
0
  0
POLYLINE
  8
20
 66
1
 10
0.0000
 20
0.0000
 30
0.0000
 40
0.0050
 41
0.0050
 70
0
  0
VERTEX
  8
20
 10
104.5025
 20
51.3000
 30
0.0000
 42
1.0000
  0
VERTEX
  8
20
 10
104.4975
 20
51.3000
 30
0.0000
  0
SEQEND
  8
0
  0
POLYLINE
  8
20
 66
1
 10
0.0000
 20
0.0000
 30
0.0000
 40
0.0100
 41
0.0100
 70
0
  0
VERTEX
  8
20
 10
160.0000
 20
22.0000
 30
0.0000
  0
VERTEX
  8
20
 10
160.0000
 20
64.0000
 30
0.0000
  0
SEQEND
  8
0
  0
POLYLINE
  8
20
 66
1
 10
0.0000
 20
0.0000
 30
0.0000
 40
0.0050
 41
0.0050
 70
0
  0
VERTEX
  8
20
 10
160.0025
 20
64.0000
 30
0.0000
 42
1.0000
  0
VERTEX
  8
20
 10
159.9975
 20
64.0000
 30
0.0000
  0
SEQEND
  8
0
  0
POLYLINE
  8
20
 66
1
 10
0.0000
 20
0.0000
 30
0.0000
 40
0.0050
 41
0.0050
 70
0
  0
VERTEX
  8
20
 10
159.9975
 20
22.0000
 30
0.0000
 42
1.0000
  0
VERTEX
  8
20
 10
160.0025
 20
22.0000
 30
0.0000
  0
SEQEND
  8
0
  0
POLYLINE
  8
20
 66
1
 10
0.0000
 20
0.0000
 30
0.0000
 40
0.0100
 41
0.0100
 70
0
  0
VERTEX
  8
20
 10
128.0000
 20
100.0000
 30
0.0000
  0
VERTEX
  8
20
 10
80.0000
 20
100.0000
 30
0.0000
  0
SEQEND
  8
0
  0
POLYLINE
  8
20
 66
1
 10
0.0000
 20
0.0000
 30
0.0000
 40
0.0050
 41
0.0050
 70
0
  0
VERTEX
  8
20
 10
80.0000
 20
100.0025
 30
0.0000
 42
1.0000
  0
VERTEX
  8
20
 10
80.0000
 20
99.9975
 30
0.0000
  0
SEQEND
  8
0
  0
POLYLINE
  8
20
 66
1
 10
0.0000
 20
0.0000
 30
0.0000
 40
0.0050
 41
0.0050
 70
0
  0
VERTEX
  8
20
 10
128.0000
 20
99.9975
 30
0.0000
 42
1.0000
  0
VERTEX
  8
20
 10
128.0000
 20
100.0025
 30
0.0000
  0
SEQEND
  8
0
  0
POLYLINE
  8
20
 66
1
 10
0.0000
 20
0.0000
 30
0.0000
 40
0.0100
 41
0.0100
 70
0
  0
VERTEX
  8
20
 10
0.0000
 20
64.0000
 30
0.0000
  0
VERTEX
  8
20
 10
0.0000
 20
22.0000
 30
0.0000
  0
SEQEND
  8
0
  0
POLYLINE
  8
20
 66
1
 10
0.0000
 20
0.0000
 30
0.0000
 40
0.0050
 41
0.0050
 70
0
  0
VERTEX
  8
20
 10
-0.0025
 20
22.0000
 30
0.0000
 42
1.0000
  0
VERTEX
  8
20
 10
0.0025
 20
22.0000
 30
0.0000
  0
SEQEND
  8
0
  0
POLYLINE
  8
20
 66
1
 10
0.0000
 20
0.0000
 30
0.0000
 40
0.0050
 41
0.0050
 70
0
  0
VERTEX
  8
20
 10
0.0025
 20
64.0000
 30
0.0000
 42
1.0000
  0
VERTEX
  8
20
 10
-0.0025
 20
64.0000
 30
0.0000
  0
SEQEND
  8
0
  0
POLYLINE
  8
20
 66
1
 10
0.0000
 20
0.0000
 30
0.0000
 40
0.0100
 41
0.0100
 70
0
  0
VERTEX
  8
20
 10
26.5000
 20
51.3000
 30
0.0000
  0
VERTEX
  8
20
 10
26.5000
 20
76.7000
 30
0.0000
  0
SEQEND
  8
0
  0
POLYLINE
  8
20
 66
1
 10
0.0000
 20
0.0000
 30
0.0000
 40
0.0050
 41
0.0050
 70
0
  0
VERTEX
  8
20
 10
26.5025
 20
76.7000
 30
0.0000
 42
1.0000
  0
VERTEX
  8
20
 10
26.4975
 20
76.7000
 30
0.0000
  0
SEQEND
  8
0
  0
POLYLINE
  8
20
 66
1
 10
0.0000
 20
0.0000
 30
0.0000
 40
0.0050
 41
0.0050
 70
0
  0
VERTEX
  8
20
 10
26.4975
 20
51.3000
 30
0.0000
 42
1.0000
  0
VERTEX
  8
20
 10
26.5025
 20
51.3000
 30
0.0000
  0
SEQEND
  8
0
  0
POLYLINE
  8
20
 66
1
 10
0.0000
 20
0.0000
 30
0.0000
 40
0.0100
 41
0.0100
 70
0
  0
VERTEX
  8
20
 10
26.5000
 20
76.7000
 30
0.0000
  0
VERTEX
  8
20
 10
26.5000
 20
78.0000
 30
0.0000
  0
SEQEND
  8
0
  0
POLYLINE
  8
20
 66
1
 10
0.0000
 20
0.0000
 30
0.0000
 40
0.0050
 41
0.0050
 70
0
  0
VERTEX
  8
20
 10
26.5025
 20
78.0000
 30
0.0000
 42
1.0000
  0
VERTEX
  8
20
 10
26.4975
 20
78.0000
 30
0.0000
  0
SEQEND
  8
0
  0
POLYLINE
  8
20
 66
1
 10
0.0000
 20
0.0000
 30
0.0000
 40
0.0050
 41
0.0050
 70
0
  0
VERTEX
  8
20
 10
26.4975
 20
76.7000
 30
0.0000
 42
1.0000
  0
VERTEX
  8
20
 10
26.5025
 20
76.7000
 30
0.0000
  0
SEQEND
  8
0
  0
POLYLINE
  8
20
 66
1
 10
0.0000
 20
0.0000
 30
0.0000
 40
0.0100
 41
0.0100
 70
0
  0
VERTEX
  8
20
 10
104.5000
 20
50.0000
 30
0.0000
  0
VERTEX
  8
20
 10
103.2000
 20
50.0000
 30
0.0000
  0
SEQEND
  8
0
  0
POLYLINE
  8
20
 66
1
 10
0.0000
 20
0.0000
 30
0.0000
 40
0.0050
 41
0.0050
 70
0
  0
VERTEX
  8
20
 10
103.2000
 20
50.0025
 30
0.0000
 42
1.0000
  0
VERTEX
  8
20
 10
103.2000
 20
49.9975
 30
0.0000
  0
SEQEND
  8
0
  0
POLYLINE
  8
20
 66
1
 10
0.0000
 20
0.0000
 30
0.0000
 40
0.0050
 41
0.0050
 70
0
  0
VERTEX
  8
20
 10
104.5000
 20
49.9975
 30
0.0000
 42
1.0000
  0
VERTEX
  8
20
 10
104.5000
 20
50.0025
 30
0.0000
  0
SEQEND
  8
0
  0
POLYLINE
  8
20
 66
1
 10
0.0000
 20
0.0000
 30
0.0000
 40
0.0100
 41
0.0100
 70
0
  0
VERTEX
  8
20
 10
103.2000
 20
50.0000
 30
0.0000
  0
VERTEX
  8
20
 10
27.8000
 20
50.0000
 30
0.0000
  0
SEQEND
  8
0
  0
POLYLINE
  8
20
 66
1
 10
0.0000
 20
0.0000
 30
0.0000
 40
0.0050
 41
0.0050
 70
0
  0
VERTEX
  8
20
 10
27.8000
 20
50.0025
 30
0.0000
 42
1.0000
  0
VERTEX
  8
20
 10
27.8000
 20
49.9975
 30
0.0000
  0
SEQEND
  8
0
  0
POLYLINE
  8
20
 66
1
 10
0.0000
 20
0.0000
 30
0.0000
 40
0.0050
 41
0.0050
 70
0
  0
VERTEX
  8
20
 10
103.2000
 20
49.9975
 30
0.0000
 42
1.0000
  0
VERTEX
  8
20
 10
103.2000
 20
50.0025
 30
0.0000
  0
SEQEND
  8
0
  0
POLYLINE
  8
20
 66
1
 10
0.0000
 20
0.0000
 30
0.0000
 40
0.5080
 41
0.5080
 70
0
  0
VERTEX
  8
20
 10
27.3168
 20
6.1424
 30
0.0000
  0
VERTEX
  8
20
 10
26.9011
 20
6.5581
 30
0.0000
  0
SEQEND
  8
0
  0
POLYLINE
  8
20
 66
1
 10
0.0000
 20
0.0000
 30
0.0000
 40
0.2540
 41
0.2540
 70
0
  0
VERTEX
  8
20
 10
26.9909
 20
6.6479
 30
0.0000
 42
1.0000
  0
VERTEX
  8
20
 10
26.8113
 20
6.4683
 30
0.0000
  0
SEQEND
  8
0
  0
POLYLINE
  8
20
 66
1
 10
0.0000
 20
0.0000
 30
0.0000
 40
0.2540
 41
0.2540
 70
0
  0
VERTEX
  8
20
 10
27.2270
 20
6.0526
 30
0.0000
 42
1.0000
  0
VERTEX
  8
20
 10
27.4066
 20
6.2322
 30
0.0000
  0
SEQEND
  8
0
  0
POLYLINE
  8
20
 66
1
 10
0.0000
 20
0.0000
 30
0.0000
 40
0.5080
 41
0.5080
 70
0
  0
VERTEX
  8
20
 10
26.9011
 20
6.5581
 30
0.0000
  0
VERTEX
  8
20
 10
26.0697
 20
6.5581
 30
0.0000
  0
SEQEND
  8
0
  0
POLYLINE
  8
20
 66
1
 10
0.0000
 20
0.0000
 30
0.0000
 40
0.2540
 41
0.2540
 70
0
  0
VERTEX
  8
20
 10
26.0697
 20
6.6851
 30
0.0000
 42
1.0000
  0
VERTEX
  8
20
 10
26.0697
 20
6.4311
 30
0.0000
  0
SEQEND
  8
0
  0
POLYLINE
  8
20
 66
1
 10
0.0000
 20
0.0000
 30
0.0000
 40
0.2540
 41
0.2540
 70
0
  0
VERTEX
  8
20
 10
26.9011
 20
6.4311
 30
0.0000
 42
1.0000
  0
VERTEX
  8
20
 10
26.9011
 20
6.6851
 30
0.0000
  0
SEQEND
  8
0
  0
POLYLINE
  8
20
 66
1
 10
0.0000
 20
0.0000
 30
0.0000
 40
0.5080
 41
0.5080
 70
0
  0
VERTEX
  8
20
 10
26.0697
 20
6.5581
 30
0.0000
  0
VERTEX
  8
20
 10
25.6540
 20
6.1424
 30
0.0000
  0
SEQEND
  8
0
  0
POLYLINE
  8
20
 66
1
 10
0.0000
 20
0.0000
 30
0.0000
 40
0.2540
 41
0.2540
 70
0
  0
VERTEX
  8
20
 10
25.5642
 20
6.2322
 30
0.0000
 42
1.0000
  0
VERTEX
  8
20
 10
25.7438
 20
6.0526
 30
0.0000
  0
SEQEND
  8
0
  0
POLYLINE
  8
20
 66
1
 10
0.0000
 20
0.0000
 30
0.0000
 40
0.2540
 41
0.2540
 70
0
  0
VERTEX
  8
20
 10
26.1595
 20
6.4683
 30
0.0000
 42
1.0000
  0
VERTEX
  8
20
 10
25.9799
 20
6.6479
 30
0.0000
  0
SEQEND
  8
0
  0
POLYLINE
  8
20
 66
1
 10
0.0000
 20
0.0000
 30
0.0000
 40
0.5080
 41
0.5080
 70
0
  0
VERTEX
  8
20
 10
25.6540
 20
6.1424
 30
0.0000
  0
VERTEX
  8
20
 10
25.6540
 20
5.7268
 30
0.0000
  0
SEQEND
  8
0
  0
POLYLINE
  8
20
 66
1
 10
0.0000
 20
0.0000
 30
0.0000
 40
0.2540
 41
0.2540
 70
0
  0
VERTEX
  8
20
 10
25.5270
 20
5.7268
 30
0.0000
 42
1.0000
  0
VERTEX
  8
20
 10
25.7810
 20
5.7268
 30
0.0000
  0
SEQEND
  8
0
  0
POLYLINE
  8
20
 66
1
 10
0.0000
 20
0.0000
 30
0.0000
 40
0.2540
 41
0.2540
 70
0
  0
VERTEX
  8
20
 10
25.7810
 20
6.1424
 30
0.0000
 42
1.0000
  0
VERTEX
  8
20
 10
25.5270
 20
6.1424
 30
0.0000
  0
SEQEND
  8
0
  0
POLYLINE
  8
20
 66
1
 10
0.0000
 20
0.0000
 30
0.0000
 40
0.5080
 41
0.5080
 70
0
  0
VERTEX
  8
20
 10
25.6540
 20
5.7268
 30
0.0000
  0
VERTEX
  8
20
 10
26.0697
 20
5.3111
 30
0.0000
  0
SEQEND
  8
0
  0
POLYLINE
  8
20
 66
1
 10
0.0000
 20
0.0000
 30
0.0000
 40
0.2540
 41
0.2540
 70
0
  0
VERTEX
  8
20
 10
25.9799
 20
5.2213
 30
0.0000
 42
1.0000
  0
VERTEX
  8
20
 10
26.1595
 20
5.4009
 30
0.0000
  0
SEQEND
  8
0
  0
POLYLINE
  8
20
 66
1
 10
0.0000
 20
0.0000
 30
0.0000
 40
0.2540
 41
0.2540
 70
0
  0
VERTEX
  8
20
 10
25.7438
 20
5.8166
 30
0.0000
 42
1.0000
  0
VERTEX
  8
20
 10
25.5642
 20
5.6370
 30
0.0000
  0
SEQEND
  8
0
  0
POLYLINE
  8
20
 66
1
 10
0.0000
 20
0.0000
 30
0.0000
 40
0.5080
 41
0.5080
 70
0
  0
VERTEX
  8
20
 10
26.0697
 20
5.3111
 30
0.0000
  0
VERTEX
  8
20
 10
26.9011
 20
5.3111
 30
0.0000
  0
SEQEND
  8
0
  0
POLYLINE
  8
20
 66
1
 10
0.0000
 20
0.0000
 30
0.0000
 40
0.2540
 41
0.2540
 70
0
  0
VERTEX
  8
20
 10
26.9011
 20
5.1841
 30
0.0000
 42
1.0000
  0
VERTEX
  8
20
 10
26.9011
 20
5.4381
 30
0.0000
  0
SEQEND
  8
0
  0
POLYLINE
  8
20
 66
1
 10
0.0000
 20
0.0000
 30
0.0000
 40
0.2540
 41
0.2540
 70
0
  0
VERTEX
  8
20
 10
26.0697
 20
5.4381
 30
0.0000
 42
1.0000
  0
VERTEX
  8
20
 10
26.0697
 20
5.1841
 30
0.0000
  0
SEQEND
  8
0
  0
POLYLINE
  8
20
 66
1
 10
0.0000
 20
0.0000
 30
0.0000
 40
0.5080
 41
0.5080
 70
0
  0
VERTEX
  8
20
 10
26.9011
 20
5.3111
 30
0.0000
  0
VERTEX
  8
20
 10
27.3168
 20
4.8954
 30
0.0000
  0
SEQEND
  8
0
  0
POLYLINE
  8
20
 66
1
 10
0.0000
 20
0.0000
 30
0.0000
 40
0.2540
 41
0.2540
 70
0
  0
VERTEX
  8
20
 10
27.2270
 20
4.8056
 30
0.0000
 42
1.0000
  0
VERTEX
  8
20
 10
27.4066
 20
4.9852
 30
0.0000
  0
SEQEND
  8
0
  0
POLYLINE
  8
20
 66
1
 10
0.0000
 20
0.0000
 30
0.0000
 40
0.2540
 41
0.2540
 70
0
  0
VERTEX
  8
20
 10
26.9909
 20
5.4009
 30
0.0000
 42
1.0000
  0
VERTEX
  8
20
 10
26.8113
 20
5.2213
 30
0.0000
  0
SEQEND
  8
0
  0
POLYLINE
  8
20
 66
1
 10
0.0000
 20
0.0000
 30
0.0000
 40
0.5080
 41
0.5080
 70
0
  0
VERTEX
  8
20
 10
27.3168
 20
4.8954
 30
0.0000
  0
VERTEX
  8
20
 10
27.3168
 20
4.4797
 30
0.0000
  0
SEQEND
  8
0
  0
POLYLINE
  8
20
 66
1
 10
0.0000
 20
0.0000
 30
0.0000
 40
0.2540
 41
0.2540
 70
0
  0
VERTEX
  8
20
 10
27.1898
 20
4.4797
 30
0.0000
 42
1.0000
  0
VERTEX
  8
20
 10
27.4438
 20
4.4797
 30
0.0000
  0
SEQEND
  8
0
  0
POLYLINE
  8
20
 66
1
 10
0.0000
 20
0.0000
 30
0.0000
 40
0.2540
 41
0.2540
 70
0
  0
VERTEX
  8
20
 10
27.4438
 20
4.8954
 30
0.0000
 42
1.0000
  0
VERTEX
  8
20
 10
27.1898
 20
4.8954
 30
0.0000
  0
SEQEND
  8
0
  0
POLYLINE
  8
20
 66
1
 10
0.0000
 20
0.0000
 30
0.0000
 40
0.5080
 41
0.5080
 70
0
  0
VERTEX
  8
20
 10
27.3168
 20
4.4797
 30
0.0000
  0
VERTEX
  8
20
 10
26.9011
 20
4.0640
 30
0.0000
  0
SEQEND
  8
0
  0
POLYLINE
  8
20
 66
1
 10
0.0000
 20
0.0000
 30
0.0000
 40
0.2540
 41
0.2540
 70
0
  0
VERTEX
  8
20
 10
26.8113
 20
4.1538
 30
0.0000
 42
1.0000
  0
VERTEX
  8
20
 10
26.9909
 20
3.9742
 30
0.0000
  0
SEQEND
  8
0
  0
POLYLINE
  8
20
 66
1
 10
0.0000
 20
0.0000
 30
0.0000
 40
0.2540
 41
0.2540
 70
0
  0
VERTEX
  8
20
 10
27.4066
 20
4.3899
 30
0.0000
 42
1.0000
  0
VERTEX
  8
20
 10
27.2270
 20
4.5695
 30
0.0000
  0
SEQEND
  8
0
  0
POLYLINE
  8
20
 66
1
 10
0.0000
 20
0.0000
 30
0.0000
 40
0.5080
 41
0.5080
 70
0
  0
VERTEX
  8
20
 10
26.9011
 20
4.0640
 30
0.0000
  0
VERTEX
  8
20
 10
26.0697
 20
4.0640
 30
0.0000
  0
SEQEND
  8
0
  0
POLYLINE
  8
20
 66
1
 10
0.0000
 20
0.0000
 30
0.0000
 40
0.2540
 41
0.2540
 70
0
  0
VERTEX
  8
20
 10
26.0697
 20
4.1910
 30
0.0000
 42
1.0000
  0
VERTEX
  8
20
 10
26.0697
 20
3.9370
 30
0.0000
  0
SEQEND
  8
0
  0
POLYLINE
  8
20
 66
1
 10
0.0000
 20
0.0000
 30
0.0000
 40
0.2540
 41
0.2540
 70
0
  0
VERTEX
  8
20
 10
26.9011
 20
3.9370
 30
0.0000
 42
1.0000
  0
VERTEX
  8
20
 10
26.9011
 20
4.1910
 30
0.0000
  0
SEQEND
  8
0
  0
POLYLINE
  8
20
 66
1
 10
0.0000
 20
0.0000
 30
0.0000
 40
0.5080
 41
0.5080
 70
0
  0
VERTEX
  8
20
 10
26.0697
 20
4.0640
 30
0.0000
  0
VERTEX
  8
20
 10
25.6540
 20
4.4797
 30
0.0000
  0
SEQEND
  8
0
  0
POLYLINE
  8
20
 66
1
 10
0.0000
 20
0.0000
 30
0.0000
 40
0.2540
 41
0.2540
 70
0
  0
VERTEX
  8
20
 10
25.7438
 20
4.5695
 30
0.0000
 42
1.0000
  0
VERTEX
  8
20
 10
25.5642
 20
4.3899
 30
0.0000
  0
SEQEND
  8
0
  0
POLYLINE
  8
20
 66
1
 10
0.0000
 20
0.0000
 30
0.0000
 40
0.2540
 41
0.2540
 70
0
  0
VERTEX
  8
20
 10
25.9799
 20
3.9742
 30
0.0000
 42
1.0000
  0
VERTEX
  8
20
 10
26.1595
 20
4.1538
 30
0.0000
  0
SEQEND
  8
0
  0
POLYLINE
  8
20
 66
1
 10
0.0000
 20
0.0000
 30
0.0000
 40
0.5080
 41
0.5080
 70
0
  0
VERTEX
  8
20
 10
29.2477
 20
4.0640
 30
0.0000
  0
VERTEX
  8
20
 10
29.2477
 20
6.5581
 30
0.0000
  0
SEQEND
  8
0
  0
POLYLINE
  8
20
 66
1
 10
0.0000
 20
0.0000
 30
0.0000
 40
0.2540
 41
0.2540
 70
0
  0
VERTEX
  8
20
 10
29.3747
 20
6.5581
 30
0.0000
 42
1.0000
  0
VERTEX
  8
20
 10
29.1207
 20
6.5581
 30
0.0000
  0
SEQEND
  8
0
  0
POLYLINE
  8
20
 66
1
 10
0.0000
 20
0.0000
 30
0.0000
 40
0.2540
 41
0.2540
 70
0
  0
VERTEX
  8
20
 10
29.1207
 20
4.0640
 30
0.0000
 42
1.0000
  0
VERTEX
  8
20
 10
29.3747
 20
4.0640
 30
0.0000
  0
SEQEND
  8
0
  0
POLYLINE
  8
20
 66
1
 10
0.0000
 20
0.0000
 30
0.0000
 40
0.5080
 41
0.5080
 70
0
  0
VERTEX
  8
20
 10
28.4164
 20
6.5581
 30
0.0000
  0
VERTEX
  8
20
 10
30.0791
 20
6.5581
 30
0.0000
  0
SEQEND
  8
0
  0
POLYLINE
  8
20
 66
1
 10
0.0000
 20
0.0000
 30
0.0000
 40
0.2540
 41
0.2540
 70
0
  0
VERTEX
  8
20
 10
30.0791
 20
6.4311
 30
0.0000
 42
1.0000
  0
VERTEX
  8
20
 10
30.0791
 20
6.6851
 30
0.0000
  0
SEQEND
  8
0
  0
POLYLINE
  8
20
 66
1
 10
0.0000
 20
0.0000
 30
0.0000
 40
0.2540
 41
0.2540
 70
0
  0
VERTEX
  8
20
 10
28.4164
 20
6.6851
 30
0.0000
 42
1.0000
  0
VERTEX
  8
20
 10
28.4164
 20
6.4311
 30
0.0000
  0
SEQEND
  8
0
  0
POLYLINE
  8
20
 66
1
 10
0.0000
 20
0.0000
 30
0.0000
 40
0.5080
 41
0.5080
 70
0
  0
VERTEX
  8
20
 10
31.1787
 20
4.0640
 30
0.0000
  0
VERTEX
  8
20
 10
31.1787
 20
5.7268
 30
0.0000
  0
SEQEND
  8
0
  0
POLYLINE
  8
20
 66
1
 10
0.0000
 20
0.0000
 30
0.0000
 40
0.2540
 41
0.2540
 70
0
  0
VERTEX
  8
20
 10
31.3057
 20
5.7268
 30
0.0000
 42
1.0000
  0
VERTEX
  8
20
 10
31.0517
 20
5.7268
 30
0.0000
  0
SEQEND
  8
0
  0
POLYLINE
  8
20
 66
1
 10
0.0000
 20
0.0000
 30
0.0000
 40
0.2540
 41
0.2540
 70
0
  0
VERTEX
  8
20
 10
31.0517
 20
4.0640
 30
0.0000
 42
1.0000
  0
VERTEX
  8
20
 10
31.3057
 20
4.0640
 30
0.0000
  0
SEQEND
  8
0
  0
POLYLINE
  8
20
 66
1
 10
0.0000
 20
0.0000
 30
0.0000
 40
0.5080
 41
0.5080
 70
0
  0
VERTEX
  8
20
 10
31.1787
 20
5.7268
 30
0.0000
  0
VERTEX
  8
20
 10
32.0101
 20
6.5581
 30
0.0000
  0
SEQEND
  8
0
  0
POLYLINE
  8
20
 66
1
 10
0.0000
 20
0.0000
 30
0.0000
 40
0.2540
 41
0.2540
 70
0
  0
VERTEX
  8
20
 10
32.0999
 20
6.4683
 30
0.0000
 42
1.0000
  0
VERTEX
  8
20
 10
31.9203
 20
6.6479
 30
0.0000
  0
SEQEND
  8
0
  0
POLYLINE
  8
20
 66
1
 10
0.0000
 20
0.0000
 30
0.0000
 40
0.2540
 41
0.2540
 70
0
  0
VERTEX
  8
20
 10
31.0889
 20
5.8166
 30
0.0000
 42
1.0000
  0
VERTEX
  8
20
 10
31.2685
 20
5.6370
 30
0.0000
  0
SEQEND
  8
0
  0
POLYLINE
  8
20
 66
1
 10
0.0000
 20
0.0000
 30
0.0000
 40
0.5080
 41
0.5080
 70
0
  0
VERTEX
  8
20
 10
32.0101
 20
6.5581
 30
0.0000
  0
VERTEX
  8
20
 10
32.8415
 20
5.7268
 30
0.0000
  0
SEQEND
  8
0
  0
POLYLINE
  8
20
 66
1
 10
0.0000
 20
0.0000
 30
0.0000
 40
0.2540
 41
0.2540
 70
0
  0
VERTEX
  8
20
 10
32.7517
 20
5.6370
 30
0.0000
 42
1.0000
  0
VERTEX
  8
20
 10
32.9313
 20
5.8166
 30
0.0000
  0
SEQEND
  8
0
  0
POLYLINE
  8
20
 66
1
 10
0.0000
 20
0.0000
 30
0.0000
 40
0.2540
 41
0.2540
 70
0
  0
VERTEX
  8
20
 10
32.0999
 20
6.6479
 30
0.0000
 42
1.0000
  0
VERTEX
  8
20
 10
31.9203
 20
6.4683
 30
0.0000
  0
SEQEND
  8
0
  0
POLYLINE
  8
20
 66
1
 10
0.0000
 20
0.0000
 30
0.0000
 40
0.5080
 41
0.5080
 70
0
  0
VERTEX
  8
20
 10
32.8415
 20
5.7268
 30
0.0000
  0
VERTEX
  8
20
 10
32.8415
 20
4.0640
 30
0.0000
  0
SEQEND
  8
0
  0
POLYLINE
  8
20
 66
1
 10
0.0000
 20
0.0000
 30
0.0000
 40
0.2540
 41
0.2540
 70
0
  0
VERTEX
  8
20
 10
32.7145
 20
4.0640
 30
0.0000
 42
1.0000
  0
VERTEX
  8
20
 10
32.9685
 20
4.0640
 30
0.0000
  0
SEQEND
  8
0
  0
POLYLINE
  8
20
 66
1
 10
0.0000
 20
0.0000
 30
0.0000
 40
0.2540
 41
0.2540
 70
0
  0
VERTEX
  8
20
 10
32.9685
 20
5.7268
 30
0.0000
 42
1.0000
  0
VERTEX
  8
20
 10
32.7145
 20
5.7268
 30
0.0000
  0
SEQEND
  8
0
  0
POLYLINE
  8
20
 66
1
 10
0.0000
 20
0.0000
 30
0.0000
 40
0.5080
 41
0.5080
 70
0
  0
VERTEX
  8
20
 10
31.1787
 20
5.3111
 30
0.0000
  0
VERTEX
  8
20
 10
32.8415
 20
5.3111
 30
0.0000
  0
SEQEND
  8
0
  0
POLYLINE
  8
20
 66
1
 10
0.0000
 20
0.0000
 30
0.0000
 40
0.2540
 41
0.2540
 70
0
  0
VERTEX
  8
20
 10
32.8415
 20
5.1841
 30
0.0000
 42
1.0000
  0
VERTEX
  8
20
 10
32.8415
 20
5.4381
 30
0.0000
  0
SEQEND
  8
0
  0
POLYLINE
  8
20
 66
1
 10
0.0000
 20
0.0000
 30
0.0000
 40
0.2540
 41
0.2540
 70
0
  0
VERTEX
  8
20
 10
31.1787
 20
5.4381
 30
0.0000
 42
1.0000
  0
VERTEX
  8
20
 10
31.1787
 20
5.1841
 30
0.0000
  0
SEQEND
  8
0
  0
POLYLINE
  8
20
 66
1
 10
0.0000
 20
0.0000
 30
0.0000
 40
0.5080
 41
0.5080
 70
0
  0
VERTEX
  8
20
 10
33.9411
 20
4.0640
 30
0.0000
  0
VERTEX
  8
20
 10
33.9411
 20
6.5581
 30
0.0000
  0
SEQEND
  8
0
  0
POLYLINE
  8
20
 66
1
 10
0.0000
 20
0.0000
 30
0.0000
 40
0.2540
 41
0.2540
 70
0
  0
VERTEX
  8
20
 10
34.0681
 20
6.5581
 30
0.0000
 42
1.0000
  0
VERTEX
  8
20
 10
33.8141
 20
6.5581
 30
0.0000
  0
SEQEND
  8
0
  0
POLYLINE
  8
20
 66
1
 10
0.0000
 20
0.0000
 30
0.0000
 40
0.2540
 41
0.2540
 70
0
  0
VERTEX
  8
20
 10
33.8141
 20
4.0640
 30
0.0000
 42
1.0000
  0
VERTEX
  8
20
 10
34.0681
 20
4.0640
 30
0.0000
  0
SEQEND
  8
0
  0
POLYLINE
  8
20
 66
1
 10
0.0000
 20
0.0000
 30
0.0000
 40
0.5080
 41
0.5080
 70
0
  0
VERTEX
  8
20
 10
33.9411
 20
6.5581
 30
0.0000
  0
VERTEX
  8
20
 10
35.1881
 20
6.5581
 30
0.0000
  0
SEQEND
  8
0
  0
POLYLINE
  8
20
 66
1
 10
0.0000
 20
0.0000
 30
0.0000
 40
0.2540
 41
0.2540
 70
0
  0
VERTEX
  8
20
 10
35.1881
 20
6.4311
 30
0.0000
 42
1.0000
  0
VERTEX
  8
20
 10
35.1881
 20
6.6851
 30
0.0000
  0
SEQEND
  8
0
  0
POLYLINE
  8
20
 66
1
 10
0.0000
 20
0.0000
 30
0.0000
 40
0.2540
 41
0.2540
 70
0
  0
VERTEX
  8
20
 10
33.9411
 20
6.6851
 30
0.0000
 42
1.0000
  0
VERTEX
  8
20
 10
33.9411
 20
6.4311
 30
0.0000
  0
SEQEND
  8
0
  0
POLYLINE
  8
20
 66
1
 10
0.0000
 20
0.0000
 30
0.0000
 40
0.5080
 41
0.5080
 70
0
  0
VERTEX
  8
20
 10
35.1881
 20
6.5581
 30
0.0000
  0
VERTEX
  8
20
 10
35.6038
 20
6.1424
 30
0.0000
  0
SEQEND
  8
0
  0
POLYLINE
  8
20
 66
1
 10
0.0000
 20
0.0000
 30
0.0000
 40
0.2540
 41
0.2540
 70
0
  0
VERTEX
  8
20
 10
35.5140
 20
6.0526
 30
0.0000
 42
1.0000
  0
VERTEX
  8
20
 10
35.6936
 20
6.2322
 30
0.0000
  0
SEQEND
  8
0
  0
POLYLINE
  8
20
 66
1
 10
0.0000
 20
0.0000
 30
0.0000
 40
0.2540
 41
0.2540
 70
0
  0
VERTEX
  8
20
 10
35.2779
 20
6.6479
 30
0.0000
 42
1.0000
  0
VERTEX
  8
20
 10
35.0983
 20
6.4683
 30
0.0000
  0
SEQEND
  8
0
  0
POLYLINE
  8
20
 66
1
 10
0.0000
 20
0.0000
 30
0.0000
 40
0.5080
 41
0.5080
 70
0
  0
VERTEX
  8
20
 10
35.6038
 20
6.1424
 30
0.0000
  0
VERTEX
  8
20
 10
35.6038
 20
5.3111
 30
0.0000
  0
SEQEND
  8
0
  0
POLYLINE
  8
20
 66
1
 10
0.0000
 20
0.0000
 30
0.0000
 40
0.2540
 41
0.2540
 70
0
  0
VERTEX
  8
20
 10
35.4768
 20
5.3111
 30
0.0000
 42
1.0000
  0
VERTEX
  8
20
 10
35.7308
 20
5.3111
 30
0.0000
  0
SEQEND
  8
0
  0
POLYLINE
  8
20
 66
1
 10
0.0000
 20
0.0000
 30
0.0000
 40
0.2540
 41
0.2540
 70
0
  0
VERTEX
  8
20
 10
35.7308
 20
6.1424
 30
0.0000
 42
1.0000
  0
VERTEX
  8
20
 10
35.4768
 20
6.1424
 30
0.0000
  0
SEQEND
  8
0
  0
POLYLINE
  8
20
 66
1
 10
0.0000
 20
0.0000
 30
0.0000
 40
0.5080
 41
0.5080
 70
0
  0
VERTEX
  8
20
 10
35.6038
 20
5.3111
 30
0.0000
  0
VERTEX
  8
20
 10
35.1881
 20
4.8954
 30
0.0000
  0
SEQEND
  8
0
  0
POLYLINE
  8
20
 66
1
 10
0.0000
 20
0.0000
 30
0.0000
 40
0.2540
 41
0.2540
 70
0
  0
VERTEX
  8
20
 10
35.0983
 20
4.9852
 30
0.0000
 42
1.0000
  0
VERTEX
  8
20
 10
35.2779
 20
4.8056
 30
0.0000
  0
SEQEND
  8
0
  0
POLYLINE
  8
20
 66
1
 10
0.0000
 20
0.0000
 30
0.0000
 40
0.2540
 41
0.2540
 70
0
  0
VERTEX
  8
20
 10
35.6936
 20
5.2213
 30
0.0000
 42
1.0000
  0
VERTEX
  8
20
 10
35.5140
 20
5.4009
 30
0.0000
  0
SEQEND
  8
0
  0
POLYLINE
  8
20
 66
1
 10
0.0000
 20
0.0000
 30
0.0000
 40
0.5080
 41
0.5080
 70
0
  0
VERTEX
  8
20
 10
35.1881
 20
4.8954
 30
0.0000
  0
VERTEX
  8
20
 10
33.9411
 20
4.8954
 30
0.0000
  0
SEQEND
  8
0
  0
POLYLINE
  8
20
 66
1
 10
0.0000
 20
0.0000
 30
0.0000
 40
0.2540
 41
0.2540
 70
0
  0
VERTEX
  8
20
 10
33.9411
 20
5.0224
 30
0.0000
 42
1.0000
  0
VERTEX
  8
20
 10
33.9411
 20
4.7684
 30
0.0000
  0
SEQEND
  8
0
  0
POLYLINE
  8
20
 66
1
 10
0.0000
 20
0.0000
 30
0.0000
 40
0.2540
 41
0.2540
 70
0
  0
VERTEX
  8
20
 10
35.1881
 20
4.7684
 30
0.0000
 42
1.0000
  0
VERTEX
  8
20
 10
35.1881
 20
5.0224
 30
0.0000
  0
SEQEND
  8
0
  0
POLYLINE
  8
20
 66
1
 10
0.0000
 20
0.0000
 30
0.0000
 40
0.5080
 41
0.5080
 70
0
  0
VERTEX
  8
20
 10
34.7725
 20
4.8954
 30
0.0000
  0
VERTEX
  8
20
 10
35.6038
 20
4.0640
 30
0.0000
  0
SEQEND
  8
0
  0
POLYLINE
  8
20
 66
1
 10
0.0000
 20
0.0000
 30
0.0000
 40
0.2540
 41
0.2540
 70
0
  0
VERTEX
  8
20
 10
35.5140
 20
3.9742
 30
0.0000
 42
1.0000
  0
VERTEX
  8
20
 10
35.6936
 20
4.1538
 30
0.0000
  0
SEQEND
  8
0
  0
POLYLINE
  8
20
 66
1
 10
0.0000
 20
0.0000
 30
0.0000
 40
0.2540
 41
0.2540
 70
0
  0
VERTEX
  8
20
 10
34.8623
 20
4.9852
 30
0.0000
 42
1.0000
  0
VERTEX
  8
20
 10
34.6827
 20
4.8056
 30
0.0000
  0
SEQEND
  8
0
  0
POLYLINE
  8
20
 66
1
 10
0.0000
 20
0.0000
 30
0.0000
 40
0.5080
 41
0.5080
 70
0
  0
VERTEX
  8
20
 10
37.5348
 20
4.0640
 30
0.0000
  0
VERTEX
  8
20
 10
37.5348
 20
6.5581
 30
0.0000
  0
SEQEND
  8
0
  0
POLYLINE
  8
20
 66
1
 10
0.0000
 20
0.0000
 30
0.0000
 40
0.2540
 41
0.2540
 70
0
  0
VERTEX
  8
20
 10
37.6618
 20
6.5581
 30
0.0000
 42
1.0000
  0
VERTEX
  8
20
 10
37.4078
 20
6.5581
 30
0.0000
  0
SEQEND
  8
0
  0
POLYLINE
  8
20
 66
1
 10
0.0000
 20
0.0000
 30
0.0000
 40
0.2540
 41
0.2540
 70
0
  0
VERTEX
  8
20
 10
37.4078
 20
4.0640
 30
0.0000
 42
1.0000
  0
VERTEX
  8
20
 10
37.6618
 20
4.0640
 30
0.0000
  0
SEQEND
  8
0
  0
POLYLINE
  8
20
 66
1
 10
0.0000
 20
0.0000
 30
0.0000
 40
0.5080
 41
0.5080
 70
0
  0
VERTEX
  8
20
 10
36.7034
 20
6.5581
 30
0.0000
  0
VERTEX
  8
20
 10
38.3662
 20
6.5581
 30
0.0000
  0
SEQEND
  8
0
  0
POLYLINE
  8
20
 66
1
 10
0.0000
 20
0.0000
 30
0.0000
 40
0.2540
 41
0.2540
 70
0
  0
VERTEX
  8
20
 10
38.3662
 20
6.4311
 30
0.0000
 42
1.0000
  0
VERTEX
  8
20
 10
38.3662
 20
6.6851
 30
0.0000
  0
SEQEND
  8
0
  0
POLYLINE
  8
20
 66
1
 10
0.0000
 20
0.0000
 30
0.0000
 40
0.2540
 41
0.2540
 70
0
  0
VERTEX
  8
20
 10
36.7034
 20
6.6851
 30
0.0000
 42
1.0000
  0
VERTEX
  8
20
 10
36.7034
 20
6.4311
 30
0.0000
  0
SEQEND
  8
0
  0
POLYLINE
  8
20
 66
1
 10
0.0000
 20
0.0000
 30
0.0000
 40
0.5080
 41
0.5080
 70
0
  0
VERTEX
  8
20
 10
61.6068
 20
6.1424
 30
0.0000
  0
VERTEX
  8
20
 10
61.1911
 20
6.5581
 30
0.0000
  0
SEQEND
  8
0
  0
POLYLINE
  8
20
 66
1
 10
0.0000
 20
0.0000
 30
0.0000
 40
0.2540
 41
0.2540
 70
0
  0
VERTEX
  8
20
 10
61.2809
 20
6.6479
 30
0.0000
 42
1.0000
  0
VERTEX
  8
20
 10
61.1013
 20
6.4683
 30
0.0000
  0
SEQEND
  8
0
  0
POLYLINE
  8
20
 66
1
 10
0.0000
 20
0.0000
 30
0.0000
 40
0.2540
 41
0.2540
 70
0
  0
VERTEX
  8
20
 10
61.5170
 20
6.0526
 30
0.0000
 42
1.0000
  0
VERTEX
  8
20
 10
61.6966
 20
6.2322
 30
0.0000
  0
SEQEND
  8
0
  0
POLYLINE
  8
20
 66
1
 10
0.0000
 20
0.0000
 30
0.0000
 40
0.5080
 41
0.5080
 70
0
  0
VERTEX
  8
20
 10
61.1911
 20
6.5581
 30
0.0000
  0
VERTEX
  8
20
 10
60.3597
 20
6.5581
 30
0.0000
  0
SEQEND
  8
0
  0
POLYLINE
  8
20
 66
1
 10
0.0000
 20
0.0000
 30
0.0000
 40
0.2540
 41
0.2540
 70
0
  0
VERTEX
  8
20
 10
60.3597
 20
6.6851
 30
0.0000
 42
1.0000
  0
VERTEX
  8
20
 10
60.3597
 20
6.4311
 30
0.0000
  0
SEQEND
  8
0
  0
POLYLINE
  8
20
 66
1
 10
0.0000
 20
0.0000
 30
0.0000
 40
0.2540
 41
0.2540
 70
0
  0
VERTEX
  8
20
 10
61.1911
 20
6.4311
 30
0.0000
 42
1.0000
  0
VERTEX
  8
20
 10
61.1911
 20
6.6851
 30
0.0000
  0
SEQEND
  8
0
  0
POLYLINE
  8
20
 66
1
 10
0.0000
 20
0.0000
 30
0.0000
 40
0.5080
 41
0.5080
 70
0
  0
VERTEX
  8
20
 10
60.3597
 20
6.5581
 30
0.0000
  0
VERTEX
  8
20
 10
59.9440
 20
6.1424
 30
0.0000
  0
SEQEND
  8
0
  0
POLYLINE
  8
20
 66
1
 10
0.0000
 20
0.0000
 30
0.0000
 40
0.2540
 41
0.2540
 70
0
  0
VERTEX
  8
20
 10
59.8542
 20
6.2322
 30
0.0000
 42
1.0000
  0
VERTEX
  8
20
 10
60.0338
 20
6.0526
 30
0.0000
  0
SEQEND
  8
0
  0
POLYLINE
  8
20
 66
1
 10
0.0000
 20
0.0000
 30
0.0000
 40
0.2540
 41
0.2540
 70
0
  0
VERTEX
  8
20
 10
60.4495
 20
6.4683
 30
0.0000
 42
1.0000
  0
VERTEX
  8
20
 10
60.2699
 20
6.6479
 30
0.0000
  0
SEQEND
  8
0
  0
POLYLINE
  8
20
 66
1
 10
0.0000
 20
0.0000
 30
0.0000
 40
0.5080
 41
0.5080
 70
0
  0
VERTEX
  8
20
 10
59.9440
 20
6.1424
 30
0.0000
  0
VERTEX
  8
20
 10
59.9440
 20
4.4797
 30
0.0000
  0
SEQEND
  8
0
  0
POLYLINE
  8
20
 66
1
 10
0.0000
 20
0.0000
 30
0.0000
 40
0.2540
 41
0.2540
 70
0
  0
VERTEX
  8
20
 10
59.8170
 20
4.4797
 30
0.0000
 42
1.0000
  0
VERTEX
  8
20
 10
60.0710
 20
4.4797
 30
0.0000
  0
SEQEND
  8
0
  0
POLYLINE
  8
20
 66
1
 10
0.0000
 20
0.0000
 30
0.0000
 40
0.2540
 41
0.2540
 70
0
  0
VERTEX
  8
20
 10
60.0710
 20
6.1424
 30
0.0000
 42
1.0000
  0
VERTEX
  8
20
 10
59.8170
 20
6.1424
 30
0.0000
  0
SEQEND
  8
0
  0
POLYLINE
  8
20
 66
1
 10
0.0000
 20
0.0000
 30
0.0000
 40
0.5080
 41
0.5080
 70
0
  0
VERTEX
  8
20
 10
59.9440
 20
4.4797
 30
0.0000
  0
VERTEX
  8
20
 10
60.3597
 20
4.0640
 30
0.0000
  0
SEQEND
  8
0
  0
POLYLINE
  8
20
 66
1
 10
0.0000
 20
0.0000
 30
0.0000
 40
0.2540
 41
0.2540
 70
0
  0
VERTEX
  8
20
 10
60.2699
 20
3.9742
 30
0.0000
 42
1.0000
  0
VERTEX
  8
20
 10
60.4495
 20
4.1538
 30
0.0000
  0
SEQEND
  8
0
  0
POLYLINE
  8
20
 66
1
 10
0.0000
 20
0.0000
 30
0.0000
 40
0.2540
 41
0.2540
 70
0
  0
VERTEX
  8
20
 10
60.0338
 20
4.5695
 30
0.0000
 42
1.0000
  0
VERTEX
  8
20
 10
59.8542
 20
4.3899
 30
0.0000
  0
SEQEND
  8
0
  0
POLYLINE
  8
20
 66
1
 10
0.0000
 20
0.0000
 30
0.0000
 40
0.5080
 41
0.5080
 70
0
  0
VERTEX
  8
20
 10
60.3597
 20
4.0640
 30
0.0000
  0
VERTEX
  8
20
 10
61.1911
 20
4.0640
 30
0.0000
  0
SEQEND
  8
0
  0
POLYLINE
  8
20
 66
1
 10
0.0000
 20
0.0000
 30
0.0000
 40
0.2540
 41
0.2540
 70
0
  0
VERTEX
  8
20
 10
61.1911
 20
3.9370
 30
0.0000
 42
1.0000
  0
VERTEX
  8
20
 10
61.1911
 20
4.1910
 30
0.0000
  0
SEQEND
  8
0
  0
POLYLINE
  8
20
 66
1
 10
0.0000
 20
0.0000
 30
0.0000
 40
0.2540
 41
0.2540
 70
0
  0
VERTEX
  8
20
 10
60.3597
 20
4.1910
 30
0.0000
 42
1.0000
  0
VERTEX
  8
20
 10
60.3597
 20
3.9370
 30
0.0000
  0
SEQEND
  8
0
  0
POLYLINE
  8
20
 66
1
 10
0.0000
 20
0.0000
 30
0.0000
 40
0.5080
 41
0.5080
 70
0
  0
VERTEX
  8
20
 10
61.1911
 20
4.0640
 30
0.0000
  0
VERTEX
  8
20
 10
61.6068
 20
4.4797
 30
0.0000
  0
SEQEND
  8
0
  0
POLYLINE
  8
20
 66
1
 10
0.0000
 20
0.0000
 30
0.0000
 40
0.2540
 41
0.2540
 70
0
  0
VERTEX
  8
20
 10
61.6966
 20
4.3899
 30
0.0000
 42
1.0000
  0
VERTEX
  8
20
 10
61.5170
 20
4.5695
 30
0.0000
  0
SEQEND
  8
0
  0
POLYLINE
  8
20
 66
1
 10
0.0000
 20
0.0000
 30
0.0000
 40
0.2540
 41
0.2540
 70
0
  0
VERTEX
  8
20
 10
61.1013
 20
4.1538
 30
0.0000
 42
1.0000
  0
VERTEX
  8
20
 10
61.2809
 20
3.9742
 30
0.0000
  0
SEQEND
  8
0
  0
POLYLINE
  8
20
 66
1
 10
0.0000
 20
0.0000
 30
0.0000
 40
0.5080
 41
0.5080
 70
0
  0
VERTEX
  8
20
 10
61.6068
 20
4.4797
 30
0.0000
  0
VERTEX
  8
20
 10
61.6068
 20
5.3111
 30
0.0000
  0
SEQEND
  8
0
  0
POLYLINE
  8
20
 66
1
 10
0.0000
 20
0.0000
 30
0.0000
 40
0.2540
 41
0.2540
 70
0
  0
VERTEX
  8
20
 10
61.7338
 20
5.3111
 30
0.0000
 42
1.0000
  0
VERTEX
  8
20
 10
61.4798
 20
5.3111
 30
0.0000
  0
SEQEND
  8
0
  0
POLYLINE
  8
20
 66
1
 10
0.0000
 20
0.0000
 30
0.0000
 40
0.2540
 41
0.2540
 70
0
  0
VERTEX
  8
20
 10
61.4798
 20
4.4797
 30
0.0000
 42
1.0000
  0
VERTEX
  8
20
 10
61.7338
 20
4.4797
 30
0.0000
  0
SEQEND
  8
0
  0
POLYLINE
  8
20
 66
1
 10
0.0000
 20
0.0000
 30
0.0000
 40
0.5080
 41
0.5080
 70
0
  0
VERTEX
  8
20
 10
61.6068
 20
5.3111
 30
0.0000
  0
VERTEX
  8
20
 10
60.7754
 20
5.3111
 30
0.0000
  0
SEQEND
  8
0
  0
POLYLINE
  8
20
 66
1
 10
0.0000
 20
0.0000
 30
0.0000
 40
0.2540
 41
0.2540
 70
0
  0
VERTEX
  8
20
 10
60.7754
 20
5.4381
 30
0.0000
 42
1.0000
  0
VERTEX
  8
20
 10
60.7754
 20
5.1841
 30
0.0000
  0
SEQEND
  8
0
  0
POLYLINE
  8
20
 66
1
 10
0.0000
 20
0.0000
 30
0.0000
 40
0.2540
 41
0.2540
 70
0
  0
VERTEX
  8
20
 10
61.6068
 20
5.1841
 30
0.0000
 42
1.0000
  0
VERTEX
  8
20
 10
61.6068
 20
5.4381
 30
0.0000
  0
SEQEND
  8
0
  0
POLYLINE
  8
20
 66
1
 10
0.0000
 20
0.0000
 30
0.0000
 40
0.5080
 41
0.5080
 70
0
  0
VERTEX
  8
20
 10
63.9534
 20
6.5581
 30
0.0000
  0
VERTEX
  8
20
 10
63.1220
 20
6.5581
 30
0.0000
  0
SEQEND
  8
0
  0
POLYLINE
  8
20
 66
1
 10
0.0000
 20
0.0000
 30
0.0000
 40
0.2540
 41
0.2540
 70
0
  0
VERTEX
  8
20
 10
63.1220
 20
6.6851
 30
0.0000
 42
1.0000
  0
VERTEX
  8
20
 10
63.1220
 20
6.4311
 30
0.0000
  0
SEQEND
  8
0
  0
POLYLINE
  8
20
 66
1
 10
0.0000
 20
0.0000
 30
0.0000
 40
0.2540
 41
0.2540
 70
0
  0
VERTEX
  8
20
 10
63.9534
 20
6.4311
 30
0.0000
 42
1.0000
  0
VERTEX
  8
20
 10
63.9534
 20
6.6851
 30
0.0000
  0
SEQEND
  8
0
  0
POLYLINE
  8
20
 66
1
 10
0.0000
 20
0.0000
 30
0.0000
 40
0.5080
 41
0.5080
 70
0
  0
VERTEX
  8
20
 10
63.1220
 20
6.5581
 30
0.0000
  0
VERTEX
  8
20
 10
62.7064
 20
6.1424
 30
0.0000
  0
SEQEND
  8
0
  0
POLYLINE
  8
20
 66
1
 10
0.0000
 20
0.0000
 30
0.0000
 40
0.2540
 41
0.2540
 70
0
  0
VERTEX
  8
20
 10
62.6166
 20
6.2322
 30
0.0000
 42
1.0000
  0
VERTEX
  8
20
 10
62.7962
 20
6.0526
 30
0.0000
  0
SEQEND
  8
0
  0
POLYLINE
  8
20
 66
1
 10
0.0000
 20
0.0000
 30
0.0000
 40
0.2540
 41
0.2540
 70
0
  0
VERTEX
  8
20
 10
63.2118
 20
6.4683
 30
0.0000
 42
1.0000
  0
VERTEX
  8
20
 10
63.0322
 20
6.6479
 30
0.0000
  0
SEQEND
  8
0
  0
POLYLINE
  8
20
 66
1
 10
0.0000
 20
0.0000
 30
0.0000
 40
0.5080
 41
0.5080
 70
0
  0
VERTEX
  8
20
 10
62.7064
 20
6.1424
 30
0.0000
  0
VERTEX
  8
20
 10
62.7064
 20
4.4797
 30
0.0000
  0
SEQEND
  8
0
  0
POLYLINE
  8
20
 66
1
 10
0.0000
 20
0.0000
 30
0.0000
 40
0.2540
 41
0.2540
 70
0
  0
VERTEX
  8
20
 10
62.5794
 20
4.4797
 30
0.0000
 42
1.0000
  0
VERTEX
  8
20
 10
62.8334
 20
4.4797
 30
0.0000
  0
SEQEND
  8
0
  0
POLYLINE
  8
20
 66
1
 10
0.0000
 20
0.0000
 30
0.0000
 40
0.2540
 41
0.2540
 70
0
  0
VERTEX
  8
20
 10
62.8334
 20
6.1424
 30
0.0000
 42
1.0000
  0
VERTEX
  8
20
 10
62.5794
 20
6.1424
 30
0.0000
  0
SEQEND
  8
0
  0
POLYLINE
  8
20
 66
1
 10
0.0000
 20
0.0000
 30
0.0000
 40
0.5080
 41
0.5080
 70
0
  0
VERTEX
  8
20
 10
62.7064
 20
4.4797
 30
0.0000
  0
VERTEX
  8
20
 10
63.1220
 20
4.0640
 30
0.0000
  0
SEQEND
  8
0
  0
POLYLINE
  8
20
 66
1
 10
0.0000
 20
0.0000
 30
0.0000
 40
0.2540
 41
0.2540
 70
0
  0
VERTEX
  8
20
 10
63.0322
 20
3.9742
 30
0.0000
 42
1.0000
  0
VERTEX
  8
20
 10
63.2118
 20
4.1538
 30
0.0000
  0
SEQEND
  8
0
  0
POLYLINE
  8
20
 66
1
 10
0.0000
 20
0.0000
 30
0.0000
 40
0.2540
 41
0.2540
 70
0
  0
VERTEX
  8
20
 10
62.7962
 20
4.5695
 30
0.0000
 42
1.0000
  0
VERTEX
  8
20
 10
62.6166
 20
4.3899
 30
0.0000
  0
SEQEND
  8
0
  0
POLYLINE
  8
20
 66
1
 10
0.0000
 20
0.0000
 30
0.0000
 40
0.5080
 41
0.5080
 70
0
  0
VERTEX
  8
20
 10
63.1220
 20
4.0640
 30
0.0000
  0
VERTEX
  8
20
 10
63.9534
 20
4.0640
 30
0.0000
  0
SEQEND
  8
0
  0
POLYLINE
  8
20
 66
1
 10
0.0000
 20
0.0000
 30
0.0000
 40
0.2540
 41
0.2540
 70
0
  0
VERTEX
  8
20
 10
63.9534
 20
3.9370
 30
0.0000
 42
1.0000
  0
VERTEX
  8
20
 10
63.9534
 20
4.1910
 30
0.0000
  0
SEQEND
  8
0
  0
POLYLINE
  8
20
 66
1
 10
0.0000
 20
0.0000
 30
0.0000
 40
0.2540
 41
0.2540
 70
0
  0
VERTEX
  8
20
 10
63.1220
 20
4.1910
 30
0.0000
 42
1.0000
  0
VERTEX
  8
20
 10
63.1220
 20
3.9370
 30
0.0000
  0
SEQEND
  8
0
  0
POLYLINE
  8
20
 66
1
 10
0.0000
 20
0.0000
 30
0.0000
 40
0.5080
 41
0.5080
 70
0
  0
VERTEX
  8
20
 10
63.9534
 20
4.0640
 30
0.0000
  0
VERTEX
  8
20
 10
64.3691
 20
4.4797
 30
0.0000
  0
SEQEND
  8
0
  0
POLYLINE
  8
20
 66
1
 10
0.0000
 20
0.0000
 30
0.0000
 40
0.2540
 41
0.2540
 70
0
  0
VERTEX
  8
20
 10
64.4589
 20
4.3899
 30
0.0000
 42
1.0000
  0
VERTEX
  8
20
 10
64.2793
 20
4.5695
 30
0.0000
  0
SEQEND
  8
0
  0
POLYLINE
  8
20
 66
1
 10
0.0000
 20
0.0000
 30
0.0000
 40
0.2540
 41
0.2540
 70
0
  0
VERTEX
  8
20
 10
63.8636
 20
4.1538
 30
0.0000
 42
1.0000
  0
VERTEX
  8
20
 10
64.0432
 20
3.9742
 30
0.0000
  0
SEQEND
  8
0
  0
POLYLINE
  8
20
 66
1
 10
0.0000
 20
0.0000
 30
0.0000
 40
0.5080
 41
0.5080
 70
0
  0
VERTEX
  8
20
 10
64.3691
 20
4.4797
 30
0.0000
  0
VERTEX
  8
20
 10
64.3691
 20
6.1424
 30
0.0000
  0
SEQEND
  8
0
  0
POLYLINE
  8
20
 66
1
 10
0.0000
 20
0.0000
 30
0.0000
 40
0.2540
 41
0.2540
 70
0
  0
VERTEX
  8
20
 10
64.4961
 20
6.1424
 30
0.0000
 42
1.0000
  0
VERTEX
  8
20
 10
64.2421
 20
6.1424
 30
0.0000
  0
SEQEND
  8
0
  0
POLYLINE
  8
20
 66
1
 10
0.0000
 20
0.0000
 30
0.0000
 40
0.2540
 41
0.2540
 70
0
  0
VERTEX
  8
20
 10
64.2421
 20
4.4797
 30
0.0000
 42
1.0000
  0
VERTEX
  8
20
 10
64.4961
 20
4.4797
 30
0.0000
  0
SEQEND
  8
0
  0
POLYLINE
  8
20
 66
1
 10
0.0000
 20
0.0000
 30
0.0000
 40
0.5080
 41
0.5080
 70
0
  0
VERTEX
  8
20
 10
64.3691
 20
6.1424
 30
0.0000
  0
VERTEX
  8
20
 10
63.9534
 20
6.5581
 30
0.0000
  0
SEQEND
  8
0
  0
POLYLINE
  8
20
 66
1
 10
0.0000
 20
0.0000
 30
0.0000
 40
0.2540
 41
0.2540
 70
0
  0
VERTEX
  8
20
 10
64.0432
 20
6.6479
 30
0.0000
 42
1.0000
  0
VERTEX
  8
20
 10
63.8636
 20
6.4683
 30
0.0000
  0
SEQEND
  8
0
  0
POLYLINE
  8
20
 66
1
 10
0.0000
 20
0.0000
 30
0.0000
 40
0.2540
 41
0.2540
 70
0
  0
VERTEX
  8
20
 10
64.2793
 20
6.0526
 30
0.0000
 42
1.0000
  0
VERTEX
  8
20
 10
64.4589
 20
6.2322
 30
0.0000
  0
SEQEND
  8
0
  0
POLYLINE
  8
20
 66
1
 10
0.0000
 20
0.0000
 30
0.0000
 40
0.5080
 41
0.5080
 70
0
  0
VERTEX
  8
20
 10
65.4687
 20
4.0640
 30
0.0000
  0
VERTEX
  8
20
 10
65.4687
 20
5.7268
 30
0.0000
  0
SEQEND
  8
0
  0
POLYLINE
  8
20
 66
1
 10
0.0000
 20
0.0000
 30
0.0000
 40
0.2540
 41
0.2540
 70
0
  0
VERTEX
  8
20
 10
65.5957
 20
5.7268
 30
0.0000
 42
1.0000
  0
VERTEX
  8
20
 10
65.3417
 20
5.7268
 30
0.0000
  0
SEQEND
  8
0
  0
POLYLINE
  8
20
 66
1
 10
0.0000
 20
0.0000
 30
0.0000
 40
0.2540
 41
0.2540
 70
0
  0
VERTEX
  8
20
 10
65.3417
 20
4.0640
 30
0.0000
 42
1.0000
  0
VERTEX
  8
20
 10
65.5957
 20
4.0640
 30
0.0000
  0
SEQEND
  8
0
  0
POLYLINE
  8
20
 66
1
 10
0.0000
 20
0.0000
 30
0.0000
 40
0.5080
 41
0.5080
 70
0
  0
VERTEX
  8
20
 10
65.4687
 20
5.7268
 30
0.0000
  0
VERTEX
  8
20
 10
66.3001
 20
6.5581
 30
0.0000
  0
SEQEND
  8
0
  0
POLYLINE
  8
20
 66
1
 10
0.0000
 20
0.0000
 30
0.0000
 40
0.2540
 41
0.2540
 70
0
  0
VERTEX
  8
20
 10
66.3899
 20
6.4683
 30
0.0000
 42
1.0000
  0
VERTEX
  8
20
 10
66.2103
 20
6.6479
 30
0.0000
  0
SEQEND
  8
0
  0
POLYLINE
  8
20
 66
1
 10
0.0000
 20
0.0000
 30
0.0000
 40
0.2540
 41
0.2540
 70
0
  0
VERTEX
  8
20
 10
65.3789
 20
5.8166
 30
0.0000
 42
1.0000
  0
VERTEX
  8
20
 10
65.5585
 20
5.6370
 30
0.0000
  0
SEQEND
  8
0
  0
POLYLINE
  8
20
 66
1
 10
0.0000
 20
0.0000
 30
0.0000
 40
0.5080
 41
0.5080
 70
0
  0
VERTEX
  8
20
 10
66.3001
 20
6.5581
 30
0.0000
  0
VERTEX
  8
20
 10
67.1315
 20
5.7268
 30
0.0000
  0
SEQEND
  8
0
  0
POLYLINE
  8
20
 66
1
 10
0.0000
 20
0.0000
 30
0.0000
 40
0.2540
 41
0.2540
 70
0
  0
VERTEX
  8
20
 10
67.0417
 20
5.6370
 30
0.0000
 42
1.0000
  0
VERTEX
  8
20
 10
67.2213
 20
5.8166
 30
0.0000
  0
SEQEND
  8
0
  0
POLYLINE
  8
20
 66
1
 10
0.0000
 20
0.0000
 30
0.0000
 40
0.2540
 41
0.2540
 70
0
  0
VERTEX
  8
20
 10
66.3899
 20
6.6479
 30
0.0000
 42
1.0000
  0
VERTEX
  8
20
 10
66.2103
 20
6.4683
 30
0.0000
  0
SEQEND
  8
0
  0
POLYLINE
  8
20
 66
1
 10
0.0000
 20
0.0000
 30
0.0000
 40
0.5080
 41
0.5080
 70
0
  0
VERTEX
  8
20
 10
67.1315
 20
5.7268
 30
0.0000
  0
VERTEX
  8
20
 10
67.1315
 20
4.0640
 30
0.0000
  0
SEQEND
  8
0
  0
POLYLINE
  8
20
 66
1
 10
0.0000
 20
0.0000
 30
0.0000
 40
0.2540
 41
0.2540
 70
0
  0
VERTEX
  8
20
 10
67.0045
 20
4.0640
 30
0.0000
 42
1.0000
  0
VERTEX
  8
20
 10
67.2585
 20
4.0640
 30
0.0000
  0
SEQEND
  8
0
  0
POLYLINE
  8
20
 66
1
 10
0.0000
 20
0.0000
 30
0.0000
 40
0.2540
 41
0.2540
 70
0
  0
VERTEX
  8
20
 10
67.2585
 20
5.7268
 30
0.0000
 42
1.0000
  0
VERTEX
  8
20
 10
67.0045
 20
5.7268
 30
0.0000
  0
SEQEND
  8
0
  0
POLYLINE
  8
20
 66
1
 10
0.0000
 20
0.0000
 30
0.0000
 40
0.5080
 41
0.5080
 70
0
  0
VERTEX
  8
20
 10
65.4687
 20
5.3111
 30
0.0000
  0
VERTEX
  8
20
 10
67.1315
 20
5.3111
 30
0.0000
  0
SEQEND
  8
0
  0
POLYLINE
  8
20
 66
1
 10
0.0000
 20
0.0000
 30
0.0000
 40
0.2540
 41
0.2540
 70
0
  0
VERTEX
  8
20
 10
67.1315
 20
5.1841
 30
0.0000
 42
1.0000
  0
VERTEX
  8
20
 10
67.1315
 20
5.4381
 30
0.0000
  0
SEQEND
  8
0
  0
POLYLINE
  8
20
 66
1
 10
0.0000
 20
0.0000
 30
0.0000
 40
0.2540
 41
0.2540
 70
0
  0
VERTEX
  8
20
 10
65.4687
 20
5.4381
 30
0.0000
 42
1.0000
  0
VERTEX
  8
20
 10
65.4687
 20
5.1841
 30
0.0000
  0
SEQEND
  8
0
  0
POLYLINE
  8
20
 66
1
 10
0.0000
 20
0.0000
 30
0.0000
 40
0.5080
 41
0.5080
 70
0
  0
VERTEX
  8
20
 10
68.2311
 20
6.5581
 30
0.0000
  0
VERTEX
  8
20
 10
68.2311
 20
4.0640
 30
0.0000
  0
SEQEND
  8
0
  0
POLYLINE
  8
20
 66
1
 10
0.0000
 20
0.0000
 30
0.0000
 40
0.2540
 41
0.2540
 70
0
  0
VERTEX
  8
20
 10
68.1041
 20
4.0640
 30
0.0000
 42
1.0000
  0
VERTEX
  8
20
 10
68.3581
 20
4.0640
 30
0.0000
  0
SEQEND
  8
0
  0
POLYLINE
  8
20
 66
1
 10
0.0000
 20
0.0000
 30
0.0000
 40
0.2540
 41
0.2540
 70
0
  0
VERTEX
  8
20
 10
68.3581
 20
6.5581
 30
0.0000
 42
1.0000
  0
VERTEX
  8
20
 10
68.1041
 20
6.5581
 30
0.0000
  0
SEQEND
  8
0
  0
POLYLINE
  8
20
 66
1
 10
0.0000
 20
0.0000
 30
0.0000
 40
0.5080
 41
0.5080
 70
0
  0
VERTEX
  8
20
 10
68.2311
 20
4.0640
 30
0.0000
  0
VERTEX
  8
20
 10
69.8938
 20
4.0640
 30
0.0000
  0
SEQEND
  8
0
  0
POLYLINE
  8
20
 66
1
 10
0.0000
 20
0.0000
 30
0.0000
 40
0.2540
 41
0.2540
 70
0
  0
VERTEX
  8
20
 10
69.8938
 20
3.9370
 30
0.0000
 42
1.0000
  0
VERTEX
  8
20
 10
69.8938
 20
4.1910
 30
0.0000
  0
SEQEND
  8
0
  0
POLYLINE
  8
20
 66
1
 10
0.0000
 20
0.0000
 30
0.0000
 40
0.2540
 41
0.2540
 70
0
  0
VERTEX
  8
20
 10
68.2311
 20
4.1910
 30
0.0000
 42
1.0000
  0
VERTEX
  8
20
 10
68.2311
 20
3.9370
 30
0.0000
  0
SEQEND
  8
0
  0
POLYLINE
  8
20
 66
1
 10
0.0000
 20
0.0000
 30
0.0000
 40
0.5080
 41
0.5080
 70
0
  0
VERTEX
  8
20
 10
92.9640
 20
4.0640
 30
0.0000
  0
VERTEX
  8
20
 10
92.9640
 20
5.7268
 30
0.0000
  0
SEQEND
  8
0
  0
POLYLINE
  8
20
 66
1
 10
0.0000
 20
0.0000
 30
0.0000
 40
0.2540
 41
0.2540
 70
0
  0
VERTEX
  8
20
 10
93.0910
 20
5.7268
 30
0.0000
 42
1.0000
  0
VERTEX
  8
20
 10
92.8370
 20
5.7268
 30
0.0000
  0
SEQEND
  8
0
  0
POLYLINE
  8
20
 66
1
 10
0.0000
 20
0.0000
 30
0.0000
 40
0.2540
 41
0.2540
 70
0
  0
VERTEX
  8
20
 10
92.8370
 20
4.0640
 30
0.0000
 42
1.0000
  0
VERTEX
  8
20
 10
93.0910
 20
4.0640
 30
0.0000
  0
SEQEND
  8
0
  0
POLYLINE
  8
20
 66
1
 10
0.0000
 20
0.0000
 30
0.0000
 40
0.5080
 41
0.5080
 70
0
  0
VERTEX
  8
20
 10
92.9640
 20
5.7268
 30
0.0000
  0
VERTEX
  8
20
 10
93.7954
 20
6.5581
 30
0.0000
  0
SEQEND
  8
0
  0
POLYLINE
  8
20
 66
1
 10
0.0000
 20
0.0000
 30
0.0000
 40
0.2540
 41
0.2540
 70
0
  0
VERTEX
  8
20
 10
93.8852
 20
6.4683
 30
0.0000
 42
1.0000
  0
VERTEX
  8
20
 10
93.7056
 20
6.6479
 30
0.0000
  0
SEQEND
  8
0
  0
POLYLINE
  8
20
 66
1
 10
0.0000
 20
0.0000
 30
0.0000
 40
0.2540
 41
0.2540
 70
0
  0
VERTEX
  8
20
 10
92.8742
 20
5.8166
 30
0.0000
 42
1.0000
  0
VERTEX
  8
20
 10
93.0538
 20
5.6370
 30
0.0000
  0
SEQEND
  8
0
  0
POLYLINE
  8
20
 66
1
 10
0.0000
 20
0.0000
 30
0.0000
 40
0.5080
 41
0.5080
 70
0
  0
VERTEX
  8
20
 10
93.7954
 20
6.5581
 30
0.0000
  0
VERTEX
  8
20
 10
94.6268
 20
5.7268
 30
0.0000
  0
SEQEND
  8
0
  0
POLYLINE
  8
20
 66
1
 10
0.0000
 20
0.0000
 30
0.0000
 40
0.2540
 41
0.2540
 70
0
  0
VERTEX
  8
20
 10
94.5370
 20
5.6370
 30
0.0000
 42
1.0000
  0
VERTEX
  8
20
 10
94.7166
 20
5.8166
 30
0.0000
  0
SEQEND
  8
0
  0
POLYLINE
  8
20
 66
1
 10
0.0000
 20
0.0000
 30
0.0000
 40
0.2540
 41
0.2540
 70
0
  0
VERTEX
  8
20
 10
93.8852
 20
6.6479
 30
0.0000
 42
1.0000
  0
VERTEX
  8
20
 10
93.7056
 20
6.4683
 30
0.0000
  0
SEQEND
  8
0
  0
POLYLINE
  8
20
 66
1
 10
0.0000
 20
0.0000
 30
0.0000
 40
0.5080
 41
0.5080
 70
0
  0
VERTEX
  8
20
 10
94.6268
 20
5.7268
 30
0.0000
  0
VERTEX
  8
20
 10
94.6268
 20
4.0640
 30
0.0000
  0
SEQEND
  8
0
  0
POLYLINE
  8
20
 66
1
 10
0.0000
 20
0.0000
 30
0.0000
 40
0.2540
 41
0.2540
 70
0
  0
VERTEX
  8
20
 10
94.4998
 20
4.0640
 30
0.0000
 42
1.0000
  0
VERTEX
  8
20
 10
94.7538
 20
4.0640
 30
0.0000
  0
SEQEND
  8
0
  0
POLYLINE
  8
20
 66
1
 10
0.0000
 20
0.0000
 30
0.0000
 40
0.2540
 41
0.2540
 70
0
  0
VERTEX
  8
20
 10
94.7538
 20
5.7268
 30
0.0000
 42
1.0000
  0
VERTEX
  8
20
 10
94.4998
 20
5.7268
 30
0.0000
  0
SEQEND
  8
0
  0
POLYLINE
  8
20
 66
1
 10
0.0000
 20
0.0000
 30
0.0000
 40
0.5080
 41
0.5080
 70
0
  0
VERTEX
  8
20
 10
92.9640
 20
5.3111
 30
0.0000
  0
VERTEX
  8
20
 10
94.6268
 20
5.3111
 30
0.0000
  0
SEQEND
  8
0
  0
POLYLINE
  8
20
 66
1
 10
0.0000
 20
0.0000
 30
0.0000
 40
0.2540
 41
0.2540
 70
0
  0
VERTEX
  8
20
 10
94.6268
 20
5.1841
 30
0.0000
 42
1.0000
  0
VERTEX
  8
20
 10
94.6268
 20
5.4381
 30
0.0000
  0
SEQEND
  8
0
  0
POLYLINE
  8
20
 66
1
 10
0.0000
 20
0.0000
 30
0.0000
 40
0.2540
 41
0.2540
 70
0
  0
VERTEX
  8
20
 10
92.9640
 20
5.4381
 30
0.0000
 42
1.0000
  0
VERTEX
  8
20
 10
92.9640
 20
5.1841
 30
0.0000
  0
SEQEND
  8
0
  0
POLYLINE
  8
20
 66
1
 10
0.0000
 20
0.0000
 30
0.0000
 40
0.5080
 41
0.5080
 70
0
  0
VERTEX
  8
20
 10
95.7264
 20
4.0640
 30
0.0000
  0
VERTEX
  8
20
 10
95.7264
 20
6.5581
 30
0.0000
  0
SEQEND
  8
0
  0
POLYLINE
  8
20
 66
1
 10
0.0000
 20
0.0000
 30
0.0000
 40
0.2540
 41
0.2540
 70
0
  0
VERTEX
  8
20
 10
95.8534
 20
6.5581
 30
0.0000
 42
1.0000
  0
VERTEX
  8
20
 10
95.5994
 20
6.5581
 30
0.0000
  0
SEQEND
  8
0
  0
POLYLINE
  8
20
 66
1
 10
0.0000
 20
0.0000
 30
0.0000
 40
0.2540
 41
0.2540
 70
0
  0
VERTEX
  8
20
 10
95.5994
 20
4.0640
 30
0.0000
 42
1.0000
  0
VERTEX
  8
20
 10
95.8534
 20
4.0640
 30
0.0000
  0
SEQEND
  8
0
  0
POLYLINE
  8
20
 66
1
 10
0.0000
 20
0.0000
 30
0.0000
 40
0.5080
 41
0.5080
 70
0
  0
VERTEX
  8
20
 10
95.7264
 20
6.5581
 30
0.0000
  0
VERTEX
  8
20
 10
96.9734
 20
6.5581
 30
0.0000
  0
SEQEND
  8
0
  0
POLYLINE
  8
20
 66
1
 10
0.0000
 20
0.0000
 30
0.0000
 40
0.2540
 41
0.2540
 70
0
  0
VERTEX
  8
20
 10
96.9734
 20
6.4311
 30
0.0000
 42
1.0000
  0
VERTEX
  8
20
 10
96.9734
 20
6.6851
 30
0.0000
  0
SEQEND
  8
0
  0
POLYLINE
  8
20
 66
1
 10
0.0000
 20
0.0000
 30
0.0000
 40
0.2540
 41
0.2540
 70
0
  0
VERTEX
  8
20
 10
95.7264
 20
6.6851
 30
0.0000
 42
1.0000
  0
VERTEX
  8
20
 10
95.7264
 20
6.4311
 30
0.0000
  0
SEQEND
  8
0
  0
POLYLINE
  8
20
 66
1
 10
0.0000
 20
0.0000
 30
0.0000
 40
0.5080
 41
0.5080
 70
0
  0
VERTEX
  8
20
 10
96.9734
 20
6.5581
 30
0.0000
  0
VERTEX
  8
20
 10
97.3891
 20
6.1424
 30
0.0000
  0
SEQEND
  8
0
  0
POLYLINE
  8
20
 66
1
 10
0.0000
 20
0.0000
 30
0.0000
 40
0.2540
 41
0.2540
 70
0
  0
VERTEX
  8
20
 10
97.2993
 20
6.0526
 30
0.0000
 42
1.0000
  0
VERTEX
  8
20
 10
97.4789
 20
6.2322
 30
0.0000
  0
SEQEND
  8
0
  0
POLYLINE
  8
20
 66
1
 10
0.0000
 20
0.0000
 30
0.0000
 40
0.2540
 41
0.2540
 70
0
  0
VERTEX
  8
20
 10
97.0632
 20
6.6479
 30
0.0000
 42
1.0000
  0
VERTEX
  8
20
 10
96.8836
 20
6.4683
 30
0.0000
  0
SEQEND
  8
0
  0
POLYLINE
  8
20
 66
1
 10
0.0000
 20
0.0000
 30
0.0000
 40
0.5080
 41
0.5080
 70
0
  0
VERTEX
  8
20
 10
97.3891
 20
6.1424
 30
0.0000
  0
VERTEX
  8
20
 10
97.3891
 20
5.3111
 30
0.0000
  0
SEQEND
  8
0
  0
POLYLINE
  8
20
 66
1
 10
0.0000
 20
0.0000
 30
0.0000
 40
0.2540
 41
0.2540
 70
0
  0
VERTEX
  8
20
 10
97.2621
 20
5.3111
 30
0.0000
 42
1.0000
  0
VERTEX
  8
20
 10
97.5161
 20
5.3111
 30
0.0000
  0
SEQEND
  8
0
  0
POLYLINE
  8
20
 66
1
 10
0.0000
 20
0.0000
 30
0.0000
 40
0.2540
 41
0.2540
 70
0
  0
VERTEX
  8
20
 10
97.5161
 20
6.1424
 30
0.0000
 42
1.0000
  0
VERTEX
  8
20
 10
97.2621
 20
6.1424
 30
0.0000
  0
SEQEND
  8
0
  0
POLYLINE
  8
20
 66
1
 10
0.0000
 20
0.0000
 30
0.0000
 40
0.5080
 41
0.5080
 70
0
  0
VERTEX
  8
20
 10
97.3891
 20
5.3111
 30
0.0000
  0
VERTEX
  8
20
 10
96.9734
 20
4.8954
 30
0.0000
  0
SEQEND
  8
0
  0
POLYLINE
  8
20
 66
1
 10
0.0000
 20
0.0000
 30
0.0000
 40
0.2540
 41
0.2540
 70
0
  0
VERTEX
  8
20
 10
96.8836
 20
4.9852
 30
0.0000
 42
1.0000
  0
VERTEX
  8
20
 10
97.0632
 20
4.8056
 30
0.0000
  0
SEQEND
  8
0
  0
POLYLINE
  8
20
 66
1
 10
0.0000
 20
0.0000
 30
0.0000
 40
0.2540
 41
0.2540
 70
0
  0
VERTEX
  8
20
 10
97.4789
 20
5.2213
 30
0.0000
 42
1.0000
  0
VERTEX
  8
20
 10
97.2993
 20
5.4009
 30
0.0000
  0
SEQEND
  8
0
  0
POLYLINE
  8
20
 66
1
 10
0.0000
 20
0.0000
 30
0.0000
 40
0.5080
 41
0.5080
 70
0
  0
VERTEX
  8
20
 10
96.9734
 20
4.8954
 30
0.0000
  0
VERTEX
  8
20
 10
95.7264
 20
4.8954
 30
0.0000
  0
SEQEND
  8
0
  0
POLYLINE
  8
20
 66
1
 10
0.0000
 20
0.0000
 30
0.0000
 40
0.2540
 41
0.2540
 70
0
  0
VERTEX
  8
20
 10
95.7264
 20
5.0224
 30
0.0000
 42
1.0000
  0
VERTEX
  8
20
 10
95.7264
 20
4.7684
 30
0.0000
  0
SEQEND
  8
0
  0
POLYLINE
  8
20
 66
1
 10
0.0000
 20
0.0000
 30
0.0000
 40
0.2540
 41
0.2540
 70
0
  0
VERTEX
  8
20
 10
96.9734
 20
4.7684
 30
0.0000
 42
1.0000
  0
VERTEX
  8
20
 10
96.9734
 20
5.0224
 30
0.0000
  0
SEQEND
  8
0
  0
POLYLINE
  8
20
 66
1
 10
0.0000
 20
0.0000
 30
0.0000
 40
0.5080
 41
0.5080
 70
0
  0
VERTEX
  8
20
 10
96.5577
 20
4.8954
 30
0.0000
  0
VERTEX
  8
20
 10
97.3891
 20
4.0640
 30
0.0000
  0
SEQEND
  8
0
  0
POLYLINE
  8
20
 66
1
 10
0.0000
 20
0.0000
 30
0.0000
 40
0.2540
 41
0.2540
 70
0
  0
VERTEX
  8
20
 10
97.2993
 20
3.9742
 30
0.0000
 42
1.0000
  0
VERTEX
  8
20
 10
97.4789
 20
4.1538
 30
0.0000
  0
SEQEND
  8
0
  0
POLYLINE
  8
20
 66
1
 10
0.0000
 20
0.0000
 30
0.0000
 40
0.2540
 41
0.2540
 70
0
  0
VERTEX
  8
20
 10
96.6475
 20
4.9852
 30
0.0000
 42
1.0000
  0
VERTEX
  8
20
 10
96.4679
 20
4.8056
 30
0.0000
  0
SEQEND
  8
0
  0
POLYLINE
  8
20
 66
1
 10
0.0000
 20
0.0000
 30
0.0000
 40
0.5080
 41
0.5080
 70
0
  0
VERTEX
  8
20
 10
98.4887
 20
4.0640
 30
0.0000
  0
VERTEX
  8
20
 10
98.4887
 20
6.5581
 30
0.0000
  0
SEQEND
  8
0
  0
POLYLINE
  8
20
 66
1
 10
0.0000
 20
0.0000
 30
0.0000
 40
0.2540
 41
0.2540
 70
0
  0
VERTEX
  8
20
 10
98.6157
 20
6.5581
 30
0.0000
 42
1.0000
  0
VERTEX
  8
20
 10
98.3617
 20
6.5581
 30
0.0000
  0
SEQEND
  8
0
  0
POLYLINE
  8
20
 66
1
 10
0.0000
 20
0.0000
 30
0.0000
 40
0.2540
 41
0.2540
 70
0
  0
VERTEX
  8
20
 10
98.3617
 20
4.0640
 30
0.0000
 42
1.0000
  0
VERTEX
  8
20
 10
98.6157
 20
4.0640
 30
0.0000
  0
SEQEND
  8
0
  0
POLYLINE
  8
20
 66
1
 10
0.0000
 20
0.0000
 30
0.0000
 40
0.5080
 41
0.5080
 70
0
  0
VERTEX
  8
20
 10
98.4887
 20
6.5581
 30
0.0000
  0
VERTEX
  8
20
 10
99.3201
 20
5.7268
 30
0.0000
  0
SEQEND
  8
0
  0
POLYLINE
  8
20
 66
1
 10
0.0000
 20
0.0000
 30
0.0000
 40
0.2540
 41
0.2540
 70
0
  0
VERTEX
  8
20
 10
99.2303
 20
5.6370
 30
0.0000
 42
1.0000
  0
VERTEX
  8
20
 10
99.4099
 20
5.8166
 30
0.0000
  0
SEQEND
  8
0
  0
POLYLINE
  8
20
 66
1
 10
0.0000
 20
0.0000
 30
0.0000
 40
0.2540
 41
0.2540
 70
0
  0
VERTEX
  8
20
 10
98.5785
 20
6.6479
 30
0.0000
 42
1.0000
  0
VERTEX
  8
20
 10
98.3989
 20
6.4683
 30
0.0000
  0
SEQEND
  8
0
  0
POLYLINE
  8
20
 66
1
 10
0.0000
 20
0.0000
 30
0.0000
 40
0.5080
 41
0.5080
 70
0
  0
VERTEX
  8
20
 10
99.3201
 20
5.7268
 30
0.0000
  0
VERTEX
  8
20
 10
100.1515
 20
6.5581
 30
0.0000
  0
SEQEND
  8
0
  0
POLYLINE
  8
20
 66
1
 10
0.0000
 20
0.0000
 30
0.0000
 40
0.2540
 41
0.2540
 70
0
  0
VERTEX
  8
20
 10
100.2413
 20
6.4683
 30
0.0000
 42
1.0000
  0
VERTEX
  8
20
 10
100.0617
 20
6.6479
 30
0.0000
  0
SEQEND
  8
0
  0
POLYLINE
  8
20
 66
1
 10
0.0000
 20
0.0000
 30
0.0000
 40
0.2540
 41
0.2540
 70
0
  0
VERTEX
  8
20
 10
99.2303
 20
5.8166
 30
0.0000
 42
1.0000
  0
VERTEX
  8
20
 10
99.4099
 20
5.6370
 30
0.0000
  0
SEQEND
  8
0
  0
POLYLINE
  8
20
 66
1
 10
0.0000
 20
0.0000
 30
0.0000
 40
0.5080
 41
0.5080
 70
0
  0
VERTEX
  8
20
 10
100.1515
 20
6.5581
 30
0.0000
  0
VERTEX
  8
20
 10
100.1515
 20
4.0640
 30
0.0000
  0
SEQEND
  8
0
  0
POLYLINE
  8
20
 66
1
 10
0.0000
 20
0.0000
 30
0.0000
 40
0.2540
 41
0.2540
 70
0
  0
VERTEX
  8
20
 10
100.0245
 20
4.0640
 30
0.0000
 42
1.0000
  0
VERTEX
  8
20
 10
100.2785
 20
4.0640
 30
0.0000
  0
SEQEND
  8
0
  0
POLYLINE
  8
20
 66
1
 10
0.0000
 20
0.0000
 30
0.0000
 40
0.2540
 41
0.2540
 70
0
  0
VERTEX
  8
20
 10
100.2785
 20
6.5581
 30
0.0000
 42
1.0000
  0
VERTEX
  8
20
 10
100.0245
 20
6.5581
 30
0.0000
  0
SEQEND
  8
0
  0
POLYLINE
  8
20
 66
1
 10
0.0000
 20
0.0000
 30
0.0000
 40
0.5080
 41
0.5080
 70
0
  0
VERTEX
  8
20
 10
122.1740
 20
4.0640
 30
0.0000
  0
VERTEX
  8
20
 10
122.1740
 20
6.5581
 30
0.0000
  0
SEQEND
  8
0
  0
POLYLINE
  8
20
 66
1
 10
0.0000
 20
0.0000
 30
0.0000
 40
0.2540
 41
0.2540
 70
0
  0
VERTEX
  8
20
 10
122.3010
 20
6.5581
 30
0.0000
 42
1.0000
  0
VERTEX
  8
20
 10
122.0470
 20
6.5581
 30
0.0000
  0
SEQEND
  8
0
  0
POLYLINE
  8
20
 66
1
 10
0.0000
 20
0.0000
 30
0.0000
 40
0.2540
 41
0.2540
 70
0
  0
VERTEX
  8
20
 10
122.0470
 20
4.0640
 30
0.0000
 42
1.0000
  0
VERTEX
  8
20
 10
122.3010
 20
4.0640
 30
0.0000
  0
SEQEND
  8
0
  0
POLYLINE
  8
20
 66
1
 10
0.0000
 20
0.0000
 30
0.0000
 40
0.5080
 41
0.5080
 70
0
  0
VERTEX
  8
20
 10
122.1740
 20
6.5581
 30
0.0000
  0
VERTEX
  8
20
 10
123.4211
 20
6.5581
 30
0.0000
  0
SEQEND
  8
0
  0
POLYLINE
  8
20
 66
1
 10
0.0000
 20
0.0000
 30
0.0000
 40
0.2540
 41
0.2540
 70
0
  0
VERTEX
  8
20
 10
123.4211
 20
6.4311
 30
0.0000
 42
1.0000
  0
VERTEX
  8
20
 10
123.4211
 20
6.6851
 30
0.0000
  0
SEQEND
  8
0
  0
POLYLINE
  8
20
 66
1
 10
0.0000
 20
0.0000
 30
0.0000
 40
0.2540
 41
0.2540
 70
0
  0
VERTEX
  8
20
 10
122.1740
 20
6.6851
 30
0.0000
 42
1.0000
  0
VERTEX
  8
20
 10
122.1740
 20
6.4311
 30
0.0000
  0
SEQEND
  8
0
  0
POLYLINE
  8
20
 66
1
 10
0.0000
 20
0.0000
 30
0.0000
 40
0.5080
 41
0.5080
 70
0
  0
VERTEX
  8
20
 10
123.4211
 20
6.5581
 30
0.0000
  0
VERTEX
  8
20
 10
123.8368
 20
6.1424
 30
0.0000
  0
SEQEND
  8
0
  0
POLYLINE
  8
20
 66
1
 10
0.0000
 20
0.0000
 30
0.0000
 40
0.2540
 41
0.2540
 70
0
  0
VERTEX
  8
20
 10
123.7470
 20
6.0526
 30
0.0000
 42
1.0000
  0
VERTEX
  8
20
 10
123.9266
 20
6.2322
 30
0.0000
  0
SEQEND
  8
0
  0
POLYLINE
  8
20
 66
1
 10
0.0000
 20
0.0000
 30
0.0000
 40
0.2540
 41
0.2540
 70
0
  0
VERTEX
  8
20
 10
123.5109
 20
6.6479
 30
0.0000
 42
1.0000
  0
VERTEX
  8
20
 10
123.3313
 20
6.4683
 30
0.0000
  0
SEQEND
  8
0
  0
POLYLINE
  8
20
 66
1
 10
0.0000
 20
0.0000
 30
0.0000
 40
0.5080
 41
0.5080
 70
0
  0
VERTEX
  8
20
 10
123.8368
 20
6.1424
 30
0.0000
  0
VERTEX
  8
20
 10
123.8368
 20
5.3111
 30
0.0000
  0
SEQEND
  8
0
  0
POLYLINE
  8
20
 66
1
 10
0.0000
 20
0.0000
 30
0.0000
 40
0.2540
 41
0.2540
 70
0
  0
VERTEX
  8
20
 10
123.7098
 20
5.3111
 30
0.0000
 42
1.0000
  0
VERTEX
  8
20
 10
123.9638
 20
5.3111
 30
0.0000
  0
SEQEND
  8
0
  0
POLYLINE
  8
20
 66
1
 10
0.0000
 20
0.0000
 30
0.0000
 40
0.2540
 41
0.2540
 70
0
  0
VERTEX
  8
20
 10
123.9638
 20
6.1424
 30
0.0000
 42
1.0000
  0
VERTEX
  8
20
 10
123.7098
 20
6.1424
 30
0.0000
  0
SEQEND
  8
0
  0
POLYLINE
  8
20
 66
1
 10
0.0000
 20
0.0000
 30
0.0000
 40
0.5080
 41
0.5080
 70
0
  0
VERTEX
  8
20
 10
123.8368
 20
5.3111
 30
0.0000
  0
VERTEX
  8
20
 10
123.4211
 20
4.8954
 30
0.0000
  0
SEQEND
  8
0
  0
POLYLINE
  8
20
 66
1
 10
0.0000
 20
0.0000
 30
0.0000
 40
0.2540
 41
0.2540
 70
0
  0
VERTEX
  8
20
 10
123.3313
 20
4.9852
 30
0.0000
 42
1.0000
  0
VERTEX
  8
20
 10
123.5109
 20
4.8056
 30
0.0000
  0
SEQEND
  8
0
  0
POLYLINE
  8
20
 66
1
 10
0.0000
 20
0.0000
 30
0.0000
 40
0.2540
 41
0.2540
 70
0
  0
VERTEX
  8
20
 10
123.9266
 20
5.2213
 30
0.0000
 42
1.0000
  0
VERTEX
  8
20
 10
123.7470
 20
5.4009
 30
0.0000
  0
SEQEND
  8
0
  0
POLYLINE
  8
20
 66
1
 10
0.0000
 20
0.0000
 30
0.0000
 40
0.5080
 41
0.5080
 70
0
  0
VERTEX
  8
20
 10
123.4211
 20
4.8954
 30
0.0000
  0
VERTEX
  8
20
 10
122.1740
 20
4.8954
 30
0.0000
  0
SEQEND
  8
0
  0
POLYLINE
  8
20
 66
1
 10
0.0000
 20
0.0000
 30
0.0000
 40
0.2540
 41
0.2540
 70
0
  0
VERTEX
  8
20
 10
122.1740
 20
5.0224
 30
0.0000
 42
1.0000
  0
VERTEX
  8
20
 10
122.1740
 20
4.7684
 30
0.0000
  0
SEQEND
  8
0
  0
POLYLINE
  8
20
 66
1
 10
0.0000
 20
0.0000
 30
0.0000
 40
0.2540
 41
0.2540
 70
0
  0
VERTEX
  8
20
 10
123.4211
 20
4.7684
 30
0.0000
 42
1.0000
  0
VERTEX
  8
20
 10
123.4211
 20
5.0224
 30
0.0000
  0
SEQEND
  8
0
  0
POLYLINE
  8
20
 66
1
 10
0.0000
 20
0.0000
 30
0.0000
 40
0.5080
 41
0.5080
 70
0
  0
VERTEX
  8
20
 10
123.0054
 20
4.8954
 30
0.0000
  0
VERTEX
  8
20
 10
123.8368
 20
4.0640
 30
0.0000
  0
SEQEND
  8
0
  0
POLYLINE
  8
20
 66
1
 10
0.0000
 20
0.0000
 30
0.0000
 40
0.2540
 41
0.2540
 70
0
  0
VERTEX
  8
20
 10
123.7470
 20
3.9742
 30
0.0000
 42
1.0000
  0
VERTEX
  8
20
 10
123.9266
 20
4.1538
 30
0.0000
  0
SEQEND
  8
0
  0
POLYLINE
  8
20
 66
1
 10
0.0000
 20
0.0000
 30
0.0000
 40
0.2540
 41
0.2540
 70
0
  0
VERTEX
  8
20
 10
123.0952
 20
4.9852
 30
0.0000
 42
1.0000
  0
VERTEX
  8
20
 10
122.9156
 20
4.8056
 30
0.0000
  0
SEQEND
  8
0
  0
POLYLINE
  8
20
 66
1
 10
0.0000
 20
0.0000
 30
0.0000
 40
0.5080
 41
0.5080
 70
0
  0
VERTEX
  8
20
 10
126.5991
 20
6.5581
 30
0.0000
  0
VERTEX
  8
20
 10
124.9364
 20
6.5581
 30
0.0000
  0
SEQEND
  8
0
  0
POLYLINE
  8
20
 66
1
 10
0.0000
 20
0.0000
 30
0.0000
 40
0.2540
 41
0.2540
 70
0
  0
VERTEX
  8
20
 10
124.9364
 20
6.6851
 30
0.0000
 42
1.0000
  0
VERTEX
  8
20
 10
124.9364
 20
6.4311
 30
0.0000
  0
SEQEND
  8
0
  0
POLYLINE
  8
20
 66
1
 10
0.0000
 20
0.0000
 30
0.0000
 40
0.2540
 41
0.2540
 70
0
  0
VERTEX
  8
20
 10
126.5991
 20
6.4311
 30
0.0000
 42
1.0000
  0
VERTEX
  8
20
 10
126.5991
 20
6.6851
 30
0.0000
  0
SEQEND
  8
0
  0
POLYLINE
  8
20
 66
1
 10
0.0000
 20
0.0000
 30
0.0000
 40
0.5080
 41
0.5080
 70
0
  0
VERTEX
  8
20
 10
124.9364
 20
6.5581
 30
0.0000
  0
VERTEX
  8
20
 10
124.9364
 20
4.0640
 30
0.0000
  0
SEQEND
  8
0
  0
POLYLINE
  8
20
 66
1
 10
0.0000
 20
0.0000
 30
0.0000
 40
0.2540
 41
0.2540
 70
0
  0
VERTEX
  8
20
 10
124.8094
 20
4.0640
 30
0.0000
 42
1.0000
  0
VERTEX
  8
20
 10
125.0634
 20
4.0640
 30
0.0000
  0
SEQEND
  8
0
  0
POLYLINE
  8
20
 66
1
 10
0.0000
 20
0.0000
 30
0.0000
 40
0.2540
 41
0.2540
 70
0
  0
VERTEX
  8
20
 10
125.0634
 20
6.5581
 30
0.0000
 42
1.0000
  0
VERTEX
  8
20
 10
124.8094
 20
6.5581
 30
0.0000
  0
SEQEND
  8
0
  0
POLYLINE
  8
20
 66
1
 10
0.0000
 20
0.0000
 30
0.0000
 40
0.5080
 41
0.5080
 70
0
  0
VERTEX
  8
20
 10
124.9364
 20
4.0640
 30
0.0000
  0
VERTEX
  8
20
 10
126.5991
 20
4.0640
 30
0.0000
  0
SEQEND
  8
0
  0
POLYLINE
  8
20
 66
1
 10
0.0000
 20
0.0000
 30
0.0000
 40
0.2540
 41
0.2540
 70
0
  0
VERTEX
  8
20
 10
126.5991
 20
3.9370
 30
0.0000
 42
1.0000
  0
VERTEX
  8
20
 10
126.5991
 20
4.1910
 30
0.0000
  0
SEQEND
  8
0
  0
POLYLINE
  8
20
 66
1
 10
0.0000
 20
0.0000
 30
0.0000
 40
0.2540
 41
0.2540
 70
0
  0
VERTEX
  8
20
 10
124.9364
 20
4.1910
 30
0.0000
 42
1.0000
  0
VERTEX
  8
20
 10
124.9364
 20
3.9370
 30
0.0000
  0
SEQEND
  8
0
  0
POLYLINE
  8
20
 66
1
 10
0.0000
 20
0.0000
 30
0.0000
 40
0.5080
 41
0.5080
 70
0
  0
VERTEX
  8
20
 10
124.9364
 20
5.3111
 30
0.0000
  0
VERTEX
  8
20
 10
125.7677
 20
5.3111
 30
0.0000
  0
SEQEND
  8
0
  0
POLYLINE
  8
20
 66
1
 10
0.0000
 20
0.0000
 30
0.0000
 40
0.2540
 41
0.2540
 70
0
  0
VERTEX
  8
20
 10
125.7677
 20
5.1841
 30
0.0000
 42
1.0000
  0
VERTEX
  8
20
 10
125.7677
 20
5.4381
 30
0.0000
  0
SEQEND
  8
0
  0
POLYLINE
  8
20
 66
1
 10
0.0000
 20
0.0000
 30
0.0000
 40
0.2540
 41
0.2540
 70
0
  0
VERTEX
  8
20
 10
124.9364
 20
5.4381
 30
0.0000
 42
1.0000
  0
VERTEX
  8
20
 10
124.9364
 20
5.1841
 30
0.0000
  0
SEQEND
  8
0
  0
POLYLINE
  8
20
 66
1
 10
0.0000
 20
0.0000
 30
0.0000
 40
0.5080
 41
0.5080
 70
0
  0
VERTEX
  8
20
 10
129.3615
 20
6.1424
 30
0.0000
  0
VERTEX
  8
20
 10
128.9458
 20
6.5581
 30
0.0000
  0
SEQEND
  8
0
  0
POLYLINE
  8
20
 66
1
 10
0.0000
 20
0.0000
 30
0.0000
 40
0.2540
 41
0.2540
 70
0
  0
VERTEX
  8
20
 10
129.0356
 20
6.6479
 30
0.0000
 42
1.0000
  0
VERTEX
  8
20
 10
128.8560
 20
6.4683
 30
0.0000
  0
SEQEND
  8
0
  0
POLYLINE
  8
20
 66
1
 10
0.0000
 20
0.0000
 30
0.0000
 40
0.2540
 41
0.2540
 70
0
  0
VERTEX
  8
20
 10
129.2717
 20
6.0526
 30
0.0000
 42
1.0000
  0
VERTEX
  8
20
 10
129.4513
 20
6.2322
 30
0.0000
  0
SEQEND
  8
0
  0
POLYLINE
  8
20
 66
1
 10
0.0000
 20
0.0000
 30
0.0000
 40
0.5080
 41
0.5080
 70
0
  0
VERTEX
  8
20
 10
128.9458
 20
6.5581
 30
0.0000
  0
VERTEX
  8
20
 10
128.1144
 20
6.5581
 30
0.0000
  0
SEQEND
  8
0
  0
POLYLINE
  8
20
 66
1
 10
0.0000
 20
0.0000
 30
0.0000
 40
0.2540
 41
0.2540
 70
0
  0
VERTEX
  8
20
 10
128.1144
 20
6.6851
 30
0.0000
 42
1.0000
  0
VERTEX
  8
20
 10
128.1144
 20
6.4311
 30
0.0000
  0
SEQEND
  8
0
  0
POLYLINE
  8
20
 66
1
 10
0.0000
 20
0.0000
 30
0.0000
 40
0.2540
 41
0.2540
 70
0
  0
VERTEX
  8
20
 10
128.9458
 20
6.4311
 30
0.0000
 42
1.0000
  0
VERTEX
  8
20
 10
128.9458
 20
6.6851
 30
0.0000
  0
SEQEND
  8
0
  0
POLYLINE
  8
20
 66
1
 10
0.0000
 20
0.0000
 30
0.0000
 40
0.5080
 41
0.5080
 70
0
  0
VERTEX
  8
20
 10
128.1144
 20
6.5581
 30
0.0000
  0
VERTEX
  8
20
 10
127.6987
 20
6.1424
 30
0.0000
  0
SEQEND
  8
0
  0
POLYLINE
  8
20
 66
1
 10
0.0000
 20
0.0000
 30
0.0000
 40
0.2540
 41
0.2540
 70
0
  0
VERTEX
  8
20
 10
127.6089
 20
6.2322
 30
0.0000
 42
1.0000
  0
VERTEX
  8
20
 10
127.7885
 20
6.0526
 30
0.0000
  0
SEQEND
  8
0
  0
POLYLINE
  8
20
 66
1
 10
0.0000
 20
0.0000
 30
0.0000
 40
0.2540
 41
0.2540
 70
0
  0
VERTEX
  8
20
 10
128.2042
 20
6.4683
 30
0.0000
 42
1.0000
  0
VERTEX
  8
20
 10
128.0246
 20
6.6479
 30
0.0000
  0
SEQEND
  8
0
  0
POLYLINE
  8
20
 66
1
 10
0.0000
 20
0.0000
 30
0.0000
 40
0.5080
 41
0.5080
 70
0
  0
VERTEX
  8
20
 10
127.6987
 20
6.1424
 30
0.0000
  0
VERTEX
  8
20
 10
127.6987
 20
5.7268
 30
0.0000
  0
SEQEND
  8
0
  0
POLYLINE
  8
20
 66
1
 10
0.0000
 20
0.0000
 30
0.0000
 40
0.2540
 41
0.2540
 70
0
  0
VERTEX
  8
20
 10
127.5717
 20
5.7268
 30
0.0000
 42
1.0000
  0
VERTEX
  8
20
 10
127.8257
 20
5.7268
 30
0.0000
  0
SEQEND
  8
0
  0
POLYLINE
  8
20
 66
1
 10
0.0000
 20
0.0000
 30
0.0000
 40
0.2540
 41
0.2540
 70
0
  0
VERTEX
  8
20
 10
127.8257
 20
6.1424
 30
0.0000
 42
1.0000
  0
VERTEX
  8
20
 10
127.5717
 20
6.1424
 30
0.0000
  0
SEQEND
  8
0
  0
POLYLINE
  8
20
 66
1
 10
0.0000
 20
0.0000
 30
0.0000
 40
0.5080
 41
0.5080
 70
0
  0
VERTEX
  8
20
 10
127.6987
 20
5.7268
 30
0.0000
  0
VERTEX
  8
20
 10
128.1144
 20
5.3111
 30
0.0000
  0
SEQEND
  8
0
  0
POLYLINE
  8
20
 66
1
 10
0.0000
 20
0.0000
 30
0.0000
 40
0.2540
 41
0.2540
 70
0
  0
VERTEX
  8
20
 10
128.0246
 20
5.2213
 30
0.0000
 42
1.0000
  0
VERTEX
  8
20
 10
128.2042
 20
5.4009
 30
0.0000
  0
SEQEND
  8
0
  0
POLYLINE
  8
20
 66
1
 10
0.0000
 20
0.0000
 30
0.0000
 40
0.2540
 41
0.2540
 70
0
  0
VERTEX
  8
20
 10
127.7885
 20
5.8166
 30
0.0000
 42
1.0000
  0
VERTEX
  8
20
 10
127.6089
 20
5.6370
 30
0.0000
  0
SEQEND
  8
0
  0
POLYLINE
  8
20
 66
1
 10
0.0000
 20
0.0000
 30
0.0000
 40
0.5080
 41
0.5080
 70
0
  0
VERTEX
  8
20
 10
128.1144
 20
5.3111
 30
0.0000
  0
VERTEX
  8
20
 10
128.9458
 20
5.3111
 30
0.0000
  0
SEQEND
  8
0
  0
POLYLINE
  8
20
 66
1
 10
0.0000
 20
0.0000
 30
0.0000
 40
0.2540
 41
0.2540
 70
0
  0
VERTEX
  8
20
 10
128.9458
 20
5.1841
 30
0.0000
 42
1.0000
  0
VERTEX
  8
20
 10
128.9458
 20
5.4381
 30
0.0000
  0
SEQEND
  8
0
  0
POLYLINE
  8
20
 66
1
 10
0.0000
 20
0.0000
 30
0.0000
 40
0.2540
 41
0.2540
 70
0
  0
VERTEX
  8
20
 10
128.1144
 20
5.4381
 30
0.0000
 42
1.0000
  0
VERTEX
  8
20
 10
128.1144
 20
5.1841
 30
0.0000
  0
SEQEND
  8
0
  0
POLYLINE
  8
20
 66
1
 10
0.0000
 20
0.0000
 30
0.0000
 40
0.5080
 41
0.5080
 70
0
  0
VERTEX
  8
20
 10
128.9458
 20
5.3111
 30
0.0000
  0
VERTEX
  8
20
 10
129.3615
 20
4.8954
 30
0.0000
  0
SEQEND
  8
0
  0
POLYLINE
  8
20
 66
1
 10
0.0000
 20
0.0000
 30
0.0000
 40
0.2540
 41
0.2540
 70
0
  0
VERTEX
  8
20
 10
129.2717
 20
4.8056
 30
0.0000
 42
1.0000
  0
VERTEX
  8
20
 10
129.4513
 20
4.9852
 30
0.0000
  0
SEQEND
  8
0
  0
POLYLINE
  8
20
 66
1
 10
0.0000
 20
0.0000
 30
0.0000
 40
0.2540
 41
0.2540
 70
0
  0
VERTEX
  8
20
 10
129.0356
 20
5.4009
 30
0.0000
 42
1.0000
  0
VERTEX
  8
20
 10
128.8560
 20
5.2213
 30
0.0000
  0
SEQEND
  8
0
  0
POLYLINE
  8
20
 66
1
 10
0.0000
 20
0.0000
 30
0.0000
 40
0.5080
 41
0.5080
 70
0
  0
VERTEX
  8
20
 10
129.3615
 20
4.8954
 30
0.0000
  0
VERTEX
  8
20
 10
129.3615
 20
4.4797
 30
0.0000
  0
SEQEND
  8
0
  0
POLYLINE
  8
20
 66
1
 10
0.0000
 20
0.0000
 30
0.0000
 40
0.2540
 41
0.2540
 70
0
  0
VERTEX
  8
20
 10
129.2345
 20
4.4797
 30
0.0000
 42
1.0000
  0
VERTEX
  8
20
 10
129.4885
 20
4.4797
 30
0.0000
  0
SEQEND
  8
0
  0
POLYLINE
  8
20
 66
1
 10
0.0000
 20
0.0000
 30
0.0000
 40
0.2540
 41
0.2540
 70
0
  0
VERTEX
  8
20
 10
129.4885
 20
4.8954
 30
0.0000
 42
1.0000
  0
VERTEX
  8
20
 10
129.2345
 20
4.8954
 30
0.0000
  0
SEQEND
  8
0
  0
POLYLINE
  8
20
 66
1
 10
0.0000
 20
0.0000
 30
0.0000
 40
0.5080
 41
0.5080
 70
0
  0
VERTEX
  8
20
 10
129.3615
 20
4.4797
 30
0.0000
  0
VERTEX
  8
20
 10
128.9458
 20
4.0640
 30
0.0000
  0
SEQEND
  8
0
  0
POLYLINE
  8
20
 66
1
 10
0.0000
 20
0.0000
 30
0.0000
 40
0.2540
 41
0.2540
 70
0
  0
VERTEX
  8
20
 10
128.8560
 20
4.1538
 30
0.0000
 42
1.0000
  0
VERTEX
  8
20
 10
129.0356
 20
3.9742
 30
0.0000
  0
SEQEND
  8
0
  0
POLYLINE
  8
20
 66
1
 10
0.0000
 20
0.0000
 30
0.0000
 40
0.2540
 41
0.2540
 70
0
  0
VERTEX
  8
20
 10
129.4513
 20
4.3899
 30
0.0000
 42
1.0000
  0
VERTEX
  8
20
 10
129.2717
 20
4.5695
 30
0.0000
  0
SEQEND
  8
0
  0
POLYLINE
  8
20
 66
1
 10
0.0000
 20
0.0000
 30
0.0000
 40
0.5080
 41
0.5080
 70
0
  0
VERTEX
  8
20
 10
128.9458
 20
4.0640
 30
0.0000
  0
VERTEX
  8
20
 10
128.1144
 20
4.0640
 30
0.0000
  0
SEQEND
  8
0
  0
POLYLINE
  8
20
 66
1
 10
0.0000
 20
0.0000
 30
0.0000
 40
0.2540
 41
0.2540
 70
0
  0
VERTEX
  8
20
 10
128.1144
 20
4.1910
 30
0.0000
 42
1.0000
  0
VERTEX
  8
20
 10
128.1144
 20
3.9370
 30
0.0000
  0
SEQEND
  8
0
  0
POLYLINE
  8
20
 66
1
 10
0.0000
 20
0.0000
 30
0.0000
 40
0.2540
 41
0.2540
 70
0
  0
VERTEX
  8
20
 10
128.9458
 20
3.9370
 30
0.0000
 42
1.0000
  0
VERTEX
  8
20
 10
128.9458
 20
4.1910
 30
0.0000
  0
SEQEND
  8
0
  0
POLYLINE
  8
20
 66
1
 10
0.0000
 20
0.0000
 30
0.0000
 40
0.5080
 41
0.5080
 70
0
  0
VERTEX
  8
20
 10
128.1144
 20
4.0640
 30
0.0000
  0
VERTEX
  8
20
 10
127.6987
 20
4.4797
 30
0.0000
  0
SEQEND
  8
0
  0
POLYLINE
  8
20
 66
1
 10
0.0000
 20
0.0000
 30
0.0000
 40
0.2540
 41
0.2540
 70
0
  0
VERTEX
  8
20
 10
127.7885
 20
4.5695
 30
0.0000
 42
1.0000
  0
VERTEX
  8
20
 10
127.6089
 20
4.3899
 30
0.0000
  0
SEQEND
  8
0
  0
POLYLINE
  8
20
 66
1
 10
0.0000
 20
0.0000
 30
0.0000
 40
0.2540
 41
0.2540
 70
0
  0
VERTEX
  8
20
 10
128.0246
 20
3.9742
 30
0.0000
 42
1.0000
  0
VERTEX
  8
20
 10
128.2042
 20
4.1538
 30
0.0000
  0
SEQEND
  8
0
  0
POLYLINE
  8
20
 66
1
 10
0.0000
 20
0.0000
 30
0.0000
 40
0.5080
 41
0.5080
 70
0
  0
VERTEX
  8
20
 10
132.1238
 20
6.5581
 30
0.0000
  0
VERTEX
  8
20
 10
130.4611
 20
6.5581
 30
0.0000
  0
SEQEND
  8
0
  0
POLYLINE
  8
20
 66
1
 10
0.0000
 20
0.0000
 30
0.0000
 40
0.2540
 41
0.2540
 70
0
  0
VERTEX
  8
20
 10
130.4611
 20
6.6851
 30
0.0000
 42
1.0000
  0
VERTEX
  8
20
 10
130.4611
 20
6.4311
 30
0.0000
  0
SEQEND
  8
0
  0
POLYLINE
  8
20
 66
1
 10
0.0000
 20
0.0000
 30
0.0000
 40
0.2540
 41
0.2540
 70
0
  0
VERTEX
  8
20
 10
132.1238
 20
6.4311
 30
0.0000
 42
1.0000
  0
VERTEX
  8
20
 10
132.1238
 20
6.6851
 30
0.0000
  0
SEQEND
  8
0
  0
POLYLINE
  8
20
 66
1
 10
0.0000
 20
0.0000
 30
0.0000
 40
0.5080
 41
0.5080
 70
0
  0
VERTEX
  8
20
 10
130.4611
 20
6.5581
 30
0.0000
  0
VERTEX
  8
20
 10
130.4611
 20
4.0640
 30
0.0000
  0
SEQEND
  8
0
  0
POLYLINE
  8
20
 66
1
 10
0.0000
 20
0.0000
 30
0.0000
 40
0.2540
 41
0.2540
 70
0
  0
VERTEX
  8
20
 10
130.3341
 20
4.0640
 30
0.0000
 42
1.0000
  0
VERTEX
  8
20
 10
130.5881
 20
4.0640
 30
0.0000
  0
SEQEND
  8
0
  0
POLYLINE
  8
20
 66
1
 10
0.0000
 20
0.0000
 30
0.0000
 40
0.2540
 41
0.2540
 70
0
  0
VERTEX
  8
20
 10
130.5881
 20
6.5581
 30
0.0000
 42
1.0000
  0
VERTEX
  8
20
 10
130.3341
 20
6.5581
 30
0.0000
  0
SEQEND
  8
0
  0
POLYLINE
  8
20
 66
1
 10
0.0000
 20
0.0000
 30
0.0000
 40
0.5080
 41
0.5080
 70
0
  0
VERTEX
  8
20
 10
130.4611
 20
4.0640
 30
0.0000
  0
VERTEX
  8
20
 10
132.1238
 20
4.0640
 30
0.0000
  0
SEQEND
  8
0
  0
POLYLINE
  8
20
 66
1
 10
0.0000
 20
0.0000
 30
0.0000
 40
0.2540
 41
0.2540
 70
0
  0
VERTEX
  8
20
 10
132.1238
 20
3.9370
 30
0.0000
 42
1.0000
  0
VERTEX
  8
20
 10
132.1238
 20
4.1910
 30
0.0000
  0
SEQEND
  8
0
  0
POLYLINE
  8
20
 66
1
 10
0.0000
 20
0.0000
 30
0.0000
 40
0.2540
 41
0.2540
 70
0
  0
VERTEX
  8
20
 10
130.4611
 20
4.1910
 30
0.0000
 42
1.0000
  0
VERTEX
  8
20
 10
130.4611
 20
3.9370
 30
0.0000
  0
SEQEND
  8
0
  0
POLYLINE
  8
20
 66
1
 10
0.0000
 20
0.0000
 30
0.0000
 40
0.5080
 41
0.5080
 70
0
  0
VERTEX
  8
20
 10
130.4611
 20
5.3111
 30
0.0000
  0
VERTEX
  8
20
 10
131.2925
 20
5.3111
 30
0.0000
  0
SEQEND
  8
0
  0
POLYLINE
  8
20
 66
1
 10
0.0000
 20
0.0000
 30
0.0000
 40
0.2540
 41
0.2540
 70
0
  0
VERTEX
  8
20
 10
131.2925
 20
5.1841
 30
0.0000
 42
1.0000
  0
VERTEX
  8
20
 10
131.2925
 20
5.4381
 30
0.0000
  0
SEQEND
  8
0
  0
POLYLINE
  8
20
 66
1
 10
0.0000
 20
0.0000
 30
0.0000
 40
0.2540
 41
0.2540
 70
0
  0
VERTEX
  8
20
 10
130.4611
 20
5.4381
 30
0.0000
 42
1.0000
  0
VERTEX
  8
20
 10
130.4611
 20
5.1841
 30
0.0000
  0
SEQEND
  8
0
  0
POLYLINE
  8
20
 66
1
 10
0.0000
 20
0.0000
 30
0.0000
 40
0.5080
 41
0.5080
 70
0
  0
VERTEX
  8
20
 10
134.0548
 20
4.0640
 30
0.0000
  0
VERTEX
  8
20
 10
134.0548
 20
6.5581
 30
0.0000
  0
SEQEND
  8
0
  0
POLYLINE
  8
20
 66
1
 10
0.0000
 20
0.0000
 30
0.0000
 40
0.2540
 41
0.2540
 70
0
  0
VERTEX
  8
20
 10
134.1818
 20
6.5581
 30
0.0000
 42
1.0000
  0
VERTEX
  8
20
 10
133.9278
 20
6.5581
 30
0.0000
  0
SEQEND
  8
0
  0
POLYLINE
  8
20
 66
1
 10
0.0000
 20
0.0000
 30
0.0000
 40
0.2540
 41
0.2540
 70
0
  0
VERTEX
  8
20
 10
133.9278
 20
4.0640
 30
0.0000
 42
1.0000
  0
VERTEX
  8
20
 10
134.1818
 20
4.0640
 30
0.0000
  0
SEQEND
  8
0
  0
POLYLINE
  8
20
 66
1
 10
0.0000
 20
0.0000
 30
0.0000
 40
0.5080
 41
0.5080
 70
0
  0
VERTEX
  8
20
 10
133.2234
 20
6.5581
 30
0.0000
  0
VERTEX
  8
20
 10
134.8862
 20
6.5581
 30
0.0000
  0
SEQEND
  8
0
  0
POLYLINE
  8
20
 66
1
 10
0.0000
 20
0.0000
 30
0.0000
 40
0.2540
 41
0.2540
 70
0
  0
VERTEX
  8
20
 10
134.8862
 20
6.4311
 30
0.0000
 42
1.0000
  0
VERTEX
  8
20
 10
134.8862
 20
6.6851
 30
0.0000
  0
SEQEND
  8
0
  0
POLYLINE
  8
20
 66
1
 10
0.0000
 20
0.0000
 30
0.0000
 40
0.2540
 41
0.2540
 70
0
  0
VERTEX
  8
20
 10
133.2234
 20
6.6851
 30
0.0000
 42
1.0000
  0
VERTEX
  8
20
 10
133.2234
 20
6.4311
 30
0.0000
  0
SEQEND
  8
0
  0
POLYLINE
  8
20
 66
1
 10
0.0000
 20
0.0000
 30
0.0000
 40
0.5080
 41
0.5080
 70
0
  0
VERTEX
  8
20
 10
40.2590
 20
90.4240
 30
0.0000
  0
VERTEX
  8
20
 10
40.2590
 20
92.9181
 30
0.0000
  0
SEQEND
  8
0
  0
POLYLINE
  8
20
 66
1
 10
0.0000
 20
0.0000
 30
0.0000
 40
0.2540
 41
0.2540
 70
0
  0
VERTEX
  8
20
 10
40.3860
 20
92.9181
 30
0.0000
 42
1.0000
  0
VERTEX
  8
20
 10
40.1320
 20
92.9181
 30
0.0000
  0
SEQEND
  8
0
  0
POLYLINE
  8
20
 66
1
 10
0.0000
 20
0.0000
 30
0.0000
 40
0.2540
 41
0.2540
 70
0
  0
VERTEX
  8
20
 10
40.1320
 20
90.4240
 30
0.0000
 42
1.0000
  0
VERTEX
  8
20
 10
40.3860
 20
90.4240
 30
0.0000
  0
SEQEND
  8
0
  0
POLYLINE
  8
20
 66
1
 10
0.0000
 20
0.0000
 30
0.0000
 40
0.5080
 41
0.5080
 70
0
  0
VERTEX
  8
20
 10
40.2590
 20
92.9181
 30
0.0000
  0
VERTEX
  8
20
 10
41.0904
 20
92.0868
 30
0.0000
  0
SEQEND
  8
0
  0
POLYLINE
  8
20
 66
1
 10
0.0000
 20
0.0000
 30
0.0000
 40
0.2540
 41
0.2540
 70
0
  0
VERTEX
  8
20
 10
41.0006
 20
91.9970
 30
0.0000
 42
1.0000
  0
VERTEX
  8
20
 10
41.1802
 20
92.1766
 30
0.0000
  0
SEQEND
  8
0
  0
POLYLINE
  8
20
 66
1
 10
0.0000
 20
0.0000
 30
0.0000
 40
0.2540
 41
0.2540
 70
0
  0
VERTEX
  8
20
 10
40.3488
 20
93.0079
 30
0.0000
 42
1.0000
  0
VERTEX
  8
20
 10
40.1692
 20
92.8283
 30
0.0000
  0
SEQEND
  8
0
  0
POLYLINE
  8
20
 66
1
 10
0.0000
 20
0.0000
 30
0.0000
 40
0.5080
 41
0.5080
 70
0
  0
VERTEX
  8
20
 10
41.0904
 20
92.0868
 30
0.0000
  0
VERTEX
  8
20
 10
41.9218
 20
92.9181
 30
0.0000
  0
SEQEND
  8
0
  0
POLYLINE
  8
20
 66
1
 10
0.0000
 20
0.0000
 30
0.0000
 40
0.2540
 41
0.2540
 70
0
  0
VERTEX
  8
20
 10
42.0116
 20
92.8283
 30
0.0000
 42
1.0000
  0
VERTEX
  8
20
 10
41.8320
 20
93.0079
 30
0.0000
  0
SEQEND
  8
0
  0
POLYLINE
  8
20
 66
1
 10
0.0000
 20
0.0000
 30
0.0000
 40
0.2540
 41
0.2540
 70
0
  0
VERTEX
  8
20
 10
41.0006
 20
92.1766
 30
0.0000
 42
1.0000
  0
VERTEX
  8
20
 10
41.1802
 20
91.9970
 30
0.0000
  0
SEQEND
  8
0
  0
POLYLINE
  8
20
 66
1
 10
0.0000
 20
0.0000
 30
0.0000
 40
0.5080
 41
0.5080
 70
0
  0
VERTEX
  8
20
 10
41.9218
 20
92.9181
 30
0.0000
  0
VERTEX
  8
20
 10
41.9218
 20
90.4240
 30
0.0000
  0
SEQEND
  8
0
  0
POLYLINE
  8
20
 66
1
 10
0.0000
 20
0.0000
 30
0.0000
 40
0.2540
 41
0.2540
 70
0
  0
VERTEX
  8
20
 10
41.7948
 20
90.4240
 30
0.0000
 42
1.0000
  0
VERTEX
  8
20
 10
42.0488
 20
90.4240
 30
0.0000
  0
SEQEND
  8
0
  0
POLYLINE
  8
20
 66
1
 10
0.0000
 20
0.0000
 30
0.0000
 40
0.2540
 41
0.2540
 70
0
  0
VERTEX
  8
20
 10
42.0488
 20
92.9181
 30
0.0000
 42
1.0000
  0
VERTEX
  8
20
 10
41.7948
 20
92.9181
 30
0.0000
  0
SEQEND
  8
0
  0
POLYLINE
  8
20
 66
1
 10
0.0000
 20
0.0000
 30
0.0000
 40
0.5080
 41
0.5080
 70
0
  0
VERTEX
  8
20
 10
43.0214
 20
90.4240
 30
0.0000
  0
VERTEX
  8
20
 10
43.8527
 20
90.4240
 30
0.0000
  0
SEQEND
  8
0
  0
POLYLINE
  8
20
 66
1
 10
0.0000
 20
0.0000
 30
0.0000
 40
0.2540
 41
0.2540
 70
0
  0
VERTEX
  8
20
 10
43.8527
 20
90.2970
 30
0.0000
 42
1.0000
  0
VERTEX
  8
20
 10
43.8527
 20
90.5510
 30
0.0000
  0
SEQEND
  8
0
  0
POLYLINE
  8
20
 66
1
 10
0.0000
 20
0.0000
 30
0.0000
 40
0.2540
 41
0.2540
 70
0
  0
VERTEX
  8
20
 10
43.0214
 20
90.5510
 30
0.0000
 42
1.0000
  0
VERTEX
  8
20
 10
43.0214
 20
90.2970
 30
0.0000
  0
SEQEND
  8
0
  0
POLYLINE
  8
20
 66
1
 10
0.0000
 20
0.0000
 30
0.0000
 40
0.5080
 41
0.5080
 70
0
  0
VERTEX
  8
20
 10
43.4370
 20
90.4240
 30
0.0000
  0
VERTEX
  8
20
 10
43.4370
 20
92.9181
 30
0.0000
  0
SEQEND
  8
0
  0
POLYLINE
  8
20
 66
1
 10
0.0000
 20
0.0000
 30
0.0000
 40
0.2540
 41
0.2540
 70
0
  0
VERTEX
  8
20
 10
43.5640
 20
92.9181
 30
0.0000
 42
1.0000
  0
VERTEX
  8
20
 10
43.3100
 20
92.9181
 30
0.0000
  0
SEQEND
  8
0
  0
POLYLINE
  8
20
 66
1
 10
0.0000
 20
0.0000
 30
0.0000
 40
0.2540
 41
0.2540
 70
0
  0
VERTEX
  8
20
 10
43.3100
 20
90.4240
 30
0.0000
 42
1.0000
  0
VERTEX
  8
20
 10
43.5640
 20
90.4240
 30
0.0000
  0
SEQEND
  8
0
  0
POLYLINE
  8
20
 66
1
 10
0.0000
 20
0.0000
 30
0.0000
 40
0.5080
 41
0.5080
 70
0
  0
VERTEX
  8
20
 10
43.0214
 20
92.9181
 30
0.0000
  0
VERTEX
  8
20
 10
43.8527
 20
92.9181
 30
0.0000
  0
SEQEND
  8
0
  0
POLYLINE
  8
20
 66
1
 10
0.0000
 20
0.0000
 30
0.0000
 40
0.2540
 41
0.2540
 70
0
  0
VERTEX
  8
20
 10
43.8527
 20
92.7911
 30
0.0000
 42
1.0000
  0
VERTEX
  8
20
 10
43.8527
 20
93.0451
 30
0.0000
  0
SEQEND
  8
0
  0
POLYLINE
  8
20
 66
1
 10
0.0000
 20
0.0000
 30
0.0000
 40
0.2540
 41
0.2540
 70
0
  0
VERTEX
  8
20
 10
43.0214
 20
93.0451
 30
0.0000
 42
1.0000
  0
VERTEX
  8
20
 10
43.0214
 20
92.7911
 30
0.0000
  0
SEQEND
  8
0
  0
POLYLINE
  8
20
 66
1
 10
0.0000
 20
0.0000
 30
0.0000
 40
0.5080
 41
0.5080
 70
0
  0
VERTEX
  8
20
 10
46.5257
 20
92.5024
 30
0.0000
  0
VERTEX
  8
20
 10
46.1100
 20
92.9181
 30
0.0000
  0
SEQEND
  8
0
  0
POLYLINE
  8
20
 66
1
 10
0.0000
 20
0.0000
 30
0.0000
 40
0.2540
 41
0.2540
 70
0
  0
VERTEX
  8
20
 10
46.1998
 20
93.0079
 30
0.0000
 42
1.0000
  0
VERTEX
  8
20
 10
46.0202
 20
92.8283
 30
0.0000
  0
SEQEND
  8
0
  0
POLYLINE
  8
20
 66
1
 10
0.0000
 20
0.0000
 30
0.0000
 40
0.2540
 41
0.2540
 70
0
  0
VERTEX
  8
20
 10
46.4359
 20
92.4126
 30
0.0000
 42
1.0000
  0
VERTEX
  8
20
 10
46.6155
 20
92.5922
 30
0.0000
  0
SEQEND
  8
0
  0
POLYLINE
  8
20
 66
1
 10
0.0000
 20
0.0000
 30
0.0000
 40
0.5080
 41
0.5080
 70
0
  0
VERTEX
  8
20
 10
46.1100
 20
92.9181
 30
0.0000
  0
VERTEX
  8
20
 10
45.2786
 20
92.9181
 30
0.0000
  0
SEQEND
  8
0
  0
POLYLINE
  8
20
 66
1
 10
0.0000
 20
0.0000
 30
0.0000
 40
0.2540
 41
0.2540
 70
0
  0
VERTEX
  8
20
 10
45.2786
 20
93.0451
 30
0.0000
 42
1.0000
  0
VERTEX
  8
20
 10
45.2786
 20
92.7911
 30
0.0000
  0
SEQEND
  8
0
  0
POLYLINE
  8
20
 66
1
 10
0.0000
 20
0.0000
 30
0.0000
 40
0.2540
 41
0.2540
 70
0
  0
VERTEX
  8
20
 10
46.1100
 20
92.7911
 30
0.0000
 42
1.0000
  0
VERTEX
  8
20
 10
46.1100
 20
93.0451
 30
0.0000
  0
SEQEND
  8
0
  0
POLYLINE
  8
20
 66
1
 10
0.0000
 20
0.0000
 30
0.0000
 40
0.5080
 41
0.5080
 70
0
  0
VERTEX
  8
20
 10
45.2786
 20
92.9181
 30
0.0000
  0
VERTEX
  8
20
 10
44.8629
 20
92.5024
 30
0.0000
  0
SEQEND
  8
0
  0
POLYLINE
  8
20
 66
1
 10
0.0000
 20
0.0000
 30
0.0000
 40
0.2540
 41
0.2540
 70
0
  0
VERTEX
  8
20
 10
44.7731
 20
92.5922
 30
0.0000
 42
1.0000
  0
VERTEX
  8
20
 10
44.9527
 20
92.4126
 30
0.0000
  0
SEQEND
  8
0
  0
POLYLINE
  8
20
 66
1
 10
0.0000
 20
0.0000
 30
0.0000
 40
0.2540
 41
0.2540
 70
0
  0
VERTEX
  8
20
 10
45.3684
 20
92.8283
 30
0.0000
 42
1.0000
  0
VERTEX
  8
20
 10
45.1888
 20
93.0079
 30
0.0000
  0
SEQEND
  8
0
  0
POLYLINE
  8
20
 66
1
 10
0.0000
 20
0.0000
 30
0.0000
 40
0.5080
 41
0.5080
 70
0
  0
VERTEX
  8
20
 10
44.8629
 20
92.5024
 30
0.0000
  0
VERTEX
  8
20
 10
44.8629
 20
90.8397
 30
0.0000
  0
SEQEND
  8
0
  0
POLYLINE
  8
20
 66
1
 10
0.0000
 20
0.0000
 30
0.0000
 40
0.2540
 41
0.2540
 70
0
  0
VERTEX
  8
20
 10
44.7359
 20
90.8397
 30
0.0000
 42
1.0000
  0
VERTEX
  8
20
 10
44.9899
 20
90.8397
 30
0.0000
  0
SEQEND
  8
0
  0
POLYLINE
  8
20
 66
1
 10
0.0000
 20
0.0000
 30
0.0000
 40
0.2540
 41
0.2540
 70
0
  0
VERTEX
  8
20
 10
44.9899
 20
92.5024
 30
0.0000
 42
1.0000
  0
VERTEX
  8
20
 10
44.7359
 20
92.5024
 30
0.0000
  0
SEQEND
  8
0
  0
POLYLINE
  8
20
 66
1
 10
0.0000
 20
0.0000
 30
0.0000
 40
0.5080
 41
0.5080
 70
0
  0
VERTEX
  8
20
 10
44.8629
 20
90.8397
 30
0.0000
  0
VERTEX
  8
20
 10
45.2786
 20
90.4240
 30
0.0000
  0
SEQEND
  8
0
  0
POLYLINE
  8
20
 66
1
 10
0.0000
 20
0.0000
 30
0.0000
 40
0.2540
 41
0.2540
 70
0
  0
VERTEX
  8
20
 10
45.1888
 20
90.3342
 30
0.0000
 42
1.0000
  0
VERTEX
  8
20
 10
45.3684
 20
90.5138
 30
0.0000
  0
SEQEND
  8
0
  0
POLYLINE
  8
20
 66
1
 10
0.0000
 20
0.0000
 30
0.0000
 40
0.2540
 41
0.2540
 70
0
  0
VERTEX
  8
20
 10
44.9527
 20
90.9295
 30
0.0000
 42
1.0000
  0
VERTEX
  8
20
 10
44.7731
 20
90.7499
 30
0.0000
  0
SEQEND
  8
0
  0
POLYLINE
  8
20
 66
1
 10
0.0000
 20
0.0000
 30
0.0000
 40
0.5080
 41
0.5080
 70
0
  0
VERTEX
  8
20
 10
45.2786
 20
90.4240
 30
0.0000
  0
VERTEX
  8
20
 10
46.1100
 20
90.4240
 30
0.0000
  0
SEQEND
  8
0
  0
POLYLINE
  8
20
 66
1
 10
0.0000
 20
0.0000
 30
0.0000
 40
0.2540
 41
0.2540
 70
0
  0
VERTEX
  8
20
 10
46.1100
 20
90.2970
 30
0.0000
 42
1.0000
  0
VERTEX
  8
20
 10
46.1100
 20
90.5510
 30
0.0000
  0
SEQEND
  8
0
  0
POLYLINE
  8
20
 66
1
 10
0.0000
 20
0.0000
 30
0.0000
 40
0.2540
 41
0.2540
 70
0
  0
VERTEX
  8
20
 10
45.2786
 20
90.5510
 30
0.0000
 42
1.0000
  0
VERTEX
  8
20
 10
45.2786
 20
90.2970
 30
0.0000
  0
SEQEND
  8
0
  0
POLYLINE
  8
20
 66
1
 10
0.0000
 20
0.0000
 30
0.0000
 40
0.5080
 41
0.5080
 70
0
  0
VERTEX
  8
20
 10
46.1100
 20
90.4240
 30
0.0000
  0
VERTEX
  8
20
 10
46.5257
 20
90.8397
 30
0.0000
  0
SEQEND
  8
0
  0
POLYLINE
  8
20
 66
1
 10
0.0000
 20
0.0000
 30
0.0000
 40
0.2540
 41
0.2540
 70
0
  0
VERTEX
  8
20
 10
46.6155
 20
90.7499
 30
0.0000
 42
1.0000
  0
VERTEX
  8
20
 10
46.4359
 20
90.9295
 30
0.0000
  0
SEQEND
  8
0
  0
POLYLINE
  8
20
 66
1
 10
0.0000
 20
0.0000
 30
0.0000
 40
0.2540
 41
0.2540
 70
0
  0
VERTEX
  8
20
 10
46.0202
 20
90.5138
 30
0.0000
 42
1.0000
  0
VERTEX
  8
20
 10
46.1998
 20
90.3342
 30
0.0000
  0
SEQEND
  8
0
  0
POLYLINE
  8
20
 66
1
 10
0.0000
 20
0.0000
 30
0.0000
 40
0.5080
 41
0.5080
 70
0
  0
VERTEX
  8
20
 10
47.6253
 20
90.4240
 30
0.0000
  0
VERTEX
  8
20
 10
47.6253
 20
92.9181
 30
0.0000
  0
SEQEND
  8
0
  0
POLYLINE
  8
20
 66
1
 10
0.0000
 20
0.0000
 30
0.0000
 40
0.2540
 41
0.2540
 70
0
  0
VERTEX
  8
20
 10
47.7523
 20
92.9181
 30
0.0000
 42
1.0000
  0
VERTEX
  8
20
 10
47.4983
 20
92.9181
 30
0.0000
  0
SEQEND
  8
0
  0
POLYLINE
  8
20
 66
1
 10
0.0000
 20
0.0000
 30
0.0000
 40
0.2540
 41
0.2540
 70
0
  0
VERTEX
  8
20
 10
47.4983
 20
90.4240
 30
0.0000
 42
1.0000
  0
VERTEX
  8
20
 10
47.7523
 20
90.4240
 30
0.0000
  0
SEQEND
  8
0
  0
POLYLINE
  8
20
 66
1
 10
0.0000
 20
0.0000
 30
0.0000
 40
0.5080
 41
0.5080
 70
0
  0
VERTEX
  8
20
 10
47.6253
 20
92.9181
 30
0.0000
  0
VERTEX
  8
20
 10
48.8724
 20
92.9181
 30
0.0000
  0
SEQEND
  8
0
  0
POLYLINE
  8
20
 66
1
 10
0.0000
 20
0.0000
 30
0.0000
 40
0.2540
 41
0.2540
 70
0
  0
VERTEX
  8
20
 10
48.8724
 20
92.7911
 30
0.0000
 42
1.0000
  0
VERTEX
  8
20
 10
48.8724
 20
93.0451
 30
0.0000
  0
SEQEND
  8
0
  0
POLYLINE
  8
20
 66
1
 10
0.0000
 20
0.0000
 30
0.0000
 40
0.2540
 41
0.2540
 70
0
  0
VERTEX
  8
20
 10
47.6253
 20
93.0451
 30
0.0000
 42
1.0000
  0
VERTEX
  8
20
 10
47.6253
 20
92.7911
 30
0.0000
  0
SEQEND
  8
0
  0
POLYLINE
  8
20
 66
1
 10
0.0000
 20
0.0000
 30
0.0000
 40
0.5080
 41
0.5080
 70
0
  0
VERTEX
  8
20
 10
48.8724
 20
92.9181
 30
0.0000
  0
VERTEX
  8
20
 10
49.2880
 20
92.5024
 30
0.0000
  0
SEQEND
  8
0
  0
POLYLINE
  8
20
 66
1
 10
0.0000
 20
0.0000
 30
0.0000
 40
0.2540
 41
0.2540
 70
0
  0
VERTEX
  8
20
 10
49.1982
 20
92.4126
 30
0.0000
 42
1.0000
  0
VERTEX
  8
20
 10
49.3778
 20
92.5922
 30
0.0000
  0
SEQEND
  8
0
  0
POLYLINE
  8
20
 66
1
 10
0.0000
 20
0.0000
 30
0.0000
 40
0.2540
 41
0.2540
 70
0
  0
VERTEX
  8
20
 10
48.9622
 20
93.0079
 30
0.0000
 42
1.0000
  0
VERTEX
  8
20
 10
48.7826
 20
92.8283
 30
0.0000
  0
SEQEND
  8
0
  0
POLYLINE
  8
20
 66
1
 10
0.0000
 20
0.0000
 30
0.0000
 40
0.5080
 41
0.5080
 70
0
  0
VERTEX
  8
20
 10
49.2880
 20
92.5024
 30
0.0000
  0
VERTEX
  8
20
 10
49.2880
 20
91.6711
 30
0.0000
  0
SEQEND
  8
0
  0
POLYLINE
  8
20
 66
1
 10
0.0000
 20
0.0000
 30
0.0000
 40
0.2540
 41
0.2540
 70
0
  0
VERTEX
  8
20
 10
49.1610
 20
91.6711
 30
0.0000
 42
1.0000
  0
VERTEX
  8
20
 10
49.4150
 20
91.6711
 30
0.0000
  0
SEQEND
  8
0
  0
POLYLINE
  8
20
 66
1
 10
0.0000
 20
0.0000
 30
0.0000
 40
0.2540
 41
0.2540
 70
0
  0
VERTEX
  8
20
 10
49.4150
 20
92.5024
 30
0.0000
 42
1.0000
  0
VERTEX
  8
20
 10
49.1610
 20
92.5024
 30
0.0000
  0
SEQEND
  8
0
  0
POLYLINE
  8
20
 66
1
 10
0.0000
 20
0.0000
 30
0.0000
 40
0.5080
 41
0.5080
 70
0
  0
VERTEX
  8
20
 10
49.2880
 20
91.6711
 30
0.0000
  0
VERTEX
  8
20
 10
48.8724
 20
91.2554
 30
0.0000
  0
SEQEND
  8
0
  0
POLYLINE
  8
20
 66
1
 10
0.0000
 20
0.0000
 30
0.0000
 40
0.2540
 41
0.2540
 70
0
  0
VERTEX
  8
20
 10
48.7826
 20
91.3452
 30
0.0000
 42
1.0000
  0
VERTEX
  8
20
 10
48.9622
 20
91.1656
 30
0.0000
  0
SEQEND
  8
0
  0
POLYLINE
  8
20
 66
1
 10
0.0000
 20
0.0000
 30
0.0000
 40
0.2540
 41
0.2540
 70
0
  0
VERTEX
  8
20
 10
49.3778
 20
91.5813
 30
0.0000
 42
1.0000
  0
VERTEX
  8
20
 10
49.1982
 20
91.7609
 30
0.0000
  0
SEQEND
  8
0
  0
POLYLINE
  8
20
 66
1
 10
0.0000
 20
0.0000
 30
0.0000
 40
0.5080
 41
0.5080
 70
0
  0
VERTEX
  8
20
 10
48.8724
 20
91.2554
 30
0.0000
  0
VERTEX
  8
20
 10
47.6253
 20
91.2554
 30
0.0000
  0
SEQEND
  8
0
  0
POLYLINE
  8
20
 66
1
 10
0.0000
 20
0.0000
 30
0.0000
 40
0.2540
 41
0.2540
 70
0
  0
VERTEX
  8
20
 10
47.6253
 20
91.3824
 30
0.0000
 42
1.0000
  0
VERTEX
  8
20
 10
47.6253
 20
91.1284
 30
0.0000
  0
SEQEND
  8
0
  0
POLYLINE
  8
20
 66
1
 10
0.0000
 20
0.0000
 30
0.0000
 40
0.2540
 41
0.2540
 70
0
  0
VERTEX
  8
20
 10
48.8724
 20
91.1284
 30
0.0000
 42
1.0000
  0
VERTEX
  8
20
 10
48.8724
 20
91.3824
 30
0.0000
  0
SEQEND
  8
0
  0
POLYLINE
  8
20
 66
1
 10
0.0000
 20
0.0000
 30
0.0000
 40
0.5080
 41
0.5080
 70
0
  0
VERTEX
  8
20
 10
48.4567
 20
91.2554
 30
0.0000
  0
VERTEX
  8
20
 10
49.2880
 20
90.4240
 30
0.0000
  0
SEQEND
  8
0
  0
POLYLINE
  8
20
 66
1
 10
0.0000
 20
0.0000
 30
0.0000
 40
0.2540
 41
0.2540
 70
0
  0
VERTEX
  8
20
 10
49.1982
 20
90.3342
 30
0.0000
 42
1.0000
  0
VERTEX
  8
20
 10
49.3778
 20
90.5138
 30
0.0000
  0
SEQEND
  8
0
  0
POLYLINE
  8
20
 66
1
 10
0.0000
 20
0.0000
 30
0.0000
 40
0.2540
 41
0.2540
 70
0
  0
VERTEX
  8
20
 10
48.5465
 20
91.3452
 30
0.0000
 42
1.0000
  0
VERTEX
  8
20
 10
48.3669
 20
91.1656
 30
0.0000
  0
SEQEND
  8
0
  0
POLYLINE
  8
20
 66
1
 10
0.0000
 20
0.0000
 30
0.0000
 40
0.5080
 41
0.5080
 70
0
  0
VERTEX
  8
20
 10
51.6347
 20
92.9181
 30
0.0000
  0
VERTEX
  8
20
 10
50.8033
 20
92.9181
 30
0.0000
  0
SEQEND
  8
0
  0
POLYLINE
  8
20
 66
1
 10
0.0000
 20
0.0000
 30
0.0000
 40
0.2540
 41
0.2540
 70
0
  0
VERTEX
  8
20
 10
50.8033
 20
93.0451
 30
0.0000
 42
1.0000
  0
VERTEX
  8
20
 10
50.8033
 20
92.7911
 30
0.0000
  0
SEQEND
  8
0
  0
POLYLINE
  8
20
 66
1
 10
0.0000
 20
0.0000
 30
0.0000
 40
0.2540
 41
0.2540
 70
0
  0
VERTEX
  8
20
 10
51.6347
 20
92.7911
 30
0.0000
 42
1.0000
  0
VERTEX
  8
20
 10
51.6347
 20
93.0451
 30
0.0000
  0
SEQEND
  8
0
  0
POLYLINE
  8
20
 66
1
 10
0.0000
 20
0.0000
 30
0.0000
 40
0.5080
 41
0.5080
 70
0
  0
VERTEX
  8
20
 10
50.8033
 20
92.9181
 30
0.0000
  0
VERTEX
  8
20
 10
50.3877
 20
92.5024
 30
0.0000
  0
SEQEND
  8
0
  0
POLYLINE
  8
20
 66
1
 10
0.0000
 20
0.0000
 30
0.0000
 40
0.2540
 41
0.2540
 70
0
  0
VERTEX
  8
20
 10
50.2978
 20
92.5922
 30
0.0000
 42
1.0000
  0
VERTEX
  8
20
 10
50.4775
 20
92.4126
 30
0.0000
  0
SEQEND
  8
0
  0
POLYLINE
  8
20
 66
1
 10
0.0000
 20
0.0000
 30
0.0000
 40
0.2540
 41
0.2540
 70
0
  0
VERTEX
  8
20
 10
50.8931
 20
92.8283
 30
0.0000
 42
1.0000
  0
VERTEX
  8
20
 10
50.7135
 20
93.0079
 30
0.0000
  0
SEQEND
  8
0
  0
POLYLINE
  8
20
 66
1
 10
0.0000
 20
0.0000
 30
0.0000
 40
0.5080
 41
0.5080
 70
0
  0
VERTEX
  8
20
 10
50.3877
 20
92.5024
 30
0.0000
  0
VERTEX
  8
20
 10
50.3877
 20
90.8397
 30
0.0000
  0
SEQEND
  8
0
  0
POLYLINE
  8
20
 66
1
 10
0.0000
 20
0.0000
 30
0.0000
 40
0.2540
 41
0.2540
 70
0
  0
VERTEX
  8
20
 10
50.2606
 20
90.8397
 30
0.0000
 42
1.0000
  0
VERTEX
  8
20
 10
50.5147
 20
90.8397
 30
0.0000
  0
SEQEND
  8
0
  0
POLYLINE
  8
20
 66
1
 10
0.0000
 20
0.0000
 30
0.0000
 40
0.2540
 41
0.2540
 70
0
  0
VERTEX
  8
20
 10
50.5147
 20
92.5024
 30
0.0000
 42
1.0000
  0
VERTEX
  8
20
 10
50.2606
 20
92.5024
 30
0.0000
  0
SEQEND
  8
0
  0
POLYLINE
  8
20
 66
1
 10
0.0000
 20
0.0000
 30
0.0000
 40
0.5080
 41
0.5080
 70
0
  0
VERTEX
  8
20
 10
50.3877
 20
90.8397
 30
0.0000
  0
VERTEX
  8
20
 10
50.8033
 20
90.4240
 30
0.0000
  0
SEQEND
  8
0
  0
POLYLINE
  8
20
 66
1
 10
0.0000
 20
0.0000
 30
0.0000
 40
0.2540
 41
0.2540
 70
0
  0
VERTEX
  8
20
 10
50.7135
 20
90.3342
 30
0.0000
 42
1.0000
  0
VERTEX
  8
20
 10
50.8931
 20
90.5138
 30
0.0000
  0
SEQEND
  8
0
  0
POLYLINE
  8
20
 66
1
 10
0.0000
 20
0.0000
 30
0.0000
 40
0.2540
 41
0.2540
 70
0
  0
VERTEX
  8
20
 10
50.4775
 20
90.9295
 30
0.0000
 42
1.0000
  0
VERTEX
  8
20
 10
50.2978
 20
90.7499
 30
0.0000
  0
SEQEND
  8
0
  0
POLYLINE
  8
20
 66
1
 10
0.0000
 20
0.0000
 30
0.0000
 40
0.5080
 41
0.5080
 70
0
  0
VERTEX
  8
20
 10
50.8033
 20
90.4240
 30
0.0000
  0
VERTEX
  8
20
 10
51.6347
 20
90.4240
 30
0.0000
  0
SEQEND
  8
0
  0
POLYLINE
  8
20
 66
1
 10
0.0000
 20
0.0000
 30
0.0000
 40
0.2540
 41
0.2540
 70
0
  0
VERTEX
  8
20
 10
51.6347
 20
90.2970
 30
0.0000
 42
1.0000
  0
VERTEX
  8
20
 10
51.6347
 20
90.5510
 30
0.0000
  0
SEQEND
  8
0
  0
POLYLINE
  8
20
 66
1
 10
0.0000
 20
0.0000
 30
0.0000
 40
0.2540
 41
0.2540
 70
0
  0
VERTEX
  8
20
 10
50.8033
 20
90.5510
 30
0.0000
 42
1.0000
  0
VERTEX
  8
20
 10
50.8033
 20
90.2970
 30
0.0000
  0
SEQEND
  8
0
  0
POLYLINE
  8
20
 66
1
 10
0.0000
 20
0.0000
 30
0.0000
 40
0.5080
 41
0.5080
 70
0
  0
VERTEX
  8
20
 10
51.6347
 20
90.4240
 30
0.0000
  0
VERTEX
  8
20
 10
52.0504
 20
90.8397
 30
0.0000
  0
SEQEND
  8
0
  0
POLYLINE
  8
20
 66
1
 10
0.0000
 20
0.0000
 30
0.0000
 40
0.2540
 41
0.2540
 70
0
  0
VERTEX
  8
20
 10
52.1402
 20
90.7499
 30
0.0000
 42
1.0000
  0
VERTEX
  8
20
 10
51.9606
 20
90.9295
 30
0.0000
  0
SEQEND
  8
0
  0
POLYLINE
  8
20
 66
1
 10
0.0000
 20
0.0000
 30
0.0000
 40
0.2540
 41
0.2540
 70
0
  0
VERTEX
  8
20
 10
51.5449
 20
90.5138
 30
0.0000
 42
1.0000
  0
VERTEX
  8
20
 10
51.7245
 20
90.3342
 30
0.0000
  0
SEQEND
  8
0
  0
POLYLINE
  8
20
 66
1
 10
0.0000
 20
0.0000
 30
0.0000
 40
0.5080
 41
0.5080
 70
0
  0
VERTEX
  8
20
 10
52.0504
 20
90.8397
 30
0.0000
  0
VERTEX
  8
20
 10
52.0504
 20
92.5024
 30
0.0000
  0
SEQEND
  8
0
  0
POLYLINE
  8
20
 66
1
 10
0.0000
 20
0.0000
 30
0.0000
 40
0.2540
 41
0.2540
 70
0
  0
VERTEX
  8
20
 10
52.1774
 20
92.5024
 30
0.0000
 42
1.0000
  0
VERTEX
  8
20
 10
51.9234
 20
92.5024
 30
0.0000
  0
SEQEND
  8
0
  0
POLYLINE
  8
20
 66
1
 10
0.0000
 20
0.0000
 30
0.0000
 40
0.2540
 41
0.2540
 70
0
  0
VERTEX
  8
20
 10
51.9234
 20
90.8397
 30
0.0000
 42
1.0000
  0
VERTEX
  8
20
 10
52.1774
 20
90.8397
 30
0.0000
  0
SEQEND
  8
0
  0
POLYLINE
  8
20
 66
1
 10
0.0000
 20
0.0000
 30
0.0000
 40
0.5080
 41
0.5080
 70
0
  0
VERTEX
  8
20
 10
52.0504
 20
92.5024
 30
0.0000
  0
VERTEX
  8
20
 10
51.6347
 20
92.9181
 30
0.0000
  0
SEQEND
  8
0
  0
POLYLINE
  8
20
 66
1
 10
0.0000
 20
0.0000
 30
0.0000
 40
0.2540
 41
0.2540
 70
0
  0
VERTEX
  8
20
 10
51.7245
 20
93.0079
 30
0.0000
 42
1.0000
  0
VERTEX
  8
20
 10
51.5449
 20
92.8283
 30
0.0000
  0
SEQEND
  8
0
  0
POLYLINE
  8
20
 66
1
 10
0.0000
 20
0.0000
 30
0.0000
 40
0.2540
 41
0.2540
 70
0
  0
VERTEX
  8
20
 10
51.9606
 20
92.4126
 30
0.0000
 42
1.0000
  0
VERTEX
  8
20
 10
52.1402
 20
92.5922
 30
0.0000
  0
SEQEND
  8
0
  0
POLYLINE
  8
20
 66
1
 10
0.0000
 20
0.0000
 30
0.0000
 40
0.5080
 41
0.5080
 70
0
  0
VERTEX
  8
20
 10
53.1500
 20
90.4240
 30
0.0000
  0
VERTEX
  8
20
 10
53.1500
 20
92.9181
 30
0.0000
  0
SEQEND
  8
0
  0
POLYLINE
  8
20
 66
1
 10
0.0000
 20
0.0000
 30
0.0000
 40
0.2540
 41
0.2540
 70
0
  0
VERTEX
  8
20
 10
53.2770
 20
92.9181
 30
0.0000
 42
1.0000
  0
VERTEX
  8
20
 10
53.0230
 20
92.9181
 30
0.0000
  0
SEQEND
  8
0
  0
POLYLINE
  8
20
 66
1
 10
0.0000
 20
0.0000
 30
0.0000
 40
0.2540
 41
0.2540
 70
0
  0
VERTEX
  8
20
 10
53.0230
 20
90.4240
 30
0.0000
 42
1.0000
  0
VERTEX
  8
20
 10
53.2770
 20
90.4240
 30
0.0000
  0
SEQEND
  8
0
  0
POLYLINE
  8
20
 66
1
 10
0.0000
 20
0.0000
 30
0.0000
 40
0.5080
 41
0.5080
 70
0
  0
VERTEX
  8
20
 10
53.1500
 20
92.9181
 30
0.0000
  0
VERTEX
  8
20
 10
53.9814
 20
92.0868
 30
0.0000
  0
SEQEND
  8
0
  0
POLYLINE
  8
20
 66
1
 10
0.0000
 20
0.0000
 30
0.0000
 40
0.2540
 41
0.2540
 70
0
  0
VERTEX
  8
20
 10
53.8916
 20
91.9970
 30
0.0000
 42
1.0000
  0
VERTEX
  8
20
 10
54.0712
 20
92.1766
 30
0.0000
  0
SEQEND
  8
0
  0
POLYLINE
  8
20
 66
1
 10
0.0000
 20
0.0000
 30
0.0000
 40
0.2540
 41
0.2540
 70
0
  0
VERTEX
  8
20
 10
53.2398
 20
93.0079
 30
0.0000
 42
1.0000
  0
VERTEX
  8
20
 10
53.0602
 20
92.8283
 30
0.0000
  0
SEQEND
  8
0
  0
POLYLINE
  8
20
 66
1
 10
0.0000
 20
0.0000
 30
0.0000
 40
0.5080
 41
0.5080
 70
0
  0
VERTEX
  8
20
 10
53.9814
 20
92.0868
 30
0.0000
  0
VERTEX
  8
20
 10
54.8128
 20
92.9181
 30
0.0000
  0
SEQEND
  8
0
  0
POLYLINE
  8
20
 66
1
 10
0.0000
 20
0.0000
 30
0.0000
 40
0.2540
 41
0.2540
 70
0
  0
VERTEX
  8
20
 10
54.9026
 20
92.8283
 30
0.0000
 42
1.0000
  0
VERTEX
  8
20
 10
54.7230
 20
93.0079
 30
0.0000
  0
SEQEND
  8
0
  0
POLYLINE
  8
20
 66
1
 10
0.0000
 20
0.0000
 30
0.0000
 40
0.2540
 41
0.2540
 70
0
  0
VERTEX
  8
20
 10
53.8916
 20
92.1766
 30
0.0000
 42
1.0000
  0
VERTEX
  8
20
 10
54.0712
 20
91.9970
 30
0.0000
  0
SEQEND
  8
0
  0
POLYLINE
  8
20
 66
1
 10
0.0000
 20
0.0000
 30
0.0000
 40
0.5080
 41
0.5080
 70
0
  0
VERTEX
  8
20
 10
54.8128
 20
92.9181
 30
0.0000
  0
VERTEX
  8
20
 10
54.8128
 20
90.4240
 30
0.0000
  0
SEQEND
  8
0
  0
POLYLINE
  8
20
 66
1
 10
0.0000
 20
0.0000
 30
0.0000
 40
0.2540
 41
0.2540
 70
0
  0
VERTEX
  8
20
 10
54.6858
 20
90.4240
 30
0.0000
 42
1.0000
  0
VERTEX
  8
20
 10
54.9398
 20
90.4240
 30
0.0000
  0
SEQEND
  8
0
  0
POLYLINE
  8
20
 66
1
 10
0.0000
 20
0.0000
 30
0.0000
 40
0.2540
 41
0.2540
 70
0
  0
VERTEX
  8
20
 10
54.9398
 20
92.9181
 30
0.0000
 42
1.0000
  0
VERTEX
  8
20
 10
54.6858
 20
92.9181
 30
0.0000
  0
SEQEND
  8
0
  0
POLYLINE
  8
20
 66
1
 10
0.0000
 20
0.0000
 30
0.0000
 40
0.5080
 41
0.5080
 70
0
  0
VERTEX
  8
20
 10
57.1594
 20
92.9181
 30
0.0000
  0
VERTEX
  8
20
 10
56.3281
 20
92.9181
 30
0.0000
  0
SEQEND
  8
0
  0
POLYLINE
  8
20
 66
1
 10
0.0000
 20
0.0000
 30
0.0000
 40
0.2540
 41
0.2540
 70
0
  0
VERTEX
  8
20
 10
56.3281
 20
93.0451
 30
0.0000
 42
1.0000
  0
VERTEX
  8
20
 10
56.3281
 20
92.7911
 30
0.0000
  0
SEQEND
  8
0
  0
POLYLINE
  8
20
 66
1
 10
0.0000
 20
0.0000
 30
0.0000
 40
0.2540
 41
0.2540
 70
0
  0
VERTEX
  8
20
 10
57.1594
 20
92.7911
 30
0.0000
 42
1.0000
  0
VERTEX
  8
20
 10
57.1594
 20
93.0451
 30
0.0000
  0
SEQEND
  8
0
  0
POLYLINE
  8
20
 66
1
 10
0.0000
 20
0.0000
 30
0.0000
 40
0.5080
 41
0.5080
 70
0
  0
VERTEX
  8
20
 10
56.3281
 20
92.9181
 30
0.0000
  0
VERTEX
  8
20
 10
55.9124
 20
92.5024
 30
0.0000
  0
SEQEND
  8
0
  0
POLYLINE
  8
20
 66
1
 10
0.0000
 20
0.0000
 30
0.0000
 40
0.2540
 41
0.2540
 70
0
  0
VERTEX
  8
20
 10
55.8226
 20
92.5922
 30
0.0000
 42
1.0000
  0
VERTEX
  8
20
 10
56.0022
 20
92.4126
 30
0.0000
  0
SEQEND
  8
0
  0
POLYLINE
  8
20
 66
1
 10
0.0000
 20
0.0000
 30
0.0000
 40
0.2540
 41
0.2540
 70
0
  0
VERTEX
  8
20
 10
56.4179
 20
92.8283
 30
0.0000
 42
1.0000
  0
VERTEX
  8
20
 10
56.2383
 20
93.0079
 30
0.0000
  0
SEQEND
  8
0
  0
POLYLINE
  8
20
 66
1
 10
0.0000
 20
0.0000
 30
0.0000
 40
0.5080
 41
0.5080
 70
0
  0
VERTEX
  8
20
 10
55.9124
 20
92.5024
 30
0.0000
  0
VERTEX
  8
20
 10
55.9124
 20
90.8397
 30
0.0000
  0
SEQEND
  8
0
  0
POLYLINE
  8
20
 66
1
 10
0.0000
 20
0.0000
 30
0.0000
 40
0.2540
 41
0.2540
 70
0
  0
VERTEX
  8
20
 10
55.7854
 20
90.8397
 30
0.0000
 42
1.0000
  0
VERTEX
  8
20
 10
56.0394
 20
90.8397
 30
0.0000
  0
SEQEND
  8
0
  0
POLYLINE
  8
20
 66
1
 10
0.0000
 20
0.0000
 30
0.0000
 40
0.2540
 41
0.2540
 70
0
  0
VERTEX
  8
20
 10
56.0394
 20
92.5024
 30
0.0000
 42
1.0000
  0
VERTEX
  8
20
 10
55.7854
 20
92.5024
 30
0.0000
  0
SEQEND
  8
0
  0
POLYLINE
  8
20
 66
1
 10
0.0000
 20
0.0000
 30
0.0000
 40
0.5080
 41
0.5080
 70
0
  0
VERTEX
  8
20
 10
55.9124
 20
90.8397
 30
0.0000
  0
VERTEX
  8
20
 10
56.3281
 20
90.4240
 30
0.0000
  0
SEQEND
  8
0
  0
POLYLINE
  8
20
 66
1
 10
0.0000
 20
0.0000
 30
0.0000
 40
0.2540
 41
0.2540
 70
0
  0
VERTEX
  8
20
 10
56.2383
 20
90.3342
 30
0.0000
 42
1.0000
  0
VERTEX
  8
20
 10
56.4179
 20
90.5138
 30
0.0000
  0
SEQEND
  8
0
  0
POLYLINE
  8
20
 66
1
 10
0.0000
 20
0.0000
 30
0.0000
 40
0.2540
 41
0.2540
 70
0
  0
VERTEX
  8
20
 10
56.0022
 20
90.9295
 30
0.0000
 42
1.0000
  0
VERTEX
  8
20
 10
55.8226
 20
90.7499
 30
0.0000
  0
SEQEND
  8
0
  0
POLYLINE
  8
20
 66
1
 10
0.0000
 20
0.0000
 30
0.0000
 40
0.5080
 41
0.5080
 70
0
  0
VERTEX
  8
20
 10
56.3281
 20
90.4240
 30
0.0000
  0
VERTEX
  8
20
 10
57.1594
 20
90.4240
 30
0.0000
  0
SEQEND
  8
0
  0
POLYLINE
  8
20
 66
1
 10
0.0000
 20
0.0000
 30
0.0000
 40
0.2540
 41
0.2540
 70
0
  0
VERTEX
  8
20
 10
57.1594
 20
90.2970
 30
0.0000
 42
1.0000
  0
VERTEX
  8
20
 10
57.1594
 20
90.5510
 30
0.0000
  0
SEQEND
  8
0
  0
POLYLINE
  8
20
 66
1
 10
0.0000
 20
0.0000
 30
0.0000
 40
0.2540
 41
0.2540
 70
0
  0
VERTEX
  8
20
 10
56.3281
 20
90.5510
 30
0.0000
 42
1.0000
  0
VERTEX
  8
20
 10
56.3281
 20
90.2970
 30
0.0000
  0
SEQEND
  8
0
  0
POLYLINE
  8
20
 66
1
 10
0.0000
 20
0.0000
 30
0.0000
 40
0.5080
 41
0.5080
 70
0
  0
VERTEX
  8
20
 10
57.1594
 20
90.4240
 30
0.0000
  0
VERTEX
  8
20
 10
57.5751
 20
90.8397
 30
0.0000
  0
SEQEND
  8
0
  0
POLYLINE
  8
20
 66
1
 10
0.0000
 20
0.0000
 30
0.0000
 40
0.2540
 41
0.2540
 70
0
  0
VERTEX
  8
20
 10
57.6649
 20
90.7499
 30
0.0000
 42
1.0000
  0
VERTEX
  8
20
 10
57.4853
 20
90.9295
 30
0.0000
  0
SEQEND
  8
0
  0
POLYLINE
  8
20
 66
1
 10
0.0000
 20
0.0000
 30
0.0000
 40
0.2540
 41
0.2540
 70
0
  0
VERTEX
  8
20
 10
57.0696
 20
90.5138
 30
0.0000
 42
1.0000
  0
VERTEX
  8
20
 10
57.2492
 20
90.3342
 30
0.0000
  0
SEQEND
  8
0
  0
POLYLINE
  8
20
 66
1
 10
0.0000
 20
0.0000
 30
0.0000
 40
0.5080
 41
0.5080
 70
0
  0
VERTEX
  8
20
 10
57.5751
 20
90.8397
 30
0.0000
  0
VERTEX
  8
20
 10
57.5751
 20
92.5024
 30
0.0000
  0
SEQEND
  8
0
  0
POLYLINE
  8
20
 66
1
 10
0.0000
 20
0.0000
 30
0.0000
 40
0.2540
 41
0.2540
 70
0
  0
VERTEX
  8
20
 10
57.7021
 20
92.5024
 30
0.0000
 42
1.0000
  0
VERTEX
  8
20
 10
57.4481
 20
92.5024
 30
0.0000
  0
SEQEND
  8
0
  0
POLYLINE
  8
20
 66
1
 10
0.0000
 20
0.0000
 30
0.0000
 40
0.2540
 41
0.2540
 70
0
  0
VERTEX
  8
20
 10
57.4481
 20
90.8397
 30
0.0000
 42
1.0000
  0
VERTEX
  8
20
 10
57.7021
 20
90.8397
 30
0.0000
  0
SEQEND
  8
0
  0
POLYLINE
  8
20
 66
1
 10
0.0000
 20
0.0000
 30
0.0000
 40
0.5080
 41
0.5080
 70
0
  0
VERTEX
  8
20
 10
57.5751
 20
92.5024
 30
0.0000
  0
VERTEX
  8
20
 10
57.1594
 20
92.9181
 30
0.0000
  0
SEQEND
  8
0
  0
POLYLINE
  8
20
 66
1
 10
0.0000
 20
0.0000
 30
0.0000
 40
0.2540
 41
0.2540
 70
0
  0
VERTEX
  8
20
 10
57.2492
 20
93.0079
 30
0.0000
 42
1.0000
  0
VERTEX
  8
20
 10
57.0696
 20
92.8283
 30
0.0000
  0
SEQEND
  8
0
  0
POLYLINE
  8
20
 66
1
 10
0.0000
 20
0.0000
 30
0.0000
 40
0.2540
 41
0.2540
 70
0
  0
VERTEX
  8
20
 10
57.4853
 20
92.4126
 30
0.0000
 42
1.0000
  0
VERTEX
  8
20
 10
57.6649
 20
92.5922
 30
0.0000
  0
SEQEND
  8
0
  0
POLYLINE
  8
20
 66
1
 10
0.0000
 20
0.0000
 30
0.0000
 40
0.5080
 41
0.5080
 70
0
  0
VERTEX
  8
20
 10
58.6747
 20
92.9181
 30
0.0000
  0
VERTEX
  8
20
 10
58.6747
 20
90.8397
 30
0.0000
  0
SEQEND
  8
0
  0
POLYLINE
  8
20
 66
1
 10
0.0000
 20
0.0000
 30
0.0000
 40
0.2540
 41
0.2540
 70
0
  0
VERTEX
  8
20
 10
58.5477
 20
90.8397
 30
0.0000
 42
1.0000
  0
VERTEX
  8
20
 10
58.8017
 20
90.8397
 30
0.0000
  0
SEQEND
  8
0
  0
POLYLINE
  8
20
 66
1
 10
0.0000
 20
0.0000
 30
0.0000
 40
0.2540
 41
0.2540
 70
0
  0
VERTEX
  8
20
 10
58.8017
 20
92.9181
 30
0.0000
 42
1.0000
  0
VERTEX
  8
20
 10
58.5477
 20
92.9181
 30
0.0000
  0
SEQEND
  8
0
  0
POLYLINE
  8
20
 66
1
 10
0.0000
 20
0.0000
 30
0.0000
 40
0.5080
 41
0.5080
 70
0
  0
VERTEX
  8
20
 10
58.6747
 20
90.8397
 30
0.0000
  0
VERTEX
  8
20
 10
59.0904
 20
90.4240
 30
0.0000
  0
SEQEND
  8
0
  0
POLYLINE
  8
20
 66
1
 10
0.0000
 20
0.0000
 30
0.0000
 40
0.2540
 41
0.2540
 70
0
  0
VERTEX
  8
20
 10
59.0006
 20
90.3342
 30
0.0000
 42
1.0000
  0
VERTEX
  8
20
 10
59.1802
 20
90.5138
 30
0.0000
  0
SEQEND
  8
0
  0
POLYLINE
  8
20
 66
1
 10
0.0000
 20
0.0000
 30
0.0000
 40
0.2540
 41
0.2540
 70
0
  0
VERTEX
  8
20
 10
58.7645
 20
90.9295
 30
0.0000
 42
1.0000
  0
VERTEX
  8
20
 10
58.5849
 20
90.7499
 30
0.0000
  0
SEQEND
  8
0
  0
POLYLINE
  8
20
 66
1
 10
0.0000
 20
0.0000
 30
0.0000
 40
0.5080
 41
0.5080
 70
0
  0
VERTEX
  8
20
 10
59.0904
 20
90.4240
 30
0.0000
  0
VERTEX
  8
20
 10
59.9218
 20
90.4240
 30
0.0000
  0
SEQEND
  8
0
  0
POLYLINE
  8
20
 66
1
 10
0.0000
 20
0.0000
 30
0.0000
 40
0.2540
 41
0.2540
 70
0
  0
VERTEX
  8
20
 10
59.9218
 20
90.2970
 30
0.0000
 42
1.0000
  0
VERTEX
  8
20
 10
59.9218
 20
90.5510
 30
0.0000
  0
SEQEND
  8
0
  0
POLYLINE
  8
20
 66
1
 10
0.0000
 20
0.0000
 30
0.0000
 40
0.2540
 41
0.2540
 70
0
  0
VERTEX
  8
20
 10
59.0904
 20
90.5510
 30
0.0000
 42
1.0000
  0
VERTEX
  8
20
 10
59.0904
 20
90.2970
 30
0.0000
  0
SEQEND
  8
0
  0
POLYLINE
  8
20
 66
1
 10
0.0000
 20
0.0000
 30
0.0000
 40
0.5080
 41
0.5080
 70
0
  0
VERTEX
  8
20
 10
59.9218
 20
90.4240
 30
0.0000
  0
VERTEX
  8
20
 10
60.3375
 20
90.8397
 30
0.0000
  0
SEQEND
  8
0
  0
POLYLINE
  8
20
 66
1
 10
0.0000
 20
0.0000
 30
0.0000
 40
0.2540
 41
0.2540
 70
0
  0
VERTEX
  8
20
 10
60.4273
 20
90.7499
 30
0.0000
 42
1.0000
  0
VERTEX
  8
20
 10
60.2477
 20
90.9295
 30
0.0000
  0
SEQEND
  8
0
  0
POLYLINE
  8
20
 66
1
 10
0.0000
 20
0.0000
 30
0.0000
 40
0.2540
 41
0.2540
 70
0
  0
VERTEX
  8
20
 10
59.8320
 20
90.5138
 30
0.0000
 42
1.0000
  0
VERTEX
  8
20
 10
60.0116
 20
90.3342
 30
0.0000
  0
SEQEND
  8
0
  0
POLYLINE
  8
20
 66
1
 10
0.0000
 20
0.0000
 30
0.0000
 40
0.5080
 41
0.5080
 70
0
  0
VERTEX
  8
20
 10
60.3375
 20
90.8397
 30
0.0000
  0
VERTEX
  8
20
 10
60.3375
 20
92.9181
 30
0.0000
  0
SEQEND
  8
0
  0
POLYLINE
  8
20
 66
1
 10
0.0000
 20
0.0000
 30
0.0000
 40
0.2540
 41
0.2540
 70
0
  0
VERTEX
  8
20
 10
60.4645
 20
92.9181
 30
0.0000
 42
1.0000
  0
VERTEX
  8
20
 10
60.2105
 20
92.9181
 30
0.0000
  0
SEQEND
  8
0
  0
POLYLINE
  8
20
 66
1
 10
0.0000
 20
0.0000
 30
0.0000
 40
0.2540
 41
0.2540
 70
0
  0
VERTEX
  8
20
 10
60.2105
 20
90.8397
 30
0.0000
 42
1.0000
  0
VERTEX
  8
20
 10
60.4645
 20
90.8397
 30
0.0000
  0
SEQEND
  8
0
  0
POLYLINE
  8
20
 66
1
 10
0.0000
 20
0.0000
 30
0.0000
 40
0.5080
 41
0.5080
 70
0
  0
VERTEX
  8
20
 10
63.0998
 20
92.5024
 30
0.0000
  0
VERTEX
  8
20
 10
62.6842
 20
92.9181
 30
0.0000
  0
SEQEND
  8
0
  0
POLYLINE
  8
20
 66
1
 10
0.0000
 20
0.0000
 30
0.0000
 40
0.2540
 41
0.2540
 70
0
  0
VERTEX
  8
20
 10
62.7740
 20
93.0079
 30
0.0000
 42
1.0000
  0
VERTEX
  8
20
 10
62.5944
 20
92.8283
 30
0.0000
  0
SEQEND
  8
0
  0
POLYLINE
  8
20
 66
1
 10
0.0000
 20
0.0000
 30
0.0000
 40
0.2540
 41
0.2540
 70
0
  0
VERTEX
  8
20
 10
63.0100
 20
92.4126
 30
0.0000
 42
1.0000
  0
VERTEX
  8
20
 10
63.1896
 20
92.5922
 30
0.0000
  0
SEQEND
  8
0
  0
POLYLINE
  8
20
 66
1
 10
0.0000
 20
0.0000
 30
0.0000
 40
0.5080
 41
0.5080
 70
0
  0
VERTEX
  8
20
 10
62.6842
 20
92.9181
 30
0.0000
  0
VERTEX
  8
20
 10
61.8528
 20
92.9181
 30
0.0000
  0
SEQEND
  8
0
  0
POLYLINE
  8
20
 66
1
 10
0.0000
 20
0.0000
 30
0.0000
 40
0.2540
 41
0.2540
 70
0
  0
VERTEX
  8
20
 10
61.8528
 20
93.0451
 30
0.0000
 42
1.0000
  0
VERTEX
  8
20
 10
61.8528
 20
92.7911
 30
0.0000
  0
SEQEND
  8
0
  0
POLYLINE
  8
20
 66
1
 10
0.0000
 20
0.0000
 30
0.0000
 40
0.2540
 41
0.2540
 70
0
  0
VERTEX
  8
20
 10
62.6842
 20
92.7911
 30
0.0000
 42
1.0000
  0
VERTEX
  8
20
 10
62.6842
 20
93.0451
 30
0.0000
  0
SEQEND
  8
0
  0
POLYLINE
  8
20
 66
1
 10
0.0000
 20
0.0000
 30
0.0000
 40
0.5080
 41
0.5080
 70
0
  0
VERTEX
  8
20
 10
61.8528
 20
92.9181
 30
0.0000
  0
VERTEX
  8
20
 10
61.4371
 20
92.5024
 30
0.0000
  0
SEQEND
  8
0
  0
POLYLINE
  8
20
 66
1
 10
0.0000
 20
0.0000
 30
0.0000
 40
0.2540
 41
0.2540
 70
0
  0
VERTEX
  8
20
 10
61.3473
 20
92.5922
 30
0.0000
 42
1.0000
  0
VERTEX
  8
20
 10
61.5269
 20
92.4126
 30
0.0000
  0
SEQEND
  8
0
  0
POLYLINE
  8
20
 66
1
 10
0.0000
 20
0.0000
 30
0.0000
 40
0.2540
 41
0.2540
 70
0
  0
VERTEX
  8
20
 10
61.9426
 20
92.8283
 30
0.0000
 42
1.0000
  0
VERTEX
  8
20
 10
61.7630
 20
93.0079
 30
0.0000
  0
SEQEND
  8
0
  0
POLYLINE
  8
20
 66
1
 10
0.0000
 20
0.0000
 30
0.0000
 40
0.5080
 41
0.5080
 70
0
  0
VERTEX
  8
20
 10
61.4371
 20
92.5024
 30
0.0000
  0
VERTEX
  8
20
 10
61.4371
 20
92.0868
 30
0.0000
  0
SEQEND
  8
0
  0
POLYLINE
  8
20
 66
1
 10
0.0000
 20
0.0000
 30
0.0000
 40
0.2540
 41
0.2540
 70
0
  0
VERTEX
  8
20
 10
61.3101
 20
92.0868
 30
0.0000
 42
1.0000
  0
VERTEX
  8
20
 10
61.5641
 20
92.0868
 30
0.0000
  0
SEQEND
  8
0
  0
POLYLINE
  8
20
 66
1
 10
0.0000
 20
0.0000
 30
0.0000
 40
0.2540
 41
0.2540
 70
0
  0
VERTEX
  8
20
 10
61.5641
 20
92.5024
 30
0.0000
 42
1.0000
  0
VERTEX
  8
20
 10
61.3101
 20
92.5024
 30
0.0000
  0
SEQEND
  8
0
  0
POLYLINE
  8
20
 66
1
 10
0.0000
 20
0.0000
 30
0.0000
 40
0.5080
 41
0.5080
 70
0
  0
VERTEX
  8
20
 10
61.4371
 20
92.0868
 30
0.0000
  0
VERTEX
  8
20
 10
61.8528
 20
91.6711
 30
0.0000
  0
SEQEND
  8
0
  0
POLYLINE
  8
20
 66
1
 10
0.0000
 20
0.0000
 30
0.0000
 40
0.2540
 41
0.2540
 70
0
  0
VERTEX
  8
20
 10
61.7630
 20
91.5813
 30
0.0000
 42
1.0000
  0
VERTEX
  8
20
 10
61.9426
 20
91.7609
 30
0.0000
  0
SEQEND
  8
0
  0
POLYLINE
  8
20
 66
1
 10
0.0000
 20
0.0000
 30
0.0000
 40
0.2540
 41
0.2540
 70
0
  0
VERTEX
  8
20
 10
61.5269
 20
92.1766
 30
0.0000
 42
1.0000
  0
VERTEX
  8
20
 10
61.3473
 20
91.9970
 30
0.0000
  0
SEQEND
  8
0
  0
POLYLINE
  8
20
 66
1
 10
0.0000
 20
0.0000
 30
0.0000
 40
0.5080
 41
0.5080
 70
0
  0
VERTEX
  8
20
 10
61.8528
 20
91.6711
 30
0.0000
  0
VERTEX
  8
20
 10
62.6842
 20
91.6711
 30
0.0000
  0
SEQEND
  8
0
  0
POLYLINE
  8
20
 66
1
 10
0.0000
 20
0.0000
 30
0.0000
 40
0.2540
 41
0.2540
 70
0
  0
VERTEX
  8
20
 10
62.6842
 20
91.5441
 30
0.0000
 42
1.0000
  0
VERTEX
  8
20
 10
62.6842
 20
91.7981
 30
0.0000
  0
SEQEND
  8
0
  0
POLYLINE
  8
20
 66
1
 10
0.0000
 20
0.0000
 30
0.0000
 40
0.2540
 41
0.2540
 70
0
  0
VERTEX
  8
20
 10
61.8528
 20
91.7981
 30
0.0000
 42
1.0000
  0
VERTEX
  8
20
 10
61.8528
 20
91.5441
 30
0.0000
  0
SEQEND
  8
0
  0
POLYLINE
  8
20
 66
1
 10
0.0000
 20
0.0000
 30
0.0000
 40
0.5080
 41
0.5080
 70
0
  0
VERTEX
  8
20
 10
62.6842
 20
91.6711
 30
0.0000
  0
VERTEX
  8
20
 10
63.0998
 20
91.2554
 30
0.0000
  0
SEQEND
  8
0
  0
POLYLINE
  8
20
 66
1
 10
0.0000
 20
0.0000
 30
0.0000
 40
0.2540
 41
0.2540
 70
0
  0
VERTEX
  8
20
 10
63.0100
 20
91.1656
 30
0.0000
 42
1.0000
  0
VERTEX
  8
20
 10
63.1896
 20
91.3452
 30
0.0000
  0
SEQEND
  8
0
  0
POLYLINE
  8
20
 66
1
 10
0.0000
 20
0.0000
 30
0.0000
 40
0.2540
 41
0.2540
 70
0
  0
VERTEX
  8
20
 10
62.7740
 20
91.7609
 30
0.0000
 42
1.0000
  0
VERTEX
  8
20
 10
62.5944
 20
91.5813
 30
0.0000
  0
SEQEND
  8
0
  0
POLYLINE
  8
20
 66
1
 10
0.0000
 20
0.0000
 30
0.0000
 40
0.5080
 41
0.5080
 70
0
  0
VERTEX
  8
20
 10
63.0998
 20
91.2554
 30
0.0000
  0
VERTEX
  8
20
 10
63.0998
 20
90.8397
 30
0.0000
  0
SEQEND
  8
0
  0
POLYLINE
  8
20
 66
1
 10
0.0000
 20
0.0000
 30
0.0000
 40
0.2540
 41
0.2540
 70
0
  0
VERTEX
  8
20
 10
62.9728
 20
90.8397
 30
0.0000
 42
1.0000
  0
VERTEX
  8
20
 10
63.2268
 20
90.8397
 30
0.0000
  0
SEQEND
  8
0
  0
POLYLINE
  8
20
 66
1
 10
0.0000
 20
0.0000
 30
0.0000
 40
0.2540
 41
0.2540
 70
0
  0
VERTEX
  8
20
 10
63.2268
 20
91.2554
 30
0.0000
 42
1.0000
  0
VERTEX
  8
20
 10
62.9728
 20
91.2554
 30
0.0000
  0
SEQEND
  8
0
  0
POLYLINE
  8
20
 66
1
 10
0.0000
 20
0.0000
 30
0.0000
 40
0.5080
 41
0.5080
 70
0
  0
VERTEX
  8
20
 10
63.0998
 20
90.8397
 30
0.0000
  0
VERTEX
  8
20
 10
62.6842
 20
90.4240
 30
0.0000
  0
SEQEND
  8
0
  0
POLYLINE
  8
20
 66
1
 10
0.0000
 20
0.0000
 30
0.0000
 40
0.2540
 41
0.2540
 70
0
  0
VERTEX
  8
20
 10
62.5944
 20
90.5138
 30
0.0000
 42
1.0000
  0
VERTEX
  8
20
 10
62.7740
 20
90.3342
 30
0.0000
  0
SEQEND
  8
0
  0
POLYLINE
  8
20
 66
1
 10
0.0000
 20
0.0000
 30
0.0000
 40
0.2540
 41
0.2540
 70
0
  0
VERTEX
  8
20
 10
63.1896
 20
90.7499
 30
0.0000
 42
1.0000
  0
VERTEX
  8
20
 10
63.0100
 20
90.9295
 30
0.0000
  0
SEQEND
  8
0
  0
POLYLINE
  8
20
 66
1
 10
0.0000
 20
0.0000
 30
0.0000
 40
0.5080
 41
0.5080
 70
0
  0
VERTEX
  8
20
 10
62.6842
 20
90.4240
 30
0.0000
  0
VERTEX
  8
20
 10
61.8528
 20
90.4240
 30
0.0000
  0
SEQEND
  8
0
  0
POLYLINE
  8
20
 66
1
 10
0.0000
 20
0.0000
 30
0.0000
 40
0.2540
 41
0.2540
 70
0
  0
VERTEX
  8
20
 10
61.8528
 20
90.5510
 30
0.0000
 42
1.0000
  0
VERTEX
  8
20
 10
61.8528
 20
90.2970
 30
0.0000
  0
SEQEND
  8
0
  0
POLYLINE
  8
20
 66
1
 10
0.0000
 20
0.0000
 30
0.0000
 40
0.2540
 41
0.2540
 70
0
  0
VERTEX
  8
20
 10
62.6842
 20
90.2970
 30
0.0000
 42
1.0000
  0
VERTEX
  8
20
 10
62.6842
 20
90.5510
 30
0.0000
  0
SEQEND
  8
0
  0
POLYLINE
  8
20
 66
1
 10
0.0000
 20
0.0000
 30
0.0000
 40
0.5080
 41
0.5080
 70
0
  0
VERTEX
  8
20
 10
61.8528
 20
90.4240
 30
0.0000
  0
VERTEX
  8
20
 10
61.4371
 20
90.8397
 30
0.0000
  0
SEQEND
  8
0
  0
POLYLINE
  8
20
 66
1
 10
0.0000
 20
0.0000
 30
0.0000
 40
0.2540
 41
0.2540
 70
0
  0
VERTEX
  8
20
 10
61.5269
 20
90.9295
 30
0.0000
 42
1.0000
  0
VERTEX
  8
20
 10
61.3473
 20
90.7499
 30
0.0000
  0
SEQEND
  8
0
  0
POLYLINE
  8
20
 66
1
 10
0.0000
 20
0.0000
 30
0.0000
 40
0.2540
 41
0.2540
 70
0
  0
VERTEX
  8
20
 10
61.7630
 20
90.3342
 30
0.0000
 42
1.0000
  0
VERTEX
  8
20
 10
61.9426
 20
90.5138
 30
0.0000
  0
SEQEND
  8
0
  0
POLYLINE
  8
20
 66
1
 10
0.0000
 20
0.0000
 30
0.0000
 40
0.5080
 41
0.5080
 70
0
  0
VERTEX
  8
20
 10
65.8622
 20
92.9181
 30
0.0000
  0
VERTEX
  8
20
 10
64.1994
 20
92.9181
 30
0.0000
  0
SEQEND
  8
0
  0
POLYLINE
  8
20
 66
1
 10
0.0000
 20
0.0000
 30
0.0000
 40
0.2540
 41
0.2540
 70
0
  0
VERTEX
  8
20
 10
64.1994
 20
93.0451
 30
0.0000
 42
1.0000
  0
VERTEX
  8
20
 10
64.1994
 20
92.7911
 30
0.0000
  0
SEQEND
  8
0
  0
POLYLINE
  8
20
 66
1
 10
0.0000
 20
0.0000
 30
0.0000
 40
0.2540
 41
0.2540
 70
0
  0
VERTEX
  8
20
 10
65.8622
 20
92.7911
 30
0.0000
 42
1.0000
  0
VERTEX
  8
20
 10
65.8622
 20
93.0451
 30
0.0000
  0
SEQEND
  8
0
  0
POLYLINE
  8
20
 66
1
 10
0.0000
 20
0.0000
 30
0.0000
 40
0.5080
 41
0.5080
 70
0
  0
VERTEX
  8
20
 10
64.1994
 20
92.9181
 30
0.0000
  0
VERTEX
  8
20
 10
64.1994
 20
90.4240
 30
0.0000
  0
SEQEND
  8
0
  0
POLYLINE
  8
20
 66
1
 10
0.0000
 20
0.0000
 30
0.0000
 40
0.2540
 41
0.2540
 70
0
  0
VERTEX
  8
20
 10
64.0724
 20
90.4240
 30
0.0000
 42
1.0000
  0
VERTEX
  8
20
 10
64.3264
 20
90.4240
 30
0.0000
  0
SEQEND
  8
0
  0
POLYLINE
  8
20
 66
1
 10
0.0000
 20
0.0000
 30
0.0000
 40
0.2540
 41
0.2540
 70
0
  0
VERTEX
  8
20
 10
64.3264
 20
92.9181
 30
0.0000
 42
1.0000
  0
VERTEX
  8
20
 10
64.0724
 20
92.9181
 30
0.0000
  0
SEQEND
  8
0
  0
POLYLINE
  8
20
 66
1
 10
0.0000
 20
0.0000
 30
0.0000
 40
0.5080
 41
0.5080
 70
0
  0
VERTEX
  8
20
 10
64.1994
 20
90.4240
 30
0.0000
  0
VERTEX
  8
20
 10
65.8622
 20
90.4240
 30
0.0000
  0
SEQEND
  8
0
  0
POLYLINE
  8
20
 66
1
 10
0.0000
 20
0.0000
 30
0.0000
 40
0.2540
 41
0.2540
 70
0
  0
VERTEX
  8
20
 10
65.8622
 20
90.2970
 30
0.0000
 42
1.0000
  0
VERTEX
  8
20
 10
65.8622
 20
90.5510
 30
0.0000
  0
SEQEND
  8
0
  0
POLYLINE
  8
20
 66
1
 10
0.0000
 20
0.0000
 30
0.0000
 40
0.2540
 41
0.2540
 70
0
  0
VERTEX
  8
20
 10
64.1994
 20
90.5510
 30
0.0000
 42
1.0000
  0
VERTEX
  8
20
 10
64.1994
 20
90.2970
 30
0.0000
  0
SEQEND
  8
0
  0
POLYLINE
  8
20
 66
1
 10
0.0000
 20
0.0000
 30
0.0000
 40
0.5080
 41
0.5080
 70
0
  0
VERTEX
  8
20
 10
64.1994
 20
91.6711
 30
0.0000
  0
VERTEX
  8
20
 10
65.0308
 20
91.6711
 30
0.0000
  0
SEQEND
  8
0
  0
POLYLINE
  8
20
 66
1
 10
0.0000
 20
0.0000
 30
0.0000
 40
0.2540
 41
0.2540
 70
0
  0
VERTEX
  8
20
 10
65.0308
 20
91.5441
 30
0.0000
 42
1.0000
  0
VERTEX
  8
20
 10
65.0308
 20
91.7981
 30
0.0000
  0
SEQEND
  8
0
  0
POLYLINE
  8
20
 66
1
 10
0.0000
 20
0.0000
 30
0.0000
 40
0.2540
 41
0.2540
 70
0
  0
VERTEX
  8
20
 10
64.1994
 20
91.7981
 30
0.0000
 42
1.0000
  0
VERTEX
  8
20
 10
64.1994
 20
91.5441
 30
0.0000
  0
SEQEND
  8
0
  0
POLYLINE
  8
20
 66
1
 10
0.0000
 20
0.0000
 30
0.0000
 40
0.5080
 41
0.5080
 70
0
  0
VERTEX
  8
20
 10
70.5555
 20
90.4240
 30
0.0000
  0
VERTEX
  8
20
 10
70.5555
 20
92.9181
 30
0.0000
  0
SEQEND
  8
0
  0
POLYLINE
  8
20
 66
1
 10
0.0000
 20
0.0000
 30
0.0000
 40
0.2540
 41
0.2540
 70
0
  0
VERTEX
  8
20
 10
70.6825
 20
92.9181
 30
0.0000
 42
1.0000
  0
VERTEX
  8
20
 10
70.4285
 20
92.9181
 30
0.0000
  0
SEQEND
  8
0
  0
POLYLINE
  8
20
 66
1
 10
0.0000
 20
0.0000
 30
0.0000
 40
0.2540
 41
0.2540
 70
0
  0
VERTEX
  8
20
 10
70.4285
 20
90.4240
 30
0.0000
 42
1.0000
  0
VERTEX
  8
20
 10
70.6825
 20
90.4240
 30
0.0000
  0
SEQEND
  8
0
  0
POLYLINE
  8
20
 66
1
 10
0.0000
 20
0.0000
 30
0.0000
 40
0.5080
 41
0.5080
 70
0
  0
VERTEX
  8
20
 10
69.7242
 20
92.9181
 30
0.0000
  0
VERTEX
  8
20
 10
71.3869
 20
92.9181
 30
0.0000
  0
SEQEND
  8
0
  0
POLYLINE
  8
20
 66
1
 10
0.0000
 20
0.0000
 30
0.0000
 40
0.2540
 41
0.2540
 70
0
  0
VERTEX
  8
20
 10
71.3869
 20
92.7911
 30
0.0000
 42
1.0000
  0
VERTEX
  8
20
 10
71.3869
 20
93.0451
 30
0.0000
  0
SEQEND
  8
0
  0
POLYLINE
  8
20
 66
1
 10
0.0000
 20
0.0000
 30
0.0000
 40
0.2540
 41
0.2540
 70
0
  0
VERTEX
  8
20
 10
69.7242
 20
93.0451
 30
0.0000
 42
1.0000
  0
VERTEX
  8
20
 10
69.7242
 20
92.7911
 30
0.0000
  0
SEQEND
  8
0
  0
POLYLINE
  8
20
 66
1
 10
0.0000
 20
0.0000
 30
0.0000
 40
0.5080
 41
0.5080
 70
0
  0
VERTEX
  8
20
 10
72.4865
 20
90.4240
 30
0.0000
  0
VERTEX
  8
20
 10
73.3179
 20
90.4240
 30
0.0000
  0
SEQEND
  8
0
  0
POLYLINE
  8
20
 66
1
 10
0.0000
 20
0.0000
 30
0.0000
 40
0.2540
 41
0.2540
 70
0
  0
VERTEX
  8
20
 10
73.3179
 20
90.2970
 30
0.0000
 42
1.0000
  0
VERTEX
  8
20
 10
73.3179
 20
90.5510
 30
0.0000
  0
SEQEND
  8
0
  0
POLYLINE
  8
20
 66
1
 10
0.0000
 20
0.0000
 30
0.0000
 40
0.2540
 41
0.2540
 70
0
  0
VERTEX
  8
20
 10
72.4865
 20
90.5510
 30
0.0000
 42
1.0000
  0
VERTEX
  8
20
 10
72.4865
 20
90.2970
 30
0.0000
  0
SEQEND
  8
0
  0
POLYLINE
  8
20
 66
1
 10
0.0000
 20
0.0000
 30
0.0000
 40
0.5080
 41
0.5080
 70
0
  0
VERTEX
  8
20
 10
72.9022
 20
90.4240
 30
0.0000
  0
VERTEX
  8
20
 10
72.9022
 20
92.9181
 30
0.0000
  0
SEQEND
  8
0
  0
POLYLINE
  8
20
 66
1
 10
0.0000
 20
0.0000
 30
0.0000
 40
0.2540
 41
0.2540
 70
0
  0
VERTEX
  8
20
 10
73.0292
 20
92.9181
 30
0.0000
 42
1.0000
  0
VERTEX
  8
20
 10
72.7752
 20
92.9181
 30
0.0000
  0
SEQEND
  8
0
  0
POLYLINE
  8
20
 66
1
 10
0.0000
 20
0.0000
 30
0.0000
 40
0.2540
 41
0.2540
 70
0
  0
VERTEX
  8
20
 10
72.7752
 20
90.4240
 30
0.0000
 42
1.0000
  0
VERTEX
  8
20
 10
73.0292
 20
90.4240
 30
0.0000
  0
SEQEND
  8
0
  0
POLYLINE
  8
20
 66
1
 10
0.0000
 20
0.0000
 30
0.0000
 40
0.5080
 41
0.5080
 70
0
  0
VERTEX
  8
20
 10
72.4865
 20
92.9181
 30
0.0000
  0
VERTEX
  8
20
 10
73.3179
 20
92.9181
 30
0.0000
  0
SEQEND
  8
0
  0
POLYLINE
  8
20
 66
1
 10
0.0000
 20
0.0000
 30
0.0000
 40
0.2540
 41
0.2540
 70
0
  0
VERTEX
  8
20
 10
73.3179
 20
92.7911
 30
0.0000
 42
1.0000
  0
VERTEX
  8
20
 10
73.3179
 20
93.0451
 30
0.0000
  0
SEQEND
  8
0
  0
POLYLINE
  8
20
 66
1
 10
0.0000
 20
0.0000
 30
0.0000
 40
0.2540
 41
0.2540
 70
0
  0
VERTEX
  8
20
 10
72.4865
 20
93.0451
 30
0.0000
 42
1.0000
  0
VERTEX
  8
20
 10
72.4865
 20
92.7911
 30
0.0000
  0
SEQEND
  8
0
  0
POLYLINE
  8
20
 66
1
 10
0.0000
 20
0.0000
 30
0.0000
 40
0.5080
 41
0.5080
 70
0
  0
VERTEX
  8
20
 10
74.3281
 20
90.4240
 30
0.0000
  0
VERTEX
  8
20
 10
74.3281
 20
92.9181
 30
0.0000
  0
SEQEND
  8
0
  0
POLYLINE
  8
20
 66
1
 10
0.0000
 20
0.0000
 30
0.0000
 40
0.2540
 41
0.2540
 70
0
  0
VERTEX
  8
20
 10
74.4551
 20
92.9181
 30
0.0000
 42
1.0000
  0
VERTEX
  8
20
 10
74.2011
 20
92.9181
 30
0.0000
  0
SEQEND
  8
0
  0
POLYLINE
  8
20
 66
1
 10
0.0000
 20
0.0000
 30
0.0000
 40
0.2540
 41
0.2540
 70
0
  0
VERTEX
  8
20
 10
74.2011
 20
90.4240
 30
0.0000
 42
1.0000
  0
VERTEX
  8
20
 10
74.4551
 20
90.4240
 30
0.0000
  0
SEQEND
  8
0
  0
POLYLINE
  8
20
 66
1
 10
0.0000
 20
0.0000
 30
0.0000
 40
0.5080
 41
0.5080
 70
0
  0
VERTEX
  8
20
 10
74.3281
 20
92.9181
 30
0.0000
  0
VERTEX
  8
20
 10
75.1595
 20
92.0868
 30
0.0000
  0
SEQEND
  8
0
  0
POLYLINE
  8
20
 66
1
 10
0.0000
 20
0.0000
 30
0.0000
 40
0.2540
 41
0.2540
 70
0
  0
VERTEX
  8
20
 10
75.0697
 20
91.9970
 30
0.0000
 42
1.0000
  0
VERTEX
  8
20
 10
75.2493
 20
92.1766
 30
0.0000
  0
SEQEND
  8
0
  0
POLYLINE
  8
20
 66
1
 10
0.0000
 20
0.0000
 30
0.0000
 40
0.2540
 41
0.2540
 70
0
  0
VERTEX
  8
20
 10
74.4179
 20
93.0079
 30
0.0000
 42
1.0000
  0
VERTEX
  8
20
 10
74.2383
 20
92.8283
 30
0.0000
  0
SEQEND
  8
0
  0
POLYLINE
  8
20
 66
1
 10
0.0000
 20
0.0000
 30
0.0000
 40
0.5080
 41
0.5080
 70
0
  0
VERTEX
  8
20
 10
75.1595
 20
92.0868
 30
0.0000
  0
VERTEX
  8
20
 10
75.9909
 20
92.9181
 30
0.0000
  0
SEQEND
  8
0
  0
POLYLINE
  8
20
 66
1
 10
0.0000
 20
0.0000
 30
0.0000
 40
0.2540
 41
0.2540
 70
0
  0
VERTEX
  8
20
 10
76.0807
 20
92.8283
 30
0.0000
 42
1.0000
  0
VERTEX
  8
20
 10
75.9010
 20
93.0079
 30
0.0000
  0
SEQEND
  8
0
  0
POLYLINE
  8
20
 66
1
 10
0.0000
 20
0.0000
 30
0.0000
 40
0.2540
 41
0.2540
 70
0
  0
VERTEX
  8
20
 10
75.0697
 20
92.1766
 30
0.0000
 42
1.0000
  0
VERTEX
  8
20
 10
75.2493
 20
91.9970
 30
0.0000
  0
SEQEND
  8
0
  0
POLYLINE
  8
20
 66
1
 10
0.0000
 20
0.0000
 30
0.0000
 40
0.5080
 41
0.5080
 70
0
  0
VERTEX
  8
20
 10
75.9909
 20
92.9181
 30
0.0000
  0
VERTEX
  8
20
 10
75.9909
 20
90.4240
 30
0.0000
  0
SEQEND
  8
0
  0
POLYLINE
  8
20
 66
1
 10
0.0000
 20
0.0000
 30
0.0000
 40
0.2540
 41
0.2540
 70
0
  0
VERTEX
  8
20
 10
75.8639
 20
90.4240
 30
0.0000
 42
1.0000
  0
VERTEX
  8
20
 10
76.1179
 20
90.4240
 30
0.0000
  0
SEQEND
  8
0
  0
POLYLINE
  8
20
 66
1
 10
0.0000
 20
0.0000
 30
0.0000
 40
0.2540
 41
0.2540
 70
0
  0
VERTEX
  8
20
 10
76.1179
 20
92.9181
 30
0.0000
 42
1.0000
  0
VERTEX
  8
20
 10
75.8639
 20
92.9181
 30
0.0000
  0
SEQEND
  8
0
  0
POLYLINE
  8
20
 66
1
 10
0.0000
 20
0.0000
 30
0.0000
 40
0.5080
 41
0.5080
 70
0
  0
VERTEX
  8
20
 10
78.7532
 20
92.9181
 30
0.0000
  0
VERTEX
  8
20
 10
77.0905
 20
92.9181
 30
0.0000
  0
SEQEND
  8
0
  0
POLYLINE
  8
20
 66
1
 10
0.0000
 20
0.0000
 30
0.0000
 40
0.2540
 41
0.2540
 70
0
  0
VERTEX
  8
20
 10
77.0905
 20
93.0451
 30
0.0000
 42
1.0000
  0
VERTEX
  8
20
 10
77.0905
 20
92.7911
 30
0.0000
  0
SEQEND
  8
0
  0
POLYLINE
  8
20
 66
1
 10
0.0000
 20
0.0000
 30
0.0000
 40
0.2540
 41
0.2540
 70
0
  0
VERTEX
  8
20
 10
78.7532
 20
92.7911
 30
0.0000
 42
1.0000
  0
VERTEX
  8
20
 10
78.7532
 20
93.0451
 30
0.0000
  0
SEQEND
  8
0
  0
POLYLINE
  8
20
 66
1
 10
0.0000
 20
0.0000
 30
0.0000
 40
0.5080
 41
0.5080
 70
0
  0
VERTEX
  8
20
 10
77.0905
 20
92.9181
 30
0.0000
  0
VERTEX
  8
20
 10
77.0905
 20
90.4240
 30
0.0000
  0
SEQEND
  8
0
  0
POLYLINE
  8
20
 66
1
 10
0.0000
 20
0.0000
 30
0.0000
 40
0.2540
 41
0.2540
 70
0
  0
VERTEX
  8
20
 10
76.9635
 20
90.4240
 30
0.0000
 42
1.0000
  0
VERTEX
  8
20
 10
77.2175
 20
90.4240
 30
0.0000
  0
SEQEND
  8
0
  0
POLYLINE
  8
20
 66
1
 10
0.0000
 20
0.0000
 30
0.0000
 40
0.2540
 41
0.2540
 70
0
  0
VERTEX
  8
20
 10
77.2175
 20
92.9181
 30
0.0000
 42
1.0000
  0
VERTEX
  8
20
 10
76.9635
 20
92.9181
 30
0.0000
  0
SEQEND
  8
0
  0
POLYLINE
  8
20
 66
1
 10
0.0000
 20
0.0000
 30
0.0000
 40
0.5080
 41
0.5080
 70
0
  0
VERTEX
  8
20
 10
77.0905
 20
90.4240
 30
0.0000
  0
VERTEX
  8
20
 10
78.7532
 20
90.4240
 30
0.0000
  0
SEQEND
  8
0
  0
POLYLINE
  8
20
 66
1
 10
0.0000
 20
0.0000
 30
0.0000
 40
0.2540
 41
0.2540
 70
0
  0
VERTEX
  8
20
 10
78.7532
 20
90.2970
 30
0.0000
 42
1.0000
  0
VERTEX
  8
20
 10
78.7532
 20
90.5510
 30
0.0000
  0
SEQEND
  8
0
  0
POLYLINE
  8
20
 66
1
 10
0.0000
 20
0.0000
 30
0.0000
 40
0.2540
 41
0.2540
 70
0
  0
VERTEX
  8
20
 10
77.0905
 20
90.5510
 30
0.0000
 42
1.0000
  0
VERTEX
  8
20
 10
77.0905
 20
90.2970
 30
0.0000
  0
SEQEND
  8
0
  0
POLYLINE
  8
20
 66
1
 10
0.0000
 20
0.0000
 30
0.0000
 40
0.5080
 41
0.5080
 70
0
  0
VERTEX
  8
20
 10
77.0905
 20
91.6711
 30
0.0000
  0
VERTEX
  8
20
 10
77.9218
 20
91.6711
 30
0.0000
  0
SEQEND
  8
0
  0
POLYLINE
  8
20
 66
1
 10
0.0000
 20
0.0000
 30
0.0000
 40
0.2540
 41
0.2540
 70
0
  0
VERTEX
  8
20
 10
77.9218
 20
91.5441
 30
0.0000
 42
1.0000
  0
VERTEX
  8
20
 10
77.9218
 20
91.7981
 30
0.0000
  0
SEQEND
  8
0
  0
POLYLINE
  8
20
 66
1
 10
0.0000
 20
0.0000
 30
0.0000
 40
0.2540
 41
0.2540
 70
0
  0
VERTEX
  8
20
 10
77.0905
 20
91.7981
 30
0.0000
 42
1.0000
  0
VERTEX
  8
20
 10
77.0905
 20
91.5441
 30
0.0000
  0
SEQEND
  8
0
  0
POLYLINE
  8
20
 66
1
 10
0.0000
 20
0.0000
 30
0.0000
 40
0.5080
 41
0.5080
 70
0
  0
VERTEX
  8
20
 10
79.8528
 20
90.4240
 30
0.0000
  0
VERTEX
  8
20
 10
79.8528
 20
92.9181
 30
0.0000
  0
SEQEND
  8
0
  0
POLYLINE
  8
20
 66
1
 10
0.0000
 20
0.0000
 30
0.0000
 40
0.2540
 41
0.2540
 70
0
  0
VERTEX
  8
20
 10
79.9798
 20
92.9181
 30
0.0000
 42
1.0000
  0
VERTEX
  8
20
 10
79.7258
 20
92.9181
 30
0.0000
  0
SEQEND
  8
0
  0
POLYLINE
  8
20
 66
1
 10
0.0000
 20
0.0000
 30
0.0000
 40
0.2540
 41
0.2540
 70
0
  0
VERTEX
  8
20
 10
79.7258
 20
90.4240
 30
0.0000
 42
1.0000
  0
VERTEX
  8
20
 10
79.9798
 20
90.4240
 30
0.0000
  0
SEQEND
  8
0
  0
POLYLINE
  8
20
 66
1
 10
0.0000
 20
0.0000
 30
0.0000
 40
0.5080
 41
0.5080
 70
0
  0
VERTEX
  8
20
 10
79.8528
 20
92.9181
 30
0.0000
  0
VERTEX
  8
20
 10
81.0999
 20
92.9181
 30
0.0000
  0
SEQEND
  8
0
  0
POLYLINE
  8
20
 66
1
 10
0.0000
 20
0.0000
 30
0.0000
 40
0.2540
 41
0.2540
 70
0
  0
VERTEX
  8
20
 10
81.0999
 20
92.7911
 30
0.0000
 42
1.0000
  0
VERTEX
  8
20
 10
81.0999
 20
93.0451
 30
0.0000
  0
SEQEND
  8
0
  0
POLYLINE
  8
20
 66
1
 10
0.0000
 20
0.0000
 30
0.0000
 40
0.2540
 41
0.2540
 70
0
  0
VERTEX
  8
20
 10
79.8528
 20
93.0451
 30
0.0000
 42
1.0000
  0
VERTEX
  8
20
 10
79.8528
 20
92.7911
 30
0.0000
  0
SEQEND
  8
0
  0
POLYLINE
  8
20
 66
1
 10
0.0000
 20
0.0000
 30
0.0000
 40
0.5080
 41
0.5080
 70
0
  0
VERTEX
  8
20
 10
81.0999
 20
92.9181
 30
0.0000
  0
VERTEX
  8
20
 10
81.5156
 20
92.5024
 30
0.0000
  0
SEQEND
  8
0
  0
POLYLINE
  8
20
 66
1
 10
0.0000
 20
0.0000
 30
0.0000
 40
0.2540
 41
0.2540
 70
0
  0
VERTEX
  8
20
 10
81.4258
 20
92.4126
 30
0.0000
 42
1.0000
  0
VERTEX
  8
20
 10
81.6054
 20
92.5922
 30
0.0000
  0
SEQEND
  8
0
  0
POLYLINE
  8
20
 66
1
 10
0.0000
 20
0.0000
 30
0.0000
 40
0.2540
 41
0.2540
 70
0
  0
VERTEX
  8
20
 10
81.1897
 20
93.0079
 30
0.0000
 42
1.0000
  0
VERTEX
  8
20
 10
81.0101
 20
92.8283
 30
0.0000
  0
SEQEND
  8
0
  0
POLYLINE
  8
20
 66
1
 10
0.0000
 20
0.0000
 30
0.0000
 40
0.5080
 41
0.5080
 70
0
  0
VERTEX
  8
20
 10
81.5156
 20
92.5024
 30
0.0000
  0
VERTEX
  8
20
 10
81.5156
 20
91.6711
 30
0.0000
  0
SEQEND
  8
0
  0
POLYLINE
  8
20
 66
1
 10
0.0000
 20
0.0000
 30
0.0000
 40
0.2540
 41
0.2540
 70
0
  0
VERTEX
  8
20
 10
81.3886
 20
91.6711
 30
0.0000
 42
1.0000
  0
VERTEX
  8
20
 10
81.6426
 20
91.6711
 30
0.0000
  0
SEQEND
  8
0
  0
POLYLINE
  8
20
 66
1
 10
0.0000
 20
0.0000
 30
0.0000
 40
0.2540
 41
0.2540
 70
0
  0
VERTEX
  8
20
 10
81.6426
 20
92.5024
 30
0.0000
 42
1.0000
  0
VERTEX
  8
20
 10
81.3886
 20
92.5024
 30
0.0000
  0
SEQEND
  8
0
  0
POLYLINE
  8
20
 66
1
 10
0.0000
 20
0.0000
 30
0.0000
 40
0.5080
 41
0.5080
 70
0
  0
VERTEX
  8
20
 10
81.5156
 20
91.6711
 30
0.0000
  0
VERTEX
  8
20
 10
81.0999
 20
91.2554
 30
0.0000
  0
SEQEND
  8
0
  0
POLYLINE
  8
20
 66
1
 10
0.0000
 20
0.0000
 30
0.0000
 40
0.2540
 41
0.2540
 70
0
  0
VERTEX
  8
20
 10
81.0101
 20
91.3452
 30
0.0000
 42
1.0000
  0
VERTEX
  8
20
 10
81.1897
 20
91.1656
 30
0.0000
  0
SEQEND
  8
0
  0
POLYLINE
  8
20
 66
1
 10
0.0000
 20
0.0000
 30
0.0000
 40
0.2540
 41
0.2540
 70
0
  0
VERTEX
  8
20
 10
81.6054
 20
91.5813
 30
0.0000
 42
1.0000
  0
VERTEX
  8
20
 10
81.4258
 20
91.7609
 30
0.0000
  0
SEQEND
  8
0
  0
POLYLINE
  8
20
 66
1
 10
0.0000
 20
0.0000
 30
0.0000
 40
0.5080
 41
0.5080
 70
0
  0
VERTEX
  8
20
 10
81.0999
 20
91.2554
 30
0.0000
  0
VERTEX
  8
20
 10
79.8528
 20
91.2554
 30
0.0000
  0
SEQEND
  8
0
  0
POLYLINE
  8
20
 66
1
 10
0.0000
 20
0.0000
 30
0.0000
 40
0.2540
 41
0.2540
 70
0
  0
VERTEX
  8
20
 10
79.8528
 20
91.3824
 30
0.0000
 42
1.0000
  0
VERTEX
  8
20
 10
79.8528
 20
91.1284
 30
0.0000
  0
SEQEND
  8
0
  0
POLYLINE
  8
20
 66
1
 10
0.0000
 20
0.0000
 30
0.0000
 40
0.2540
 41
0.2540
 70
0
  0
VERTEX
  8
20
 10
81.0999
 20
91.1284
 30
0.0000
 42
1.0000
  0
VERTEX
  8
20
 10
81.0999
 20
91.3824
 30
0.0000
  0
SEQEND
  8
0
  0
POLYLINE
  8
20
 66
1
 10
0.0000
 20
0.0000
 30
0.0000
 40
0.5080
 41
0.5080
 70
0
  0
VERTEX
  8
20
 10
80.6842
 20
91.2554
 30
0.0000
  0
VERTEX
  8
20
 10
81.5156
 20
90.4240
 30
0.0000
  0
SEQEND
  8
0
  0
POLYLINE
  8
20
 66
1
 10
0.0000
 20
0.0000
 30
0.0000
 40
0.2540
 41
0.2540
 70
0
  0
VERTEX
  8
20
 10
81.4258
 20
90.3342
 30
0.0000
 42
1.0000
  0
VERTEX
  8
20
 10
81.6054
 20
90.5138
 30
0.0000
  0
SEQEND
  8
0
  0
POLYLINE
  8
20
 66
1
 10
0.0000
 20
0.0000
 30
0.0000
 40
0.2540
 41
0.2540
 70
0
  0
VERTEX
  8
20
 10
80.7740
 20
91.3452
 30
0.0000
 42
1.0000
  0
VERTEX
  8
20
 10
80.5944
 20
91.1656
 30
0.0000
  0
SEQEND
  8
0
  0
POLYLINE
  8
20
 66
1
 10
0.0000
 20
0.0000
 30
0.0000
 40
0.5080
 41
0.5080
 70
0
  0
VERTEX
  8
20
 10
85.3775
 20
92.9181
 30
0.0000
  0
VERTEX
  8
20
 10
85.3775
 20
91.2554
 30
0.0000
  0
SEQEND
  8
0
  0
POLYLINE
  8
20
 66
1
 10
0.0000
 20
0.0000
 30
0.0000
 40
0.2540
 41
0.2540
 70
0
  0
VERTEX
  8
20
 10
85.2505
 20
91.2554
 30
0.0000
 42
1.0000
  0
VERTEX
  8
20
 10
85.5045
 20
91.2554
 30
0.0000
  0
SEQEND
  8
0
  0
POLYLINE
  8
20
 66
1
 10
0.0000
 20
0.0000
 30
0.0000
 40
0.2540
 41
0.2540
 70
0
  0
VERTEX
  8
20
 10
85.5045
 20
92.9181
 30
0.0000
 42
1.0000
  0
VERTEX
  8
20
 10
85.2505
 20
92.9181
 30
0.0000
  0
SEQEND
  8
0
  0
POLYLINE
  8
20
 66
1
 10
0.0000
 20
0.0000
 30
0.0000
 40
0.5080
 41
0.5080
 70
0
  0
VERTEX
  8
20
 10
85.3775
 20
91.2554
 30
0.0000
  0
VERTEX
  8
20
 10
86.2089
 20
90.4240
 30
0.0000
  0
SEQEND
  8
0
  0
POLYLINE
  8
20
 66
1
 10
0.0000
 20
0.0000
 30
0.0000
 40
0.2540
 41
0.2540
 70
0
  0
VERTEX
  8
20
 10
86.1191
 20
90.3342
 30
0.0000
 42
1.0000
  0
VERTEX
  8
20
 10
86.2987
 20
90.5138
 30
0.0000
  0
SEQEND
  8
0
  0
POLYLINE
  8
20
 66
1
 10
0.0000
 20
0.0000
 30
0.0000
 40
0.2540
 41
0.2540
 70
0
  0
VERTEX
  8
20
 10
85.4673
 20
91.3452
 30
0.0000
 42
1.0000
  0
VERTEX
  8
20
 10
85.2877
 20
91.1656
 30
0.0000
  0
SEQEND
  8
0
  0
POLYLINE
  8
20
 66
1
 10
0.0000
 20
0.0000
 30
0.0000
 40
0.5080
 41
0.5080
 70
0
  0
VERTEX
  8
20
 10
86.2089
 20
90.4240
 30
0.0000
  0
VERTEX
  8
20
 10
87.0403
 20
91.2554
 30
0.0000
  0
SEQEND
  8
0
  0
POLYLINE
  8
20
 66
1
 10
0.0000
 20
0.0000
 30
0.0000
 40
0.2540
 41
0.2540
 70
0
  0
VERTEX
  8
20
 10
87.1301
 20
91.1656
 30
0.0000
 42
1.0000
  0
VERTEX
  8
20
 10
86.9505
 20
91.3452
 30
0.0000
  0
SEQEND
  8
0
  0
POLYLINE
  8
20
 66
1
 10
0.0000
 20
0.0000
 30
0.0000
 40
0.2540
 41
0.2540
 70
0
  0
VERTEX
  8
20
 10
86.1191
 20
90.5138
 30
0.0000
 42
1.0000
  0
VERTEX
  8
20
 10
86.2987
 20
90.3342
 30
0.0000
  0
SEQEND
  8
0
  0
POLYLINE
  8
20
 66
1
 10
0.0000
 20
0.0000
 30
0.0000
 40
0.5080
 41
0.5080
 70
0
  0
VERTEX
  8
20
 10
87.0403
 20
91.2554
 30
0.0000
  0
VERTEX
  8
20
 10
87.0403
 20
92.9181
 30
0.0000
  0
SEQEND
  8
0
  0
POLYLINE
  8
20
 66
1
 10
0.0000
 20
0.0000
 30
0.0000
 40
0.2540
 41
0.2540
 70
0
  0
VERTEX
  8
20
 10
87.1673
 20
92.9181
 30
0.0000
 42
1.0000
  0
VERTEX
  8
20
 10
86.9133
 20
92.9181
 30
0.0000
  0
SEQEND
  8
0
  0
POLYLINE
  8
20
 66
1
 10
0.0000
 20
0.0000
 30
0.0000
 40
0.2540
 41
0.2540
 70
0
  0
VERTEX
  8
20
 10
86.9133
 20
91.2554
 30
0.0000
 42
1.0000
  0
VERTEX
  8
20
 10
87.1673
 20
91.2554
 30
0.0000
  0
SEQEND
  8
0
  0
POLYLINE
  8
20
 66
1
 10
0.0000
 20
0.0000
 30
0.0000
 40
0.5080
 41
0.5080
 70
0
  0
VERTEX
  8
20
 10
89.8026
 20
90.4240
 30
0.0000
  0
VERTEX
  8
20
 10
88.1399
 20
90.4240
 30
0.0000
  0
SEQEND
  8
0
  0
POLYLINE
  8
20
 66
1
 10
0.0000
 20
0.0000
 30
0.0000
 40
0.2540
 41
0.2540
 70
0
  0
VERTEX
  8
20
 10
88.1399
 20
90.5510
 30
0.0000
 42
1.0000
  0
VERTEX
  8
20
 10
88.1399
 20
90.2970
 30
0.0000
  0
SEQEND
  8
0
  0
POLYLINE
  8
20
 66
1
 10
0.0000
 20
0.0000
 30
0.0000
 40
0.2540
 41
0.2540
 70
0
  0
VERTEX
  8
20
 10
89.8026
 20
90.2970
 30
0.0000
 42
1.0000
  0
VERTEX
  8
20
 10
89.8026
 20
90.5510
 30
0.0000
  0
SEQEND
  8
0
  0
POLYLINE
  8
20
 66
1
 10
0.0000
 20
0.0000
 30
0.0000
 40
0.5080
 41
0.5080
 70
0
  0
VERTEX
  8
20
 10
88.1399
 20
90.4240
 30
0.0000
  0
VERTEX
  8
20
 10
89.8026
 20
92.0868
 30
0.0000
  0
SEQEND
  8
0
  0
POLYLINE
  8
20
 66
1
 10
0.0000
 20
0.0000
 30
0.0000
 40
0.2540
 41
0.2540
 70
0
  0
VERTEX
  8
20
 10
89.8924
 20
91.9970
 30
0.0000
 42
1.0000
  0
VERTEX
  8
20
 10
89.7128
 20
92.1766
 30
0.0000
  0
SEQEND
  8
0
  0
POLYLINE
  8
20
 66
1
 10
0.0000
 20
0.0000
 30
0.0000
 40
0.2540
 41
0.2540
 70
0
  0
VERTEX
  8
20
 10
88.0501
 20
90.5138
 30
0.0000
 42
1.0000
  0
VERTEX
  8
20
 10
88.2297
 20
90.3342
 30
0.0000
  0
SEQEND
  8
0
  0
POLYLINE
  8
20
 66
1
 10
0.0000
 20
0.0000
 30
0.0000
 40
0.5080
 41
0.5080
 70
0
  0
VERTEX
  8
20
 10
89.8026
 20
92.0868
 30
0.0000
  0
VERTEX
  8
20
 10
89.8026
 20
92.5024
 30
0.0000
  0
SEQEND
  8
0
  0
POLYLINE
  8
20
 66
1
 10
0.0000
 20
0.0000
 30
0.0000
 40
0.2540
 41
0.2540
 70
0
  0
VERTEX
  8
20
 10
89.9296
 20
92.5024
 30
0.0000
 42
1.0000
  0
VERTEX
  8
20
 10
89.6756
 20
92.5024
 30
0.0000
  0
SEQEND
  8
0
  0
POLYLINE
  8
20
 66
1
 10
0.0000
 20
0.0000
 30
0.0000
 40
0.2540
 41
0.2540
 70
0
  0
VERTEX
  8
20
 10
89.6756
 20
92.0868
 30
0.0000
 42
1.0000
  0
VERTEX
  8
20
 10
89.9296
 20
92.0868
 30
0.0000
  0
SEQEND
  8
0
  0
POLYLINE
  8
20
 66
1
 10
0.0000
 20
0.0000
 30
0.0000
 40
0.5080
 41
0.5080
 70
0
  0
VERTEX
  8
20
 10
89.8026
 20
92.5024
 30
0.0000
  0
VERTEX
  8
20
 10
89.3870
 20
92.9181
 30
0.0000
  0
SEQEND
  8
0
  0
POLYLINE
  8
20
 66
1
 10
0.0000
 20
0.0000
 30
0.0000
 40
0.2540
 41
0.2540
 70
0
  0
VERTEX
  8
20
 10
89.4768
 20
93.0079
 30
0.0000
 42
1.0000
  0
VERTEX
  8
20
 10
89.2972
 20
92.8283
 30
0.0000
  0
SEQEND
  8
0
  0
POLYLINE
  8
20
 66
1
 10
0.0000
 20
0.0000
 30
0.0000
 40
0.2540
 41
0.2540
 70
0
  0
VERTEX
  8
20
 10
89.7128
 20
92.4126
 30
0.0000
 42
1.0000
  0
VERTEX
  8
20
 10
89.8924
 20
92.5922
 30
0.0000
  0
SEQEND
  8
0
  0
POLYLINE
  8
20
 66
1
 10
0.0000
 20
0.0000
 30
0.0000
 40
0.5080
 41
0.5080
 70
0
  0
VERTEX
  8
20
 10
89.3870
 20
92.9181
 30
0.0000
  0
VERTEX
  8
20
 10
88.5556
 20
92.9181
 30
0.0000
  0
SEQEND
  8
0
  0
POLYLINE
  8
20
 66
1
 10
0.0000
 20
0.0000
 30
0.0000
 40
0.2540
 41
0.2540
 70
0
  0
VERTEX
  8
20
 10
88.5556
 20
93.0451
 30
0.0000
 42
1.0000
  0
VERTEX
  8
20
 10
88.5556
 20
92.7911
 30
0.0000
  0
SEQEND
  8
0
  0
POLYLINE
  8
20
 66
1
 10
0.0000
 20
0.0000
 30
0.0000
 40
0.2540
 41
0.2540
 70
0
  0
VERTEX
  8
20
 10
89.3870
 20
92.7911
 30
0.0000
 42
1.0000
  0
VERTEX
  8
20
 10
89.3870
 20
93.0451
 30
0.0000
  0
SEQEND
  8
0
  0
POLYLINE
  8
20
 66
1
 10
0.0000
 20
0.0000
 30
0.0000
 40
0.5080
 41
0.5080
 70
0
  0
VERTEX
  8
20
 10
88.5556
 20
92.9181
 30
0.0000
  0
VERTEX
  8
20
 10
88.1399
 20
92.5024
 30
0.0000
  0
SEQEND
  8
0
  0
POLYLINE
  8
20
 66
1
 10
0.0000
 20
0.0000
 30
0.0000
 40
0.2540
 41
0.2540
 70
0
  0
VERTEX
  8
20
 10
88.0501
 20
92.5922
 30
0.0000
 42
1.0000
  0
VERTEX
  8
20
 10
88.2297
 20
92.4126
 30
0.0000
  0
SEQEND
  8
0
  0
POLYLINE
  8
20
 66
1
 10
0.0000
 20
0.0000
 30
0.0000
 40
0.2540
 41
0.2540
 70
0
  0
VERTEX
  8
20
 10
88.6454
 20
92.8283
 30
0.0000
 42
1.0000
  0
VERTEX
  8
20
 10
88.4658
 20
93.0079
 30
0.0000
  0
SEQEND
  8
0
  0
POLYLINE
  8
20
 66
1
 10
0.0000
 20
0.0000
 30
0.0000
 40
0.0100
 41
0.0100
 70
0
  0
VERTEX
  8
20
 10
6.0000
 20
4.2500
 30
0.0000
 42
1.0000
  0
VERTEX
  8
20
 10
6.0000
 20
7.7500
 30
0.0000
 42
1.0000
  0
VERTEX
  8
20
 10
6.0000
 20
4.2500
 30
0.0000
  0
SEQEND
  8
0
  0
POLYLINE
  8
20
 66
1
 10
0.0000
 20
0.0000
 30
0.0000
 40
0.0100
 41
0.0100
 70
0
  0
VERTEX
  8
20
 10
154.0000
 20
92.2500
 30
0.0000
 42
1.0000
  0
VERTEX
  8
20
 10
154.0000
 20
95.7500
 30
0.0000
 42
1.0000
  0
VERTEX
  8
20
 10
154.0000
 20
92.2500
 30
0.0000
  0
SEQEND
  8
0
  0
POLYLINE
  8
20
 66
1
 10
0.0000
 20
0.0000
 30
0.0000
 40
0.0100
 41
0.0100
 70
0
  0
VERTEX
  8
20
 10
154.0000
 20
4.2500
 30
0.0000
 42
1.0000
  0
VERTEX
  8
20
 10
154.0000
 20
7.7500
 30
0.0000
 42
1.0000
  0
VERTEX
  8
20
 10
154.0000
 20
4.2500
 30
0.0000
  0
SEQEND
  8
0
  0
POLYLINE
  8
20
 66
1
 10
0.0000
 20
0.0000
 30
0.0000
 40
0.0100
 41
0.0100
 70
0
  0
VERTEX
  8
20
 10
6.0000
 20
92.2500
 30
0.0000
 42
1.0000
  0
VERTEX
  8
20
 10
6.0000
 20
95.7500
 30
0.0000
 42
1.0000
  0
VERTEX
  8
20
 10
6.0000
 20
92.2500
 30
0.0000
  0
SEQEND
  8
0
  0
POLYLINE
  8
20
 66
1
 10
0.0000
 20
0.0000
 30
0.0000
 40
0.0100
 41
0.0100
 70
0
  0
VERTEX
  8
20
 10
6.0000
 20
4.2500
 30
0.0000
 42
1.0000
  0
VERTEX
  8
20
 10
6.0000
 20
7.7500
 30
0.0000
 42
1.0000
  0
VERTEX
  8
20
 10
6.0000
 20
4.2500
 30
0.0000
  0
SEQEND
  8
0
  0
POLYLINE
  8
20
 66
1
 10
0.0000
 20
0.0000
 30
0.0000
 40
0.0100
 41
0.0100
 70
0
  0
VERTEX
  8
20
 10
6.0000
 20
92.2500
 30
0.0000
 42
1.0000
  0
VERTEX
  8
20
 10
6.0000
 20
95.7500
 30
0.0000
 42
1.0000
  0
VERTEX
  8
20
 10
6.0000
 20
92.2500
 30
0.0000
  0
SEQEND
  8
0
  0
POLYLINE
  8
20
 66
1
 10
0.0000
 20
0.0000
 30
0.0000
 40
0.0100
 41
0.0100
 70
0
  0
VERTEX
  8
20
 10
154.0000
 20
4.2500
 30
0.0000
 42
1.0000
  0
VERTEX
  8
20
 10
154.0000
 20
7.7500
 30
0.0000
 42
1.0000
  0
VERTEX
  8
20
 10
154.0000
 20
4.2500
 30
0.0000
  0
SEQEND
  8
0
  0
POLYLINE
  8
20
 66
1
 10
0.0000
 20
0.0000
 30
0.0000
 40
0.0100
 41
0.0100
 70
0
  0
VERTEX
  8
20
 10
128.0000
 20
10.0000
 30
0.0000
 42
1.0000
  0
VERTEX
  8
20
 10
128.0000
 20
34.0000
 30
0.0000
 42
1.0000
  0
VERTEX
  8
20
 10
128.0000
 20
10.0000
 30
0.0000
  0
SEQEND
  8
0
  0
POLYLINE
  8
20
 66
1
 10
0.0000
 20
0.0000
 30
0.0000
 40
0.0100
 41
0.0100
 70
0
  0
VERTEX
  8
20
 10
96.0000
 20
10.0000
 30
0.0000
 42
1.0000
  0
VERTEX
  8
20
 10
96.0000
 20
34.0000
 30
0.0000
 42
1.0000
  0
VERTEX
  8
20
 10
96.0000
 20
10.0000
 30
0.0000
  0
SEQEND
  8
0
  0
POLYLINE
  8
20
 66
1
 10
0.0000
 20
0.0000
 30
0.0000
 40
0.0100
 41
0.0100
 70
0
  0
VERTEX
  8
20
 10
32.0000
 20
10.0000
 30
0.0000
 42
1.0000
  0
VERTEX
  8
20
 10
32.0000
 20
34.0000
 30
0.0000
 42
1.0000
  0
VERTEX
  8
20
 10
32.0000
 20
10.0000
 30
0.0000
  0
SEQEND
  8
0
  0
POLYLINE
  8
20
 66
1
 10
0.0000
 20
0.0000
 30
0.0000
 40
0.0100
 41
0.0100
 70
0
  0
VERTEX
  8
20
 10
154.0000
 20
92.2500
 30
0.0000
 42
1.0000
  0
VERTEX
  8
20
 10
154.0000
 20
95.7500
 30
0.0000
 42
1.0000
  0
VERTEX
  8
20
 10
154.0000
 20
92.2500
 30
0.0000
  0
SEQEND
  8
0
  0
POLYLINE
  8
20
 66
1
 10
0.0000
 20
0.0000
 30
0.0000
 40
0.0100
 41
0.0100
 70
0
  0
VERTEX
  8
20
 10
32.0000
 20
10.0000
 30
0.0000
 42
1.0000
  0
VERTEX
  8
20
 10
32.0000
 20
34.0000
 30
0.0000
 42
1.0000
  0
VERTEX
  8
20
 10
32.0000
 20
10.0000
 30
0.0000
  0
SEQEND
  8
0
  0
POLYLINE
  8
20
 66
1
 10
0.0000
 20
0.0000
 30
0.0000
 40
0.0100
 41
0.0100
 70
0
  0
VERTEX
  8
20
 10
154.0000
 20
4.2500
 30
0.0000
 42
1.0000
  0
VERTEX
  8
20
 10
154.0000
 20
7.7500
 30
0.0000
 42
1.0000
  0
VERTEX
  8
20
 10
154.0000
 20
4.2500
 30
0.0000
  0
SEQEND
  8
0
  0
POLYLINE
  8
20
 66
1
 10
0.0000
 20
0.0000
 30
0.0000
 40
0.0100
 41
0.0100
 70
0
  0
VERTEX
  8
20
 10
154.0000
 20
92.2500
 30
0.0000
 42
1.0000
  0
VERTEX
  8
20
 10
154.0000
 20
95.7500
 30
0.0000
 42
1.0000
  0
VERTEX
  8
20
 10
154.0000
 20
92.2500
 30
0.0000
  0
SEQEND
  8
0
  0
POLYLINE
  8
20
 66
1
 10
0.0000
 20
0.0000
 30
0.0000
 40
0.0100
 41
0.0100
 70
0
  0
VERTEX
  8
20
 10
112.0000
 20
89.5500
 30
0.0000
 42
1.0000
  0
VERTEX
  8
20
 10
112.0000
 20
93.0500
 30
0.0000
 42
1.0000
  0
VERTEX
  8
20
 10
112.0000
 20
89.5500
 30
0.0000
  0
SEQEND
  8
0
  0
POLYLINE
  8
20
 66
1
 10
0.0000
 20
0.0000
 30
0.0000
 40
0.0100
 41
0.0100
 70
0
  0
VERTEX
  8
20
 10
6.0000
 20
4.2500
 30
0.0000
 42
1.0000
  0
VERTEX
  8
20
 10
6.0000
 20
7.7500
 30
0.0000
 42
1.0000
  0
VERTEX
  8
20
 10
6.0000
 20
4.2500
 30
0.0000
  0
SEQEND
  8
0
  0
POLYLINE
  8
20
 66
1
 10
0.0000
 20
0.0000
 30
0.0000
 40
0.0100
 41
0.0100
 70
0
  0
VERTEX
  8
20
 10
6.0000
 20
92.2500
 30
0.0000
 42
1.0000
  0
VERTEX
  8
20
 10
6.0000
 20
95.7500
 30
0.0000
 42
1.0000
  0
VERTEX
  8
20
 10
6.0000
 20
92.2500
 30
0.0000
  0
SEQEND
  8
0
  0
POLYLINE
  8
20
 66
1
 10
0.0000
 20
0.0000
 30
0.0000
 40
0.0100
 41
0.0100
 70
0
  0
VERTEX
  8
20
 10
64.0000
 20
10.0000
 30
0.0000
 42
1.0000
  0
VERTEX
  8
20
 10
64.0000
 20
34.0000
 30
0.0000
 42
1.0000
  0
VERTEX
  8
20
 10
64.0000
 20
10.0000
 30
0.0000
  0
SEQEND
  8
0
  0
POLYLINE
  8
20
 66
1
 10
0.0000
 20
0.0000
 30
0.0000
 40
0.0100
 41
0.0100
 70
0
  0
VERTEX
  8
20
 10
19.0000
 20
89.5500
 30
0.0000
 42
1.0000
  0
VERTEX
  8
20
 10
19.0000
 20
93.0500
 30
0.0000
 42
1.0000
  0
VERTEX
  8
20
 10
19.0000
 20
89.5500
 30
0.0000
  0
SEQEND
  8
0
  0
POLYLINE
  8
20
 66
1
 10
0.0000
 20
0.0000
 30
0.0000
 40
0.0100
 41
0.0100
 70
0
  0
VERTEX
  8
20
 10
128.0000
 20
10.0000
 30
0.0000
 42
1.0000
  0
VERTEX
  8
20
 10
128.0000
 20
34.0000
 30
0.0000
 42
1.0000
  0
VERTEX
  8
20
 10
128.0000
 20
10.0000
 30
0.0000
  0
SEQEND
  8
0
  0
POLYLINE
  8
20
 66
1
 10
0.0000
 20
0.0000
 30
0.0000
 40
0.0100
 41
0.0100
 70
0
  0
VERTEX
  8
20
 10
96.0000
 20
10.0000
 30
0.0000
 42
1.0000
  0
VERTEX
  8
20
 10
96.0000
 20
34.0000
 30
0.0000
 42
1.0000
  0
VERTEX
  8
20
 10
96.0000
 20
10.0000
 30
0.0000
  0
SEQEND
  8
0
  0
POLYLINE
  8
20
 66
1
 10
0.0000
 20
0.0000
 30
0.0000
 40
0.0100
 41
0.0100
 70
0
  0
VERTEX
  8
20
 10
112.0000
 20
34.9500
 30
0.0000
 42
1.0000
  0
VERTEX
  8
20
 10
112.0000
 20
38.4500
 30
0.0000
 42
1.0000
  0
VERTEX
  8
20
 10
112.0000
 20
34.9500
 30
0.0000
  0
SEQEND
  8
0
  0
POLYLINE
  8
20
 66
1
 10
0.0000
 20
0.0000
 30
0.0000
 40
0.0100
 41
0.0100
 70
0
  0
VERTEX
  8
20
 10
19.0000
 20
34.9500
 30
0.0000
 42
1.0000
  0
VERTEX
  8
20
 10
19.0000
 20
38.4500
 30
0.0000
 42
1.0000
  0
VERTEX
  8
20
 10
19.0000
 20
34.9500
 30
0.0000
  0
SEQEND
  8
0
  0
POLYLINE
  8
20
 66
1
 10
0.0000
 20
0.0000
 30
0.0000
 40
0.0100
 41
0.0100
 70
0
  0
VERTEX
  8
20
 10
19.0000
 20
34.9500
 30
0.0000
 42
1.0000
  0
VERTEX
  8
20
 10
19.0000
 20
38.4500
 30
0.0000
 42
1.0000
  0
VERTEX
  8
20
 10
19.0000
 20
34.9500
 30
0.0000
  0
SEQEND
  8
0
  0
POLYLINE
  8
20
 66
1
 10
0.0000
 20
0.0000
 30
0.0000
 40
0.0100
 41
0.0100
 70
0
  0
VERTEX
  8
20
 10
112.0000
 20
89.5500
 30
0.0000
 42
1.0000
  0
VERTEX
  8
20
 10
112.0000
 20
93.0500
 30
0.0000
 42
1.0000
  0
VERTEX
  8
20
 10
112.0000
 20
89.5500
 30
0.0000
  0
SEQEND
  8
0
  0
POLYLINE
  8
20
 66
1
 10
0.0000
 20
0.0000
 30
0.0000
 40
0.0100
 41
0.0100
 70
0
  0
VERTEX
  8
20
 10
32.0000
 20
10.0000
 30
0.0000
 42
1.0000
  0
VERTEX
  8
20
 10
32.0000
 20
34.0000
 30
0.0000
 42
1.0000
  0
VERTEX
  8
20
 10
32.0000
 20
10.0000
 30
0.0000
  0
SEQEND
  8
0
  0
POLYLINE
  8
20
 66
1
 10
0.0000
 20
0.0000
 30
0.0000
 40
0.0100
 41
0.0100
 70
0
  0
VERTEX
  8
20
 10
154.0000
 20
4.2500
 30
0.0000
 42
1.0000
  0
VERTEX
  8
20
 10
154.0000
 20
7.7500
 30
0.0000
 42
1.0000
  0
VERTEX
  8
20
 10
154.0000
 20
4.2500
 30
0.0000
  0
SEQEND
  8
0
  0
POLYLINE
  8
20
 66
1
 10
0.0000
 20
0.0000
 30
0.0000
 40
0.0100
 41
0.0100
 70
0
  0
VERTEX
  8
20
 10
6.0000
 20
92.2500
 30
0.0000
 42
1.0000
  0
VERTEX
  8
20
 10
6.0000
 20
95.7500
 30
0.0000
 42
1.0000
  0
VERTEX
  8
20
 10
6.0000
 20
92.2500
 30
0.0000
  0
SEQEND
  8
0
  0
POLYLINE
  8
20
 66
1
 10
0.0000
 20
0.0000
 30
0.0000
 40
0.0100
 41
0.0100
 70
0
  0
VERTEX
  8
20
 10
6.0000
 20
4.2500
 30
0.0000
 42
1.0000
  0
VERTEX
  8
20
 10
6.0000
 20
7.7500
 30
0.0000
 42
1.0000
  0
VERTEX
  8
20
 10
6.0000
 20
4.2500
 30
0.0000
  0
SEQEND
  8
0
  0
POLYLINE
  8
20
 66
1
 10
0.0000
 20
0.0000
 30
0.0000
 40
0.0100
 41
0.0100
 70
0
  0
VERTEX
  8
20
 10
112.0000
 20
34.9500
 30
0.0000
 42
1.0000
  0
VERTEX
  8
20
 10
112.0000
 20
38.4500
 30
0.0000
 42
1.0000
  0
VERTEX
  8
20
 10
112.0000
 20
34.9500
 30
0.0000
  0
SEQEND
  8
0
  0
POLYLINE
  8
20
 66
1
 10
0.0000
 20
0.0000
 30
0.0000
 40
0.0100
 41
0.0100
 70
0
  0
VERTEX
  8
20
 10
64.0000
 20
10.0000
 30
0.0000
 42
1.0000
  0
VERTEX
  8
20
 10
64.0000
 20
34.0000
 30
0.0000
 42
1.0000
  0
VERTEX
  8
20
 10
64.0000
 20
10.0000
 30
0.0000
  0
SEQEND
  8
0
  0
POLYLINE
  8
20
 66
1
 10
0.0000
 20
0.0000
 30
0.0000
 40
0.0100
 41
0.0100
 70
0
  0
VERTEX
  8
20
 10
19.0000
 20
89.5500
 30
0.0000
 42
1.0000
  0
VERTEX
  8
20
 10
19.0000
 20
93.0500
 30
0.0000
 42
1.0000
  0
VERTEX
  8
20
 10
19.0000
 20
89.5500
 30
0.0000
  0
SEQEND
  8
0
  0
POLYLINE
  8
20
 66
1
 10
0.0000
 20
0.0000
 30
0.0000
 40
0.0100
 41
0.0100
 70
0
  0
VERTEX
  8
20
 10
96.0000
 20
10.0000
 30
0.0000
 42
1.0000
  0
VERTEX
  8
20
 10
96.0000
 20
34.0000
 30
0.0000
 42
1.0000
  0
VERTEX
  8
20
 10
96.0000
 20
10.0000
 30
0.0000
  0
SEQEND
  8
0
  0
POLYLINE
  8
20
 66
1
 10
0.0000
 20
0.0000
 30
0.0000
 40
0.0100
 41
0.0100
 70
0
  0
VERTEX
  8
20
 10
128.0000
 20
10.0000
 30
0.0000
 42
1.0000
  0
VERTEX
  8
20
 10
128.0000
 20
34.0000
 30
0.0000
 42
1.0000
  0
VERTEX
  8
20
 10
128.0000
 20
10.0000
 30
0.0000
  0
SEQEND
  8
0
  0
POLYLINE
  8
20
 66
1
 10
0.0000
 20
0.0000
 30
0.0000
 40
0.0100
 41
0.0100
 70
0
  0
VERTEX
  8
20
 10
154.0000
 20
92.2500
 30
0.0000
 42
1.0000
  0
VERTEX
  8
20
 10
154.0000
 20
95.7500
 30
0.0000
 42
1.0000
  0
VERTEX
  8
20
 10
154.0000
 20
92.2500
 30
0.0000
  0
SEQEND
  8
0
  0
POLYLINE
  8
20
 66
1
 10
0.0000
 20
0.0000
 30
0.0000
 40
0.0100
 41
0.0100
 70
0
  0
VERTEX
  8
20
 10
128.0000
 20
60.5000
 30
0.0000
 42
1.0000
  0
VERTEX
  8
20
 10
128.0000
 20
67.5000
 30
0.0000
 42
1.0000
  0
VERTEX
  8
20
 10
128.0000
 20
60.5000
 30
0.0000
  0
SEQEND
  8
0
  0
POLYLINE
  8
20
 66
1
 10
0.0000
 20
0.0000
 30
0.0000
 40
0.0100
 41
0.0100
 70
0
  0
VERTEX
  8
20
 10
128.0000
 20
69.2500
 30
0.0000
 42
1.0000
  0
VERTEX
  8
20
 10
128.0000
 20
71.7500
 30
0.0000
 42
1.0000
  0
VERTEX
  8
20
 10
128.0000
 20
69.2500
 30
0.0000
  0
SEQEND
  8
0
  0
POLYLINE
  8
20
 66
1
 10
0.0000
 20
0.0000
 30
0.0000
 40
0.0100
 41
0.0100
 70
0
  0
VERTEX
  8
20
 10
96.0000
 20
10.0000
 30
0.0000
 42
1.0000
  0
VERTEX
  8
20
 10
96.0000
 20
34.0000
 30
0.0000
 42
1.0000
  0
VERTEX
  8
20
 10
96.0000
 20
10.0000
 30
0.0000
  0
SEQEND
  8
0
  0
POLYLINE
  8
20
 66
1
 10
0.0000
 20
0.0000
 30
0.0000
 40
0.0100
 41
0.0100
 70
0
  0
VERTEX
  8
20
 10
154.0000
 20
92.2500
 30
0.0000
 42
1.0000
  0
VERTEX
  8
20
 10
154.0000
 20
95.7500
 30
0.0000
 42
1.0000
  0
VERTEX
  8
20
 10
154.0000
 20
92.2500
 30
0.0000
  0
SEQEND
  8
0
  0
POLYLINE
  8
20
 66
1
 10
0.0000
 20
0.0000
 30
0.0000
 40
0.0100
 41
0.0100
 70
0
  0
VERTEX
  8
20
 10
6.0000
 20
92.2500
 30
0.0000
 42
1.0000
  0
VERTEX
  8
20
 10
6.0000
 20
95.7500
 30
0.0000
 42
1.0000
  0
VERTEX
  8
20
 10
6.0000
 20
92.2500
 30
0.0000
  0
SEQEND
  8
0
  0
POLYLINE
  8
20
 66
1
 10
0.0000
 20
0.0000
 30
0.0000
 40
0.0100
 41
0.0100
 70
0
  0
VERTEX
  8
20
 10
112.0000
 20
89.5500
 30
0.0000
 42
1.0000
  0
VERTEX
  8
20
 10
112.0000
 20
93.0500
 30
0.0000
 42
1.0000
  0
VERTEX
  8
20
 10
112.0000
 20
89.5500
 30
0.0000
  0
SEQEND
  8
0
  0
POLYLINE
  8
20
 66
1
 10
0.0000
 20
0.0000
 30
0.0000
 40
0.0100
 41
0.0100
 70
0
  0
VERTEX
  8
20
 10
128.0000
 20
69.2500
 30
0.0000
 42
1.0000
  0
VERTEX
  8
20
 10
128.0000
 20
71.7500
 30
0.0000
 42
1.0000
  0
VERTEX
  8
20
 10
128.0000
 20
69.2500
 30
0.0000
  0
SEQEND
  8
0
  0
POLYLINE
  8
20
 66
1
 10
0.0000
 20
0.0000
 30
0.0000
 40
0.0100
 41
0.0100
 70
0
  0
VERTEX
  8
20
 10
154.0000
 20
4.2500
 30
0.0000
 42
1.0000
  0
VERTEX
  8
20
 10
154.0000
 20
7.7500
 30
0.0000
 42
1.0000
  0
VERTEX
  8
20
 10
154.0000
 20
4.2500
 30
0.0000
  0
SEQEND
  8
0
  0
POLYLINE
  8
20
 66
1
 10
0.0000
 20
0.0000
 30
0.0000
 40
0.0100
 41
0.0100
 70
0
  0
VERTEX
  8
20
 10
19.0000
 20
89.5500
 30
0.0000
 42
1.0000
  0
VERTEX
  8
20
 10
19.0000
 20
93.0500
 30
0.0000
 42
1.0000
  0
VERTEX
  8
20
 10
19.0000
 20
89.5500
 30
0.0000
  0
SEQEND
  8
0
  0
POLYLINE
  8
20
 66
1
 10
0.0000
 20
0.0000
 30
0.0000
 40
0.0100
 41
0.0100
 70
0
  0
VERTEX
  8
20
 10
6.0000
 20
4.2500
 30
0.0000
 42
1.0000
  0
VERTEX
  8
20
 10
6.0000
 20
7.7500
 30
0.0000
 42
1.0000
  0
VERTEX
  8
20
 10
6.0000
 20
4.2500
 30
0.0000
  0
SEQEND
  8
0
  0
POLYLINE
  8
20
 66
1
 10
0.0000
 20
0.0000
 30
0.0000
 40
0.0100
 41
0.0100
 70
0
  0
VERTEX
  8
20
 10
19.0000
 20
34.9500
 30
0.0000
 42
1.0000
  0
VERTEX
  8
20
 10
19.0000
 20
38.4500
 30
0.0000
 42
1.0000
  0
VERTEX
  8
20
 10
19.0000
 20
34.9500
 30
0.0000
  0
SEQEND
  8
0
  0
POLYLINE
  8
20
 66
1
 10
0.0000
 20
0.0000
 30
0.0000
 40
0.0100
 41
0.0100
 70
0
  0
VERTEX
  8
20
 10
128.0000
 20
60.5000
 30
0.0000
 42
1.0000
  0
VERTEX
  8
20
 10
128.0000
 20
67.5000
 30
0.0000
 42
1.0000
  0
VERTEX
  8
20
 10
128.0000
 20
60.5000
 30
0.0000
  0
SEQEND
  8
0
  0
POLYLINE
  8
20
 66
1
 10
0.0000
 20
0.0000
 30
0.0000
 40
0.0100
 41
0.0100
 70
0
  0
VERTEX
  8
20
 10
112.0000
 20
34.9500
 30
0.0000
 42
1.0000
  0
VERTEX
  8
20
 10
112.0000
 20
38.4500
 30
0.0000
 42
1.0000
  0
VERTEX
  8
20
 10
112.0000
 20
34.9500
 30
0.0000
  0
SEQEND
  8
0
  0
POLYLINE
  8
20
 66
1
 10
0.0000
 20
0.0000
 30
0.0000
 40
0.0100
 41
0.0100
 70
0
  0
VERTEX
  8
20
 10
128.0000
 20
10.0000
 30
0.0000
 42
1.0000
  0
VERTEX
  8
20
 10
128.0000
 20
34.0000
 30
0.0000
 42
1.0000
  0
VERTEX
  8
20
 10
128.0000
 20
10.0000
 30
0.0000
  0
SEQEND
  8
0
  0
POLYLINE
  8
20
 66
1
 10
0.0000
 20
0.0000
 30
0.0000
 40
0.0100
 41
0.0100
 70
0
  0
VERTEX
  8
20
 10
64.0000
 20
10.0000
 30
0.0000
 42
1.0000
  0
VERTEX
  8
20
 10
64.0000
 20
34.0000
 30
0.0000
 42
1.0000
  0
VERTEX
  8
20
 10
64.0000
 20
10.0000
 30
0.0000
  0
SEQEND
  8
0
  0
POLYLINE
  8
20
 66
1
 10
0.0000
 20
0.0000
 30
0.0000
 40
0.0100
 41
0.0100
 70
0
  0
VERTEX
  8
20
 10
32.0000
 20
10.0000
 30
0.0000
 42
1.0000
  0
VERTEX
  8
20
 10
32.0000
 20
34.0000
 30
0.0000
 42
1.0000
  0
VERTEX
  8
20
 10
32.0000
 20
10.0000
 30
0.0000
  0
SEQEND
  8
0
  0
ENDSEC
  0
EOF
