<?xml version="1.0" encoding="UTF-8" standalone="no"?>
<svg
   xmlns:dc="http://purl.org/dc/elements/1.1/"
   xmlns:cc="http://creativecommons.org/ns#"
   xmlns:rdf="http://www.w3.org/1999/02/22-rdf-syntax-ns#"
   xmlns:svg="http://www.w3.org/2000/svg"
   xmlns="http://www.w3.org/2000/svg"
   xmlns:sodipodi="http://sodipodi.sourceforge.net/DTD/sodipodi-0.dtd"
   xmlns:inkscape="http://www.inkscape.org/namespaces/inkscape"
   height="195mm"
   viewBox="0 0 295.00001 195"
   width="295mm"
   version="1.1"
   id="svg4310"
   sodipodi:docname="TimingConsole1.svg"
   inkscape:version="1.0 (4035a4fb49, 2020-05-01)">
  <defs
     id="defs4314" />
  <sodipodi:namedview
     inkscape:document-units="mm"
     inkscape:document-rotation="0"
     inkscape:current-layer="svg4310"
     inkscape:window-maximized="1"
     inkscape:window-y="-8"
     inkscape:window-x="1912"
     inkscape:cy="332.04128"
     inkscape:cx="548.15727"
     inkscape:zoom="1.0664054"
     showgrid="false"
     id="namedview4312"
     inkscape:window-height="1387"
     inkscape:window-width="2560"
     inkscape:pageshadow="2"
     inkscape:pageopacity="0"
     guidetolerance="10"
     gridtolerance="10"
     objecttolerance="10"
     borderopacity="1"
     bordercolor="#666666"
     pagecolor="#ffffff" />
  <!--
Console - Console with slanted panel

Created with Boxes.py (https://festi.info/boxes.py)
Creation date: 2020-12-07 15:14:13
Command line (remove spaces between dashes): boxes Console - -FingerJoint_angle=90.0 - -FingerJoint_style=rectangular - -FingerJoint_surroundingspaces=0.5 - -FingerJoint_edge_width=1.0 - -FingerJoint_finger=2.0 - -FingerJoint_play=0.0 - -FingerJoint_space=2.0 - -FingerJoint_width=1.0 - -Stackable_angle=60 - -Stackable_height=2.0 - -Stackable_holedistance=1.0 - -Stackable_width=4.0 - -x=160 - -y=100 - -h=55 - -outside=0 - -front_height=35 - -angle=10 - -thickness=3.0 - -format=svg - -tabs=0.0 - -debug=0 - -reference=25 - -burn=0.1
Url: http://www.festi.info/Console?FingerJoint_angle=90.0&FingerJoint_style=rectangular&FingerJoint_surroundingspaces=0.5&FingerJoint_edge_width=1.0&FingerJoint_finger=2.0&FingerJoint_play=0.0&FingerJoint_space=2.0&FingerJoint_width=1.0&Stackable_angle=60&Stackable_height=2.0&Stackable_holedistance=1.0&Stackable_width=4.0&x=160&y=100&h=55&outside=0&front_height=35&angle=10&thickness=3.0&format=svg&tabs=0.0&debug=0&reference=25&burn=0.1&render=1
SettingsUrl: http://www.festi.info/Console?FingerJoint_angle=90.0&FingerJoint_style=rectangular&FingerJoint_surroundingspaces=0.5&FingerJoint_edge_width=1.0&FingerJoint_finger=2.0&FingerJoint_play=0.0&FingerJoint_space=2.0&FingerJoint_width=1.0&Stackable_angle=60&Stackable_height=2.0&Stackable_holedistance=1.0&Stackable_width=4.0&x=160&y=100&h=55&outside=0&front_height=35&angle=10&thickness=3.0&format=svg&tabs=0.0&debug=0&reference=25&burn=0.1
-->
  <title
     id="title4286">Console</title>
  <metadata
     id="metadata4288">
    <rdf:RDF>
      <cc:Work>
        <dc:title>Console</dc:title>
        <dc:date>2020-12-07 15:14:13</dc:date>
        <dc:source>http://www.festi.info/Console?FingerJoint_angle=90.0&amp;FingerJoint_style=rectangular&amp;FingerJoint_surroundingspaces=0.5&amp;FingerJoint_edge_width=1.0&amp;FingerJoint_finger=2.0&amp;FingerJoint_play=0.0&amp;FingerJoint_space=2.0&amp;FingerJoint_width=1.0&amp;Stackable_angle=60&amp;Stackable_height=2.0&amp;Stackable_holedistance=1.0&amp;Stackable_width=4.0&amp;x=160&amp;y=100&amp;h=55&amp;outside=0&amp;front_height=35&amp;angle=10&amp;thickness=3.0&amp;format=svg&amp;tabs=0.0&amp;debug=0&amp;reference=25&amp;burn=0.1&amp;render=1</dc:source>
        <dc:description>Console with slanted panel

Created with Boxes.py (https://festi.info/boxes.py)
Command line: boxes Console --FingerJoint_angle=90.0 --FingerJoint_style=rectangular --FingerJoint_surroundingspaces=0.5 --FingerJoint_edge_width=1.0 --FingerJoint_finger=2.0 --FingerJoint_play=0.0 --FingerJoint_space=2.0 --FingerJoint_width=1.0 --Stackable_angle=60 --Stackable_height=2.0 --Stackable_holedistance=1.0 --Stackable_width=4.0 --x=160 --y=100 --h=55 --outside=0 --front_height=35 --angle=10 --thickness=3.0 --format=svg --tabs=0.0 --debug=0 --reference=25 --burn=0.1
Url: http://www.festi.info/Console?FingerJoint_angle=90.0&amp;FingerJoint_style=rectangular&amp;FingerJoint_surroundingspaces=0.5&amp;FingerJoint_edge_width=1.0&amp;FingerJoint_finger=2.0&amp;FingerJoint_play=0.0&amp;FingerJoint_space=2.0&amp;FingerJoint_width=1.0&amp;Stackable_angle=60&amp;Stackable_height=2.0&amp;Stackable_holedistance=1.0&amp;Stackable_width=4.0&amp;x=160&amp;y=100&amp;h=55&amp;outside=0&amp;front_height=35&amp;angle=10&amp;thickness=3.0&amp;format=svg&amp;tabs=0.0&amp;debug=0&amp;reference=25&amp;burn=0.1&amp;render=1
SettingsUrl: http://www.festi.info/Console?FingerJoint_angle=90.0&amp;FingerJoint_style=rectangular&amp;FingerJoint_surroundingspaces=0.5&amp;FingerJoint_edge_width=1.0&amp;FingerJoint_finger=2.0&amp;FingerJoint_play=0.0&amp;FingerJoint_space=2.0&amp;FingerJoint_width=1.0&amp;Stackable_angle=60&amp;Stackable_height=2.0&amp;Stackable_holedistance=1.0&amp;Stackable_width=4.0&amp;x=160&amp;y=100&amp;h=55&amp;outside=0&amp;front_height=35&amp;angle=10&amp;thickness=3.0&amp;format=svg&amp;tabs=0.0&amp;debug=0&amp;reference=25&amp;burn=0.1
</dc:description>
        <dc:format>image/svg+xml</dc:format>
        <dc:type
           rdf:resource="http://purl.org/dc/dcmitype/StillImage" />
      </cc:Work>
    </rdf:RDF>
    <rdf:RDF>
      <cc:Work
         rdf:about="">
        <dc:title></dc:title>
      </cc:Work>
    </rdf:RDF>
  </metadata>
  <g
     transform="translate(-1.5916243,-0.88979239)"
     id="g5816">
    <g
       id="g4983"
       transform="matrix(1,0,0,-1,-62.512503,280.72127)"
       style="stroke:#ff0000">
      <path
         id="path4889"
         d="m 67,179.5 h 9.475 V 176 h 8.05 v 3.5 h 9.45 V 176 h 8.05 v 3.5 h 9.45 V 176 h 8.05 v 3.5 h 9.45 V 176 h 8.05 v 3.5 h 9.45 V 176 h 8.05 v 3.5 h 9.45 V 176 h 8.05 v 3.5 h 9.45 V 176 h 8.05 v 3.5 h 9.45 V 176 h 8.05 v 3.5 h 9.45 V 176 h 8.05 v 3.5 H 234"
         style="fill:none;stroke:#ff0000;stroke-width:0.1;stroke-miterlimit:4;stroke-dasharray:none" />
      <path
         sodipodi:nodetypes="cccccccccc"
         id="path4891"
         d="m 234,179.5 v 6.275 h -3.5 v 7.95 h 3.5 v 9.8 h -3.5 v 7.95 h 3.5 v 3.91654"
         style="fill:none;stroke:#ff0000;stroke-width:0.1;stroke-miterlimit:4;stroke-dasharray:none" />
      <path
         id="path4893"
         d="m 234,215.39154 h -9.475 v 0 h -8.05 v 0 h -9.45 v 0 h -8.05 v 0 h -9.45 v 0 h -8.05 v 0 h -9.45 v 0 h -8.05 v 0 h -9.45 v 0 h -8.05 v 0 h -9.45 v 0 h -8.05 v 0 h -9.45 v 0 h -8.05 v 0 h -9.45 v 0 h -8.05 v 0 h -9.45 v 0 h -8.05 v 0 H 67"
         style="fill:none;stroke:#ff0000;stroke-width:0.1;stroke-miterlimit:4;stroke-dasharray:none" />
      <path
         sodipodi:nodetypes="cccccccccc"
         id="path4895"
         d="M 67,215.39154 V 211.475 h 3.5 v -7.95 H 67 v -9.8 h 3.5 v -7.95 H 67 V 179.5"
         style="fill:none;stroke:#ff0000;stroke-width:0.1;stroke-miterlimit:4;stroke-dasharray:none" />
    </g>
    <g
       id="panel2220"
       style="stroke:#ff0000;stroke-width:0.1;stroke-miterlimit:4;stroke-dasharray:none"
       transform="rotate(-90,178.6749,58.979136)">
      <path
         id="path4907"
         d="m 67,67 h 9.525 v 3.5 h 7.95 V 67 h 9.55 v 3.5 h 7.95 V 67 h 9.55 v 3.5 h 7.95 V 67 h 9.55 v 3.5 h 7.95 V 67 h 9.55 v 3.5 h 7.95 V 67 h 9.55 v 3.5 h 7.95 V 67 h 9.55 v 3.5 h 7.95 V 67 h 9.55 v 3.5 h 7.95 V 67 h 9.55 v 3.5 h 7.95 V 67 H 234"
         style="fill:none;stroke:#ff0000;stroke-width:0.1;stroke-miterlimit:4;stroke-dasharray:none" />
      <path
         id="path4909"
         d="m 234,67 v 8.4536 h -3.5 v 7.95 h 3.5 v 8.4785 h -3.5 v 7.95 h 3.5 v 8.4789 h -3.5 v 7.95 h 3.5 v 8.478 h -3.5 v 7.95 h 3.5 v 8.479 h -3.5 v 7.95 h 3.5 v 8.478 h -3.5 v 7.95 H 234 V 174"
         style="fill:none;stroke:#ff0000;stroke-width:0.1;stroke-miterlimit:4;stroke-dasharray:none" />
      <path
         id="path4911"
         d="m 234,174 h -9.525 v -3.5 h -7.95 v 3.5 h -9.55 v -3.5 h -7.95 v 3.5 h -9.55 v -3.5 h -7.95 v 3.5 h -9.55 v -3.5 h -7.95 v 3.5 h -9.55 v -3.5 h -7.95 v 3.5 h -9.55 v -3.5 h -7.95 v 3.5 h -9.55 v -3.5 h -7.95 v 3.5 h -9.55 v -3.5 h -7.95 v 3.5 h -9.55 v -3.5 h -7.95 V 174 H 67"
         style="fill:none;stroke:#ff0000;stroke-width:0.1;stroke-miterlimit:4;stroke-dasharray:none" />
      <path
         id="path4913"
         d="m 67,174 v -8.454 h 3.5 v -7.95 H 67 v -8.478 h 3.5 v -7.95 H 67 v -8.479 h 3.5 v -7.95 H 67 v -8.478 h 3.5 v -7.95 H 67 v -8.4789 h 3.5 v -7.95 H 67 v -8.4785 h 3.5 v -7.95 H 67 V 67"
         style="fill:none;stroke:#ff0000;stroke-width:0.1;stroke-miterlimit:4;stroke-dasharray:none" />
    </g>
    <g
       id="panel4102"
       style="stroke:#ff0000;stroke-width:0.1;stroke-miterlimit:4;stroke-dasharray:none"
       transform="rotate(180,119.24374,34.327018)">
      <path
         id="path4925"
         d="m 67,5.5 h 9.475 v 0 h 8.05 v 0 h 9.45 v 0 h 8.05 v 0 h 9.45 v 0 h 8.05 v 0 h 9.45 v 0 h 8.05 v 0 h 9.45 v 0 h 8.05 v 0 h 9.45 v 0 h 8.05 v 0 h 9.45 v 0 h 8.05 v 0 h 9.45 v 0 h 8.05 v 0 h 9.45 v 0 h 8.05 v 0 H 234"
         style="fill:none;stroke:#ff0000;stroke-width:0.1;stroke-miterlimit:4;stroke-dasharray:none" />
      <path
         id="path4927"
         d="m 234,5.5 v 6.275 h -3.5 v 7.95 h 3.5 v 9.8 h -3.5 v 7.95 h 3.5 v 9.8 h -3.5 v 7.95 H 234 V 61.5"
         style="fill:none;stroke:#ff0000;stroke-width:0.1;stroke-miterlimit:4;stroke-dasharray:none" />
      <path
         id="path4929"
         d="m 234,61.5 h -9.475 V 65 h -8.05 v -3.5 h -9.45 V 65 h -8.05 v -3.5 h -9.45 V 65 h -8.05 v -3.5 h -9.45 V 65 h -8.05 v -3.5 h -9.45 V 65 h -8.05 v -3.5 h -9.45 V 65 h -8.05 v -3.5 h -9.45 V 65 h -8.05 v -3.5 h -9.45 V 65 h -8.05 v -3.5 h -9.45 V 65 h -8.05 V 61.5 H 67"
         style="fill:none;stroke:#ff0000;stroke-width:0.1;stroke-miterlimit:4;stroke-dasharray:none" />
      <path
         id="path4931"
         d="m 67,61.5 v -6.275 h 3.5 v -7.95 H 67 v -9.8 h 3.5 v -7.95 H 67 v -9.8 h 3.5 v -7.95 H 67 V 5.5"
         style="fill:none;stroke:#ff0000;stroke-width:0.1;stroke-miterlimit:4;stroke-dasharray:none" />
    </g>
    <g
       id="g4977"
       transform="rotate(-90,54.59189,117.10437)"
       style="stroke:#ff0000">
      <path
         id="path4898"
         d="m 5.5,70.5 h 6.225 V 67 h 8.05 v 3.5 h 9.7 V 67 h 8.05 v 3.5 h 9.7 V 67 h 8.05 v 3.5 H 61.5"
         style="fill:none;stroke:#ff0000;stroke-width:0.1;stroke-miterlimit:4;stroke-dasharray:none" />
      <path
         id="path4900"
         d="m 61.5,70.5 v 4.9036 H 65 v 8.05 h -3.5 v 8.3785 H 65 v 8.05 h -3.5 v 8.3789 H 65 v 8.05 h -3.5 v 8.378 H 65 v 8.05 h -3.5 v 8.379 H 65 v 8.05 h -3.5 v 8.378 H 65 v 8.05 h -3.5 v 4.904"
         style="fill:none;stroke:#ff0000;stroke-width:0.1;stroke-miterlimit:4;stroke-dasharray:none" />
      <path
         sodipodi:nodetypes="cccccccccc"
         id="path4902"
         d="m 61.5,170.5 h -6.225 v 3.5 h -8.05 v -3.5 h -9.7 v 3.5 h -8.05 v -3.5 h -3.87545"
         style="fill:none;stroke:#ff0000;stroke-width:0.1;stroke-miterlimit:4;stroke-dasharray:none" />
      <path
         id="path4963"
         d="M 5.5,70.500001 25.59955,170.5 v 0"
         style="fill:none;stroke:#ff0000;stroke-width:0.1;stroke-linecap:butt;stroke-linejoin:miter;stroke-miterlimit:4;stroke-dasharray:none;stroke-opacity:1" />
    </g>
    <g
       id="g4993"
       transform="rotate(90,61.462217,189.58776)"
       style="stroke:#ff0000">
      <path
         style="fill:none;stroke:#ff0000;stroke-width:0.1;stroke-miterlimit:4;stroke-dasharray:none"
         d="m 5.5,70.5 h 6.225 V 67 h 8.05 v 3.5 h 9.7 V 67 h 8.05 v 3.5 h 9.7 V 67 h 8.05 v 3.5 H 61.5"
         id="path4985" />
      <path
         style="fill:none;stroke:#ff0000;stroke-width:0.1;stroke-miterlimit:4;stroke-dasharray:none"
         d="m 61.5,70.5 v 4.9036 H 65 v 8.05 h -3.5 v 8.3785 H 65 v 8.05 h -3.5 v 8.3789 H 65 v 8.05 h -3.5 v 8.378 H 65 v 8.05 h -3.5 v 8.379 H 65 v 8.05 h -3.5 v 8.378 H 65 v 8.05 h -3.5 v 4.904"
         id="path4987" />
      <path
         style="fill:none;stroke:#ff0000;stroke-width:0.1;stroke-miterlimit:4;stroke-dasharray:none"
         d="m 61.5,170.5 h -6.225 v 3.5 h -8.05 v -3.5 h -9.7 v 3.5 h -8.05 v -3.5 h -3.87545"
         id="path4989"
         sodipodi:nodetypes="cccccccccc" />
      <path
         style="fill:none;stroke:#ff0000;stroke-width:0.1;stroke-linecap:butt;stroke-linejoin:miter;stroke-miterlimit:4;stroke-dasharray:none;stroke-opacity:1"
         d="M 5.5,70.500001 25.59955,170.5 v 0"
         id="path4991" />
    </g>
    <rect
       style="fill:none;fill-opacity:0.9;stroke:#ff0000;stroke-width:0.1;stroke-miterlimit:4;stroke-dasharray:none"
       id="rect4995"
       width="99.911415"
       height="3.4114158"
       x="188.06447"
       y="175.43291" />
    <rect
       y="180.72456"
       x="188.06447"
       height="3.4114158"
       width="99.911415"
       id="rect4997"
       style="fill:none;fill-opacity:0.9;stroke:#ff0000;stroke-width:0.1;stroke-miterlimit:4;stroke-dasharray:none" />
    <rect
       style="fill:none;fill-opacity:0.9;stroke:#ff0000;stroke-width:0.1;stroke-miterlimit:4;stroke-dasharray:none"
       id="rect4999"
       width="99.911415"
       height="3.4114158"
       x="188.06447"
       y="186.01624" />
    <rect
       y="180.49025"
       x="-105.26958"
       height="3.4114158"
       width="99.911415"
       id="rect5001"
       style="fill:none;fill-opacity:0.9;stroke:#ff0000;stroke-width:0.1;stroke-miterlimit:4;stroke-dasharray:none"
       transform="rotate(-90)" />
    <rect
       style="fill:none;fill-opacity:0.9;stroke:#ff0000;stroke-width:0.0963416;stroke-miterlimit:4;stroke-dasharray:none"
       id="rect5003"
       width="19.903658"
       height="9.9036589"
       x="98.215057"
       y="21.908203" />
    <rect
       style="fill:none;fill-opacity:0.9;stroke:#ff0000;stroke-width:0.1;stroke-miterlimit:4;stroke-dasharray:none"
       id="rect5007"
       width="99.911415"
       height="3.4114158"
       x="-105.10287"
       y="174.53566"
       transform="rotate(-90)" />
  </g>
  <rect
     y="0.0480319"
     x="0.0480319"
     height="194.90393"
     width="294.90393"
     id="rect5783"
     style="fill:none;fill-opacity:0.9;stroke:#0000ff;stroke-width:0.0960638;stroke-miterlimit:4;stroke-dasharray:none" />
</svg>
