0
SECTION
2
HEADER
9
$INSUNITS
70
4
9
$ACADVER
1
AC1014
9
$HANDSEED
5
FFFF
0
ENDSEC
0
SECTION
2
TABLES
0
TABLE
2
VPORT
5
8
100
AcDbSymbolTable
0
ENDTAB
0
TABLE
2
LTYPE
5
5
100
AcDbSymbolTable
0
LTYPE
5
14
100
AcDbSymbolTableRecord
100
AcDbLinetypeTableRecord
2
BYBLOCK
70
0
0
LTYPE
5
15
100
AcDbSymbolTableRecord
100
AcDbLinetypeTableRecord
2
BYLAYER
70
0
0
ENDTAB
0
TABLE
2
LAYER
5
2
100
AcDbSymbolTable
70
2
0
LAYER
5
50
100
AcDbSymbolTableRecord
100
AcDbLayerTableRecord
2
0
70
0
6
CONTINUOUS
0
ENDTAB
0
TABLE
2
STYLE
5
3
100
AcDbSymbolTable
70
1
0
STYLE
5
11
100
AcDbSymbolTableRecord
100
AcDbTextStyleTableRecord
2
STANDARD
70
0
0
ENDTAB
0
TABLE
2
VIEW
5
6
100
AcDbSymbolTable
70
0
0
ENDTAB
0
TABLE
2
UCS
5
7
100
AcDbSymbolTable
70
0
0
ENDTAB
0
TABLE
2
APPID
5
9
100
AcDbSymbolTable
70
2
0
APPID
5
12
100
AcDbSymbolTableRecord
100
AcDbRegAppTableRecord
2
ACAD
70
0
0
ENDTAB
0
TABLE
2
DIMSTYLE
5
A
100
AcDbSymbolTable
70
1
0
ENDTAB
0
TABLE
2
BLOCK_RECORD
5
1
100
AcDbSymbolTable
70
1
0
BLOCK_RECORD
5
1F
100
AcDbSymbolTableRecord
100
AcDbBlockTableRecord
2
*MODEL_SPACE
0
BLOCK_RECORD
5
1B
100
AcDbSymbolTableRecord
100
AcDbBlockTableRecord
2
*PAPER_SPACE
0
ENDTAB
0
ENDSEC
0
SECTION
2
BLOCKS
0
BLOCK
5
20
100
AcDbEntity
100
AcDbBlockBegin
2
*MODEL_SPACE
0
ENDBLK
5
21
100
AcDbEntity
100
AcDbBlockEnd
0
BLOCK
5
1C
100
AcDbEntity
100
AcDbBlockBegin
2
*PAPER_SPACE
0
ENDBLK
5
1D
100
AcDbEntity
100
AcDbBlockEnd
0
ENDSEC
0
SECTION
2
ENTITIES
0
LINE
5
100
100
AcDbEntity
8
0
100
AcDbLine
10
59.000000000000021
20
-14.999999999999982
30
0
11
59.000000000000021
21
93.000000000000028
31
0
0
LINE
5
101
100
AcDbEntity
8
0
100
AcDbLine
10
59.000000000000021
20
93.000000000000028
30
0
11
-5
21
93.000000000000028
31
0
0
LINE
5
102
100
AcDbEntity
8
0
100
AcDbLine
10
-5
20
93.000000000000028
30
0
11
-5
21
-14.999999999999982
31
0
0
LINE
5
103
100
AcDbEntity
8
0
100
AcDbLine
10
9.9999999999999751
20
88.000000000000028
30
0
11
-1.1102230246251565e-14
21
78.000000000000014
31
0
0
LINE
5
104
100
AcDbEntity
8
0
100
AcDbLine
10
-1.1102230246251565e-14
20
88
30
0
11
9.9999999999999911
21
78.000000000000014
31
0
0
LINE
5
105
100
AcDbEntity
8
0
100
AcDbLine
10
9.9999999999999751
20
88.000000000000028
30
0
11
43.999999999999979
21
88.000000000000057
31
0
0
LINE
5
106
100
AcDbEntity
8
0
100
AcDbLine
10
43.999999999999986
20
78.000000000000057
30
0
11
9.9999999999999911
21
78.000000000000014
31
0
0
LINE
5
107
100
AcDbEntity
8
0
100
AcDbLine
10
43.999999999999979
20
88.000000000000057
30
0
11
54.00000000000005
21
78.000000000000057
31
0
0
LINE
5
108
100
AcDbEntity
8
0
100
AcDbLine
10
54.00000000000005
20
88.000000000000057
30
0
11
43.999999999999986
21
78.000000000000057
31
0
0
LINE
5
109
100
AcDbEntity
8
0
100
AcDbLine
10
9.9999999999999893
20
44.000000000000014
30
0
11
43.999999999999993
21
44.00000000000005
31
0
0
LINE
5
110
100
AcDbEntity
8
0
100
AcDbLine
10
44
20
34.00000000000005
30
0
11
10
21
34.000000000000014
31
0
0
LINE
5
111
100
AcDbEntity
8
0
100
AcDbLine
10
-1.1102230246251565e-14
20
44.000000000000014
30
0
11
10
21
34.000000000000014
31
0
0
LINE
5
112
100
AcDbEntity
8
0
100
AcDbLine
10
9.9999999999999893
20
44.000000000000014
30
0
11
0
21
34
31
0
0
LINE
5
113
100
AcDbEntity
8
0
100
AcDbLine
10
10
20
34
30
0
11
10
21
0
31
0
0
LINE
5
114
100
AcDbEntity
8
0
100
AcDbLine
10
54.00000000000005
20
44.00000000000005
30
0
11
44.000000000000021
21
34.000000000000043
31
0
0
LINE
5
115
100
AcDbEntity
8
0
100
AcDbLine
10
43.999999999999993
20
44.00000000000005
30
0
11
54.000000000000021
21
34.000000000000043
31
0
0
LINE
5
116
100
AcDbEntity
8
0
100
AcDbLine
10
44.00000000000005
20
44.00000000000005
30
0
11
44.00000000000005
21
78.000000000000057
31
0
0
LINE
5
117
100
AcDbEntity
8
0
100
AcDbLine
10
54.00000000000005
20
78.000000000000057
30
0
11
54.00000000000005
21
44.00000000000005
31
0
0
LINE
5
118
100
AcDbEntity
8
0
100
AcDbLine
10
-1.1102230246251565e-14
20
44.000000000000014
30
0
11
-1.1102230246251565e-14
21
78.000000000000014
31
0
0
LINE
5
119
100
AcDbEntity
8
0
100
AcDbLine
10
9.9999999999999893
20
78.000000000000014
30
0
11
9.9999999999999893
21
44.000000000000014
31
0
0
LINE
5
120
100
AcDbEntity
8
0
100
AcDbLine
10
0
20
0
30
0
11
0
21
34
31
0
0
LINE
5
121
100
AcDbEntity
8
0
100
AcDbLine
10
0
20
0
30
0
11
10
21
-10
31
0
0
LINE
5
122
100
AcDbEntity
8
0
100
AcDbLine
10
10
20
0
30
0
11
0
21
-10
31
0
0
LINE
5
123
100
AcDbEntity
8
0
100
AcDbLine
10
44.000000000000014
20
-9.9999999999999805
30
0
11
10
21
-10
31
0
0
LINE
5
124
100
AcDbEntity
8
0
100
AcDbLine
10
10
20
0
30
0
11
44
21
2.0289325775024707e-14
31
0
0
LINE
5
125
100
AcDbEntity
8
0
100
AcDbLine
10
44
20
2.0289325775024707e-14
30
0
11
54.000000000000021
21
-9.9999999999999716
31
0
0
LINE
5
126
100
AcDbEntity
8
0
100
AcDbLine
10
54.000000000000021
20
3.9968028886505635e-14
30
0
11
44.000000000000014
21
-9.9999999999999805
31
0
0
LINE
5
127
100
AcDbEntity
8
0
100
AcDbLine
10
44.000000000000021
20
3.9968028886505635e-14
30
0
11
44.000000000000021
21
34.000000000000043
31
0
0
LINE
5
128
100
AcDbEntity
8
0
100
AcDbLine
10
54.000000000000021
20
34.000000000000043
30
0
11
54.000000000000021
21
3.9968028886505635e-14
31
0
0
LINE
5
129
100
AcDbEntity
8
0
100
AcDbLine
10
-5
20
-14.999999999999982
30
0
11
59.000000000000021
21
-14.999999999999982
31
0
0
LINE
5
130
100
AcDbEntity
8
0
100
AcDbLine
10
9.9999999999999751
20
88.000000000000028
30
0
11
43.999999999999979
21
88.000000000000057
31
0
0
LINE
5
131
100
AcDbEntity
8
0
100
AcDbLine
10
43.999999999999979
20
88.000000000000057
30
0
11
49.000000000000021
21
83.000000000000057
31
0
0
LINE
5
132
100
AcDbEntity
8
0
100
AcDbLine
10
49.000000000000021
20
83.000000000000057
30
0
11
43.999999999999986
21
78.000000000000057
31
0
0
LINE
5
133
100
AcDbEntity
8
0
100
AcDbLine
10
43.999999999999986
20
78.000000000000057
30
0
11
9.9999999999999893
21
78.000000000000014
31
0
0
LINE
5
134
100
AcDbEntity
8
0
100
AcDbLine
10
9.9999999999999893
20
78.000000000000014
30
0
11
4.9999999999999902
21
83
31
0
0
LINE
5
135
100
AcDbEntity
8
0
100
AcDbLine
10
4.9999999999999902
20
83
30
0
11
9.9999999999999751
21
88.000000000000028
31
0
0
LINE
5
136
100
AcDbEntity
8
0
100
AcDbLine
10
49.000000000000021
20
83.000000000000057
30
0
11
54.00000000000005
21
78.000000000000057
31
0
0
LINE
5
137
100
AcDbEntity
8
0
100
AcDbLine
10
54.00000000000005
20
78.000000000000057
30
0
11
54.00000000000005
21
44.00000000000005
31
0
0
LINE
5
138
100
AcDbEntity
8
0
100
AcDbLine
10
54.00000000000005
20
44.00000000000005
30
0
11
49.000000000000043
21
39.00000000000005
31
0
0
LINE
5
139
100
AcDbEntity
8
0
100
AcDbLine
10
49.000000000000043
20
39.00000000000005
30
0
11
44.00000000000005
21
44.00000000000005
31
0
0
LINE
5
140
100
AcDbEntity
8
0
100
AcDbLine
10
44.00000000000005
20
44.00000000000005
30
0
11
44.00000000000005
21
45.380374421837516
31
0
0
LINE
5
141
100
AcDbEntity
8
0
100
AcDbLine
10
43.999999999999986
20
78.000000000000057
30
0
11
43.999999999999993
21
44.00000000000005
31
0
0
LINE
5
142
100
AcDbEntity
8
0
100
AcDbLine
10
9.9999999999999893
20
78.000000000000014
30
0
11
9.9999999999999893
21
44.000000000000014
31
0
0
LINE
5
143
100
AcDbEntity
8
0
100
AcDbLine
10
9.9999999999999893
20
44.000000000000014
30
0
11
4.9999999999999947
21
39.000000000000014
31
0
0
LINE
5
144
100
AcDbEntity
8
0
100
AcDbLine
10
4.9999999999999947
20
39.000000000000014
30
0
11
-1.1102230246251565e-14
21
44.000000000000014
31
0
0
LINE
5
145
100
AcDbEntity
8
0
100
AcDbLine
10
-1.1102230246251565e-14
20
44.000000000000014
30
0
11
-1.1102230246251565e-14
21
78.000000000000014
31
0
0
LINE
5
146
100
AcDbEntity
8
0
100
AcDbLine
10
-1.1102230246251565e-14
20
78.000000000000014
30
0
11
4.9999999999999902
21
83
31
0
0
LINE
5
147
100
AcDbEntity
8
0
100
AcDbLine
10
4.9999999999999947
20
39.000000000000014
30
0
11
10
21
34.000000000000014
31
0
0
LINE
5
148
100
AcDbEntity
8
0
100
AcDbLine
10
10
20
34.000000000000014
30
0
11
44.000000000000021
21
34.000000000000043
31
0
0
LINE
5
149
100
AcDbEntity
8
0
100
AcDbLine
10
44.000000000000021
20
34.000000000000043
30
0
11
49.000000000000043
21
39.00000000000005
31
0
0
LINE
5
150
100
AcDbEntity
8
0
100
AcDbLine
10
44.00000000000005
20
44.00000000000005
30
0
11
9.9999999999999893
21
44.000000000000014
31
0
0
LINE
5
151
100
AcDbEntity
8
0
100
AcDbLine
10
0
20
34
30
0
11
0
21
0
31
0
0
LINE
5
152
100
AcDbEntity
8
0
100
AcDbLine
10
0
20
34
30
0
11
4.9999999999999947
21
39.000000000000014
31
0
0
LINE
5
153
100
AcDbEntity
8
0
100
AcDbLine
10
10
20
34.000000000000014
30
0
11
10
21
0
31
0
0
LINE
5
154
100
AcDbEntity
8
0
100
AcDbLine
10
10
20
0
30
0
11
44
21
2.0289325775024707e-14
31
0
0
LINE
5
155
100
AcDbEntity
8
0
100
AcDbLine
10
44
20
2.0289325775024707e-14
30
0
11
44.000000000000021
21
34.000000000000043
31
0
0
LINE
5
156
100
AcDbEntity
8
0
100
AcDbLine
10
10
20
0
30
0
11
5
21
-5
31
0
0
LINE
5
157
100
AcDbEntity
8
0
100
AcDbLine
10
0
20
0
30
0
11
5
21
-5
31
0
0
LINE
5
158
100
AcDbEntity
8
0
100
AcDbLine
10
44
20
2.0289325775024707e-14
30
0
11
49.000000000000021
21
-4.9999999999999698
31
0
0
LINE
5
159
100
AcDbEntity
8
0
100
AcDbLine
10
49.000000000000021
20
-4.9999999999999698
30
0
11
54.000000000000021
21
3.9968028886505635e-14
31
0
0
LINE
5
160
100
AcDbEntity
8
0
100
AcDbLine
10
54.000000000000021
20
3.9968028886505635e-14
30
0
11
54.000000000000021
21
34.000000000000043
31
0
0
LINE
5
161
100
AcDbEntity
8
0
100
AcDbLine
10
54.000000000000021
20
34.000000000000043
30
0
11
49.000000000000043
21
39.00000000000005
31
0
0
LINE
5
162
100
AcDbEntity
8
0
100
AcDbLine
10
49.000000000000021
20
-4.9999999999999698
30
0
11
44.000000000000014
21
-9.9999999999999805
31
0
0
LINE
5
163
100
AcDbEntity
8
0
100
AcDbLine
10
10
20
-10
30
0
11
44.000000000000014
21
-9.9999999999999805
31
0
0
LINE
5
164
100
AcDbEntity
8
0
100
AcDbLine
10
10
20
-10
30
0
11
5
21
-5
31
0
0
LINE
5
165
100
AcDbEntity
8
0
100
AcDbLine
10
-5
20
93.000000000000028
30
0
11
59.000000000000021
21
93.000000000000028
31
0
0
LINE
5
166
100
AcDbEntity
8
0
100
AcDbLine
10
59.000000000000021
20
93.000000000000028
30
0
11
59.000000000000021
21
-14.999999999999982
31
0
0
LINE
5
167
100
AcDbEntity
8
0
100
AcDbLine
10
59.000000000000021
20
-14.999999999999982
30
0
11
-5
21
-14.999999999999982
31
0
0
LINE
5
168
100
AcDbEntity
8
0
100
AcDbLine
10
-5
20
-14.999999999999982
30
0
11
-5
21
93.000000000000028
31
0
0
LWPOLYLINE
5
169
100
AcDbEntity
8
0
100
AcDbPolyline
90
6
70
1
43
0.0
10
43.689339828220142
20
87.250000000000071
10
10.310660171779794
20
87.250000000000028
10
6.0606601717798059
20
83
10
10.310660171779809
20
78.750000000000014
10
43.689339828220156
20
78.750000000000057
10
47.939339828220184
20
83.000000000000057
0
LWPOLYLINE
5
170
100
AcDbEntity
8
0
100
AcDbPolyline
90
6
70
1
43
0.0
10
0.74999999999998901
20
77.689339828220199
10
0.74999999999998901
20
44.31066017177983
10
4.9999999999999929
20
40.06066017177983
10
9.2499999999999893
20
44.310660171779837
10
9.2499999999999876
20
77.689339828220199
10
4.9999999999999893
20
81.939339828220184
0
LWPOLYLINE
5
171
100
AcDbEntity
8
0
100
AcDbPolyline
90
6
70
1
43
0.0
10
0.75000000000000011
20
0.31066017177982186
10
0.75000000000000011
20
33.689339828220184
10
4.9999999999999956
20
37.939339828220191
10
9.25
20
33.689339828220191
10
9.25
20
0.31066017177982186
10
4.9999999999999991
20
-3.9393398282201781
0
LWPOLYLINE
5
172
100
AcDbEntity
8
0
100
AcDbPolyline
90
6
70
1
43
0.0
10
47.93933982822022
20
39.00000000000005
10
43.689339828220206
20
34.750000000000043
10
10.310660171779817
20
34.750000000000014
10
6.0606601717798148
20
39.000000000000014
10
10.310660171779812
20
43.250000000000014
10
43.689339828220227
20
43.250000000000043
0
LWPOLYLINE
5
173
100
AcDbEntity
8
0
100
AcDbPolyline
90
6
70
1
43
0.0
10
44.749999999999986
20
77.689339828220227
10
49.000000000000021
20
81.939339828220241
10
53.250000000000043
20
77.689339828220227
10
53.250000000000043
20
44.310660171779865
10
49.000000000000043
20
40.060660171779865
10
44.75
20
44.310660171779915
0
LWPOLYLINE
5
174
100
AcDbEntity
8
0
100
AcDbPolyline
90
6
70
1
43
0.0
10
53.250000000000021
20
0.31066017177985794
10
49.000000000000021
20
-3.9393398282201497
10
44.750000000000007
20
0.31066017177983962
10
44.750000000000021
20
33.689339828220227
10
49.000000000000043
20
37.939339828220227
10
53.250000000000021
20
33.689339828220227
0
LWPOLYLINE
5
175
100
AcDbEntity
8
0
100
AcDbPolyline
90
6
70
1
43
0.0
10
43.689339828220184
20
-0.74999999999998002
10
10.310660171779823
20
-0.75000000000000011
10
6.0606601717798236
20
-5
10
10.310660171779823
20
-9.25
10
43.689339828220199
20
-9.2499999999999787
10
47.939339828220199
20
-4.9999999999999734
0
ENDSEC
0
SECTION
2
OBJECTS
0
DICTIONARY
5
C
100
AcDbDictionary
3
ACAD_GROUP
350
D
3
ACAD_MLINESTYLE
350
17
0
DICTIONARY
5
D
100
AcDbDictionary
0
DICTIONARY
5
1A
330
C
100
AcDbDictionary
0
DICTIONARY
5
17
100
AcDbDictionary
0
ENDSEC
0
EOF
