0
SECTION
2
HEADER
9
$INSUNITS
70
4
9
$ACADVER
1
AC1014
9
$HANDSEED
5
FFFF
0
ENDSEC
0
SECTION
2
TABLES
0
TABLE
2
VPORT
5
8
100
AcDbSymbolTable
0
ENDTAB
0
TABLE
2
LTYPE
5
5
100
AcDbSymbolTable
0
LTYPE
5
14
100
AcDbSymbolTableRecord
100
AcDbLinetypeTableRecord
2
BYBLOCK
70
0
0
LTYPE
5
15
100
AcDbSymbolTableRecord
100
AcDbLinetypeTableRecord
2
BYLAYER
70
0
0
ENDTAB
0
TABLE
2
LAYER
5
2
100
AcDbSymbolTable
70
2
0
LAYER
5
50
100
AcDbSymbolTableRecord
100
AcDbLayerTableRecord
2
0
70
0
6
CONTINUOUS
0
ENDTAB
0
TABLE
2
STYLE
5
3
100
AcDbSymbolTable
70
1
0
STYLE
5
11
100
AcDbSymbolTableRecord
100
AcDbTextStyleTableRecord
2
STANDARD
70
0
0
ENDTAB
0
TABLE
2
VIEW
5
6
100
AcDbSymbolTable
70
0
0
ENDTAB
0
TABLE
2
UCS
5
7
100
AcDbSymbolTable
70
0
0
ENDTAB
0
TABLE
2
APPID
5
9
100
AcDbSymbolTable
70
2
0
APPID
5
12
100
AcDbSymbolTableRecord
100
AcDbRegAppTableRecord
2
ACAD
70
0
0
ENDTAB
0
TABLE
2
DIMSTYLE
5
A
100
AcDbSymbolTable
70
1
0
ENDTAB
0
TABLE
2
BLOCK_RECORD
5
1
100
AcDbSymbolTable
70
1
0
BLOCK_RECORD
5
1F
100
AcDbSymbolTableRecord
100
AcDbBlockTableRecord
2
*MODEL_SPACE
0
BLOCK_RECORD
5
1B
100
AcDbSymbolTableRecord
100
AcDbBlockTableRecord
2
*PAPER_SPACE
0
ENDTAB
0
ENDSEC
0
SECTION
2
BLOCKS
0
BLOCK
5
20
100
AcDbEntity
100
AcDbBlockBegin
2
*MODEL_SPACE
0
ENDBLK
5
21
100
AcDbEntity
100
AcDbBlockEnd
0
BLOCK
5
1C
100
AcDbEntity
100
AcDbBlockBegin
2
*PAPER_SPACE
0
ENDBLK
5
1D
100
AcDbEntity
100
AcDbBlockEnd
0
ENDSEC
0
SECTION
2
ENTITIES
0
LWPOLYLINE
5
100
100
AcDbEntity
8
0
100
AcDbPolyline
90
4
70
1
43
0.0
10
59.000000000000021
20
93.000000000000028
10
-5
20
93.000000000000028
10
-5
20
-14.999999999999982
10
59.000000000000021
20
-14.999999999999982
0
LWPOLYLINE
5
101
100
AcDbEntity
8
0
100
AcDbPolyline
90
12
70
1
43
0.0
10
43.06801948466051
20
87.250000000000071
10
10.931980515339443
20
87.250000000000028
42
0.19891236737965734
10
9.87132034355961
20
86.810660171779844
10
7.1213203435596135
20
84.060660171779858
42
0.41421356237309537
10
7.1213203435596206
20
81.939339828220184
10
9.8713203435596242
20
79.189339828220199
42
0.19891236737965662
10
10.931980515339452
20
78.750000000000014
10
43.06801948466051
20
78.750000000000057
42
0.19891236737967274
10
44.128679656440333
20
79.189339828220241
10
46.87867965644034
20
81.939339828220227
42
0.41421356237310486
10
46.87867965644034
20
84.060660171779901
10
44.128679656440326
20
86.810660171779887
42
0.19891236737965756
0
LWPOLYLINE
5
102
100
AcDbEntity
8
0
100
AcDbPolyline
90
12
70
1
43
0.0
10
52.810660171779858
20
78.128679656440426
10
50.060660171779858
20
80.878679656440397
42
0.41421356237308521
10
47.939339828220184
20
80.878679656440426
10
45.18933982822017
20
78.128679656440426
42
0.19891236737965584
10
44.749999999999986
20
77.068019484660581
10
44.75
20
44.931980515339561
42
0.19891236737965912
10
45.189339828220184
20
43.871320343559731
10
47.939339828220199
20
41.121320343559695
42
0.41421356237309248
10
50.060660171779887
20
41.121320343559702
10
52.810660171779858
20
43.871320343559681
42
0.19891236737965584
10
53.250000000000043
20
44.931980515339518
10
53.250000000000036
20
77.068019484660581
42
0.19891236737965584
0
LWPOLYLINE
5
103
100
AcDbEntity
8
0
100
AcDbPolyline
90
12
70
1
43
0.0
10
52.810660171779837
20
34.128679656440411
10
50.060660171779865
20
36.87867965644039
42
0.4142135623730932
10
47.939339828220213
20
36.87867965644039
10
45.189339828220213
20
34.128679656440411
42
0.19891236737966414
10
44.750000000000021
20
33.068019484660567
10
44.750000000000007
20
0.93198051533949655
42
0.19891236737965751
10
45.189339828220191
20
-0.12867965644034418
10
47.939339828220184
20
-2.8786796564403172
42
0.41421356237309298
10
50.060660171779858
20
-2.8786796564403128
10
52.810660171779837
20
-0.12867965644032739
42
0.19891236737965665
10
53.250000000000021
20
0.9319805153395011
10
53.250000000000021
20
33.068019484660581
42
0.19891236737965723
0
LWPOLYLINE
5
104
100
AcDbEntity
8
0
100
AcDbPolyline
90
12
70
1
43
0.0
10
9.8713203435596277
20
42.81066017177983
10
7.1213203435596508
20
40.060660171779851
42
0.41421356237309342
10
7.1213203435596508
20
37.939339828220177
10
9.8713203435596313
20
35.189339828220199
42
0.19891236737965201
10
10.931980515339475
20
34.750000000000014
10
43.06801948466056
20
34.75000000000005
42
0.1989123673796612
10
44.12867965644039
20
35.189339828220227
10
46.878679656440383
20
37.939339828220213
42
0.41421356237309509
10
46.878679656440383
20
40.060660171779887
10
44.128679656440411
20
42.810660171779858
42
0.19891236737965584
10
43.068019484660581
20
43.250000000000043
10
10.931980515339463
20
43.250000000000014
42
0.19891236737965892
0
LWPOLYLINE
5
105
100
AcDbEntity
8
0
100
AcDbPolyline
90
12
70
1
43
0.0
10
43.068019484660525
20
-0.74999999999998046
10
10.931980515339458
20
-0.74999999999999933
42
0.19891236737965279
10
9.8713203435596402
20
-1.1893398282201657
10
7.1213203435590895
20
-3.9393398282201648
42
0.41421356237301615
10
7.1213203435593728
20
-6.060660171779551
10
9.8713203435596384
20
-8.8106601717798156
42
0.19891236737965853
10
10.931980515339475
20
-9.25
10
43.068019484660539
20
-9.2499999999999805
42
0.19891236737965773
10
44.128679656440383
20
-8.8106601717797961
10
46.878679656440369
20
-6.0606601717798121
42
0.41421356237309892
10
46.878679656440355
20
-3.9393398282201368
10
44.128679656440369
20
-1.1893398282201593
42
0.19891236737965667
0
LWPOLYLINE
5
106
100
AcDbEntity
8
0
100
AcDbPolyline
90
12
70
1
43
0.0
10
1.1893398282201839
20
-0.1286796564403625
10
3.9393398282201639
20
-2.8786796564403434
42
0.41421356237309448
10
6.0606601717798334
20
-2.8786796564403438
10
8.8106601717798156
20
-0.12867965644036236
42
0.19891236737965903
10
9.25
20
0.93198051533947446
10
9.2500000000000036
20
33.068019484660539
42
0.19891236737965831
10
8.8106601717798192
20
34.128679656440369
10
6.0606601717798299
20
36.878679656440362
42
0.41421356237309365
10
3.9393398282201622
20
36.878679656440355
10
1.1893398282201835
20
34.128679656440369
42
0.1989123673796577
10
0.75000000000000011
20
33.068019484660532
10
0.75000000000000011
20
0.93198051533947235
42
0.19891236737965792
0
LWPOLYLINE
5
107
100
AcDbEntity
8
0
100
AcDbPolyline
90
12
70
1
43
0.0
10
8.8106601717798014
20
78.128679656440383
10
6.060660171779821
20
80.878679656440355
42
0.41421356237309631
10
3.9393398282201564
20
80.878679656440355
10
1.1893398282201757
20
78.128679656440383
42
0.19891236737966159
10
0.74999999999998901
20
77.068019484660539
10
0.74999999999998623
20
44.931980515339482
42
0.19891236737965906
10
1.1893398282201739
20
43.871320343559645
10
3.9393398282201582
20
41.121320343559667
42
0.41421356237310619
10
6.0606601717798236
20
41.121320343559667
10
8.8106601717798068
20
43.871320343559653
42
0.19891236737965715
10
9.2499999999999893
20
44.93198051533949
10
9.2499999999999858
20
77.068019484660539
42
0.19891236737966134
0
ENDSEC
0
SECTION
2
OBJECTS
0
DICTIONARY
5
C
100
AcDbDictionary
3
ACAD_GROUP
350
D
3
ACAD_MLINESTYLE
350
17
0
DICTIONARY
5
D
100
AcDbDictionary
0
DICTIONARY
5
1A
330
C
100
AcDbDictionary
0
DICTIONARY
5
17
100
AcDbDictionary
0
ENDSEC
0
EOF
ONARY
5
17
100
AcDbDictionary
0
ENDSEC
0
EOF
