<?xml version="1.0" encoding="UTF-8" standalone="no"?>
<svg
   xmlns:dc="http://purl.org/dc/elements/1.1/"
   xmlns:cc="http://creativecommons.org/ns#"
   xmlns:rdf="http://www.w3.org/1999/02/22-rdf-syntax-ns#"
   xmlns:svg="http://www.w3.org/2000/svg"
   xmlns="http://www.w3.org/2000/svg"
   xmlns:sodipodi="http://sodipodi.sourceforge.net/DTD/sodipodi-0.dtd"
   xmlns:inkscape="http://www.inkscape.org/namespaces/inkscape"
   width="793.700787402"
   height="1122.51968504"
   version="1.1"
   id="svg130"
   sodipodi:docname="single-digit-seven-segment.svg"
   inkscape:export-filename="/Volumes/usb1/Timing-Gate/gate-controller/single-digit.png"
   inkscape:export-xdpi="96"
   inkscape:export-ydpi="96"
   inkscape:version="0.92.2 5c3e80d, 2017-08-06">
  <metadata
     id="metadata134">
    <rdf:RDF>
      <cc:Work
         rdf:about="">
        <dc:format>image/svg+xml</dc:format>
        <dc:type
           rdf:resource="http://purl.org/dc/dcmitype/StillImage" />
        <dc:title></dc:title>
      </cc:Work>
    </rdf:RDF>
  </metadata>
  <sodipodi:namedview
     pagecolor="#ffffff"
     bordercolor="#666666"
     borderopacity="1"
     objecttolerance="10"
     gridtolerance="10"
     guidetolerance="10"
     inkscape:pageopacity="0"
     inkscape:pageshadow="2"
     inkscape:window-width="2196"
     inkscape:window-height="1147"
     id="namedview132"
     showgrid="false"
     inkscape:zoom="1.4142136"
     inkscape:cx="123.72746"
     inkscape:cy="299.77761"
     inkscape:window-x="0"
     inkscape:window-y="0"
     inkscape:window-maximized="0"
     inkscape:current-layer="g128" />
  <desc
     id="desc2">/Volumes/usb1/Timing-Gate/gate-controller/single-digit-seven-segment.dxf - scale = 1.000000, origin = (0.000000, 0.000000), method = manual</desc>
  <defs
     id="defs16">
    <marker
       id="DistanceX"
       orient="auto"
       refX="0.0"
       refY="0.0"
       style="overflow:visible">
      <path
         d="M 3,-3 L -3,3 M 0,-5 L  0,5"
         style="stroke:#000000; stroke-width:0.5"
         id="path4" />
    </marker>
    <pattern
       height="8"
       id="Hatch"
       patternUnits="userSpaceOnUse"
       width="8"
       x="0"
       y="0">
      <path
         d="M8 4 l-4,4"
         linecap="square"
         stroke="#000000"
         stroke-width="0.25"
         id="path7" />
      <path
         d="M6 2 l-4,4"
         linecap="square"
         stroke="#000000"
         stroke-width="0.25"
         id="path9" />
      <path
         d="M4 0 l-4,4"
         linecap="square"
         stroke="#000000"
         stroke-width="0.25"
         id="path11" />
    </pattern>
    <symbol
       id="*MODEL_SPACE" />
    <symbol
       id="*PAPER_SPACE" />
  </defs>
  <g
     inkscape:groupmode="layer"
     inkscape:label="0"
     id="g128">
    <path
       d="M 399.779369,536.692913 184.696019,536.692913"
       style="stroke:#000000;fill:none"
       id="path24" />
    <path
       d="M 462.370014,541.551780 427.594000,738.776357"
       style="stroke:#000000;fill:none"
       id="path34" />
    <path
       d="M 369.862222,739.708062 404.638236,542.483486"
       style="stroke:#000000;fill:none"
       id="path36" />
    <path
       d="M 148.988300,744.566929 364.071650,744.566929"
       style="stroke:#000000;fill:none"
       id="path46" />
    <path
       d="M 86.397655,739.708062 121.173670,542.483486"
       style="stroke:#000000;fill:none"
       id="path52" />
    <path
       d="M 39.747368,1004.274991 74.523382,807.050415"
       style="stroke:#000000;fill:none"
       id="path70" />
    <path
       d="M 132.255159,806.118710 97.479145,1003.343286"
       style="stroke:#000000;fill:none"
       id="path72" />
    <path
       d="M 323.211935,1004.274991 357.987949,807.050415"
       style="stroke:#000000;fill:none"
       id="path74" />
    <path
       d="M 415.719726,806.118710 380.943712,1003.343286"
       style="stroke:#000000;fill:none"
       id="path76" />
    <path
       d="M 353.129082,801.259843 138.045732,801.259843"
       style="stroke:#000000;fill:none"
       id="path78" />
    <path
       d="M 102.338012,1009.133858 317.421362,1009.133858"
       style="stroke:#000000;fill:none"
       id="path80" />
    <path
       d="M 91.395444,1065.826772 306.478794,1065.826772"
       style="stroke:#000000;fill:none"
       id="path90" />
    <path
       d="M 474.063340,1065.826772 A 28.346457,28.346457 -0.000000 1 0 417.370427,1065.826772 28.346457,28.346457 -0.000000 1 0 474.063340,1065.826772 z"
       style="stroke:#000000;fill:none"
       id="path100" />
    <path
       d="M 407.197093,480.000000 L 198.389859,480.000000 A 7.559055,7.559055 0.0 0 0 193.530992,481.768483 L 167.091987,503.953442 A 7.559055,7.559055 0.0 0 0 166.160282,514.602881 L 182.430293,533.992725 A 7.559055,7.559055 0.0 0 0 188.220865,536.692913 L 397.028098,536.692913 A 7.559055,7.559055 0.0 0 0 401.886965,534.924430 L 428.325970,512.739471 A 7.559055,7.559055 0.0 0 0 429.257676,502.090032 L 412.987665,482.700188 A 7.559055,7.559055 0.0 0 0 407.197093,480.000000 z"
       style="stroke:#000000;fill:none"
       id="path104" />
    <path
       d="M 149.720270,518.530043 L 123.281265,540.715003 A 7.559055,7.559055 0.0 0 0 120.695916,545.192959 L 87.009738,736.236767 A 7.559055,7.559055 0.0 0 0 88.663382,742.408250 L 104.933393,761.798094 A 7.559055,7.559055 0.0 0 0 115.582832,762.729799 L 142.021837,740.544840 A 7.559055,7.559055 0.0 0 0 144.607186,736.066884 L 178.293364,545.023075 A 7.559055,7.559055 0.0 0 0 176.639720,538.851592 L 160.369710,519.461748 A 7.559055,7.559055 0.0 0 0 149.720270,518.530043 z"
       style="stroke:#000000;fill:none"
       id="path106" />
    <path
       d="M 460.104287,538.851592 L 443.834277,519.461748 A 7.559055,7.559055 0.0 0 0 433.184837,518.530043 L 406.745832,540.715003 A 7.559055,7.559055 0.0 0 0 404.160483,545.192959 L 370.474305,736.236767 A 7.559055,7.559055 0.0 0 0 372.127949,742.408250 L 388.397960,761.798094 A 7.559055,7.559055 0.0 0 0 399.047399,762.729799 L 425.486404,740.544840 A 7.559055,7.559055 0.0 0 0 428.071753,736.066884 L 461.757931,545.023075 A 7.559055,7.559055 0.0 0 0 460.104287,538.851592 z"
       style="stroke:#000000;fill:none"
       id="path108" />
    <path
       d="M 146.880704,746.335412 L 120.441699,768.520371 A 7.559055,7.559055 0.0 0 0 119.509994,779.169811 L 135.780005,798.559654 A 7.559055,7.559055 0.0 0 0 141.570577,801.259843 L 350.377811,801.259843 A 7.559055,7.559055 0.0 0 0 355.236678,799.491360 L 381.675683,777.306400 A 7.559055,7.559055 0.0 0 0 382.607388,766.656961 L 366.337377,747.267117 A 7.559055,7.559055 0.0 0 0 360.546805,744.566929 L 151.739571,744.566929 A 7.559055,7.559055 0.0 0 0 146.880704,746.335412 z"
       style="stroke:#000000;fill:none"
       id="path110" />
    <path
       d="M 129.989433,803.418521 L 113.719422,784.028678 A 7.559055,7.559055 0.0 0 0 103.069983,783.096972 L 76.630978,805.281932 A 7.559055,7.559055 0.0 0 0 74.045629,809.759888 L 40.359451,1000.803696 A 7.559055,7.559055 0.0 0 0 42.013095,1006.975179 L 58.283105,1026.365023 A 7.559055,7.559055 0.0 0 0 68.932544,1027.296728 L 95.371549,1005.111769 A 7.559055,7.559055 0.0 0 0 97.956899,1000.633813 L 131.643076,809.590005 A 7.559055,7.559055 0.0 0 0 129.989433,803.418521 z"
       style="stroke:#000000;fill:none"
       id="path112" />
    <path
       d="M 413.454000,803.418521 L 397.183989,784.028678 A 7.559055,7.559055 0.0 0 0 386.534550,783.096972 L 360.095545,805.281932 A 7.559055,7.559055 0.0 0 0 357.510195,809.759888 L 323.824018,1000.803696 A 7.559055,7.559055 0.0 0 0 325.477661,1006.975179 L 341.747672,1026.365023 A 7.559055,7.559055 0.0 0 0 352.397111,1027.296728 L 378.836116,1005.111769 A 7.559055,7.559055 0.0 0 0 381.421465,1000.633813 L 415.107643,809.590005 A 7.559055,7.559055 0.0 0 0 413.454000,803.418521 z"
       style="stroke:#000000;fill:none"
       id="path114" />
    <path
       d="M 94.920289,1065.826772 L 303.727523,1065.826772 A 7.559055,7.559055 0.0 0 0 308.586390,1064.058289 L 335.025395,1041.873329 A 7.559055,7.559055 0.0 0 0 335.957100,1031.223890 L 319.687089,1011.834046 A 7.559055,7.559055 0.0 0 0 313.896517,1009.133858 L 105.089283,1009.133858 A 7.559055,7.559055 0.0 0 0 100.230416,1010.902341 L 73.791411,1033.087301 A 7.559055,7.559055 0.0 0 0 72.859706,1043.736740 L 89.129717,1063.126584 A 7.559055,7.559055 0.0 0 0 94.920289,1065.826772 z"
       style="stroke:#000000;fill:none"
       id="path116" />
    <path
       d="M 474.063340,1065.826772 A 28.346457,28.346457 -0.000000 1 0 417.370427,1065.826772 28.346457,28.346457 -0.000000 1 0 474.063340,1065.826772 z"
       style="stroke:#000000;fill:none"
       id="path118" />
    <path
       d="M 0.000000,442.204724 0.000000,1122.519685"
       style="stroke:#000000;fill:none"
       id="path120" />
    <path
       d="M 510.236220,442.204724 0.000000,442.204724"
       style="stroke:#000000;fill:none"
       id="path122" />
    <path
       d="M 510.236220,1122.519685 510.236220,442.204724"
       style="stroke:#000000;fill:none"
       id="path124" />
    <path
       d="M 0.000000,1122.519685 510.236220,1122.519685"
       style="stroke:#000000;fill:none"
       id="path126" />
  </g>
</svg>
