0
SECTION
2
HEADER
9
$INSUNITS
70
4
9
$ACADVER
1
AC1014
9
$HANDSEED
5
FFFF
0
ENDSEC
0
SECTION
2
TABLES
0
TABLE
2
VPORT
5
8
100
AcDbSymbolTable
0
ENDTAB
0
TABLE
2
LTYPE
5
5
100
AcDbSymbolTable
0
LTYPE
5
14
100
AcDbSymbolTableRecord
100
AcDbLinetypeTableRecord
2
BYBLOCK
70
0
0
LTYPE
5
15
100
AcDbSymbolTableRecord
100
AcDbLinetypeTableRecord
2
BYLAYER
70
0
0
ENDTAB
0
TABLE
2
LAYER
5
2
100
AcDbSymbolTable
70
2
0
LAYER
5
50
100
AcDbSymbolTableRecord
100
AcDbLayerTableRecord
2
0
70
0
6
CONTINUOUS
0
ENDTAB
0
TABLE
2
STYLE
5
3
100
AcDbSymbolTable
70
1
0
STYLE
5
11
100
AcDbSymbolTableRecord
100
AcDbTextStyleTableRecord
2
STANDARD
70
0
0
ENDTAB
0
TABLE
2
VIEW
5
6
100
AcDbSymbolTable
70
0
0
ENDTAB
0
TABLE
2
UCS
5
7
100
AcDbSymbolTable
70
0
0
ENDTAB
0
TABLE
2
APPID
5
9
100
AcDbSymbolTable
70
2
0
APPID
5
12
100
AcDbSymbolTableRecord
100
AcDbRegAppTableRecord
2
ACAD
70
0
0
ENDTAB
0
TABLE
2
DIMSTYLE
5
A
100
AcDbSymbolTable
70
1
0
ENDTAB
0
TABLE
2
BLOCK_RECORD
5
1
100
AcDbSymbolTable
70
1
0
BLOCK_RECORD
5
1F
100
AcDbSymbolTableRecord
100
AcDbBlockTableRecord
2
*MODEL_SPACE
0
BLOCK_RECORD
5
1B
100
AcDbSymbolTableRecord
100
AcDbBlockTableRecord
2
*PAPER_SPACE
0
ENDTAB
0
ENDSEC
0
SECTION
2
BLOCKS
0
BLOCK
5
20
100
AcDbEntity
100
AcDbBlockBegin
2
*MODEL_SPACE
0
ENDBLK
5
21
100
AcDbEntity
100
AcDbBlockEnd
0
BLOCK
5
1C
100
AcDbEntity
100
AcDbBlockBegin
2
*PAPER_SPACE
0
ENDBLK
5
1D
100
AcDbEntity
100
AcDbBlockEnd
0
ENDSEC
0
SECTION
2
ENTITIES
0
LWPOLYLINE
5
100
100
AcDbEntity
8
0
100
AcDbPolyline
90
6
70
1
43
0.0
10
16.860555748237857
20
-48.320358053758383
10
14.580913801996257
20
-50.599999999999994
10
-30.031256411571285
20
-50.600000000000016
10
-33.698096818722895
20
-46.933159592848398
10
-26.150531121473438
20
-40.600000000000023
10
10.382406152772642
20
-40.600000000000016
0
LWPOLYLINE
5
101
100
AcDbEntity
8
0
100
AcDbPolyline
90
6
70
1
43
0.0
10
21.651981613861775
20
-43.528932188134448
10
18.635075283779056
20
-46.54583851821716
10
12.297517260570013
20
-38.993030975783554
10
17.399004206600893
20
-10.061060805740578
10
23.705923803786334
20
-4.7689268978775221
10
27.647170865203456
20
-9.5285243818317511
0
LWPOLYLINE
5
102
100
AcDbEntity
8
0
100
AcDbPolyline
90
6
70
1
43
0.0
10
36.516188743379068
20
40.770175468531981
10
30.711693127009383
20
7.8512450073627091
10
24.644949641685852
20
3.9809906636301267
10
20.489778804612101
20
7.4675929804973373
10
25.994230338605607
20
38.68488889220265
10
33.541796035854929
20
45.018048485050841
0
LWPOLYLINE
5
103
100
AcDbEntity
8
0
100
AcDbPolyline
90
6
70
1
43
0.0
10
-25.500000000000004
20
0
10
-19.541232037028955
20
4.9999999999999991
10
19.541232037028955
20
4.9999999999999991
10
25.500000000000004
20
0
10
19.541232037028955
20
-4.9999999999999991
10
-19.541232037028955
20
-4.9999999999999991
0
LWPOLYLINE
5
104
100
AcDbEntity
8
0
100
AcDbPolyline
90
6
70
1
43
0.0
10
-35.472616354264076
20
-45.158640057307188
10
-38.516537785809788
20
-42.114718625761469
10
-32.183769066823629
20
-6.1998025219301667
10
-26.725051061940832
20
-2.2355783290828111
10
-22.025787113123197
20
-6.1787289753404062
10
-27.757500145689828
20
-38.684888892202615
0
LWPOLYLINE
5
105
100
AcDbEntity
8
0
100
AcDbPolyline
90
6
70
1
43
0.0
10
-20.398345090863309
20
46.545838518217224
10
-14.06078706765423
20
38.993030975783654
10
-19.468462602420377
20
8.3245790290717778
10
-24.798462920008838
20
3.852177728408499
10
-29.529286166237341
20
8.8545180926514853
10
-23.415251420946021
20
43.528932188134448
0
LWPOLYLINE
5
106
100
AcDbEntity
8
0
100
AcDbPolyline
90
6
70
1
43
0.0
10
32.102377522963444
20
47.073751165104511
10
24.387261314389175
20
40.599999999999994
10
-12.145675959856801
20
40.599999999999994
10
-18.623825555322146
20
48.32035805375844
10
-16.344183609080645
20
50.599999999999994
10
29.633271507166423
20
50.599999999999987
0
CIRCLE
5
107
100
AcDbEntity
8
0
100
AcDbCircle
10
-35.000000000000007
20
53
30
0
40
4.9999999999999982
210
0
220
-0
230
1
0
LWPOLYLINE
5
108
100
AcDbEntity
8
0
100
AcDbPolyline
90
4
70
1
43
0.0
10
44.999999999999993
20
61.000000000000007
10
45
20
-60.999999999999986
10
-45
20
-60.999999999999979
10
-45.000000000000007
20
61.000000000000014
0
LINE
5
109
100
AcDbEntity
8
0
100
AcDbLine
10
-45
20
-60.999999999999986
30
0
11
45
21
-60.999999999999986
31
0
0
LINE
5
110
100
AcDbEntity
8
0
100
AcDbLine
10
45
20
-60.999999999999986
30
0
11
44.999999999999993
21
61.000000000000007
31
0
0
LWPOLYLINE
5
111
100
AcDbEntity
8
0
100
AcDbPolyline
90
6
70
1
43
0.0
10
32.102377522963444
20
47.073751165104497
10
29.63327150716642
20
50.599999999999987
10
-16.344183609080648
20
50.599999999999994
10
-18.623825555322146
20
48.32035805375844
10
-12.145675959856801
20
40.599999999999994
10
24.387261314389175
20
40.599999999999994
0
LWPOLYLINE
5
112
100
AcDbEntity
8
0
100
AcDbPolyline
90
6
70
1
43
0.0
10
30.711693127009383
20
7.8512450073627083
10
36.516188743379068
20
40.770175468531974
10
33.541796035854929
20
45.018048485050841
10
25.994230338605607
20
38.68488889220265
10
20.489778804612101
20
7.4675929804973347
10
24.644949641685852
20
3.9809906636301267
0
LWPOLYLINE
5
113
100
AcDbEntity
8
0
100
AcDbPolyline
90
6
70
1
43
0.0
10
14.580913801996259
20
-50.599999999999994
10
16.860555748237875
20
-48.320358053758383
10
10.382406152772642
20
-40.600000000000016
10
-26.150531121473438
20
-40.600000000000023
10
-33.698096818722895
20
-46.933159592848398
10
-30.031256411571281
20
-50.600000000000016
0
LWPOLYLINE
5
114
100
AcDbEntity
8
0
100
AcDbPolyline
90
6
70
1
43
0.0
10
-25.5
20
-2.7755575615628914e-14
10
-19.541232037028955
20
-4.9999999999999991
10
19.541232037028955
20
-4.9999999999999991
10
25.500000000000004
20
0
10
19.541232037028955
20
4.9999999999999991
10
-19.541232037028955
20
4.9999999999999991
0
LWPOLYLINE
5
115
100
AcDbEntity
8
0
100
AcDbPolyline
90
6
70
1
43
0.0
10
18.635075283779056
20
-46.54583851821716
10
21.651981613861771
20
-43.528932188134483
10
27.647170865203456
20
-9.5285243818317511
10
23.705923803786334
20
-4.7689268978775221
10
17.399004206600893
20
-10.061060805740581
10
12.297517260570013
20
-38.993030975783562
0
LWPOLYLINE
5
116
100
AcDbEntity
8
0
100
AcDbPolyline
90
6
70
1
43
0.0
10
-38.516537785809788
20
-42.114718625761469
10
-35.472616354264062
20
-45.158640057307153
10
-27.757500145689828
20
-38.684888892202608
10
-22.025787113123197
20
-6.1787289753404036
10
-26.725051061940832
20
-2.2355783290828111
10
-32.183769066823629
20
-6.1998025219301667
0
LWPOLYLINE
5
117
100
AcDbEntity
8
0
100
AcDbPolyline
90
6
70
1
43
0.0
10
-20.398345090863309
20
46.545838518217224
10
-23.415251420946021
20
43.528932188134448
10
-29.529286166237341
20
8.8545180926514853
10
-24.798462920008838
20
3.852177728408499
10
-19.468462602420377
20
8.3245790290717778
10
-14.06078706765423
20
38.993030975783654
0
ENDSEC
0
SECTION
2
OBJECTS
0
DICTIONARY
5
C
100
AcDbDictionary
3
ACAD_GROUP
350
D
3
ACAD_MLINESTYLE
350
17
0
DICTIONARY
5
D
100
AcDbDictionary
0
DICTIONARY
5
1A
330
C
100
AcDbDictionary
0
DICTIONARY
5
17
100
AcDbDictionary
0
ENDSEC
0
EOF
