0
SECTION
2
HEADER
9
$INSUNITS
70
4
9
$ACADVER
1
AC1014
9
$HANDSEED
5
FFFF
0
ENDSEC
0
SECTION
2
TABLES
0
TABLE
2
VPORT
5
8
100
AcDbSymbolTable
0
ENDTAB
0
TABLE
2
LTYPE
5
5
100
AcDbSymbolTable
0
LTYPE
5
14
100
AcDbSymbolTableRecord
100
AcDbLinetypeTableRecord
2
BYBLOCK
70
0
0
LTYPE
5
15
100
AcDbSymbolTableRecord
100
AcDbLinetypeTableRecord
2
BYLAYER
70
0
0
ENDTAB
0
TABLE
2
LAYER
5
2
100
AcDbSymbolTable
70
2
0
LAYER
5
50
100
AcDbSymbolTableRecord
100
AcDbLayerTableRecord
2
0
70
0
6
CONTINUOUS
0
ENDTAB
0
TABLE
2
STYLE
5
3
100
AcDbSymbolTable
70
1
0
STYLE
5
11
100
AcDbSymbolTableRecord
100
AcDbTextStyleTableRecord
2
STANDARD
70
0
0
ENDTAB
0
TABLE
2
VIEW
5
6
100
AcDbSymbolTable
70
0
0
ENDTAB
0
TABLE
2
UCS
5
7
100
AcDbSymbolTable
70
0
0
ENDTAB
0
TABLE
2
APPID
5
9
100
AcDbSymbolTable
70
2
0
APPID
5
12
100
AcDbSymbolTableRecord
100
AcDbRegAppTableRecord
2
ACAD
70
0
0
ENDTAB
0
TABLE
2
DIMSTYLE
5
A
100
AcDbSymbolTable
70
1
0
ENDTAB
0
TABLE
2
BLOCK_RECORD
5
1
100
AcDbSymbolTable
70
1
0
BLOCK_RECORD
5
1F
100
AcDbSymbolTableRecord
100
AcDbBlockTableRecord
2
*MODEL_SPACE
0
BLOCK_RECORD
5
1B
100
AcDbSymbolTableRecord
100
AcDbBlockTableRecord
2
*PAPER_SPACE
0
ENDTAB
0
ENDSEC
0
SECTION
2
BLOCKS
0
BLOCK
5
20
100
AcDbEntity
100
AcDbBlockBegin
2
*MODEL_SPACE
0
ENDBLK
5
21
100
AcDbEntity
100
AcDbBlockEnd
0
BLOCK
5
1C
100
AcDbEntity
100
AcDbBlockBegin
2
*PAPER_SPACE
0
ENDBLK
5
1D
100
AcDbEntity
100
AcDbBlockEnd
0
ENDSEC
0
SECTION
2
ENTITIES
0
LINE
5
100
100
AcDbEntity
8
0
100
AcDbLine
10
51.762709725585651
20
170
30
0
11
108.6701794116547
21
170
31
0
0
LINE
5
101
100
AcDbEntity
8
0
100
AcDbLine
10
42.67766600707418
20
162.37674316656756
30
0
11
51.762709725585651
21
170
31
0
0
LINE
5
102
100
AcDbEntity
8
0
100
AcDbLine
10
48.867488477430534
20
155
30
0
11
42.67766600707418
21
162.37674316656756
31
0
0
LINE
5
103
100
AcDbEntity
8
0
100
AcDbLine
10
105.77495815976954
20
155
30
0
11
48.867488477430534
21
155
31
0
0
LINE
5
104
100
AcDbEntity
8
0
100
AcDbLine
10
114.86000188046989
20
162.62325683526913
30
0
11
105.77495815976954
21
155
31
0
0
LINE
5
105
100
AcDbEntity
8
0
100
AcDbLine
10
108.6701794116547
20
170
30
0
11
114.86000188046989
21
162.62325683526913
31
0
0
LINE
5
106
100
AcDbEntity
8
0
100
AcDbLine
10
107.06053340232474
20
153.46791111376203
30
0
11
116.14557710942128
21
161.09116793761621
31
0
0
LINE
5
107
100
AcDbEntity
8
0
100
AcDbLine
10
116.14557710942128
20
161.09116793761621
30
0
11
122.33539958781476
21
153.71442476147038
31
0
0
LINE
5
108
100
AcDbEntity
8
0
100
AcDbLine
10
122.33539958781476
20
153.71442476147038
30
0
11
113.13424585662
21
101.53208888623794
31
0
0
LINE
5
109
100
AcDbEntity
8
0
100
AcDbLine
10
97.859379667752194
20
101.28557521937309
30
0
11
107.06053340232474
21
153.46791111376203
31
0
0
LINE
5
110
100
AcDbEntity
8
0
100
AcDbLine
10
104.04920213810854
20
93.908832052805508
30
0
11
97.859379667752194
21
101.28557521937309
31
0
0
LINE
5
111
100
AcDbEntity
8
0
100
AcDbLine
10
113.13424585662
20
101.53208888623794
30
0
11
104.04920213810854
21
93.908832052805508
31
0
0
LINE
5
112
100
AcDbEntity
8
0
100
AcDbLine
10
96.327290762062148
20
100
30
0
11
102.51711324045564
21
92.623256823854163
31
0
0
LINE
5
113
100
AcDbEntity
8
0
100
AcDbLine
10
102.51711324045564
20
92.623256823854163
30
0
11
93.432069533359112
21
85
31
0
0
LINE
5
114
100
AcDbEntity
8
0
100
AcDbLine
10
39.419821075993084
20
100
30
0
11
96.327290762062148
21
100
31
0
0
LINE
5
115
100
AcDbEntity
8
0
100
AcDbLine
10
47.33539958781477
20
153.71442476147035
30
0
11
38.134245860645542
21
101.53208890906784
31
0
0
LINE
5
116
100
AcDbEntity
8
0
100
AcDbLine
10
32.060533402324751
20
153.46791111376206
30
0
11
41.145577109421282
21
161.09116793761621
31
0
0
LINE
5
117
100
AcDbEntity
8
0
100
AcDbLine
10
22.859379667752183
20
101.28557521937307
30
0
11
32.060533402324751
21
153.46791111376206
31
0
0
LINE
5
118
100
AcDbEntity
8
0
100
AcDbLine
10
29.049202128530265
20
93.908832064220462
30
0
11
22.859379667752183
21
101.28557521937307
31
0
0
LINE
5
119
100
AcDbEntity
8
0
100
AcDbLine
10
38.134245860645542
20
101.53208890906784
30
0
11
29.049202128530265
21
93.908832064220462
31
0
0
LINE
5
120
100
AcDbEntity
8
0
100
AcDbLine
10
36.524599827837974
20
85
30
0
11
30.33477735748161
21
92.376743166567564
31
0
0
LINE
5
121
100
AcDbEntity
8
0
100
AcDbLine
10
30.33477735748161
20
92.376743166567564
30
0
11
39.419821075993084
21
100
31
0
0
LINE
5
122
100
AcDbEntity
8
0
100
AcDbLine
10
19.717644752732198
20
83.467911113762057
30
0
11
28.802688459828708
21
91.091167937616206
31
0
0
LINE
5
123
100
AcDbEntity
8
0
100
AcDbLine
10
28.802688459828708
20
91.091167937616206
30
0
11
34.99251093822221
21
83.714424761470354
31
0
0
LINE
5
124
100
AcDbEntity
8
0
100
AcDbLine
10
94.717644748706661
20
83.46791109093212
30
0
11
103.802688469407
21
91.091167926201251
31
0
0
LINE
5
125
100
AcDbEntity
8
0
100
AcDbLine
10
103.802688469407
20
91.091167926201251
30
0
11
109.99251093822221
21
83.714424761470369
31
0
0
LINE
5
126
100
AcDbEntity
8
0
100
AcDbLine
10
10.51649101815963
20
31.285575219373079
30
0
11
19.717644752732198
21
83.467911113762057
31
0
0
LINE
5
127
100
AcDbEntity
8
0
100
AcDbLine
10
34.99251093822221
20
83.714424761470354
30
0
11
25.79135721105299
21
31.532088909067859
31
0
0
LINE
5
128
100
AcDbEntity
8
0
100
AcDbLine
10
85.516491018159627
20
31.285575219373079
30
0
11
94.717644748706661
21
83.46791109093212
31
0
0
LINE
5
129
100
AcDbEntity
8
0
100
AcDbLine
10
109.99251093822221
20
83.714424761470369
30
0
11
100.791357211053
21
31.532088909067888
31
0
0
LINE
5
130
100
AcDbEntity
8
0
100
AcDbLine
10
93.432069533359112
20
85
30
0
11
36.524599827837974
21
85
31
0
0
LINE
5
131
100
AcDbEntity
8
0
100
AcDbLine
10
27.076932426400539
20
30
30
0
11
83.984402112469581
21
30.000000000000004
31
0
0
LINE
5
132
100
AcDbEntity
8
0
100
AcDbLine
10
27.076932426400539
20
30
30
0
11
17.991888707889068
21
22.376743166567561
31
0
0
LINE
5
133
100
AcDbEntity
8
0
100
AcDbLine
10
25.79135721105299
20
31.532088909067863
30
0
11
16.706313478937709
21
23.908832064220469
31
0
0
LINE
5
134
100
AcDbEntity
8
0
100
AcDbLine
10
16.706313478937709
20
23.908832064220469
30
0
11
10.51649101815963
21
31.285575219373079
31
0
0
LINE
5
135
100
AcDbEntity
8
0
100
AcDbLine
10
17.991888707889068
20
22.376743166567561
30
0
11
24.181711178245429
21
15.000000000000002
31
0
0
LINE
5
136
100
AcDbEntity
8
0
100
AcDbLine
10
24.181711178245429
20
15.000000000000002
30
0
11
81.089180860584449
21
15.000000000000004
31
0
0
LINE
5
137
100
AcDbEntity
8
0
100
AcDbLine
10
81.089180860584449
20
15.000000000000004
30
0
11
90.17422458128479
21
22.623256835269121
31
0
0
LINE
5
138
100
AcDbEntity
8
0
100
AcDbLine
10
90.17422458128479
20
22.623256835269121
30
0
11
83.984402112469581
21
30.000000000000004
31
0
0
LINE
5
139
100
AcDbEntity
8
0
100
AcDbLine
10
91.706313478937687
20
23.90883206422048
30
0
11
85.516491018159627
21
31.285575219373079
31
0
0
LINE
5
140
100
AcDbEntity
8
0
100
AcDbLine
10
100.791357211053
20
31.532088909067888
30
0
11
91.706313478937687
21
23.90883206422048
31
0
0
CIRCLE
5
141
100
AcDbEntity
8
0
100
AcDbCircle
10
117.9292588070098
20
15.000000000000004
30
0
40
7.5
210
0
220
-0
230
1
0
LINE
5
142
100
AcDbEntity
8
0
100
AcDbLine
10
41.145577109421282
20
161.09116793761621
30
0
11
47.33539958781477
21
153.71442476147035
31
0
0
LWPOLYLINE
5
143
100
AcDbEntity
8
0
100
AcDbPolyline
90
12
70
1
43
0.0
10
107.73756409534469
20
170
10
52.490650194118054
20
170
42
0.17632698070848857
10
51.205074974744981
20
169.53208888623794
10
44.20975489331213
20
163.66231838594064
42
0.41421356237310153
10
43.963241226447245
20
160.84465428032962
10
48.268014907502575
20
155.71442478062693
42
0.22169466264295412
10
49.800103793740533
20
155.00000000000003
10
105.04701769123714
20
155
42
0.1763269807084889
10
106.33259291061022
20
155.46791111376206
10
113.32791299423194
20
161.33768161589609
42
0.41421356237308971
10
113.57442666109679
20
164.1553457215071
10
109.26965298158265
20
169.2855752193731
42
0.22169466264292217
0
LWPOLYLINE
5
144
100
AcDbEntity
8
0
100
AcDbPolyline
90
12
70
1
43
0.0
10
39.613488223183325
20
159.80559271824316
10
32.618168153165428
20
153.93582222752411
42
0.17632698070846031
10
31.934127866514096
20
152.75102969662001
10
23.021326617893685
20
102.2040220134531
42
0.22169466264294002
10
23.458853237680131
20
100.57115043874616
10
27.763626909157189
20
95.440920950458406
42
0.4142135623730992
10
30.581291014768222
20
95.194407283593549
10
37.576611109804865
20
101.0641777953058
42
0.17632698070845595
10
38.260651396456211
20
102.2489703262099
10
47.173452637673272
20
152.79597796739034
42
0.22169466264293219
10
46.735926017886811
20
154.42884954209728
10
42.431152328794354
20
159.55907905137826
42
0.41421356237308959
0
LWPOLYLINE
5
145
100
AcDbEntity
8
0
100
AcDbPolyline
90
12
70
1
43
0.0
10
121.73592601788681
20
154.42884954209728
10
117.43115232879435
20
159.55907905137826
42
0.41421356237309864
10
114.61348822318331
20
159.80559271824313
10
107.61816815316541
20
153.93582222752406
42
0.17632698070846461
10
106.93412786651407
20
152.75102969661998
10
98.021326617893692
20
102.2040220134531
42
0.22169466264294266
10
98.458853237680145
20
100.57115043874616
10
102.76362691873547
20
95.440920939043465
42
0.4142135623731007
10
105.5812910243465
20
95.19440727217858
10
112.57661110577934
20
101.06417777247589
42
0.17632698070846461
10
113.26065139243067
20
102.24897030337999
10
122.17345263767326
20
152.79597796739037
42
0.22169466264293225
0
LWPOLYLINE
5
146
100
AcDbEntity
8
0
100
AcDbPolyline
90
12
70
1
43
0.0
10
38.862186325152408
20
99.532088886237943
10
31.866866243719567
20
93.662318385940637
42
0.41421356237309415
10
31.620352576854689
20
90.844654280329593
10
35.925126257910023
20
85.714424780626914
42
0.22169466264294696
10
37.457215144147966
20
85
10
92.704129064826731
20
85
42
0.1763269807084665
10
93.989704284199803
20
85.467911113762057
10
100.98502435421767
20
91.337681604481077
42
0.41421356237308765
10
101.23153802108256
20
94.155345710092121
10
96.9267643319901
20
99.285575219373072
42
0.22169466264295254
10
95.394675445752156
20
100
10
40.147761544525487
20
100
42
0.17632698070846323
0
LWPOLYLINE
5
147
100
AcDbEntity
8
0
100
AcDbPolyline
90
12
70
1
43
0.0
10
34.393037368294245
20
84.428849542097282
10
30.088263679201788
20
89.559079051378234
42
0.4142135623730876
10
27.270599573590744
20
89.805592718243119
10
20.275279503572872
20
83.935822227524113
42
0.17632698070845701
10
19.591239216921537
20
82.751029696620009
10
10.678437968301129
20
32.204022013453098
42
0.22169466264294191
10
11.115964588087586
20
30.571150438746159
10
15.420738259564629
20
25.440920950458427
42
0.41421356237309509
10
18.238402365175666
20
25.194407283593549
10
25.233722460212316
20
31.064177795305817
42
0.17632698070846115
10
25.917762746863655
20
32.248970326209907
10
34.830563988080705
20
82.795977967390328
42
0.22169466264293744
0
LWPOLYLINE
5
148
100
AcDbEntity
8
0
100
AcDbPolyline
90
12
70
1
43
0.0
10
109.39303736829424
20
84.428849542097296
10
105.08826368878007
20
89.559079039963279
42
0.41421356237308765
10
102.27059958316903
20
89.805592706828165
10
95.275279499547324
20
83.935822204694176
42
0.17632698070846461
10
94.591239212895999
20
82.751029673790072
10
85.678437968301125
20
32.204022013453091
42
0.22169466264294282
10
86.115964588087593
20
30.571150438746155
10
90.420738259564615
20
25.440920950458437
42
0.41421356237309415
10
93.238402365175659
20
25.194407283593559
10
100.23372246021232
20
31.064177795305842
42
0.17632698070847483
10
100.91776274686366
20
32.248970326209943
10
109.83056398808071
20
82.795977967390343
42
0.22169466264294266
0
LWPOLYLINE
5
149
100
AcDbEntity
8
0
100
AcDbPolyline
90
12
70
1
43
0.0
10
25.114326494555428
20
15.000000000000002
10
80.361240392052039
20
14.999999999999998
42
0.17632698070846428
10
81.646815611425126
20
15.467911113762041
10
88.642135695046846
20
21.337681615896045
42
0.41421356237309864
10
88.888649361911703
20
24.155345721507075
10
84.583875682397547
20
29.285575219373086
42
0.22169466264293813
10
83.051786796159575
20
30.000000000000004
10
27.804872894932942
20
30
42
0.17632698070846037
10
26.519297675559862
20
29.532088886237954
10
19.523977594127025
20
23.662318385940637
42
0.41421356237309576
10
19.277463927262147
20
20.844654280329603
10
23.58223760831747
20
15.714424780626924
42
0.22169466264293974
0
CIRCLE
5
150
100
AcDbEntity
8
0
100
AcDbCircle
10
117.9292588070098
20
15.000000000000004
30
0
40
7.5000000000000018
210
0
220
0
230
1
0
LINE
5
151
100
AcDbEntity
8
0
100
AcDbLine
10
0
20
180
30
0
11
0
21
0
31
0
0
LINE
5
152
100
AcDbEntity
8
0
100
AcDbLine
10
135
20
180
30
0
11
0
21
180
31
0
0
LINE
5
153
100
AcDbEntity
8
0
100
AcDbLine
10
135
20
0
30
0
11
135
21
180
31
0
0
LINE
5
154
100
AcDbEntity
8
0
100
AcDbLine
10
0
20
0
30
0
11
135
21
0
31
0
0
ENDSEC
0
SECTION
2
OBJECTS
0
DICTIONARY
5
C
100
AcDbDictionary
3
ACAD_GROUP
350
D
3
ACAD_MLINESTYLE
350
17
0
DICTIONARY
5
D
100
AcDbDictionary
0
DICTIONARY
5
1A
330
C
100
AcDbDictionary
0
DICTIONARY
5
17
100
AcDbDictionary
0
ENDSEC
0
EOF
